<?xml version="1.0" encoding="utf-8"?>
<!-- Generator: Adobe Illustrator 20.0.0, SVG Export Plug-In . SVG Version: 6.00 Build 0)  -->
<svg version="1.1" id="Layer_1" xmlns="http://www.w3.org/2000/svg" xmlns:xlink="http://www.w3.org/1999/xlink" x="0px" y="0px"
	 width="360px" height="2300.6px" viewBox="0 0 360 2300.6" style="enable-background:new 0 0 360 2300.6;" xml:space="preserve">
<style type="text/css">
	.st0{fill:none;stroke:#010203;stroke-width:10;stroke-miterlimit:10;}
</style>
<path id="mappathid" class="st0" d="M193.4,0c-2.8,59.6,2.2,120.6,16.2,178.6c10,25,26,46,37,71c12,28,7,58-4,85c-7,15-15,28-24,42
	c-17,25-35,43-53,68c-20,30-24,63-20,97c8,61,98,221,102,234c4,18,4,35-1,52c-8,25-106,136-128,163c-21,26-41,52-46,86
	c-1,8,0,16,3,23c1,1,2,3,3,5c20,26,54,23,83,19c34-6,68-18,101-9c16,9,27,27,25,45c-2,21-22,33-39,42c-40,19-83,29-118,58
	c-24,21-42,49-37,81c11,68,84,88,141,105c3,1,17,7,20,8c13,6,25,14,29,28c2,8,3,16,1,25c-1,6-3,11-5,17c-6,16-17,28-29,41
	c-17,17-60,66-62,71c-1,2-2,5-3,7c-3,7-4,14-4,21c-1,212,0,425,0.3,637"/>
</svg>
