<?xml version="1.0" encoding="UTF-8" standalone="no"?>
<!-- Creator: CorelDRAW X5 -->

<svg
   xmlns:dc="http://purl.org/dc/elements/1.1/"
   xmlns:cc="http://creativecommons.org/ns#"
   xmlns:rdf="http://www.w3.org/1999/02/22-rdf-syntax-ns#"
   xmlns:svg="http://www.w3.org/2000/svg"
   xmlns="http://www.w3.org/2000/svg"
   xmlns:sodipodi="http://sodipodi.sourceforge.net/DTD/sodipodi-0.dtd"
   xmlns:inkscape="http://www.inkscape.org/namespaces/inkscape"
   xml:space="preserve"
   width="360px"
   height="10000px"
   shape-rendering="geometricPrecision"
   text-rendering="geometricPrecision"
   image-rendering="optimizeQuality"
   fill-rule="evenodd"
   clip-rule="evenodd"
   viewBox="0 0 360 10000"
   id="svg2"
   version="1.1"
   inkscape:version="0.48.4 r9939"
   sodipodi:docname="map_path.svg"><metadata
     id="metadata13"><rdf:RDF><cc:Work
         rdf:about=""><dc:format>image/svg+xml</dc:format><dc:type
           rdf:resource="http://purl.org/dc/dcmitype/StillImage" /></cc:Work></rdf:RDF></metadata><defs
     id="defs11" /><sodipodi:namedview
     pagecolor="#ffffff"
     bordercolor="#666666"
     borderopacity="1"
     objecttolerance="10"
     gridtolerance="10"
     guidetolerance="10"
     inkscape:pageopacity="0"
     inkscape:pageshadow="2"
     inkscape:window-width="1600"
     inkscape:window-height="876"
     id="namedview9"
     showgrid="false"
     inkscape:zoom="0.32"
     inkscape:cx="140.98118"
     inkscape:cy="9111.1065"
     inkscape:window-x="0"
     inkscape:window-y="24"
     inkscape:window-maximized="1"
     inkscape:current-layer="Layer_x0020_1" /><g
     id="Layer_x0020_1"><metadata
       id="CorelCorpID_0Corel-Layer" /><path
       id="mappathid"
       d="m 190,82 c 2,28 -17,47 -22,65 -57,211 192,10 102,308 -14,99 -186,78 -184,177 2,101 206,61 196,161 -11,103 -252,21 -254,125 -3,136 265,162 278,297 9,91 -256,64 -253,145 8,241 250,182 246,248 -6,105 -241,59 -255,145 -3,128 234,14 244,93 31,255 -175,173 -173,334 -28,152 61,263 116,386 32,73 48,152 31,244 -18,136 -333,-101 -125,196 215,308 -55,278 83,473 49,69 -114,111 -155,184 -63,112 253,58 174,145 -325,356 94,155 79,260 1,53 -258,18 -251,87 13,120 223,24 224,96 1,70 -283,150 -241,205 53,68 245,77 246,136 2,125 -164,-26 -231,80 -103,165 421,30 211,169 -256,170 36,230 -76,360 -26,29 -195,50 -90,165 147,162 -133,222 30,309 55,29 298,159 52,159 -243,18 156,231 -58,401 -80,63 202,171 51,406 -53,82 -9,211 -25,258 -134,401 312,182 -4,582 -101,128 164,203 162,277 0,15 -3,42 -27,69 -53,61 -113,99 -70.18072,167.7659 C 239.63856,8020.5318 233,8049 217,8085 c -39,62 -34,158 -22,221 11,61 81,70 -19,187 -51,60 -2,147 37,209 43,69 -18,107 -70,168 -51,59 -26,94 35,94 25,0 79,-23 95,0 35,51 -83,64 -122,93 -45,34 -42,79 4,108 39,25 93,22 97,53 6,52 -71,72 -71,123 l 0,659"
       inkscape:connector-curvature="0"
       style="fill:none;stroke:#2eab8e;stroke-width:7.00039005"
       sodipodi:nodetypes="cccccccccccccccccccccccccccccccccccccccccsccccsc" /><rect
       fill="none"
       width="360"
       height="10000"
       id="rect7" /></g></svg>