<?xml version="1.0" encoding="UTF-8" standalone="no"?>
<svg
   xmlns:dc="http://purl.org/dc/elements/1.1/"
   xmlns:cc="http://creativecommons.org/ns#"
   xmlns:rdf="http://www.w3.org/1999/02/22-rdf-syntax-ns#"
   xmlns:svg="http://www.w3.org/2000/svg"
   xmlns="http://www.w3.org/2000/svg"
   version="1.1"
   viewBox="0 0 360 2300.85"
   height="2300.85"
   width="360"
   data-name="Layer 1"
   id="Layer_1">
  <metadata
     id="metadata12">
    <rdf:RDF>
      <cc:Work
         rdf:about="">
        <dc:format>image/svg+xml</dc:format>
        <dc:type
           rdf:resource="http://purl.org/dc/dcmitype/StillImage" />
        <dc:title>Map-02</dc:title>
      </cc:Work>
    </rdf:RDF>
  </metadata>
  <defs
     id="defs3">
    <style
       id="style5">.cls-1{fill:none;stroke:#333;stroke-miterlimit:10;stroke-width:10px;}</style>
  </defs>
  <title
     id="title7">Map-02</title>
  <path
     d="M193.39.23c-2.8,59.61,2.2,120.61,16.2,178.61,10,25,26,46,37,71,12,28,7,58-4,85-7,15-15,28-24,42-17,25-35,43-53,68-20,30-24,63-20,97,8,61,35,112,67,165,1,2,1,3,2,5,4,7,8,13,12,20,2,2,4,4,5,7a172.52,172.52,0,0,1,16,37c4,18,4,35-1,52a161,161,0,0,1-40,66c-1,1-1,3-2,4l-15,15c-1,1-1,3-2,4-24,24-47,47-69,74-21,26-41,52-46,86a44.54,44.54,0,0,0,3,23,21.86,21.86,0,0,1,3,5c20,26,54,23,83,19,34-6,68-18,101-9,16,9,27,27,25,45-2,21-22,33-39,42-40,19-83,29-118,58-24,21-42,49-37,81,11,68,84,88,141,105,3,1,5,3,8,4,2,1,3,0,5,1a48.75,48.75,0,0,0,7,3c13,6,25,14,29,28,2,8,3,16,1,25-1,6-3,11-5,17-6,16-17,28-29,41-17,17-34,31-49,50a30.39,30.39,0,0,1-5,7,63.76,63.76,0,0,0-8,14c-1,2-2,5-3,7a52.22,52.22,0,0,0-4,21c-1,212,0,425,.31,637"
     class="cls-1"
     id="mappathid" />
</svg>
