<svg xmlns="http://www.w3.org/2000/svg" width="27.73" height="20.76" viewBox="0 0 27.73 20.76"><defs><style>.cls-1{fill:#a6ceee;}.cls-2{fill:#cc202e;fill-rule:evenodd;}.cls-3{fill:#1d81c4;}</style></defs><title>back_cross</title><g id="Layer_2" data-name="Layer 2"><g id="Layer_1-2" data-name="Layer 1"><path class="cls-1" d="M23.42,0h-12A4.34,4.34,0,0,0,8.26,1.32L.37,9.45a1.34,1.34,0,0,0,0,1.85l7.89,8.13a4.34,4.34,0,0,0,3.12,1.33h12a4.39,4.39,0,0,0,4.3-4.54V4.54A4.38,4.38,0,0,0,23.42,0"/><path class="cls-2" d="M13.18,7.31a1.55,1.55,0,0,1-.24-2,1.33,1.33,0,0,1,1.91.26l1.68,1.8c.88.95.59.92,1.49,0l1.64-1.75a1.33,1.33,0,0,1,1.91-.26,1.55,1.55,0,0,1-.24,2L19.74,9c-1,1-1,.69,0,1.71l1.61,1.72a1.55,1.55,0,0,1,.24,2,1.33,1.33,0,0,1-1.91-.26L18,12.48c-.89-1-.61-1-1.49,0l-1.68,1.79a1.33,1.33,0,0,1-1.91.26,1.55,1.55,0,0,1,.24-2l1.58-1.69c1-1.07,1-.72,0-1.8Z"/><path class="cls-3" d="M23.42,19.76h-12a4.34,4.34,0,0,1-3.12-1.33L.37,10.3A1.3,1.3,0,0,1,.1,9.88,1.34,1.34,0,0,0,.37,11.3l7.89,8.13a4.34,4.34,0,0,0,3.12,1.33h12a4.39,4.39,0,0,0,4.3-4.54v-1A4.39,4.39,0,0,1,23.42,19.76Z"/></g></g></svg>