<svg xmlns="http://www.w3.org/2000/svg" width="125.2" height="60.07" viewBox="0 0 125.2 60.07"><defs><style>.cls-1,.cls-8{fill:#f7f8fa;}.cls-2{fill:#725122;}.cls-3,.cls-7{fill:#d7a629;}.cls-4{fill:#ffc809;}.cls-5{fill:#ffdb80;}.cls-6{fill:#a57d2c;}.cls-7{stroke:#d7a629;}.cls-7,.cls-8{stroke-miterlimit:10;stroke-width:2px;}.cls-8{stroke:#f7f8fb;}</style></defs><title>Backward </title><g id="Layer_2" data-name="Layer 2"><g id="Layer_1-2" data-name="Layer 1"><ellipse class="cls-1" cx="31.27" cy="30.03" rx="31.27" ry="30.03"/><circle class="cls-2" cx="31.38" cy="28.05" r="27.54"/><circle class="cls-3" cx="31.38" cy="27.42" r="26.63"/><ellipse class="cls-4" cx="31.27" cy="25.07" rx="23.66" ry="22.04"/><path class="cls-5" d="M31.27,3.78c12.81,0,23.21,9.52,23.62,21.4,0-.24,0-.48,0-.73,0-12.22-10.59-22.12-23.66-22.12S7.61,12.23,7.61,24.45c0,.25,0,.48,0,.73C8.07,13.3,18.47,3.78,31.27,3.78Z"/><path class="cls-6" d="M31.3,45.67c-12.81,0-23.21-9.52-23.62-21.4,0,.24,0,.48,0,.73,0,12.22,10.59,22.12,23.66,22.12S55,37.22,55,25c0-.25,0-.48,0-.73C54.51,36.16,44.1,45.67,31.3,45.67Z"/><path class="cls-7" d="M36.53,34.55a1.18,1.18,0,1,1-1.68,1.68l-8.71-8.71a1.64,1.64,0,0,1,0-2.32l8.71-8.71a1.21,1.21,0,0,1,1.68,0,1.19,1.19,0,0,1,0,1.68l-8.19,8.19Z"/><path class="cls-8" d="M36.53,32a1.18,1.18,0,1,1-1.68,1.68l-8.71-8.71a1.64,1.64,0,0,1,0-2.32l8.71-8.71a1.21,1.21,0,0,1,1.68,0,1.19,1.19,0,0,1,0,1.68l-8.19,8.19Z"/><ellipse class="cls-1" cx="93.93" cy="30.03" rx="31.27" ry="30.03"/><circle class="cls-2" cx="94.03" cy="28.05" r="27.54"/><circle class="cls-3" cx="94.03" cy="27.42" r="26.63"/><ellipse class="cls-4" cx="94.04" cy="27" rx="26.02" ry="24.24"/><path class="cls-5" d="M94,3.59c14.08,0,25.53,10.47,26,23.53,0-.27,0-.53,0-.8C120,12.88,108.38,2,94,2S68,12.88,68,26.32c0,.27,0,.53,0,.8C68.48,14.06,79.93,3.59,94,3.59Z"/><path class="cls-6" d="M94,49.66c-14.08,0-25.53-10.47-26-23.53,0,.27,0,.53,0,.8,0,13.44,11.65,24.33,26,24.33s26-10.89,26-24.33c0-.27,0-.53,0-.8C119.56,39.19,108.12,49.66,94,49.66Z"/><path class="cls-7" d="M99.29,35.23a1.18,1.18,0,1,1-1.68,1.68L88.91,28.2a1.64,1.64,0,0,1,0-2.32l8.71-8.71a1.21,1.21,0,0,1,1.68,0,1.19,1.19,0,0,1,0,1.68L91.1,27Z"/><path class="cls-8" d="M99.29,35.13a1.18,1.18,0,1,1-1.68,1.68L88.91,28.1a1.64,1.64,0,0,1,0-2.32l8.71-8.71a1.21,1.21,0,0,1,1.68,0,1.19,1.19,0,0,1,0,1.68L91.1,26.94Z"/></g></g></svg>