<svg xmlns="http://www.w3.org/2000/svg" width="350" height="56" viewBox="0 0 350 56"><defs><style>.cls-1{fill:#fdfefd;}.cls-2{fill:#9f732a;}.cls-3{fill:#cd882a;}.cls-4{fill:#edb31f;}.cls-5{fill:#f9c758;}.cls-5,.cls-6,.cls-7,.cls-8{fill-rule:evenodd;}.cls-6,.cls-9{fill:#cc962b;}.cls-7{fill:#5e5f5f;}.cls-8{fill:#888;}.cls-10{fill:#fff;stroke:#f9c758;stroke-miterlimit:10;stroke-width:0.25px;}</style></defs><title>coninue</title><g id="Layer_2" data-name="Layer 2"><g id="Layer_1-2" data-name="Layer 1"><rect class="cls-1" width="175" height="49.53" rx="24.69" ry="24.69"/><rect class="cls-2" x="2.68" y="1.44" width="169.1" height="45.52" rx="22.69" ry="22.69"/><rect class="cls-3" x="2.19" y="1.1" width="169.53" height="44.03" rx="21.94" ry="21.94"/><rect class="cls-4" x="3.54" y="0.68" width="167.45" height="39.46" rx="19.67" ry="19.67"/><path class="cls-5" d="M151.35.68H23.1A19.72,19.72,0,0,0,3.5,20.41h0c0,.38,0,.76,0,1.14A19.72,19.72,0,0,1,23.1,3H151.35a19.72,19.72,0,0,1,19.57,18.59c0-.38,0-.76,0-1.14h0A19.72,19.72,0,0,0,151.35.68Z"/><path class="cls-6" d="M151.35,37.85H23.1A19.72,19.72,0,0,1,3.54,19.27c0,.38,0,.76,0,1.14h0A19.72,19.72,0,0,0,23.1,40.13H151.35A19.72,19.72,0,0,0,171,20.41h0c0-.38,0-.76,0-1.14A19.72,19.72,0,0,1,151.35,37.85Z"/><path class="cls-7" d="M150.39,51.05H24.61A24.67,24.67,0,0,1,.12,28.76C0,29.57,0,30.4,0,31.23H0A24.69,24.69,0,0,0,24.61,56H150.39A24.69,24.69,0,0,0,175,31.23h0c0-.83,0-1.66-.12-2.47A24.67,24.67,0,0,1,150.39,51.05Z"/><path class="cls-8" d="M150.39,49.53H24.61A24.68,24.68,0,0,1,0,25.91c0,.38,0,.76,0,1.14H0A24.69,24.69,0,0,0,24.61,51.82H150.39A24.69,24.69,0,0,0,175,27h0c0-.38,0-.76,0-1.14A24.68,24.68,0,0,1,150.39,49.53Z"/><path class="cls-9" d="M63.81,23.81a.56.56,0,0,1,.42-.4.75.75,0,0,1,.53.1.92.92,0,0,1,.37.45.76.76,0,0,1,0,.65,5.54,5.54,0,0,1-1.53,2.11,3.27,3.27,0,0,1-2.14.8A3.17,3.17,0,0,1,59.74,27a4.62,4.62,0,0,1-1.37-1.28,6.38,6.38,0,0,1-.92-1.9,8.09,8.09,0,0,1-.33-2.36,8.32,8.32,0,0,1,.33-2.37,6.88,6.88,0,0,1,.92-2,4.67,4.67,0,0,1,1.37-1.34,3.08,3.08,0,0,1,1.66-.49,3.75,3.75,0,0,1,2.19.66,4.34,4.34,0,0,1,1.5,2.15.42.42,0,0,1,0,.48.94.94,0,0,1-.42.37,1,1,0,0,1-.58.08.66.66,0,0,1-.48-.4,2.8,2.8,0,0,0-1-1.37,2.34,2.34,0,0,0-1.31-.37,1.76,1.76,0,0,0-1.09.39,3.54,3.54,0,0,0-.89,1,5.8,5.8,0,0,0-.6,1.5,7.09,7.09,0,0,0-.21,1.75,6.16,6.16,0,0,0,.22,1.69,4.84,4.84,0,0,0,.62,1.38,3.13,3.13,0,0,0,.91.92,2,2,0,0,0,2.5-.26A4,4,0,0,0,63.81,23.81Z"/><path class="cls-9" d="M67.14,24a3.53,3.53,0,0,1,.26-1.35,3.46,3.46,0,0,1,.73-1.12,3.57,3.57,0,0,1,1.09-.76,3.26,3.26,0,0,1,2.66,0,3.58,3.58,0,0,1,1.09.76,3.46,3.46,0,0,1,.73,1.12,3.58,3.58,0,0,1,0,2.7A3.57,3.57,0,0,1,73,26.5a3.51,3.51,0,0,1-1.09.77,3.26,3.26,0,0,1-2.66,0,3.51,3.51,0,0,1-1.09-.77,3.57,3.57,0,0,1-.73-1.13A3.53,3.53,0,0,1,67.14,24Zm1.43,0a2,2,0,0,0,.16.78,2.13,2.13,0,0,0,1.05,1.1,1.83,1.83,0,0,0,1.52,0,2.13,2.13,0,0,0,1.05-1.1,2,2,0,0,0-.43-2.21,2.21,2.21,0,0,0-.62-.44,1.83,1.83,0,0,0-1.52,0,2.2,2.2,0,0,0-.62.44A2,2,0,0,0,68.57,24Z"/><path class="cls-9" d="M80.76,27a20.06,20.06,0,0,0-.08-2.68,6.52,6.52,0,0,0-.32-1.52,1.33,1.33,0,0,0-.47-.68,1,1,0,0,0-.5-.16,1.77,1.77,0,0,0-.76.17,2.13,2.13,0,0,0-1.05,1.1,2,2,0,0,0-.16.78v2.77a.76.76,0,0,1-.23.52.81.81,0,0,1-.48.23.77.77,0,0,1-.51-.13.76.76,0,0,1-.3-.57l0-5.88a.57.57,0,0,1,.22-.52.79.79,0,0,1,.5-.13,1,1,0,0,1,.5.17.44.44,0,0,1,.22.38l0,.31a3.3,3.3,0,0,1,.93-.51,3.17,3.17,0,0,1,1.06-.18A2.38,2.38,0,0,1,81,21a2.89,2.89,0,0,1,.85,1.33,7.68,7.68,0,0,1,.34,2q.06,1.18.06,2.57a.57.57,0,0,1-.22.52.79.79,0,0,1-.5.13,1,1,0,0,1-.5-.17A.44.44,0,0,1,80.76,27Z"/><path class="cls-9" d="M85.23,20l0-3.09a.59.59,0,0,1,.33-.48,1,1,0,0,1,.56-.1.92.92,0,0,1,.5.21.38.38,0,0,1,.16.41v3h1.72a.66.66,0,0,1,.5.31.78.78,0,0,1,.11.52.76.76,0,0,1-.25.46.72.72,0,0,1-.59.16H86.75l0,5.41a.56.56,0,0,1-.23.52.83.83,0,0,1-.51.13,1.1,1.1,0,0,1-.51-.17.44.44,0,0,1-.23-.38l0-5.51H83.63a.57.57,0,0,1-.52-.22.78.78,0,0,1-.13-.5,1,1,0,0,1,.17-.5.44.44,0,0,1,.38-.22Z"/><path class="cls-9" d="M90.89,19.16a.87.87,0,0,1,.24-.62.82.82,0,0,1,.62-.25.87.87,0,0,1,.88.88.82.82,0,0,1-.25.62.87.87,0,0,1-.62.24.83.83,0,0,1-.86-.86Zm0,2a.59.59,0,0,1,.33-.48,1,1,0,0,1,1.07.13.38.38,0,0,1,.16.41l0,5.57a.57.57,0,0,1-.22.52.79.79,0,0,1-.5.13,1,1,0,0,1-.5-.17.44.44,0,0,1-.22-.38Z"/><path class="cls-9" d="M99.41,27a20.06,20.06,0,0,0-.08-2.68A6.52,6.52,0,0,0,99,22.85a1.33,1.33,0,0,0-.47-.68A1,1,0,0,0,98,22a1.77,1.77,0,0,0-.76.17,2.13,2.13,0,0,0-1.05,1.1,2,2,0,0,0-.16.78v2.77a.76.76,0,0,1-.23.52.81.81,0,0,1-.48.23.77.77,0,0,1-.51-.13.76.76,0,0,1-.3-.57l0-5.88a.57.57,0,0,1,.22-.52.79.79,0,0,1,.5-.13,1,1,0,0,1,.5.17.44.44,0,0,1,.22.38l0,.31a3.3,3.3,0,0,1,.93-.51A3.17,3.17,0,0,1,98,20.54a2.38,2.38,0,0,1,1.58.48,2.89,2.89,0,0,1,.85,1.33,7.68,7.68,0,0,1,.34,2q.06,1.18.06,2.57a.57.57,0,0,1-.22.52.79.79,0,0,1-.5.13,1,1,0,0,1-.5-.17A.44.44,0,0,1,99.41,27Z"/><path class="cls-9" d="M104.27,21a18.27,18.27,0,0,0,0,2.8,5.43,5.43,0,0,0,.29,1.5,1.06,1.06,0,0,0,.48.62,1.3,1.3,0,0,0,.51.12,1.77,1.77,0,0,0,.76-.17,2.13,2.13,0,0,0,1.05-1.1,2,2,0,0,0,.16-.78V21.17a.75.75,0,0,1,.23-.52.81.81,0,0,1,.48-.23.72.72,0,0,1,.81.69L109,27a.57.57,0,0,1-.22.52.79.79,0,0,1-.5.13,1,1,0,0,1-.5-.17.44.44,0,0,1-.22-.38l0-.31a3.31,3.31,0,0,1-.93.51,3.18,3.18,0,0,1-1.06.18A2.36,2.36,0,0,1,103,25.73a7,7,0,0,1-.32-2q0-1.19,0-2.66a.59.59,0,0,1,.26-.52.89.89,0,0,1,.53-.13,1.1,1.1,0,0,1,.52.17A.39.39,0,0,1,104.27,21Z"/><path class="cls-9" d="M116.11,25.35a.63.63,0,0,1,.49-.21,1,1,0,0,1,.53.15.75.75,0,0,1,.32.39.53.53,0,0,1-.13.52,3.67,3.67,0,0,1-1.24,1,3.76,3.76,0,0,1-1.41.39,3.65,3.65,0,0,1-1.4-.18,3.49,3.49,0,0,1-1.22-.69,3.45,3.45,0,0,1-.86-1.16,3.64,3.64,0,0,1-.32-1.55,3.45,3.45,0,0,1,.26-1.34,3.49,3.49,0,0,1,.73-1.11,3.57,3.57,0,0,1,1.09-.76,3.41,3.41,0,0,1,1.33-.3,3.47,3.47,0,0,1,1.16.16,3.26,3.26,0,0,1,1,.51,2.87,2.87,0,0,1,.73.82,3.05,3.05,0,0,1,.39,1.09,1.31,1.31,0,0,1-.21,1,1.71,1.71,0,0,1-1.34.38l-3.69,0a2.18,2.18,0,0,0,.52,1.05,2,2,0,0,0,.94.62,2,2,0,0,0,1.15,0A2.47,2.47,0,0,0,116.11,25.35ZM114.27,22a1.89,1.89,0,0,0-1,.32,2.11,2.11,0,0,0-.7.79l3.59,0a1.38,1.38,0,0,0-.74-.95,1.72,1.72,0,0,0-.55-.17A4.37,4.37,0,0,0,114.27,22Z"/><path class="cls-10" d="M63.81,20.81a.56.56,0,0,1,.42-.4.75.75,0,0,1,.53.1.92.92,0,0,1,.37.45.76.76,0,0,1,0,.65,5.54,5.54,0,0,1-1.53,2.11,3.27,3.27,0,0,1-2.14.8A3.17,3.17,0,0,1,59.74,24a4.62,4.62,0,0,1-1.37-1.28,6.38,6.38,0,0,1-.92-1.9,8.09,8.09,0,0,1-.33-2.36,8.32,8.32,0,0,1,.33-2.37,6.88,6.88,0,0,1,.92-2,4.67,4.67,0,0,1,1.37-1.34,3.08,3.08,0,0,1,1.66-.49,3.75,3.75,0,0,1,2.19.66,4.34,4.34,0,0,1,1.5,2.15.42.42,0,0,1,0,.48.94.94,0,0,1-.42.37,1,1,0,0,1-.58.08.66.66,0,0,1-.48-.4,2.8,2.8,0,0,0-1-1.37,2.34,2.34,0,0,0-1.31-.37,1.76,1.76,0,0,0-1.09.39,3.54,3.54,0,0,0-.89,1,5.8,5.8,0,0,0-.6,1.5,7.09,7.09,0,0,0-.21,1.75,6.16,6.16,0,0,0,.22,1.69,4.84,4.84,0,0,0,.62,1.38,3.13,3.13,0,0,0,.91.92,2,2,0,0,0,2.5-.26A4,4,0,0,0,63.81,20.81Z"/><path class="cls-10" d="M67.14,21a3.53,3.53,0,0,1,.26-1.35,3.46,3.46,0,0,1,.73-1.12,3.57,3.57,0,0,1,1.09-.76,3.26,3.26,0,0,1,2.66,0,3.58,3.58,0,0,1,1.09.76,3.46,3.46,0,0,1,.73,1.12,3.58,3.58,0,0,1,0,2.7A3.57,3.57,0,0,1,73,23.5a3.51,3.51,0,0,1-1.09.77,3.26,3.26,0,0,1-2.66,0,3.51,3.51,0,0,1-1.09-.77,3.57,3.57,0,0,1-.73-1.13A3.53,3.53,0,0,1,67.14,21Zm1.43,0a2,2,0,0,0,.16.78,2.13,2.13,0,0,0,1.05,1.1,1.83,1.83,0,0,0,1.52,0,2.13,2.13,0,0,0,1.05-1.1,2,2,0,0,0-.43-2.21,2.21,2.21,0,0,0-.62-.44,1.83,1.83,0,0,0-1.52,0,2.2,2.2,0,0,0-.62.44A2,2,0,0,0,68.57,21Z"/><path class="cls-10" d="M80.76,24a20.06,20.06,0,0,0-.08-2.68,6.52,6.52,0,0,0-.32-1.52,1.33,1.33,0,0,0-.47-.68,1,1,0,0,0-.5-.16,1.77,1.77,0,0,0-.76.17,2.13,2.13,0,0,0-1.05,1.1,2,2,0,0,0-.16.78v2.77a.76.76,0,0,1-.23.52.81.81,0,0,1-.48.23.77.77,0,0,1-.51-.13.76.76,0,0,1-.3-.57l0-5.88a.57.57,0,0,1,.22-.52.79.79,0,0,1,.5-.13,1,1,0,0,1,.5.17.44.44,0,0,1,.22.38l0,.31a3.3,3.3,0,0,1,.93-.51,3.17,3.17,0,0,1,1.06-.18A2.38,2.38,0,0,1,81,18a2.89,2.89,0,0,1,.85,1.33,7.68,7.68,0,0,1,.34,2q.06,1.18.06,2.57a.57.57,0,0,1-.22.52.79.79,0,0,1-.5.13,1,1,0,0,1-.5-.17A.44.44,0,0,1,80.76,24Z"/><path class="cls-10" d="M85.23,17l0-3.09a.59.59,0,0,1,.33-.48,1,1,0,0,1,.56-.1.92.92,0,0,1,.5.21.38.38,0,0,1,.16.41v3h1.72a.66.66,0,0,1,.5.31.78.78,0,0,1,.11.52.76.76,0,0,1-.25.46.72.72,0,0,1-.59.16H86.75l0,5.41a.56.56,0,0,1-.23.52.83.83,0,0,1-.51.13,1.1,1.1,0,0,1-.51-.17.44.44,0,0,1-.23-.38l0-5.51H83.63a.57.57,0,0,1-.52-.22.78.78,0,0,1-.13-.5,1,1,0,0,1,.17-.5.44.44,0,0,1,.38-.22Z"/><path class="cls-10" d="M90.89,16.16a.87.87,0,0,1,.24-.62.82.82,0,0,1,.62-.25.87.87,0,0,1,.88.88.82.82,0,0,1-.25.62.87.87,0,0,1-.62.24.83.83,0,0,1-.86-.86Zm0,2a.59.59,0,0,1,.33-.48,1,1,0,0,1,1.07.13.38.38,0,0,1,.16.41l0,5.57a.57.57,0,0,1-.22.52.79.79,0,0,1-.5.13,1,1,0,0,1-.5-.17.44.44,0,0,1-.22-.38Z"/><path class="cls-10" d="M99.41,24a20.06,20.06,0,0,0-.08-2.68A6.52,6.52,0,0,0,99,19.85a1.33,1.33,0,0,0-.47-.68A1,1,0,0,0,98,19a1.77,1.77,0,0,0-.76.17,2.13,2.13,0,0,0-1.05,1.1,2,2,0,0,0-.16.78v2.77a.76.76,0,0,1-.23.52.81.81,0,0,1-.48.23.77.77,0,0,1-.51-.13.76.76,0,0,1-.3-.57l0-5.88a.57.57,0,0,1,.22-.52.79.79,0,0,1,.5-.13,1,1,0,0,1,.5.17.44.44,0,0,1,.22.38l0,.31a3.3,3.3,0,0,1,.93-.51A3.17,3.17,0,0,1,98,17.54a2.38,2.38,0,0,1,1.58.48,2.89,2.89,0,0,1,.85,1.33,7.68,7.68,0,0,1,.34,2q.06,1.18.06,2.57a.57.57,0,0,1-.22.52.79.79,0,0,1-.5.13,1,1,0,0,1-.5-.17A.44.44,0,0,1,99.41,24Z"/><path class="cls-10" d="M104.27,18a18.27,18.27,0,0,0,0,2.8,5.43,5.43,0,0,0,.29,1.5,1.06,1.06,0,0,0,.48.62,1.3,1.3,0,0,0,.51.12,1.77,1.77,0,0,0,.76-.17,2.13,2.13,0,0,0,1.05-1.1,2,2,0,0,0,.16-.78V18.17a.75.75,0,0,1,.23-.52.81.81,0,0,1,.48-.23.72.72,0,0,1,.81.69L109,24a.57.57,0,0,1-.22.52.79.79,0,0,1-.5.13,1,1,0,0,1-.5-.17.44.44,0,0,1-.22-.38l0-.31a3.31,3.31,0,0,1-.93.51,3.18,3.18,0,0,1-1.06.18A2.36,2.36,0,0,1,103,22.73a7,7,0,0,1-.32-2q0-1.19,0-2.66a.59.59,0,0,1,.26-.52.89.89,0,0,1,.53-.13,1.1,1.1,0,0,1,.52.17A.39.39,0,0,1,104.27,18Z"/><path class="cls-10" d="M116.11,22.35a.63.63,0,0,1,.49-.21,1,1,0,0,1,.53.15.75.75,0,0,1,.32.39.53.53,0,0,1-.13.52,3.67,3.67,0,0,1-1.24,1,3.76,3.76,0,0,1-1.41.39,3.65,3.65,0,0,1-1.4-.18,3.49,3.49,0,0,1-1.22-.69,3.45,3.45,0,0,1-.86-1.16,3.64,3.64,0,0,1-.32-1.55,3.45,3.45,0,0,1,.26-1.34,3.49,3.49,0,0,1,.73-1.11,3.57,3.57,0,0,1,1.09-.76,3.41,3.41,0,0,1,1.33-.3,3.47,3.47,0,0,1,1.16.16,3.26,3.26,0,0,1,1,.51,2.87,2.87,0,0,1,.73.82,3.05,3.05,0,0,1,.39,1.09,1.31,1.31,0,0,1-.21,1,1.71,1.71,0,0,1-1.34.38l-3.69,0a2.18,2.18,0,0,0,.52,1.05,2,2,0,0,0,.94.62,2,2,0,0,0,1.15,0A2.47,2.47,0,0,0,116.11,22.35ZM114.27,19a1.89,1.89,0,0,0-1,.32,2.11,2.11,0,0,0-.7.79l3.59,0a1.38,1.38,0,0,0-.74-.95,1.72,1.72,0,0,0-.55-.17A4.37,4.37,0,0,0,114.27,19Z"/><rect class="cls-1" x="175" y="6" width="175" height="43.79" rx="21.89" ry="21.89"/><rect class="cls-2" x="177.68" y="7.22" width="169.1" height="40.09" rx="20.05" ry="20.05"/><rect class="cls-3" x="177.19" y="7.22" width="169.53" height="38.33" rx="19.17" ry="19.17"/><rect class="cls-4" x="178.54" y="7.22" width="167.45" height="37.92" rx="18.96" ry="18.96"/><path class="cls-5" d="M326.35,7.22H198.1c-10.78,0-19.6,8.53-19.6,19h0c0,.37,0,.73,0,1.1.59-9.92,9.17-17.86,19.57-17.86H326.35c10.4,0,19,7.94,19.57,17.86,0-.36,0-.73,0-1.1h0C346,15.75,337.13,7.22,326.35,7.22Z"/><path class="cls-6" d="M326.35,42.95H198.1c-10.4,0-19-7.94-19.57-17.86,0,.36,0,.73,0,1.1h0c0,10.43,8.82,19,19.6,19H326.35c10.78,0,19.6-8.53,19.6-19h0c0-.37,0-.73,0-1.1C345.32,35,336.75,42.95,326.35,42.95Z"/><path class="cls-7" d="M325.39,51.25H199.61c-12.76,0-23.25-9.4-24.49-21.42A23.28,23.28,0,0,0,175,32.2h0C175,45.34,186,56,199.61,56H325.39C339,56,350,45.34,350,32.2h0a23.28,23.28,0,0,0-.12-2.38C348.64,41.85,338.15,51.25,325.39,51.25Z"/><path class="cls-8" d="M325.39,49.79H199.61c-13.21,0-24-10.07-24.58-22.7,0,.36,0,.73,0,1.1h0C175,41.32,186,52,199.61,52H325.39C339,52,350,41.32,350,28.18h0c0-.37,0-.73,0-1.1C349.38,39.72,338.6,49.79,325.39,49.79Z"/><path class="cls-9" d="M238.81,29.58a.56.56,0,0,1,.42-.4.75.75,0,0,1,.53.1.92.92,0,0,1,.37.45.76.76,0,0,1,0,.65,5.54,5.54,0,0,1-1.53,2.11,3.27,3.27,0,0,1-2.14.8,3.17,3.17,0,0,1-1.66-.47,4.62,4.62,0,0,1-1.37-1.28,6.38,6.38,0,0,1-.92-1.9,8.09,8.09,0,0,1-.33-2.36,8.32,8.32,0,0,1,.33-2.37,6.88,6.88,0,0,1,.92-2,4.67,4.67,0,0,1,1.37-1.34,3.08,3.08,0,0,1,1.66-.49,3.75,3.75,0,0,1,2.19.66,4.34,4.34,0,0,1,1.5,2.15.42.42,0,0,1,0,.48.94.94,0,0,1-.42.37,1,1,0,0,1-.58.08.66.66,0,0,1-.48-.4,2.8,2.8,0,0,0-1-1.37,2.34,2.34,0,0,0-1.31-.37,1.76,1.76,0,0,0-1.09.39,3.54,3.54,0,0,0-.89,1,5.8,5.8,0,0,0-.6,1.5,7.09,7.09,0,0,0-.21,1.75,6.16,6.16,0,0,0,.22,1.69,4.84,4.84,0,0,0,.62,1.38,3.13,3.13,0,0,0,.91.92,2,2,0,0,0,2.5-.26A4,4,0,0,0,238.81,29.58Z"/><path class="cls-9" d="M242.14,29.8a3.53,3.53,0,0,1,.26-1.35,3.46,3.46,0,0,1,.73-1.12,3.57,3.57,0,0,1,1.09-.76,3.26,3.26,0,0,1,2.66,0,3.58,3.58,0,0,1,1.09.76,3.46,3.46,0,0,1,.73,1.12,3.58,3.58,0,0,1,0,2.7,3.57,3.57,0,0,1-.73,1.13,3.51,3.51,0,0,1-1.09.77,3.26,3.26,0,0,1-2.66,0,3.51,3.51,0,0,1-1.09-.77,3.57,3.57,0,0,1-.73-1.13A3.53,3.53,0,0,1,242.14,29.8Zm1.43,0a2,2,0,0,0,.16.78,2.13,2.13,0,0,0,1.05,1.1,1.83,1.83,0,0,0,1.52,0,2.13,2.13,0,0,0,1.05-1.1,2,2,0,0,0-.43-2.21,2.21,2.21,0,0,0-.62-.44,1.83,1.83,0,0,0-1.52,0,2.2,2.2,0,0,0-.62.44,2,2,0,0,0-.59,1.43Z"/><path class="cls-9" d="M255.76,32.82a20.06,20.06,0,0,0-.08-2.68,6.52,6.52,0,0,0-.32-1.52,1.33,1.33,0,0,0-.47-.68,1,1,0,0,0-.5-.16,1.77,1.77,0,0,0-.76.17,2.13,2.13,0,0,0-1.05,1.1,2,2,0,0,0-.16.78v2.77a.76.76,0,0,1-.23.52.81.81,0,0,1-.48.23.77.77,0,0,1-.51-.13.76.76,0,0,1-.3-.57l0-5.88a.57.57,0,0,1,.22-.52.79.79,0,0,1,.5-.13,1,1,0,0,1,.5.17.44.44,0,0,1,.22.38l0,.31a3.3,3.3,0,0,1,.93-.51,3.17,3.17,0,0,1,1.06-.18,2.38,2.38,0,0,1,1.58.48,2.89,2.89,0,0,1,.85,1.33,7.68,7.68,0,0,1,.34,2q.06,1.18.06,2.57a.57.57,0,0,1-.22.52.79.79,0,0,1-.5.13,1,1,0,0,1-.5-.17A.44.44,0,0,1,255.76,32.82Z"/><path class="cls-9" d="M260.23,25.79l0-3.09a.59.59,0,0,1,.33-.48,1,1,0,0,1,.56-.1.92.92,0,0,1,.5.21.38.38,0,0,1,.16.41v3h1.72a.66.66,0,0,1,.5.31.78.78,0,0,1,.11.52.76.76,0,0,1-.25.46.72.72,0,0,1-.59.16h-1.46l0,5.41a.56.56,0,0,1-.23.52.83.83,0,0,1-.51.13,1.1,1.1,0,0,1-.51-.17.44.44,0,0,1-.23-.38l0-5.51h-1.62a.57.57,0,0,1-.52-.22.78.78,0,0,1-.13-.5,1,1,0,0,1,.17-.5.44.44,0,0,1,.38-.22Z"/><path class="cls-9" d="M265.89,24.93a.87.87,0,0,1,.24-.62.82.82,0,0,1,.62-.25.87.87,0,0,1,.88.88.82.82,0,0,1-.25.62.87.87,0,0,1-.62.24.83.83,0,0,1-.86-.86Zm0,2a.59.59,0,0,1,.33-.48,1,1,0,0,1,1.07.13.38.38,0,0,1,.16.41l0,5.57a.57.57,0,0,1-.22.52.79.79,0,0,1-.5.13,1,1,0,0,1-.5-.17.44.44,0,0,1-.22-.38Z"/><path class="cls-9" d="M274.41,32.82a20.06,20.06,0,0,0-.08-2.68,6.52,6.52,0,0,0-.32-1.52,1.33,1.33,0,0,0-.47-.68,1,1,0,0,0-.5-.16,1.77,1.77,0,0,0-.76.17,2.13,2.13,0,0,0-1.05,1.1,2,2,0,0,0-.16.78v2.77a.76.76,0,0,1-.23.52.81.81,0,0,1-.48.23.77.77,0,0,1-.51-.13.76.76,0,0,1-.3-.57l0-5.88a.57.57,0,0,1,.22-.52.79.79,0,0,1,.5-.13,1,1,0,0,1,.5.17.44.44,0,0,1,.22.38l0,.31a3.3,3.3,0,0,1,.93-.51,3.17,3.17,0,0,1,1.06-.18,2.38,2.38,0,0,1,1.58.48,2.89,2.89,0,0,1,.85,1.33,7.68,7.68,0,0,1,.34,2q.06,1.18.06,2.57a.57.57,0,0,1-.22.52.79.79,0,0,1-.5.13,1,1,0,0,1-.5-.17A.44.44,0,0,1,274.41,32.82Z"/><path class="cls-9" d="M279.27,26.73a18.27,18.27,0,0,0,0,2.8,5.43,5.43,0,0,0,.29,1.5,1.06,1.06,0,0,0,.48.62,1.3,1.3,0,0,0,.51.12,1.77,1.77,0,0,0,.76-.17,2.13,2.13,0,0,0,1.05-1.1,2,2,0,0,0,.16-.78V26.94a.75.75,0,0,1,.23-.52.81.81,0,0,1,.48-.23.72.72,0,0,1,.81.69l0,5.88a.57.57,0,0,1-.22.52.79.79,0,0,1-.5.13,1,1,0,0,1-.5-.17.44.44,0,0,1-.22-.38l0-.31a3.31,3.31,0,0,1-.93.51,3.18,3.18,0,0,1-1.06.18A2.36,2.36,0,0,1,278,31.51a7,7,0,0,1-.32-2q0-1.19,0-2.66a.59.59,0,0,1,.26-.52.89.89,0,0,1,.53-.13,1.1,1.1,0,0,1,.52.17A.39.39,0,0,1,279.27,26.73Z"/><path class="cls-9" d="M291.11,31.12a.63.63,0,0,1,.49-.21,1,1,0,0,1,.53.15.75.75,0,0,1,.32.39.53.53,0,0,1-.13.52,3.67,3.67,0,0,1-1.24,1,3.76,3.76,0,0,1-1.41.39,3.65,3.65,0,0,1-1.4-.18,3.49,3.49,0,0,1-1.22-.69,3.45,3.45,0,0,1-.86-1.16,3.64,3.64,0,0,1-.32-1.55,3.45,3.45,0,0,1,.26-1.34,3.49,3.49,0,0,1,.73-1.11,3.57,3.57,0,0,1,1.09-.76,3.41,3.41,0,0,1,1.33-.3,3.47,3.47,0,0,1,1.16.16,3.26,3.26,0,0,1,1,.51,2.87,2.87,0,0,1,.73.82,3.05,3.05,0,0,1,.39,1.09,1.31,1.31,0,0,1-.21,1,1.71,1.71,0,0,1-1.34.38l-3.69,0a2.18,2.18,0,0,0,.52,1.05,2,2,0,0,0,.94.62,2,2,0,0,0,1.15,0A2.47,2.47,0,0,0,291.11,31.12Zm-1.84-3.38a1.89,1.89,0,0,0-1,.32,2.11,2.11,0,0,0-.7.79l3.59,0a1.38,1.38,0,0,0-.74-.95,1.72,1.72,0,0,0-.55-.17A4.37,4.37,0,0,0,289.27,27.75Z"/><path class="cls-10" d="M238.81,29.08a.56.56,0,0,1,.42-.4.75.75,0,0,1,.53.1.92.92,0,0,1,.37.45.76.76,0,0,1,0,.65A5.54,5.54,0,0,1,238.54,32a3.27,3.27,0,0,1-2.14.8,3.17,3.17,0,0,1-1.66-.47A4.62,4.62,0,0,1,233.38,31a6.38,6.38,0,0,1-.92-1.9,8.09,8.09,0,0,1-.33-2.36,8.32,8.32,0,0,1,.33-2.37,6.88,6.88,0,0,1,.92-2,4.67,4.67,0,0,1,1.37-1.34,3.08,3.08,0,0,1,1.66-.49,3.75,3.75,0,0,1,2.19.66,4.34,4.34,0,0,1,1.5,2.15.42.42,0,0,1,0,.48.94.94,0,0,1-.42.37,1,1,0,0,1-.58.08.66.66,0,0,1-.48-.4,2.8,2.8,0,0,0-1-1.37,2.34,2.34,0,0,0-1.31-.37,1.76,1.76,0,0,0-1.09.39,3.54,3.54,0,0,0-.89,1,5.8,5.8,0,0,0-.6,1.5,7.09,7.09,0,0,0-.21,1.75,6.16,6.16,0,0,0,.22,1.69,4.84,4.84,0,0,0,.62,1.38,3.13,3.13,0,0,0,.91.92,2,2,0,0,0,2.5-.26A4,4,0,0,0,238.81,29.08Z"/><path class="cls-10" d="M242.14,29.3a3.53,3.53,0,0,1,.26-1.35,3.46,3.46,0,0,1,.73-1.12,3.57,3.57,0,0,1,1.09-.76,3.26,3.26,0,0,1,2.66,0,3.58,3.58,0,0,1,1.09.76,3.46,3.46,0,0,1,.73,1.12,3.58,3.58,0,0,1,0,2.7,3.57,3.57,0,0,1-.73,1.13,3.51,3.51,0,0,1-1.09.77,3.26,3.26,0,0,1-2.66,0,3.51,3.51,0,0,1-1.09-.77,3.57,3.57,0,0,1-.73-1.13A3.53,3.53,0,0,1,242.14,29.3Zm1.43,0a2,2,0,0,0,.16.78,2.13,2.13,0,0,0,1.05,1.1,1.83,1.83,0,0,0,1.52,0,2.13,2.13,0,0,0,1.05-1.1,2,2,0,0,0-.43-2.21,2.21,2.21,0,0,0-.62-.44,1.83,1.83,0,0,0-1.52,0,2.2,2.2,0,0,0-.62.44,2,2,0,0,0-.59,1.43Z"/><path class="cls-10" d="M255.76,32.32a20.06,20.06,0,0,0-.08-2.68,6.52,6.52,0,0,0-.32-1.52,1.33,1.33,0,0,0-.47-.68,1,1,0,0,0-.5-.16,1.77,1.77,0,0,0-.76.17,2.13,2.13,0,0,0-1.05,1.1,2,2,0,0,0-.16.78v2.77a.76.76,0,0,1-.23.52.81.81,0,0,1-.48.23.77.77,0,0,1-.51-.13.76.76,0,0,1-.3-.57l0-5.88a.57.57,0,0,1,.22-.52.79.79,0,0,1,.5-.13,1,1,0,0,1,.5.17.44.44,0,0,1,.22.38l0,.31a3.3,3.3,0,0,1,.93-.51,3.17,3.17,0,0,1,1.06-.18,2.38,2.38,0,0,1,1.58.48,2.89,2.89,0,0,1,.85,1.33,7.68,7.68,0,0,1,.34,2q.06,1.18.06,2.57a.57.57,0,0,1-.22.52.79.79,0,0,1-.5.13,1,1,0,0,1-.5-.17A.44.44,0,0,1,255.76,32.32Z"/><path class="cls-10" d="M260.23,25.29l0-3.09a.59.59,0,0,1,.33-.48,1,1,0,0,1,.56-.1.92.92,0,0,1,.5.21.38.38,0,0,1,.16.41v3h1.72a.66.66,0,0,1,.5.31.78.78,0,0,1,.11.52.76.76,0,0,1-.25.46.72.72,0,0,1-.59.16h-1.46l0,5.41a.56.56,0,0,1-.23.52.83.83,0,0,1-.51.13,1.1,1.1,0,0,1-.51-.17.44.44,0,0,1-.23-.38l0-5.51h-1.62a.57.57,0,0,1-.52-.22A.78.78,0,0,1,258,26a1,1,0,0,1,.17-.5.44.44,0,0,1,.38-.22Z"/><path class="cls-10" d="M265.89,24.43a.87.87,0,0,1,.24-.62.82.82,0,0,1,.62-.25.87.87,0,0,1,.88.88.82.82,0,0,1-.25.62.87.87,0,0,1-.62.24.83.83,0,0,1-.86-.86Zm0,2a.59.59,0,0,1,.33-.48,1,1,0,0,1,1.07.13.38.38,0,0,1,.16.41l0,5.57a.57.57,0,0,1-.22.52.79.79,0,0,1-.5.13,1,1,0,0,1-.5-.17.44.44,0,0,1-.22-.38Z"/><path class="cls-10" d="M274.41,32.32a20.06,20.06,0,0,0-.08-2.68,6.52,6.52,0,0,0-.32-1.52,1.33,1.33,0,0,0-.47-.68,1,1,0,0,0-.5-.16,1.77,1.77,0,0,0-.76.17,2.13,2.13,0,0,0-1.05,1.1,2,2,0,0,0-.16.78v2.77a.76.76,0,0,1-.23.52.81.81,0,0,1-.48.23.77.77,0,0,1-.51-.13.76.76,0,0,1-.3-.57l0-5.88a.57.57,0,0,1,.22-.52.79.79,0,0,1,.5-.13,1,1,0,0,1,.5.17.44.44,0,0,1,.22.38l0,.31A3.3,3.3,0,0,1,272,26a3.17,3.17,0,0,1,1.06-.18,2.38,2.38,0,0,1,1.58.48,2.89,2.89,0,0,1,.85,1.33,7.68,7.68,0,0,1,.34,2q.06,1.18.06,2.57a.57.57,0,0,1-.22.52.79.79,0,0,1-.5.13,1,1,0,0,1-.5-.17A.44.44,0,0,1,274.41,32.32Z"/><path class="cls-10" d="M279.27,26.23a18.27,18.27,0,0,0,0,2.8,5.43,5.43,0,0,0,.29,1.5,1.06,1.06,0,0,0,.48.62,1.3,1.3,0,0,0,.51.12,1.77,1.77,0,0,0,.76-.17,2.13,2.13,0,0,0,1.05-1.1,2,2,0,0,0,.16-.78V26.44a.75.75,0,0,1,.23-.52.81.81,0,0,1,.48-.23.72.72,0,0,1,.81.69l0,5.88a.57.57,0,0,1-.22.52.79.79,0,0,1-.5.13,1,1,0,0,1-.5-.17.44.44,0,0,1-.22-.38l0-.31a3.31,3.31,0,0,1-.93.51,3.18,3.18,0,0,1-1.06.18A2.36,2.36,0,0,1,278,31a7,7,0,0,1-.32-2q0-1.19,0-2.66a.59.59,0,0,1,.26-.52.89.89,0,0,1,.53-.13,1.1,1.1,0,0,1,.52.17A.39.39,0,0,1,279.27,26.23Z"/><path class="cls-10" d="M291.11,30.62a.63.63,0,0,1,.49-.21,1,1,0,0,1,.53.15.75.75,0,0,1,.32.39.53.53,0,0,1-.13.52,3.67,3.67,0,0,1-1.24,1,3.76,3.76,0,0,1-1.41.39,3.65,3.65,0,0,1-1.4-.18,3.49,3.49,0,0,1-1.22-.69,3.45,3.45,0,0,1-.86-1.16,3.64,3.64,0,0,1-.32-1.55,3.45,3.45,0,0,1,.26-1.34,3.49,3.49,0,0,1,.73-1.11,3.57,3.57,0,0,1,1.09-.76,3.41,3.41,0,0,1,1.33-.3,3.47,3.47,0,0,1,1.16.16,3.26,3.26,0,0,1,1,.51,2.87,2.87,0,0,1,.73.82,3.05,3.05,0,0,1,.39,1.09,1.31,1.31,0,0,1-.21,1,1.71,1.71,0,0,1-1.34.38l-3.69,0a2.18,2.18,0,0,0,.52,1.05,2,2,0,0,0,.94.62,2,2,0,0,0,1.15,0A2.47,2.47,0,0,0,291.11,30.62Zm-1.84-3.38a1.89,1.89,0,0,0-1,.32,2.11,2.11,0,0,0-.7.79l3.59,0a1.38,1.38,0,0,0-.74-.95,1.72,1.72,0,0,0-.55-.17A4.37,4.37,0,0,0,289.27,27.25Z"/></g></g></svg>