<svg xmlns="http://www.w3.org/2000/svg" width="313.13" height="50.1" viewBox="0 0 313.13 50.1">
  <title>okay</title>
  <g id="Layer_2" data-name="Layer 2">
    <g id="Layer_1-2" data-name="Layer 1">
      <rect x="156.56" y="4.97" width="156.56" height="39.17" rx="19.59" ry="19.59" fill="#fdfefd"/>
      <rect x="158.96" y="6.07" width="151.28" height="35.87" rx="17.93" ry="17.93" fill="#19487d"/>
      <rect x="158.52" y="6.07" width="151.67" height="34.29" rx="17.15" ry="17.15" fill="#3267b0"/>
      <rect x="159.73" y="6.07" width="149.81" height="33.92" rx="16.96" ry="16.96" fill="#42a4dc"/>
      <path d="M292,6.07H177.24c-9.65,0-17.54,7.63-17.54,17h0c0,.33,0,.66,0,1,.53-8.88,8.2-16,17.51-16H292c9.31,0,17,7.1,17.51,16,0-.32,0-.65,0-1h0C309.51,13.7,301.62,6.07,292,6.07Z" fill="#9dd4ed" fill-rule="evenodd"/>
      <path d="M292,38H177.24c-9.31,0-17-7.1-17.51-16,0,.32,0,.65,0,1h0c0,9.33,7.89,17,17.54,17H292c9.65,0,17.54-7.63,17.54-17h0c0-.33,0-.66,0-1C308.95,30.92,301.28,38,292,38Z" fill="#243f94" fill-rule="evenodd"/>
      <path d="M291.11,45.45H178.58c-11.42,0-20.8-8.41-21.91-19.17a20.83,20.83,0,0,0-.11,2.13h0c0,11.76,9.86,21.29,22,21.29H291.11c12.16,0,22-9.53,22-21.29h0a20.83,20.83,0,0,0-.11-2.13C311.92,37,302.53,45.45,291.11,45.45Z" fill="#5e5f5f" fill-rule="evenodd"/>
      <path d="M291.11,44.15H178.58c-11.82,0-21.46-9-22-20.31,0,.33,0,.65,0,1h0c0,11.76,9.86,21.29,22,21.29H291.11c12.16,0,22-9.53,22-21.29h0c0-.33,0-.66,0-1C312.57,35.14,302.93,44.15,291.11,44.15Z" fill="#888" fill-rule="evenodd"/>
      <rect width="156.56" height="44.32" rx="22.09" ry="22.09" fill="#fdfefd"/>
      <rect x="2.4" y="1.29" width="151.28" height="40.73" rx="20.3" ry="20.3" fill="#19487d"/>
      <rect x="1.96" y="0.98" width="151.67" height="39.39" rx="19.63" ry="19.63" fill="#3267b0"/>
      <rect x="3.16" y="0.61" width="149.81" height="35.3" rx="17.59" ry="17.59" fill="#42a4dc"/>
      <path d="M135.41.61H20.67A17.65,17.65,0,0,0,3.13,18.26h0c0,.34,0,.68,0,1A17.64,17.64,0,0,1,20.67,2.65H135.41a17.64,17.64,0,0,1,17.51,16.63c0-.34,0-.68,0-1h0A17.65,17.65,0,0,0,135.41.61Z" fill="#9dd4ed" fill-rule="evenodd"/>
      <path d="M135.41,33.86H20.67A17.64,17.64,0,0,1,3.16,17.24c0,.34,0,.68,0,1h0A17.65,17.65,0,0,0,20.67,35.91H135.41a17.65,17.65,0,0,0,17.54-17.65h0c0-.34,0-.68,0-1A17.64,17.64,0,0,1,135.41,33.86Z" fill="#243f94" fill-rule="evenodd"/>
      <path d="M134.55,45.68H22A22.07,22.07,0,0,1,.11,25.73C0,26.46,0,27.2,0,27.94H0A22.09,22.09,0,0,0,22,50.1H134.55a22.09,22.09,0,0,0,22-22.16h0c0-.75,0-1.48-.11-2.21A22.07,22.07,0,0,1,134.55,45.68Z" fill="#5e5f5f" fill-rule="evenodd"/>
      <path d="M134.55,44.32H22A22.08,22.08,0,0,1,0,23.18c0,.34,0,.68,0,1H0A22.09,22.09,0,0,0,22,46.36H134.55a22.09,22.09,0,0,0,22-22.16h0c0-.34,0-.68,0-1A22.08,22.08,0,0,1,134.55,44.32Z" fill="#888" fill-rule="evenodd"/>
      <g>
        <g>
          <path d="M67.34,18.33a10.87,10.87,0,0,1,.43-3.1A9,9,0,0,1,69,12.66a6.1,6.1,0,0,1,1.78-1.75,4,4,0,0,1,4.33,0,6.11,6.11,0,0,1,1.78,1.75,9,9,0,0,1,1.2,2.57,10.87,10.87,0,0,1,.43,3.1,10.42,10.42,0,0,1-.43,3.07,8.36,8.36,0,0,1-1.2,2.47,5.87,5.87,0,0,1-1.78,1.66,4.21,4.21,0,0,1-4.33,0A5.86,5.86,0,0,1,69,23.87a8.35,8.35,0,0,1-1.2-2.47A10.43,10.43,0,0,1,67.34,18.33Zm1.89.15a8,8,0,0,0,.29,2.21,6.52,6.52,0,0,0,.8,1.81,4.18,4.18,0,0,0,1.19,1.22,2.57,2.57,0,0,0,1.44.45,2.51,2.51,0,0,0,1.43-.45,4.12,4.12,0,0,0,1.16-1.22,6.5,6.5,0,0,0,.78-1.81,8.38,8.38,0,0,0,.28-2.21,8.89,8.89,0,0,0-.29-2.28,7.59,7.59,0,0,0-.8-2,4.86,4.86,0,0,0-1.18-1.38,2.31,2.31,0,0,0-1.44-.52,2.26,2.26,0,0,0-1.43.52,4.78,4.78,0,0,0-1.16,1.38,7.56,7.56,0,0,0-.78,2A9.26,9.26,0,0,0,69.23,18.48Z" fill="#19487d"/>
          <path d="M81.33,11.22a.77.77,0,0,1,.43-.62,1.3,1.3,0,0,1,1.38.17.5.5,0,0,1,.2.54l0,8.56,4-3.36a.79.79,0,0,1,.76,0,1.38,1.38,0,0,1,.73,1.24.5.5,0,0,1-.32.48l-2.37,1.91L89,24.83a.62.62,0,0,1,0,.59,1.4,1.4,0,0,1-.43.56,1.11,1.11,0,0,1-.66.24.76.76,0,0,1-.65-.37l-2.75-4.43-1.17.92,0,2.9a.75.75,0,0,1-.29.68,1,1,0,0,1-.65.17,1.34,1.34,0,0,1-.65-.22.57.57,0,0,1-.29-.5Z" fill="#19487d"/>
        </g>
        <g>
          <path d="M67.34,16.58a10.87,10.87,0,0,1,.43-3.1A9,9,0,0,1,69,10.91a6.1,6.1,0,0,1,1.78-1.75,4,4,0,0,1,4.33,0,6.11,6.11,0,0,1,1.78,1.75,9,9,0,0,1,1.2,2.57,10.87,10.87,0,0,1,.43,3.1,10.42,10.42,0,0,1-.43,3.07,8.36,8.36,0,0,1-1.2,2.47,5.87,5.87,0,0,1-1.78,1.66,4.21,4.21,0,0,1-4.33,0A5.86,5.86,0,0,1,69,22.13a8.35,8.35,0,0,1-1.2-2.47A10.43,10.43,0,0,1,67.34,16.58Zm1.89.15a8,8,0,0,0,.29,2.21,6.52,6.52,0,0,0,.8,1.81A4.18,4.18,0,0,0,71.51,22a2.57,2.57,0,0,0,1.44.45A2.51,2.51,0,0,0,74.37,22a4.12,4.12,0,0,0,1.16-1.22,6.5,6.5,0,0,0,.78-1.81,8.38,8.38,0,0,0,.28-2.21,8.89,8.89,0,0,0-.29-2.28,7.59,7.59,0,0,0-.8-2,4.86,4.86,0,0,0-1.18-1.38,2.31,2.31,0,0,0-1.44-.52,2.26,2.26,0,0,0-1.43.52,4.78,4.78,0,0,0-1.16,1.38,7.56,7.56,0,0,0-.78,2A9.26,9.26,0,0,0,69.23,16.74Z" fill="#fcf9d9"/>
          <path d="M81.33,9.47a.77.77,0,0,1,.43-.62A1.3,1.3,0,0,1,83.14,9a.5.5,0,0,1,.2.54l0,8.56,4-3.36a.79.79,0,0,1,.76,0A1.38,1.38,0,0,1,88.84,16a.5.5,0,0,1-.32.48l-2.37,1.91L89,23.08a.62.62,0,0,1,0,.59,1.4,1.4,0,0,1-.43.56,1.11,1.11,0,0,1-.66.24.76.76,0,0,1-.65-.37l-2.75-4.43-1.17.92,0,2.9a.75.75,0,0,1-.29.68,1,1,0,0,1-.65.17,1.34,1.34,0,0,1-.65-.22.57.57,0,0,1-.29-.5Z" fill="#fcf9d9"/>
        </g>
      </g>
      <g>
        <path d="M223.91,25a10.87,10.87,0,0,1,.43-3.1,9,9,0,0,1,1.2-2.57,6.1,6.1,0,0,1,1.78-1.75,4,4,0,0,1,4.33,0,6.11,6.11,0,0,1,1.78,1.75,9,9,0,0,1,1.2,2.57,10.87,10.87,0,0,1,.43,3.1,10.42,10.42,0,0,1-.43,3.07,8.36,8.36,0,0,1-1.2,2.47,5.87,5.87,0,0,1-1.78,1.66,4.21,4.21,0,0,1-4.33,0,5.86,5.86,0,0,1-1.78-1.66,8.35,8.35,0,0,1-1.2-2.47A10.43,10.43,0,0,1,223.91,25Zm1.89.15a8,8,0,0,0,.29,2.21,6.52,6.52,0,0,0,.8,1.81,4.18,4.18,0,0,0,1.19,1.22,2.57,2.57,0,0,0,1.44.45,2.51,2.51,0,0,0,1.43-.45,4.12,4.12,0,0,0,1.16-1.22,6.5,6.5,0,0,0,.78-1.81,8.38,8.38,0,0,0,.28-2.21,8.89,8.89,0,0,0-.29-2.28,7.59,7.59,0,0,0-.8-2,4.86,4.86,0,0,0-1.18-1.38,2.31,2.31,0,0,0-1.44-.52,2.26,2.26,0,0,0-1.43.52A4.78,4.78,0,0,0,226.85,21a7.56,7.56,0,0,0-.78,2A9.26,9.26,0,0,0,225.79,25.2Z" fill="#fcf9d9"/>
        <path d="M237.9,17.93a.77.77,0,0,1,.43-.62,1.3,1.3,0,0,1,1.38.17.5.5,0,0,1,.2.54l0,8.56,4-3.36a.79.79,0,0,1,.76,0,1.38,1.38,0,0,1,.73,1.24.5.5,0,0,1-.32.48l-2.37,1.91,2.88,4.71a.62.62,0,0,1,0,.59,1.4,1.4,0,0,1-.43.56,1.11,1.11,0,0,1-.66.24.76.76,0,0,1-.65-.37l-2.75-4.43-1.17.92,0,2.9a.75.75,0,0,1-.29.68,1,1,0,0,1-.65.17,1.34,1.34,0,0,1-.65-.22.57.57,0,0,1-.29-.5Z" fill="#fcf9d9"/>
      </g>
    </g>
  </g>
</svg>
