<svg xmlns="http://www.w3.org/2000/svg" width="175.19" height="90" viewBox="0 0 175.19 90"><defs><style>.cls-1{fill:#5e5f5f;}.cls-2{fill:#f7f8fa;}.cls-3{fill:#3d3d3d;}.cls-4{fill:#4c7838;}.cls-5{fill:#898989;}.cls-6{fill:#75ac42;}.cls-7{fill:#96cb5c;}.cls-8{fill:#2b4c23;}.cls-9{fill:#fafcfd;stroke:#4c7838;stroke-miterlimit:10;}.cls-10{fill:#618e4a;}</style></defs><title>green_video_node</title><g id="Layer_2" data-name="Layer 2"><g id="Layer_1-2" data-name="Layer 1"><path class="cls-1" d="M131.4,83.89c-23.11,0-42-17.16-43.63-38.89-.08,1-.16,2-.16,3.05C87.61,71.22,107.22,90,131.4,90s43.79-18.78,43.79-41.95c0-1-.08-2-.16-3.05C173.39,66.73,154.51,83.89,131.4,83.89Z"/><ellipse class="cls-2" cx="131.37" cy="41.95" rx="43.79" ry="41.95"/><circle class="cls-3" cx="131.52" cy="39.06" r="38.56"/><circle class="cls-4" cx="131.52" cy="38.18" r="37.29"/><path class="cls-5" d="M174.84,45.3c-2.6,20.79-21,36.91-43.47,36.91C109.16,82.21,90.86,66.4,88,45.9l0-.08-.18-.21c1.77,21.61,20.55,38.64,43.58,38.64,23.27,0,42.26-17.37,43.7-39.29A2.83,2.83,0,0,1,174.84,45.3Z"/><ellipse class="cls-6" cx="131.33" cy="37.96" rx="37.48" ry="34.91"/><path class="cls-7" d="M131.33,5.35c20.28,0,36.76,15.08,37.42,33.89,0-.39.06-.76.06-1.15,0-19.35-16.78-35-37.48-35s-37.48,15.69-37.48,35c0,.39,0,.77.06,1.15C94.57,20.43,111,5.35,131.33,5.35Z"/><path class="cls-8" d="M153.76,29.71c0-.3-.38-.5-.73-.38-4.51,1.54-9.18,3.13-13.6,4.54-2.6-.08-3,9.64-.56,9.74l14.07,4.61c.35.11.73-.08.73-.37Z"/><path class="cls-8" d="M135.65,49.67l-23.52-.41c-1.79,0-3.24-1.23-3.23-2.67l.1-16.3c0-1.45,1.47-2.62,3.26-2.62l23.52,0c1.87,0,3.39,1.2,3.38,2.68L139.07,47C139.06,48.52,137.53,49.7,135.65,49.67Z"/><path class="cls-9" d="M153.3,28.25c0-.3-.38-.5-.72-.38-4.42,1.56-9,3.17-13.31,4.59-2.54-.07-3,9.65-.55,9.74l13.76,4.55c.34.11.71-.08.71-.37Z"/><path class="cls-9" d="M134.74,48.26,113.38,48c-2.2,0-4-1.53-4-3.34l.09-15c0-1.81,1.8-3.29,4-3.3l21.36-.11c2.3,0,4.16,1.49,4.15,3.35L138.92,45C138.91,46.81,137,48.3,134.74,48.26Z"/><path class="cls-10" d="M131.33,70.56c-20.28,0-36.76-15.08-37.42-33.89,0,.39-.06.76-.06,1.15,0,19.35,16.78,35,37.48,35s37.48-15.69,37.48-35c0-.39,0-.77-.06-1.15C168.1,55.48,151.62,70.56,131.33,70.56Z"/><path class="cls-1" d="M43.82,83.89C20.71,83.89,1.83,66.73.19,45,.11,46,0,47,0,48.05,0,71.22,19.63,90,43.82,90S87.61,71.22,87.61,48.05c0-1-.08-2-.16-3.05C85.81,66.73,66.93,83.89,43.82,83.89Z"/><ellipse class="cls-2" cx="43.79" cy="41.95" rx="43.79" ry="41.95"/><circle class="cls-3" cx="43.94" cy="39.06" r="38.56"/><circle class="cls-4" cx="43.94" cy="38.18" r="37.29"/><ellipse class="cls-6" cx="43.79" cy="33.9" rx="33.13" ry="30.86"/><path class="cls-7" d="M43.79,5.08c17.93,0,32.5,13.33,33.08,30,0-.34.05-.67.05-1,0-17.11-14.83-31-33.13-31S10.66,16.92,10.66,34c0,.34,0,.68.05,1C11.29,18.41,25.86,5.08,43.79,5.08Z"/><path class="cls-8" d="M67.48,27.1c0-.3-.38-.5-.73-.38-4.51,1.54-9.18,3.13-13.6,4.54-2.6-.08-3,9.64-.56,9.74l14.07,4.61c.35.11.73-.08.73-.37Z"/><path class="cls-8" d="M49.37,47.06l-23.52-.41c-1.79,0-3.24-1.23-3.23-2.67l.1-16.3c0-1.45,1.47-2.62,3.26-2.62l23.52,0c1.87,0,3.39,1.2,3.38,2.68l-.1,16.73C52.78,45.91,51.25,47.09,49.37,47.06Z"/><path class="cls-9" d="M67,21.64c0-.3-.38-.5-.72-.38-4.42,1.56-9,3.17-13.31,4.59-2.54-.07-3,9.65-.55,9.74l13.76,4.55c.34.11.71-.08.71-.37Z"/><path class="cls-9" d="M48.46,41.65l-21.36-.3c-2.2,0-4-1.53-4-3.34l.09-15c0-1.81,1.8-3.29,4-3.3l21.36-.11c2.3,0,4.16,1.49,4.15,3.35l-.09,15.36C52.63,40.2,50.76,41.69,48.46,41.65Z"/><path class="cls-5" d="M87.25,45.3c-2.6,20.79-21,36.91-43.47,36.91C21.57,82.21,3.28,66.4.4,45.9l0-.08L.2,45.61C2,67.22,20.74,84.25,43.78,84.25,67.05,84.25,86,66.88,87.48,45A2.83,2.83,0,0,1,87.25,45.3Z"/><path class="cls-10" d="M43.79,62.73c-17.93,0-32.5-13.33-33.08-30,0,.34-.05.67-.05,1,0,17.11,14.83,31,33.13,31s33.13-13.87,33.13-31c0-.34,0-.68-.05-1C76.29,49.4,61.72,62.73,43.79,62.73Z"/></g></g></svg>