<svg xmlns="http://www.w3.org/2000/svg" width="175.21" height="90" viewBox="0 0 175.21 90"><defs><style>.cls-1{fill:#5e5f5f;}.cls-2{fill:#f7f8fa;}.cls-3{fill:#3d3d3d;}.cls-4{fill:#4c7838;}.cls-5{fill:#75ac42;}.cls-6{fill:#96cb5c;}.cls-7{fill:#898989;}.cls-8{fill:#618e4a;}.cls-9{fill:#2b4c23;}.cls-10,.cls-9{fill-rule:evenodd;}.cls-10{fill:#fafcfd;stroke:#4c7838;stroke-miterlimit:10;}</style></defs><title>green_practice_node</title><g id="Layer_2" data-name="Layer 2"><g id="Layer_1-2" data-name="Layer 1"><path class="cls-1" d="M43.82,83.89C20.71,83.89,1.83,66.73.19,45,.11,46,0,47,0,48.05,0,71.22,19.63,90,43.82,90S87.61,71.22,87.61,48.05c0-1-.08-2-.16-3.05C85.81,66.73,66.92,83.89,43.82,83.89Z"/><ellipse class="cls-2" cx="43.79" cy="41.95" rx="43.79" ry="41.95"/><circle class="cls-3" cx="43.94" cy="39.06" r="38.56"/><circle class="cls-4" cx="43.94" cy="38.17" r="37.29"/><ellipse class="cls-5" cx="44.14" cy="33.56" rx="33.13" ry="30.86"/><path class="cls-6" d="M43.79,4.63c17.93,0,32.5,13.33,33.08,30,0-.34.05-.67.05-1,0-17.11-14.83-31-33.13-31s-33.13,13.87-33.13,31c0,.34,0,.68.05,1C11.29,18,25.86,4.63,43.79,4.63Z"/><path class="cls-7" d="M87.25,45.3c-2.6,20.79-21,36.91-43.47,36.91C21.57,82.21,3.28,66.4.4,45.9l0-.08L.2,45.61C2,67.22,20.74,84.25,43.78,84.25,67.05,84.25,86,66.88,87.48,45A2.83,2.83,0,0,1,87.25,45.3Z"/><path class="cls-8" d="M44.27,62.59c-17.93,0-32.5-13.33-33.08-30,0,.34-.05.67-.05,1,0,17.11,14.83,31,33.13,31s33.13-13.87,33.13-31c0-.34,0-.68-.05-1C76.77,49.26,62.2,62.59,44.27,62.59Z"/><path class="cls-9" d="M61.41,29.7c-.07-.05.73,1.7.66,1.65a3.78,3.78,0,0,0-.41-.23c-.08,0-.16-.1-.23-.13a1.3,1.3,0,0,0-1.1,0l-.07,0s-.19.15-.38.31-.63.54-1.07.95l-.2.18-.37.33-.49.45-1.57,1.44c-.16-2.82-.41-5.6-.68-8a7.49,7.49,0,0,0-5.23-5.88A10.61,10.61,0,0,0,49,20.48a11.21,11.21,0,0,0-1.34-.18c-4.71-.47-12.74-.12-16.52.9-1.73,2.08-2.31,25.39.1,28.79,1.25,1.38,20.64,2.34,23.91.53.9-1.59,1.22-5.37,1.21-9.76,1.68-1.51,3.58-3.27,5-4.65l.11-.1,1.23-1.17L63,34.6c.16-.16.33-.31.49-.48,2.94-3.13.51-5.4.44-5.41C62.47,28.47,62.19,30.3,61.41,29.7Z"/><path class="cls-10" d="M31.16,17c-1.73,1.95-2.31,23.79.1,27,1.25,1.29,20.64,2.19,23.91.5,1.86-3.06,1.25-14.8.33-22.39-.33-2.74-2.9-4.87-5.23-5.51C46.77,15.64,35.79,15.86,31.16,17Z"/><path class="cls-10" d="M46.82,16.14c.08,1.54.27,3,.37,4.47a1.56,1.56,0,0,0,1.68,1.56c2.19-.18,4.52-.48,6.41-.73C54.24,18.23,51.25,16.15,46.82,16.14Z"/><path class="cls-10" d="M60.25,26.19c-.56.31-11,9.39-11,9.77a3.14,3.14,0,0,1,3.21,2.41c.31.26,10.79-8.92,11.24-9.48S61.58,25.44,60.25,26.19Z"/><path class="cls-10" d="M57.74,28.26A11.55,11.55,0,0,1,61.42,31l1-.92a10.35,10.35,0,0,0-3.65-2.73Z"/><path class="cls-10" d="M58.8,27.36a10.35,10.35,0,0,1,3.65,2.73,16.42,16.42,0,0,0,1.31-1.25c.51-.63-2.21-3.41-3.5-2.66C60.15,26.25,59.57,26.7,58.8,27.36Z"/><path class="cls-10" d="M49.4,35.92c-.33,0-2,3.74-2,4.27a18,18,0,0,0,5.2-1.82A3.23,3.23,0,0,0,49.4,35.92Z"/><path class="cls-10" d="M47.89,39.06a4.07,4.07,0,0,0-.54,1.12,4.75,4.75,0,0,0,1.37-.48A.85.85,0,0,0,47.89,39.06Z"/><path class="cls-1" d="M131.42,83.89c-23.11,0-42-17.16-43.63-38.89-.08,1-.16,2-.16,3.05C87.63,71.22,107.24,90,131.42,90s43.79-18.78,43.79-41.95c0-1-.08-2-.16-3.05C173.41,66.73,154.53,83.89,131.42,83.89Z"/><ellipse class="cls-2" cx="131.4" cy="41.95" rx="43.79" ry="41.95"/><circle class="cls-3" cx="131.54" cy="39.06" r="38.56"/><circle class="cls-4" cx="131.54" cy="38.17" r="37.29"/><path class="cls-7" d="M174.86,45.3c-2.6,20.79-21,36.91-43.47,36.91C109.18,82.21,90.88,66.4,88,45.9l0-.08-.18-.21c1.77,21.61,20.55,38.64,43.58,38.64,23.27,0,42.26-17.37,43.7-39.29A2.83,2.83,0,0,1,174.86,45.3Z"/><ellipse class="cls-5" cx="131.22" cy="37.92" rx="37.48" ry="34.91"/><path class="cls-6" d="M131.22,5.31c20.28,0,36.76,15.08,37.42,33.89,0-.39.06-.76.06-1.15,0-19.35-16.78-35-37.48-35s-37.48,15.69-37.48,35c0,.39,0,.77.06,1.15C94.46,20.39,110.94,5.31,131.22,5.31Z"/><path class="cls-8" d="M131.22,70.52c-20.28,0-36.76-15.08-37.42-33.89,0,.39-.06.76-.06,1.15,0,19.35,16.78,35,37.48,35s37.48-15.69,37.48-35c0-.39,0-.77-.06-1.15C168,55.45,151.51,70.52,131.22,70.52Z"/><path class="cls-9" d="M151.45,33.64l-.11,0a4.34,4.34,0,0,1-2.29-1.5,2.5,2.5,0,0,1-.4-1.21,1.1,1.1,0,0,0-.72.08l-.07,0s-.19.15-.38.31-.63.54-1.07.95l-.2.18-.37.33-.49.45-1.57,1.44c-.16-2.82-.41-5.6-.68-8a7.49,7.49,0,0,0-5.23-5.88,10.61,10.61,0,0,0-1.24-.26,11.22,11.22,0,0,0-1.34-.18c-4.71-.47-12.74-.12-16.52.9-1.73,2.08-2.31,25.39.1,28.79,1.25,1.38,20.64,2.34,23.91.53.9-1.59,1.22-5.37,1.21-9.76,1.68-1.51,3.58-3.27,5-4.65l.11-.1,1.23-1.17.25-.25c.16-.16.33-.31.49-.48s.27-.31.39-.46Z"/><path class="cls-10" d="M118.77,22c-1.73,1.95-2.31,23.79.1,27,1.25,1.29,20.64,2.19,23.91.5,1.86-3.06,1.25-14.8.33-22.39-.33-2.74-2.9-4.87-5.23-5.51C134.37,20.64,123.4,20.86,118.77,22Z"/><path class="cls-10" d="M134.43,21.14c.08,1.54.27,3,.37,4.47a1.56,1.56,0,0,0,1.68,1.56c2.19-.18,4.52-.48,6.41-.73C141.84,23.23,138.86,21.15,134.43,21.14Z"/><path class="cls-10" d="M147.86,31.19c-.56.31-11,9.39-11,9.77a3.14,3.14,0,0,1,3.21,2.41c.31.26,10.79-8.92,11.24-9.48S149.19,30.44,147.86,31.19Z"/><path class="cls-10" d="M145.35,33.26A11.55,11.55,0,0,1,149,36l1-.92a10.35,10.35,0,0,0-3.65-2.73Z"/><path class="cls-10" d="M146.41,32.36a10.35,10.35,0,0,1,3.65,2.73,16.42,16.42,0,0,0,1.31-1.25c.51-.63-2.21-3.41-3.5-2.66C147.76,31.25,147.17,31.7,146.41,32.36Z"/><path class="cls-10" d="M137,40.92c-.33,0-2,3.74-2,4.27a18,18,0,0,0,5.2-1.82A3.23,3.23,0,0,0,137,40.92Z"/><path class="cls-10" d="M135.5,44.06a4.07,4.07,0,0,0-.54,1.12,4.75,4.75,0,0,0,1.37-.48A.85.85,0,0,0,135.5,44.06Z"/></g></g></svg>