<svg xmlns="http://www.w3.org/2000/svg" width="300" height="48" viewBox="0 0 300 48">
  <title>join_button</title>
  <g id="Layer_2" data-name="Layer 2">
    <g id="Layer_1-2" data-name="Layer 1">
      <rect width="150" height="42.46" rx="21.16" ry="21.16" fill="#fdfefd"/>
      <rect x="2.3" y="1.23" width="144.94" height="39.02" rx="19.45" ry="19.45" fill="#19487d"/>
      <rect x="1.88" y="0.94" width="145.31" height="37.74" rx="18.81" ry="18.81" fill="#3267b0"/>
      <rect x="3.03" y="0.58" width="143.53" height="33.82" rx="16.86" ry="16.86" fill="#42a4dc"/>
      <path d="M129.73.58H19.8A16.91,16.91,0,0,0,3,17.49H3c0,.33,0,.65,0,1A16.9,16.9,0,0,1,19.8,2.54H129.73A16.9,16.9,0,0,1,146.5,18.47c0-.32,0-.65,0-1h0A16.91,16.91,0,0,0,129.73.58Z" fill="#9dd4ed" fill-rule="evenodd"/>
      <path d="M129.73,32.45H19.8A16.9,16.9,0,0,1,3,16.51c0,.32,0,.65,0,1H3A16.91,16.91,0,0,0,19.8,34.4H129.73a16.91,16.91,0,0,0,16.8-16.91h0c0-.33,0-.65,0-1A16.9,16.9,0,0,1,129.73,32.45Z" fill="#243f94" fill-rule="evenodd"/>
      <path d="M128.91,43.76H21.09a21.15,21.15,0,0,1-21-19.11C0,25.35,0,26.06,0,26.77H0A21.16,21.16,0,0,0,21.09,48H128.91A21.16,21.16,0,0,0,150,26.77h0c0-.72,0-1.42-.11-2.12A21.15,21.15,0,0,1,128.91,43.76Z" fill="#5e5f5f" fill-rule="evenodd"/>
      <path d="M128.91,42.46H21.09A21.15,21.15,0,0,1,0,22.21c0,.32,0,.65,0,1H0A21.16,21.16,0,0,0,21.09,44.41H128.91A21.16,21.16,0,0,0,150,23.18h0c0-.33,0-.65,0-1A21.15,21.15,0,0,1,128.91,42.46Z" fill="#888" fill-rule="evenodd"/>
      <rect x="150" y="4.76" width="150" height="37.53" rx="18.77" ry="18.77" fill="#fdfefd"/>
      <rect x="152.3" y="5.81" width="144.94" height="34.36" rx="17.18" ry="17.18" fill="#19487d"/>
      <rect x="151.88" y="5.81" width="145.31" height="32.86" rx="16.43" ry="16.43" fill="#3267b0"/>
      <rect x="153.03" y="5.81" width="143.53" height="32.5" rx="16.25" ry="16.25" fill="#42a4dc"/>
      <path d="M279.73,5.81H169.8c-9.24,0-16.8,7.31-16.8,16.25h0c0,.32,0,.63,0,.94A16.62,16.62,0,0,1,169.8,7.69H279.73A16.62,16.62,0,0,1,296.5,23c0-.31,0-.62,0-.94h0C296.53,13.13,289,5.81,279.73,5.81Z" fill="#9dd4ed" fill-rule="evenodd"/>
      <path d="M279.73,36.43H169.8A16.62,16.62,0,0,1,153,21.12c0,.31,0,.62,0,.94h0c0,8.94,7.56,16.25,16.8,16.25H279.73c9.24,0,16.8-7.31,16.8-16.25h0c0-.32,0-.63,0-.94A16.62,16.62,0,0,1,279.73,36.43Z" fill="#243f94" fill-rule="evenodd"/>
      <path d="M278.91,43.55H171.09c-10.94,0-19.93-8.05-21-18.36a20,20,0,0,0-.11,2h0c0,11.27,9.44,20.4,21.09,20.4H278.91c11.65,0,21.09-9.13,21.09-20.4h0a20,20,0,0,0-.11-2C298.84,35.49,289.85,43.55,278.91,43.55Z" fill="#5e5f5f" fill-rule="evenodd"/>
      <path d="M278.91,42.29H171.09c-11.32,0-20.56-8.63-21.07-19.46,0,.31,0,.62,0,.94h0c0,11.27,9.44,20.4,21.09,20.4H278.91C290.56,44.17,300,35,300,23.77h0c0-.32,0-.63,0-.94C299.47,33.66,290.23,42.29,278.91,42.29Z" fill="#888" fill-rule="evenodd"/>
      <g>
        <g>
          <path d="M57.77,20.46a5.28,5.28,0,0,0,1.28,2,2.48,2.48,0,0,0,1.82.76A1.49,1.49,0,0,0,62,22.62a4.56,4.56,0,0,0,.74-1.55,11.26,11.26,0,0,0,.38-2.18q.1-1.22.13-2.53t0-2.59q0-1.28-.05-2.35l-3.38-.05a.74.74,0,0,1-.67-.29,1,1,0,0,1-.17-.65,1.33,1.33,0,0,1,.22-.65.57.57,0,0,1,.5-.29H68a.79.79,0,0,1,.62.41,1,1,0,0,1,.1.66,1.11,1.11,0,0,1-.32.58.63.63,0,0,1-.61.18l-2.54,0q.05,1.29.1,2.81t0,3a23.9,23.9,0,0,1-.28,3,9.94,9.94,0,0,1-.74,2.55A5,5,0,0,1,63,24.51a3.52,3.52,0,0,1-2.11.77,3.36,3.36,0,0,1-1.47-.23,4.79,4.79,0,0,1-1.32-.79A6.48,6.48,0,0,1,57,23.05a8.05,8.05,0,0,1-.86-1.55,1,1,0,0,1-.06-.85,1.19,1.19,0,0,1,.48-.58,1,1,0,0,1,.69-.13A.73.73,0,0,1,57.77,20.46Z" fill="#19487d"/>
          <path d="M68.82,20.74A4.58,4.58,0,0,1,69.16,19a4.5,4.5,0,0,1,1-1.46,4.65,4.65,0,0,1,1.42-1,4.23,4.23,0,0,1,3.45,0,4.66,4.66,0,0,1,1.42,1,4.5,4.5,0,0,1,1,1.46,4.65,4.65,0,0,1,0,3.5,4.64,4.64,0,0,1-1,1.47A4.56,4.56,0,0,1,75,25a4.23,4.23,0,0,1-3.45,0,4.56,4.56,0,0,1-1.42-1,4.64,4.64,0,0,1-1-1.47A4.58,4.58,0,0,1,68.82,20.74Zm1.85,0a2.58,2.58,0,0,0,.2,1,2.77,2.77,0,0,0,1.37,1.43,2.38,2.38,0,0,0,2,0,2.77,2.77,0,0,0,1.37-1.43A2.63,2.63,0,0,0,75,18.91a2.87,2.87,0,0,0-.81-.57,2.38,2.38,0,0,0-2,0,2.86,2.86,0,0,0-.81.57,2.63,2.63,0,0,0-.76,1.85Z" fill="#19487d"/>
          <path d="M80.37,14.42a1.13,1.13,0,0,1,.32-.81,1.06,1.06,0,0,1,.8-.33,1.13,1.13,0,0,1,1.14,1.14,1.06,1.06,0,0,1-.33.8,1.13,1.13,0,0,1-.81.32,1.09,1.09,0,0,1-1.12-1.12ZM80.42,17a.77.77,0,0,1,.43-.62,1.34,1.34,0,0,1,1.4.17.5.5,0,0,1,.2.53l0,7.24a.74.74,0,0,1-.29.67,1,1,0,0,1-.65.17,1.33,1.33,0,0,1-.65-.22.57.57,0,0,1-.29-.5Z" fill="#19487d"/>
          <path d="M91.44,24.68a26.08,26.08,0,0,0-.1-3.48,8.47,8.47,0,0,0-.42-2,1.73,1.73,0,0,0-.61-.89,1.28,1.28,0,0,0-.65-.2,2.29,2.29,0,0,0-1,.22,2.77,2.77,0,0,0-1.37,1.43,2.58,2.58,0,0,0-.2,1V24.4a1,1,0,0,1-.3.67,1.06,1.06,0,0,1-.62.3.94.94,0,0,1-1.05-.9l0-7.64a.74.74,0,0,1,.29-.67,1,1,0,0,1,.65-.17,1.34,1.34,0,0,1,.65.22.57.57,0,0,1,.29.5l0,.41a4.29,4.29,0,0,1,1.21-.66,4.13,4.13,0,0,1,1.38-.23,3.09,3.09,0,0,1,2.06.62,3.75,3.75,0,0,1,1.1,1.73,10,10,0,0,1,.44,2.64q.08,1.54.08,3.34a.74.74,0,0,1-.29.67,1,1,0,0,1-.65.17,1.33,1.33,0,0,1-.65-.22A.57.57,0,0,1,91.44,24.68Z" fill="#19487d"/>
        </g>
        <g>
          <path d="M57.77,19.46a5.28,5.28,0,0,0,1.28,2,2.48,2.48,0,0,0,1.82.76A1.49,1.49,0,0,0,62,21.62a4.56,4.56,0,0,0,.74-1.55,11.26,11.26,0,0,0,.38-2.18q.1-1.22.13-2.53t0-2.59q0-1.28-.05-2.35l-3.38-.05a.74.74,0,0,1-.67-.29A1,1,0,0,1,59,9.43a1.33,1.33,0,0,1,.22-.65.57.57,0,0,1,.5-.29H68a.79.79,0,0,1,.62.41,1,1,0,0,1,.1.66,1.11,1.11,0,0,1-.32.58.63.63,0,0,1-.61.18l-2.54,0q.05,1.29.1,2.81t0,3a23.9,23.9,0,0,1-.28,3,9.94,9.94,0,0,1-.74,2.55A5,5,0,0,1,63,23.51a3.52,3.52,0,0,1-2.11.77,3.36,3.36,0,0,1-1.47-.23,4.79,4.79,0,0,1-1.32-.79A6.48,6.48,0,0,1,57,22.05a8.05,8.05,0,0,1-.86-1.55,1,1,0,0,1-.06-.85,1.19,1.19,0,0,1,.48-.58,1,1,0,0,1,.69-.13A.73.73,0,0,1,57.77,19.46Z" fill="#fcf9d9"/>
          <path d="M68.82,19.74A4.58,4.58,0,0,1,69.16,18a4.5,4.5,0,0,1,1-1.46,4.65,4.65,0,0,1,1.42-1,4.23,4.23,0,0,1,3.45,0,4.66,4.66,0,0,1,1.42,1,4.5,4.5,0,0,1,1,1.46,4.65,4.65,0,0,1,0,3.5,4.64,4.64,0,0,1-1,1.47A4.56,4.56,0,0,1,75,24a4.23,4.23,0,0,1-3.45,0,4.56,4.56,0,0,1-1.42-1,4.64,4.64,0,0,1-1-1.47A4.58,4.58,0,0,1,68.82,19.74Zm1.85,0a2.58,2.58,0,0,0,.2,1,2.77,2.77,0,0,0,1.37,1.43,2.38,2.38,0,0,0,2,0,2.77,2.77,0,0,0,1.37-1.43A2.63,2.63,0,0,0,75,17.91a2.87,2.87,0,0,0-.81-.57,2.38,2.38,0,0,0-2,0,2.86,2.86,0,0,0-.81.57,2.63,2.63,0,0,0-.76,1.85Z" fill="#fcf9d9"/>
          <path d="M80.37,13.42a1.13,1.13,0,0,1,.32-.81,1.06,1.06,0,0,1,.8-.33,1.13,1.13,0,0,1,1.14,1.14,1.06,1.06,0,0,1-.33.8,1.13,1.13,0,0,1-.81.32,1.09,1.09,0,0,1-1.12-1.12ZM80.42,16a.77.77,0,0,1,.43-.62,1.34,1.34,0,0,1,1.4.17.5.5,0,0,1,.2.53l0,7.24a.74.74,0,0,1-.29.67,1,1,0,0,1-.65.17,1.33,1.33,0,0,1-.65-.22.57.57,0,0,1-.29-.5Z" fill="#fcf9d9"/>
          <path d="M91.44,23.68a26.08,26.08,0,0,0-.1-3.48,8.47,8.47,0,0,0-.42-2,1.73,1.73,0,0,0-.61-.89,1.28,1.28,0,0,0-.65-.2,2.29,2.29,0,0,0-1,.22,2.77,2.77,0,0,0-1.37,1.43,2.58,2.58,0,0,0-.2,1V23.4a1,1,0,0,1-.3.67,1.06,1.06,0,0,1-.62.3.94.94,0,0,1-1.05-.9l0-7.64a.74.74,0,0,1,.29-.67,1,1,0,0,1,.65-.17,1.34,1.34,0,0,1,.65.22.57.57,0,0,1,.29.5l0,.41a4.29,4.29,0,0,1,1.21-.66,4.13,4.13,0,0,1,1.38-.23,3.09,3.09,0,0,1,2.06.62,3.75,3.75,0,0,1,1.1,1.73,10,10,0,0,1,.44,2.64q.08,1.54.08,3.34a.74.74,0,0,1-.29.67,1,1,0,0,1-.65.17,1.33,1.33,0,0,1-.65-.22A.57.57,0,0,1,91.44,23.68Z" fill="#fcf9d9"/>
        </g>
      </g>
      <g>
        <g>
          <path d="M207.77,24.42a5.28,5.28,0,0,0,1.28,2,2.48,2.48,0,0,0,1.82.76,1.49,1.49,0,0,0,1.17-.61,4.56,4.56,0,0,0,.74-1.55,11.26,11.26,0,0,0,.38-2.18q.1-1.22.13-2.53t0-2.59q0-1.28-.05-2.35l-3.38-.05a.74.74,0,0,1-.67-.29,1,1,0,0,1-.17-.65,1.33,1.33,0,0,1,.22-.65.57.57,0,0,1,.5-.29H218a.79.79,0,0,1,.62.41,1,1,0,0,1,.1.66,1.11,1.11,0,0,1-.32.58.63.63,0,0,1-.61.18l-2.54,0q.05,1.29.1,2.81t0,3a23.9,23.9,0,0,1-.28,3,9.94,9.94,0,0,1-.74,2.55A5,5,0,0,1,213,28.47a3.52,3.52,0,0,1-2.11.77,3.36,3.36,0,0,1-1.47-.23,4.79,4.79,0,0,1-1.32-.79A6.48,6.48,0,0,1,207,27a8.05,8.05,0,0,1-.86-1.55,1,1,0,0,1-.06-.85,1.19,1.19,0,0,1,.48-.58,1,1,0,0,1,.69-.13A.73.73,0,0,1,207.77,24.42Z" fill="#19487d"/>
          <path d="M218.82,24.7a4.58,4.58,0,0,1,.34-1.75,4.5,4.5,0,0,1,1-1.46,4.65,4.65,0,0,1,1.42-1,4.23,4.23,0,0,1,3.45,0,4.66,4.66,0,0,1,1.42,1,4.5,4.5,0,0,1,1,1.46,4.65,4.65,0,0,1,0,3.5,4.64,4.64,0,0,1-1,1.47,4.56,4.56,0,0,1-1.42,1,4.23,4.23,0,0,1-3.45,0,4.56,4.56,0,0,1-1.42-1,4.64,4.64,0,0,1-1-1.47A4.58,4.58,0,0,1,218.82,24.7Zm1.85,0a2.58,2.58,0,0,0,.2,1,2.77,2.77,0,0,0,1.37,1.43,2.38,2.38,0,0,0,2,0,2.77,2.77,0,0,0,1.37-1.43,2.63,2.63,0,0,0-.56-2.87,2.87,2.87,0,0,0-.81-.57,2.38,2.38,0,0,0-2,0,2.86,2.86,0,0,0-.81.57,2.63,2.63,0,0,0-.76,1.85Z" fill="#19487d"/>
          <path d="M230.37,18.38a1.13,1.13,0,0,1,.32-.81,1.06,1.06,0,0,1,.8-.33,1.13,1.13,0,0,1,1.14,1.14,1.06,1.06,0,0,1-.33.8,1.13,1.13,0,0,1-.81.32,1.09,1.09,0,0,1-1.12-1.12Zm.05,2.62a.77.77,0,0,1,.43-.62,1.34,1.34,0,0,1,1.4.17.5.5,0,0,1,.2.53l0,7.24a.74.74,0,0,1-.29.67,1,1,0,0,1-.65.17,1.33,1.33,0,0,1-.65-.22.57.57,0,0,1-.29-.5Z" fill="#19487d"/>
          <path d="M241.44,28.63a26.08,26.08,0,0,0-.1-3.48,8.47,8.47,0,0,0-.42-2,1.73,1.73,0,0,0-.61-.89,1.28,1.28,0,0,0-.65-.2,2.29,2.29,0,0,0-1,.22,2.77,2.77,0,0,0-1.37,1.43,2.58,2.58,0,0,0-.2,1v3.61a1,1,0,0,1-.3.67,1.06,1.06,0,0,1-.62.3.94.94,0,0,1-1.05-.9l0-7.64a.74.74,0,0,1,.29-.67,1,1,0,0,1,.65-.17,1.34,1.34,0,0,1,.65.22.57.57,0,0,1,.29.5l0,.41a4.29,4.29,0,0,1,1.21-.66,4.13,4.13,0,0,1,1.38-.23,3.09,3.09,0,0,1,2.06.62,3.75,3.75,0,0,1,1.1,1.73,10,10,0,0,1,.44,2.64q.08,1.54.08,3.34a.74.74,0,0,1-.29.67,1,1,0,0,1-.65.17,1.33,1.33,0,0,1-.65-.22A.57.57,0,0,1,241.44,28.63Z" fill="#19487d"/>
        </g>
        <g>
          <path d="M207.77,24.42a5.28,5.28,0,0,0,1.28,2,2.48,2.48,0,0,0,1.82.76,1.49,1.49,0,0,0,1.17-.61,4.56,4.56,0,0,0,.74-1.55,11.26,11.26,0,0,0,.38-2.18q.1-1.22.13-2.53t0-2.59q0-1.28-.05-2.35l-3.38-.05a.74.74,0,0,1-.67-.29,1,1,0,0,1-.17-.65,1.33,1.33,0,0,1,.22-.65.57.57,0,0,1,.5-.29H218a.79.79,0,0,1,.62.41,1,1,0,0,1,.1.66,1.11,1.11,0,0,1-.32.58.63.63,0,0,1-.61.18l-2.54,0q.05,1.29.1,2.81t0,3a23.9,23.9,0,0,1-.28,3,9.94,9.94,0,0,1-.74,2.55A5,5,0,0,1,213,28.47a3.52,3.52,0,0,1-2.11.77,3.36,3.36,0,0,1-1.47-.23,4.79,4.79,0,0,1-1.32-.79A6.48,6.48,0,0,1,207,27a8.05,8.05,0,0,1-.86-1.55,1,1,0,0,1-.06-.85,1.19,1.19,0,0,1,.48-.58,1,1,0,0,1,.69-.13A.73.73,0,0,1,207.77,24.42Z" fill="#fcf9d9"/>
          <path d="M218.82,24.7a4.58,4.58,0,0,1,.34-1.75,4.5,4.5,0,0,1,1-1.46,4.65,4.65,0,0,1,1.42-1,4.23,4.23,0,0,1,3.45,0,4.66,4.66,0,0,1,1.42,1,4.5,4.5,0,0,1,1,1.46,4.65,4.65,0,0,1,0,3.5,4.64,4.64,0,0,1-1,1.47,4.56,4.56,0,0,1-1.42,1,4.23,4.23,0,0,1-3.45,0,4.56,4.56,0,0,1-1.42-1,4.64,4.64,0,0,1-1-1.47A4.58,4.58,0,0,1,218.82,24.7Zm1.85,0a2.58,2.58,0,0,0,.2,1,2.77,2.77,0,0,0,1.37,1.43,2.38,2.38,0,0,0,2,0,2.77,2.77,0,0,0,1.37-1.43,2.63,2.63,0,0,0-.56-2.87,2.87,2.87,0,0,0-.81-.57,2.38,2.38,0,0,0-2,0,2.86,2.86,0,0,0-.81.57,2.63,2.63,0,0,0-.76,1.85Z" fill="#fcf9d9"/>
          <path d="M230.37,18.38a1.13,1.13,0,0,1,.32-.81,1.06,1.06,0,0,1,.8-.33,1.13,1.13,0,0,1,1.14,1.14,1.06,1.06,0,0,1-.33.8,1.13,1.13,0,0,1-.81.32,1.09,1.09,0,0,1-1.12-1.12Zm.05,2.62a.77.77,0,0,1,.43-.62,1.34,1.34,0,0,1,1.4.17.5.5,0,0,1,.2.53l0,7.24a.74.74,0,0,1-.29.67,1,1,0,0,1-.65.17,1.33,1.33,0,0,1-.65-.22.57.57,0,0,1-.29-.5Z" fill="#fcf9d9"/>
          <path d="M241.44,28.63a26.08,26.08,0,0,0-.1-3.48,8.47,8.47,0,0,0-.42-2,1.73,1.73,0,0,0-.61-.89,1.28,1.28,0,0,0-.65-.2,2.29,2.29,0,0,0-1,.22,2.77,2.77,0,0,0-1.37,1.43,2.58,2.58,0,0,0-.2,1v3.61a1,1,0,0,1-.3.67,1.06,1.06,0,0,1-.62.3.94.94,0,0,1-1.05-.9l0-7.64a.74.74,0,0,1,.29-.67,1,1,0,0,1,.65-.17,1.34,1.34,0,0,1,.65.22.57.57,0,0,1,.29.5l0,.41a4.29,4.29,0,0,1,1.21-.66,4.13,4.13,0,0,1,1.38-.23,3.09,3.09,0,0,1,2.06.62,3.75,3.75,0,0,1,1.1,1.73,10,10,0,0,1,.44,2.64q.08,1.54.08,3.34a.74.74,0,0,1-.29.67,1,1,0,0,1-.65.17,1.33,1.33,0,0,1-.65-.22A.57.57,0,0,1,241.44,28.63Z" fill="#fcf9d9"/>
        </g>
      </g>
    </g>
  </g>
</svg>
