<svg xmlns="http://www.w3.org/2000/svg" width="535.53" height="48.81" viewBox="0 0 535.53 48.81">
  <title>change phone number</title>
  <g id="Layer_2" data-name="Layer 2">
    <g id="Layer_1-2" data-name="Layer 1">
      <path d="M246,45.81H21.76A21.75,21.75,0,0,1,0,24.41c0,.12,0,.24,0,.36V27A21.76,21.76,0,0,0,21.76,48.81H246A21.76,21.76,0,0,0,267.76,27V24.77c0-.12,0-.24,0-.36A21.75,21.75,0,0,1,246,45.81Z" fill="#888"/>
      <rect width="267.76" height="45.79" rx="21.76" ry="21.76" fill="#fff"/>
      <rect x="3.72" y="2.79" width="260.33" height="40.21" rx="20.1" ry="20.1" fill="#42a4dc"/>
      <g>
        <g>
          <path d="M61.5,26.56a.67.67,0,0,1,.5-.47.88.88,0,0,1,.62.12,1.08,1.08,0,0,1,.44.53.9.9,0,0,1-.06.78A6.54,6.54,0,0,1,61.19,30a3.87,3.87,0,0,1-2.53.95,3.76,3.76,0,0,1-2-.55,5.47,5.47,0,0,1-1.62-1.51A7.55,7.55,0,0,1,54,26.63a9.57,9.57,0,0,1-.39-2.8A9.84,9.84,0,0,1,54,21a8.13,8.13,0,0,1,1.09-2.33,5.52,5.52,0,0,1,1.62-1.58,3.65,3.65,0,0,1,2-.58,4.43,4.43,0,0,1,2.59.79A5.13,5.13,0,0,1,63,19.86a.49.49,0,0,1,0,.57,1.12,1.12,0,0,1-.5.44,1.14,1.14,0,0,1-.68.09.78.78,0,0,1-.57-.47,3.31,3.31,0,0,0-1.13-1.62,2.77,2.77,0,0,0-1.55-.44,2.08,2.08,0,0,0-1.29.46,4.19,4.19,0,0,0-1.05,1.24,6.89,6.89,0,0,0-.71,1.78A8.4,8.4,0,0,0,55.31,24a7.27,7.27,0,0,0,.27,2,5.72,5.72,0,0,0,.73,1.63,3.68,3.68,0,0,0,1.08,1.09,2.32,2.32,0,0,0,3-.31A4.71,4.71,0,0,0,61.5,26.56Z" fill="#19487d"/>
          <path d="M71.31,30.4a23.79,23.79,0,0,0-.09-3.17,7.7,7.7,0,0,0-.38-1.8,1.57,1.57,0,0,0-.55-.81,1.17,1.17,0,0,0-.59-.19,2.09,2.09,0,0,0-.9.2,2.51,2.51,0,0,0-1.25,1.31,2.35,2.35,0,0,0-.19.93v3.28a.9.9,0,0,1-.28.61,1,1,0,0,1-.57.28.91.91,0,0,1-.6-.15.89.89,0,0,1-.36-.67l0-12.81a.67.67,0,0,1,.27-.61.92.92,0,0,1,.59-.15,1.23,1.23,0,0,1,.59.2.52.52,0,0,1,.27.45l0,6.22a3.92,3.92,0,0,1,1.1-.6,3.76,3.76,0,0,1,1.26-.21,2.82,2.82,0,0,1,1.87.57,3.41,3.41,0,0,1,1,1.57,9.09,9.09,0,0,1,.41,2.4q.07,1.4.07,3a.68.68,0,0,1-.27.61.94.94,0,0,1-.59.15,1.22,1.22,0,0,1-.59-.2A.52.52,0,0,1,71.31,30.4Z" fill="#19487d"/>
          <path d="M81.51,30.2a3.93,3.93,0,0,1-1.1.6,3.89,3.89,0,0,1-2.83-.13,4.15,4.15,0,0,1-1.29-.91,4.23,4.23,0,0,1-.87-1.34,4.23,4.23,0,0,1,0-3.19,4.09,4.09,0,0,1,.87-1.33,4.25,4.25,0,0,1,1.29-.9,3.78,3.78,0,0,1,1.57-.33,3.72,3.72,0,0,1,1.2.2,4.07,4.07,0,0,1,1.06.54.75.75,0,0,1,.42-.54,1.18,1.18,0,0,1,1.25.15.45.45,0,0,1,.18.49l0,7a.68.68,0,0,1-.27.61.93.93,0,0,1-.59.15,1.21,1.21,0,0,1-.59-.2.52.52,0,0,1-.27-.45Zm-4.72-3.35a2.36,2.36,0,0,0,.18.92,2.51,2.51,0,0,0,1.25,1.31,2.17,2.17,0,0,0,1.8,0,2.51,2.51,0,0,0,1.25-1.31,2.41,2.41,0,0,0,0-1.85,2.39,2.39,0,0,0-.51-.76,2.62,2.62,0,0,0-.74-.52,2.16,2.16,0,0,0-1.8,0,2.62,2.62,0,0,0-.74.52,2.39,2.39,0,0,0-.51.76A2.36,2.36,0,0,0,76.79,26.84Z" fill="#19487d"/>
          <path d="M91.22,30.4a23.79,23.79,0,0,0-.09-3.17,7.7,7.7,0,0,0-.38-1.8,1.57,1.57,0,0,0-.55-.81,1.17,1.17,0,0,0-.59-.19,2.09,2.09,0,0,0-.9.2,2.51,2.51,0,0,0-1.25,1.31,2.35,2.35,0,0,0-.19.93v3.28a.9.9,0,0,1-.28.61,1,1,0,0,1-.57.28.91.91,0,0,1-.6-.15.89.89,0,0,1-.36-.67l0-7a.67.67,0,0,1,.27-.61.94.94,0,0,1,.59-.15,1.23,1.23,0,0,1,.59.2.52.52,0,0,1,.27.45l0,.37a3.92,3.92,0,0,1,1.1-.6,3.76,3.76,0,0,1,1.26-.21,2.82,2.82,0,0,1,1.87.57,3.41,3.41,0,0,1,1,1.57,9.09,9.09,0,0,1,.41,2.4q.07,1.4.07,3a.68.68,0,0,1-.27.61.94.94,0,0,1-.59.15,1.22,1.22,0,0,1-.59-.2A.52.52,0,0,1,91.22,30.4Z" fill="#19487d"/>
          <path d="M101.28,22.89a.52.52,0,0,1,.27-.45,1.23,1.23,0,0,1,.59-.2.93.93,0,0,1,.59.15A.68.68,0,0,1,103,23v6a8.21,8.21,0,0,1-1,4.49,3.62,3.62,0,0,1-3.42,1.41,3.43,3.43,0,0,1-1.67-.44,6.57,6.57,0,0,1-1.55-1.36.58.58,0,0,1-.17-.6.94.94,0,0,1,.38-.49,1.45,1.45,0,0,1,.61-.23.65.65,0,0,1,.54.14,2.78,2.78,0,0,0,1,.95,3,3,0,0,0,1,.32,2.15,2.15,0,0,0,1.17-.16,1.88,1.88,0,0,0,.75-.65,2.61,2.61,0,0,0,.38-1,5.89,5.89,0,0,0,.08-1.25,3.71,3.71,0,0,1-1.08.46,4.67,4.67,0,0,1-1.19.16,3.76,3.76,0,0,1-1.57-.33,4.25,4.25,0,0,1-1.29-.9,4.08,4.08,0,0,1-.87-1.33,4.24,4.24,0,0,1,0-3.19A4.23,4.23,0,0,1,96,23.7a4.17,4.17,0,0,1,1.29-.91,3.89,3.89,0,0,1,2.83-.13,3.9,3.9,0,0,1,1.1.6Zm-4.74,3.72a2.4,2.4,0,0,0,.69,1.69,2.62,2.62,0,0,0,.74.52,2.17,2.17,0,0,0,1.8,0,2.61,2.61,0,0,0,.74-.52,2.4,2.4,0,0,0,.51-2.61,2.52,2.52,0,0,0-1.25-1.31,2.17,2.17,0,0,0-1.8,0,2.51,2.51,0,0,0-.74.53,2.48,2.48,0,0,0-.51.77A2.35,2.35,0,0,0,96.54,26.61Z" fill="#19487d"/>
          <path d="M111.29,28.39a.75.75,0,0,1,.58-.25,1.15,1.15,0,0,1,.62.17.89.89,0,0,1,.38.46.63.63,0,0,1-.15.61,4.34,4.34,0,0,1-1.47,1.21,4.44,4.44,0,0,1-1.67.46,4.32,4.32,0,0,1-1.65-.21,4.14,4.14,0,0,1-1.45-.82,4.1,4.1,0,0,1-1-1.38,4.32,4.32,0,0,1-.38-1.84,4.15,4.15,0,0,1,1.18-2.9,4.27,4.27,0,0,1,1.29-.9,4,4,0,0,1,1.57-.36,4.09,4.09,0,0,1,1.38.18,3.88,3.88,0,0,1,1.18.6,3.4,3.4,0,0,1,.87,1,3.62,3.62,0,0,1,.46,1.29,1.56,1.56,0,0,1-.24,1.24,2,2,0,0,1-1.58.45l-4.37,0a2.58,2.58,0,0,0,.61,1.25,2.42,2.42,0,0,0,1.11.73,2.34,2.34,0,0,0,1.36,0A2.94,2.94,0,0,0,111.29,28.39Zm-2.17-4a2.25,2.25,0,0,0-1.2.38,2.5,2.5,0,0,0-.83.94l4.25,0A1.73,1.73,0,0,0,111,25a1.71,1.71,0,0,0-.53-.42,2,2,0,0,0-.65-.2A5.35,5.35,0,0,0,109.12,24.39Z" fill="#19487d"/>
          <path d="M124,30.57a.82.82,0,0,1-.43.37,1.39,1.39,0,0,1-.58.1,1.16,1.16,0,0,1-.52-.14.39.39,0,0,1-.23-.36l0-12.07a2,2,0,0,1,.49-1.41A1.72,1.72,0,0,1,124,16.5H125a9.85,9.85,0,0,1,1.29.09,8.76,8.76,0,0,1,1.41.31,4.29,4.29,0,0,1,1.29.65,3.49,3.49,0,0,1,1,1.11,3.63,3.63,0,0,1,.4,1.7,3.86,3.86,0,0,1-.55,2.2,4.53,4.53,0,0,1-1.5,1.46,6.3,6.3,0,0,1-2.06.77,8.77,8.77,0,0,1-2.24.15Zm4.69-10.25a1.53,1.53,0,0,0-.33-.91,2.66,2.66,0,0,0-.95-.76,4.59,4.59,0,0,0-1.47-.43,6.16,6.16,0,0,0-1.9.07l0,5a5.15,5.15,0,0,0,1.43-.07,5.6,5.6,0,0,0,1.54-.5,3.67,3.67,0,0,0,1.23-1A2.18,2.18,0,0,0,128.66,20.32Z" fill="#19487d"/>
          <path d="M138.12,30.4a23.79,23.79,0,0,0-.09-3.17,7.7,7.7,0,0,0-.38-1.8,1.57,1.57,0,0,0-.55-.81,1.17,1.17,0,0,0-.59-.19,2.09,2.09,0,0,0-.9.2,2.51,2.51,0,0,0-1.25,1.31,2.35,2.35,0,0,0-.19.93v3.28a.9.9,0,0,1-.28.61,1,1,0,0,1-.57.28.91.91,0,0,1-.6-.15.89.89,0,0,1-.36-.67l0-12.81a.67.67,0,0,1,.27-.61.92.92,0,0,1,.59-.15,1.23,1.23,0,0,1,.59.2.52.52,0,0,1,.27.45l0,6.22a3.92,3.92,0,0,1,1.1-.6,3.76,3.76,0,0,1,1.26-.21,2.82,2.82,0,0,1,1.87.57,3.41,3.41,0,0,1,1,1.57,9.09,9.09,0,0,1,.41,2.4q.07,1.4.07,3a.68.68,0,0,1-.27.61.94.94,0,0,1-.59.15,1.22,1.22,0,0,1-.59-.2A.52.52,0,0,1,138.12,30.4Z" fill="#19487d"/>
          <path d="M141.91,26.82a4.18,4.18,0,0,1,.31-1.6,4.09,4.09,0,0,1,.87-1.33,4.25,4.25,0,0,1,1.29-.9,3.86,3.86,0,0,1,3.15,0,4.25,4.25,0,0,1,1.29.9,4.09,4.09,0,0,1,.87,1.33,4.24,4.24,0,0,1,0,3.19,4.23,4.23,0,0,1-.87,1.34,4.15,4.15,0,0,1-1.29.91,3.86,3.86,0,0,1-3.15,0,4.15,4.15,0,0,1-1.29-.91,4.23,4.23,0,0,1-.87-1.34A4.17,4.17,0,0,1,141.91,26.82Zm1.69,0a2.36,2.36,0,0,0,.18.92A2.51,2.51,0,0,0,145,29.07a2.17,2.17,0,0,0,1.8,0,2.51,2.51,0,0,0,1.25-1.31,2.41,2.41,0,0,0,0-1.85,2.39,2.39,0,0,0-.51-.76,2.62,2.62,0,0,0-.74-.52,2.16,2.16,0,0,0-1.8,0,2.62,2.62,0,0,0-.74.52,2.39,2.39,0,0,0-.51.76A2.36,2.36,0,0,0,143.6,26.84Z" fill="#19487d"/>
          <path d="M158,30.4a23.79,23.79,0,0,0-.09-3.17,7.7,7.7,0,0,0-.38-1.8,1.57,1.57,0,0,0-.55-.81,1.17,1.17,0,0,0-.59-.19,2.09,2.09,0,0,0-.9.2,2.51,2.51,0,0,0-1.25,1.31,2.35,2.35,0,0,0-.19.93v3.28a.9.9,0,0,1-.28.61,1,1,0,0,1-.57.28.91.91,0,0,1-.6-.15.89.89,0,0,1-.36-.67l0-7a.67.67,0,0,1,.27-.61.94.94,0,0,1,.59-.15,1.23,1.23,0,0,1,.59.2.52.52,0,0,1,.27.45l0,.37a3.92,3.92,0,0,1,1.1-.6,3.76,3.76,0,0,1,1.26-.21,2.82,2.82,0,0,1,1.87.57,3.41,3.41,0,0,1,1,1.57,9.09,9.09,0,0,1,.41,2.4q.07,1.4.07,3a.68.68,0,0,1-.27.61.94.94,0,0,1-.59.15,1.22,1.22,0,0,1-.59-.2A.52.52,0,0,1,158,30.4Z" fill="#19487d"/>
          <path d="M168,28.39a.75.75,0,0,1,.58-.25,1.15,1.15,0,0,1,.62.17.89.89,0,0,1,.38.46.63.63,0,0,1-.15.61A4.34,4.34,0,0,1,168,30.6a4.44,4.44,0,0,1-1.67.46,4.32,4.32,0,0,1-1.65-.21,4.14,4.14,0,0,1-1.45-.82,4.1,4.1,0,0,1-1-1.38,4.32,4.32,0,0,1-.38-1.84,4.15,4.15,0,0,1,1.18-2.9,4.27,4.27,0,0,1,1.29-.9,4,4,0,0,1,1.57-.36,4.09,4.09,0,0,1,1.38.18,3.88,3.88,0,0,1,1.18.6,3.4,3.4,0,0,1,.87,1,3.62,3.62,0,0,1,.46,1.29,1.56,1.56,0,0,1-.24,1.24,2,2,0,0,1-1.58.45l-4.37,0a2.58,2.58,0,0,0,.61,1.25,2.42,2.42,0,0,0,1.11.73,2.34,2.34,0,0,0,1.36,0A2.94,2.94,0,0,0,168,28.39Zm-2.17-4a2.25,2.25,0,0,0-1.2.38,2.5,2.5,0,0,0-.83.94l4.25,0a1.73,1.73,0,0,0-.35-.71,1.71,1.71,0,0,0-.53-.42,2,2,0,0,0-.65-.2A5.35,5.35,0,0,0,165.85,24.39Z" fill="#19487d"/>
          <path d="M180.83,20.48l0,9.85a.68.68,0,0,1-.27.61.93.93,0,0,1-.59.15,1.23,1.23,0,0,1-.59-.2.52.52,0,0,1-.27-.45L179,17.38a.73.73,0,0,1,.29-.52,1.15,1.15,0,0,1,.54-.21,1.12,1.12,0,0,1,.59.09.9.9,0,0,1,.43.36l5.92,10.11-.12-9.83a.75.75,0,0,1,.37-.58,1.12,1.12,0,0,1,.63-.14,1,1,0,0,1,.58.23.64.64,0,0,1,.25.51l0,13a.49.49,0,0,1-.22.43,1.12,1.12,0,0,1-.51.19,1.3,1.3,0,0,1-.57-.06.66.66,0,0,1-.39-.3Z" fill="#19487d"/>
          <path d="M192.72,23.19a21.59,21.59,0,0,0-.06,3.32,6.42,6.42,0,0,0,.35,1.78,1.26,1.26,0,0,0,.57.73,1.53,1.53,0,0,0,.6.14,2.09,2.09,0,0,0,.9-.2,2.53,2.53,0,0,0,1.25-1.31,2.37,2.37,0,0,0,.19-.92V23.44a.89.89,0,0,1,.28-.61,1,1,0,0,1,.57-.28.91.91,0,0,1,.6.15.9.9,0,0,1,.36.67l0,7a.68.68,0,0,1-.27.61.93.93,0,0,1-.59.15,1.23,1.23,0,0,1-.59-.2.52.52,0,0,1-.27-.45l0-.37a3.9,3.9,0,0,1-1.1.6,3.76,3.76,0,0,1-1.26.21,2.8,2.8,0,0,1-2.95-2,8.29,8.29,0,0,1-.38-2.39q0-1.41,0-3.14a.7.7,0,0,1,.31-.61,1.05,1.05,0,0,1,.62-.15,1.31,1.31,0,0,1,.61.2A.47.47,0,0,1,192.72,23.19Z" fill="#19487d"/>
          <path d="M206.38,30.4a23.79,23.79,0,0,0-.09-3.17,7.7,7.7,0,0,0-.38-1.8,1.57,1.57,0,0,0-.55-.81,1.17,1.17,0,0,0-.59-.19,2.09,2.09,0,0,0-.9.2,2.51,2.51,0,0,0-1.25,1.31,2.35,2.35,0,0,0-.19.93v3.28a.9.9,0,0,1-.28.61,1,1,0,0,1-.57.28.91.91,0,0,1-.6-.15.89.89,0,0,1-.36-.67l0-7a.67.67,0,0,1,.27-.61.94.94,0,0,1,.59-.15,1.23,1.23,0,0,1,.59.2.52.52,0,0,1,.27.45l0,.37a3.92,3.92,0,0,1,1.1-.6,3.76,3.76,0,0,1,1.26-.21,3,3,0,0,1,1.6.38,2.73,2.73,0,0,1,1,1.08A3.85,3.85,0,0,1,208.69,23a3.18,3.18,0,0,1,1.4-.4,2.82,2.82,0,0,1,1.87.57,3.41,3.41,0,0,1,1,1.57,9.06,9.06,0,0,1,.41,2.41q.07,1.4.07,3a.68.68,0,0,1-.27.61.93.93,0,0,1-.59.15,1.23,1.23,0,0,1-.59-.2.52.52,0,0,1-.27-.45,23.77,23.77,0,0,0-.09-3.17,7.71,7.71,0,0,0-.38-1.8,1.58,1.58,0,0,0-.55-.81,1.17,1.17,0,0,0-.59-.18,1.85,1.85,0,0,0-1.38.58,3.48,3.48,0,0,0-.82,1.32q.12.88.15,1.88t0,2.16a.68.68,0,0,1-.27.61.94.94,0,0,1-.59.15,1.22,1.22,0,0,1-.59-.2A.52.52,0,0,1,206.38,30.4Z" fill="#19487d"/>
          <path d="M217.3,30.57A.52.52,0,0,1,217,31a1.22,1.22,0,0,1-.59.2.94.94,0,0,1-.59-.15.68.68,0,0,1-.27-.61l0-13.11a.85.85,0,0,1,1-.82,1,1,0,0,1,.57.28.9.9,0,0,1,.28.61V19q0,.66,0,1.42t0,1.43q0,.67,0,1.11c0,.29,0,.45,0,.46a4.07,4.07,0,0,1,1.06-.54,3.71,3.71,0,0,1,1.2-.2,3.78,3.78,0,0,1,1.57.33,4.26,4.26,0,0,1,1.3.9,4.12,4.12,0,0,1,.87,1.33,4.24,4.24,0,0,1,0,3.19,4.26,4.26,0,0,1-.87,1.34,4.16,4.16,0,0,1-1.3.91,3.88,3.88,0,0,1-2.83.13,3.92,3.92,0,0,1-1.1-.6ZM222,26.84a2.4,2.4,0,0,0-.69-1.69,2.61,2.61,0,0,0-.74-.52,2.16,2.16,0,0,0-1.8,0,2.6,2.6,0,0,0-.74.52,2.4,2.4,0,0,0-.51,2.61,2.52,2.52,0,0,0,1.25,1.31,2.17,2.17,0,0,0,1.8,0,2.51,2.51,0,0,0,1.25-1.31A2.36,2.36,0,0,0,222,26.84Z" fill="#19487d"/>
          <path d="M231.89,28.39a.75.75,0,0,1,.58-.25,1.15,1.15,0,0,1,.62.17.89.89,0,0,1,.38.46.63.63,0,0,1-.15.61,4.34,4.34,0,0,1-1.47,1.21,4.44,4.44,0,0,1-1.67.46,4.32,4.32,0,0,1-1.65-.21,4.14,4.14,0,0,1-1.45-.82,4.1,4.1,0,0,1-1-1.38,4.32,4.32,0,0,1-.38-1.84,4.15,4.15,0,0,1,1.18-2.9,4.27,4.27,0,0,1,1.29-.9,4,4,0,0,1,1.57-.36,4.09,4.09,0,0,1,1.38.18,3.88,3.88,0,0,1,1.18.6,3.4,3.4,0,0,1,.87,1,3.62,3.62,0,0,1,.46,1.29,1.56,1.56,0,0,1-.24,1.24,2,2,0,0,1-1.58.45l-4.37,0a2.58,2.58,0,0,0,.61,1.25,2.42,2.42,0,0,0,1.11.73,2.34,2.34,0,0,0,1.36,0A2.94,2.94,0,0,0,231.89,28.39Zm-2.17-4a2.25,2.25,0,0,0-1.2.38,2.5,2.5,0,0,0-.83.94l4.25,0a1.73,1.73,0,0,0-.35-.71,1.71,1.71,0,0,0-.53-.42,2,2,0,0,0-.65-.2A5.35,5.35,0,0,0,229.72,24.39Z" fill="#19487d"/>
          <path d="M241.77,25.27a4.49,4.49,0,0,0-.77-.58,1.76,1.76,0,0,0-.91-.25,2.09,2.09,0,0,0-.9.2,2.51,2.51,0,0,0-1.25,1.31,2.35,2.35,0,0,0-.19.93v3.28a.9.9,0,0,1-.28.61,1,1,0,0,1-.57.28.91.91,0,0,1-.6-.15.89.89,0,0,1-.36-.67l0-7a.67.67,0,0,1,.27-.61.94.94,0,0,1,.59-.15,1.23,1.23,0,0,1,.59.2.52.52,0,0,1,.27.45l0,.37a3.92,3.92,0,0,1,1.1-.6,3.76,3.76,0,0,1,1.26-.21,3.93,3.93,0,0,1,1.78.41,3.22,3.22,0,0,1,1.29,1.17.7.7,0,0,1,.07.53,1,1,0,0,1-.28.51.83.83,0,0,1-.51.24A.84.84,0,0,1,241.77,25.27Z" fill="#19487d"/>
        </g>
        <g>
          <path d="M61.5,25.66a.67.67,0,0,1,.5-.47.88.88,0,0,1,.62.12,1.08,1.08,0,0,1,.44.53.9.9,0,0,1-.06.78,6.54,6.54,0,0,1-1.82,2.5,3.87,3.87,0,0,1-2.53.95,3.76,3.76,0,0,1-2-.55A5.47,5.47,0,0,1,55.08,28,7.55,7.55,0,0,1,54,25.73a9.57,9.57,0,0,1-.39-2.8A9.84,9.84,0,0,1,54,20.12a8.13,8.13,0,0,1,1.09-2.33,5.52,5.52,0,0,1,1.62-1.58,3.65,3.65,0,0,1,2-.58,4.43,4.43,0,0,1,2.59.79A5.13,5.13,0,0,1,63,19a.49.49,0,0,1,0,.57,1.12,1.12,0,0,1-.5.44,1.14,1.14,0,0,1-.68.09.78.78,0,0,1-.57-.47A3.31,3.31,0,0,0,60.16,18a2.77,2.77,0,0,0-1.55-.44,2.08,2.08,0,0,0-1.29.46,4.19,4.19,0,0,0-1.05,1.24A6.89,6.89,0,0,0,55.56,21a8.4,8.4,0,0,0-.25,2.07,7.27,7.27,0,0,0,.27,2,5.72,5.72,0,0,0,.73,1.63,3.68,3.68,0,0,0,1.08,1.09,2.32,2.32,0,0,0,3-.31A4.71,4.71,0,0,0,61.5,25.66Z" fill="#fcf9d9"/>
          <path d="M71.31,29.5a23.79,23.79,0,0,0-.09-3.17,7.7,7.7,0,0,0-.38-1.8,1.57,1.57,0,0,0-.55-.81,1.17,1.17,0,0,0-.59-.19,2.09,2.09,0,0,0-.9.2A2.51,2.51,0,0,0,67.54,25a2.35,2.35,0,0,0-.19.93v3.28a.9.9,0,0,1-.28.61,1,1,0,0,1-.57.28.91.91,0,0,1-.6-.15.89.89,0,0,1-.36-.67l0-12.81a.67.67,0,0,1,.27-.61.92.92,0,0,1,.59-.15,1.23,1.23,0,0,1,.59.2.52.52,0,0,1,.27.45l0,6.22a3.92,3.92,0,0,1,1.1-.6,3.76,3.76,0,0,1,1.26-.21,2.82,2.82,0,0,1,1.87.57,3.41,3.41,0,0,1,1,1.57,9.09,9.09,0,0,1,.41,2.4q.07,1.4.07,3a.68.68,0,0,1-.27.61.94.94,0,0,1-.59.15,1.22,1.22,0,0,1-.59-.2A.52.52,0,0,1,71.31,29.5Z" fill="#fcf9d9"/>
          <path d="M81.51,29.29a3.93,3.93,0,0,1-1.1.6,3.89,3.89,0,0,1-2.83-.13,4.15,4.15,0,0,1-1.29-.91,4.23,4.23,0,0,1-.87-1.34,4.23,4.23,0,0,1,0-3.19A4.09,4.09,0,0,1,76.28,23a4.25,4.25,0,0,1,1.29-.9,3.78,3.78,0,0,1,1.57-.33,3.72,3.72,0,0,1,1.2.2,4.07,4.07,0,0,1,1.06.54.75.75,0,0,1,.42-.54,1.18,1.18,0,0,1,1.25.15.45.45,0,0,1,.18.49l0,7a.68.68,0,0,1-.27.61.93.93,0,0,1-.59.15,1.21,1.21,0,0,1-.59-.2.52.52,0,0,1-.27-.45Zm-4.72-3.35a2.36,2.36,0,0,0,.18.92,2.51,2.51,0,0,0,1.25,1.31,2.17,2.17,0,0,0,1.8,0,2.51,2.51,0,0,0,1.25-1.31,2.41,2.41,0,0,0,0-1.85,2.39,2.39,0,0,0-.51-.76,2.62,2.62,0,0,0-.74-.52,2.16,2.16,0,0,0-1.8,0,2.62,2.62,0,0,0-.74.52A2.39,2.39,0,0,0,77,25,2.36,2.36,0,0,0,76.79,25.94Z" fill="#fcf9d9"/>
          <path d="M91.22,29.5a23.79,23.79,0,0,0-.09-3.17,7.7,7.7,0,0,0-.38-1.8,1.57,1.57,0,0,0-.55-.81,1.17,1.17,0,0,0-.59-.19,2.09,2.09,0,0,0-.9.2A2.51,2.51,0,0,0,87.45,25a2.35,2.35,0,0,0-.19.93v3.28a.9.9,0,0,1-.28.61,1,1,0,0,1-.57.28.91.91,0,0,1-.6-.15.89.89,0,0,1-.36-.67l0-7a.67.67,0,0,1,.27-.61.94.94,0,0,1,.59-.15,1.23,1.23,0,0,1,.59.2.52.52,0,0,1,.27.45l0,.37a3.92,3.92,0,0,1,1.1-.6,3.76,3.76,0,0,1,1.26-.21,2.82,2.82,0,0,1,1.87.57,3.41,3.41,0,0,1,1,1.57,9.09,9.09,0,0,1,.41,2.4q.07,1.4.07,3a.68.68,0,0,1-.27.61.94.94,0,0,1-.59.15,1.22,1.22,0,0,1-.59-.2A.52.52,0,0,1,91.22,29.5Z" fill="#fcf9d9"/>
          <path d="M101.28,22a.52.52,0,0,1,.27-.45,1.23,1.23,0,0,1,.59-.2.93.93,0,0,1,.59.15.68.68,0,0,1,.27.61v6a8.21,8.21,0,0,1-1,4.49A3.62,3.62,0,0,1,98.57,34a3.43,3.43,0,0,1-1.67-.44,6.57,6.57,0,0,1-1.55-1.36.58.58,0,0,1-.17-.6.94.94,0,0,1,.38-.49,1.45,1.45,0,0,1,.61-.23.65.65,0,0,1,.54.14,2.78,2.78,0,0,0,1,.95,3,3,0,0,0,1,.32,2.15,2.15,0,0,0,1.17-.16,1.88,1.88,0,0,0,.75-.65,2.61,2.61,0,0,0,.38-1,5.89,5.89,0,0,0,.08-1.25,3.71,3.71,0,0,1-1.08.46,4.67,4.67,0,0,1-1.19.16,3.76,3.76,0,0,1-1.57-.33,4.25,4.25,0,0,1-1.29-.9,4.08,4.08,0,0,1-.87-1.33,4.24,4.24,0,0,1,0-3.19A4.23,4.23,0,0,1,96,22.79a4.17,4.17,0,0,1,1.29-.91,3.89,3.89,0,0,1,2.83-.13,3.9,3.9,0,0,1,1.1.6ZM96.54,25.7a2.4,2.4,0,0,0,.69,1.69,2.62,2.62,0,0,0,.74.52,2.17,2.17,0,0,0,1.8,0,2.61,2.61,0,0,0,.74-.52,2.4,2.4,0,0,0,.51-2.61,2.52,2.52,0,0,0-1.25-1.31,2.17,2.17,0,0,0-1.8,0,2.51,2.51,0,0,0-.74.53,2.48,2.48,0,0,0-.51.77A2.35,2.35,0,0,0,96.54,25.7Z" fill="#fcf9d9"/>
          <path d="M111.29,27.49a.75.75,0,0,1,.58-.25,1.15,1.15,0,0,1,.62.17.89.89,0,0,1,.38.46.63.63,0,0,1-.15.61,4.34,4.34,0,0,1-1.47,1.21,4.44,4.44,0,0,1-1.67.46,4.32,4.32,0,0,1-1.65-.21,4.14,4.14,0,0,1-1.45-.82,4.1,4.1,0,0,1-1-1.38,4.32,4.32,0,0,1-.38-1.84,4.15,4.15,0,0,1,1.18-2.9,4.27,4.27,0,0,1,1.29-.9,4,4,0,0,1,1.57-.36,4.09,4.09,0,0,1,1.38.18,3.88,3.88,0,0,1,1.18.6,3.4,3.4,0,0,1,.87,1A3.62,3.62,0,0,1,113,24.8a1.56,1.56,0,0,1-.24,1.24,2,2,0,0,1-1.58.45l-4.37,0a2.58,2.58,0,0,0,.61,1.25,2.42,2.42,0,0,0,1.11.73,2.34,2.34,0,0,0,1.36,0A2.94,2.94,0,0,0,111.29,27.49Zm-2.17-4a2.25,2.25,0,0,0-1.2.38,2.5,2.5,0,0,0-.83.94l4.25,0a1.73,1.73,0,0,0-.35-.71,1.71,1.71,0,0,0-.53-.42,2,2,0,0,0-.65-.2A5.35,5.35,0,0,0,109.12,23.48Z" fill="#fcf9d9"/>
          <path d="M124,29.66a.82.82,0,0,1-.43.37,1.39,1.39,0,0,1-.58.1,1.16,1.16,0,0,1-.52-.14.39.39,0,0,1-.23-.36l0-12.07a2,2,0,0,1,.49-1.41A1.72,1.72,0,0,1,124,15.6H125a9.85,9.85,0,0,1,1.29.09,8.76,8.76,0,0,1,1.41.31,4.29,4.29,0,0,1,1.29.65,3.49,3.49,0,0,1,1,1.11,3.63,3.63,0,0,1,.4,1.7,3.86,3.86,0,0,1-.55,2.2,4.53,4.53,0,0,1-1.5,1.46,6.3,6.3,0,0,1-2.06.77A8.77,8.77,0,0,1,124,24Zm4.69-10.25a1.53,1.53,0,0,0-.33-.91,2.66,2.66,0,0,0-.95-.76,4.59,4.59,0,0,0-1.47-.43,6.16,6.16,0,0,0-1.9.07l0,5a5.15,5.15,0,0,0,1.43-.07,5.6,5.6,0,0,0,1.54-.5,3.67,3.67,0,0,0,1.23-1A2.18,2.18,0,0,0,128.66,19.41Z" fill="#fcf9d9"/>
          <path d="M138.12,29.5a23.79,23.79,0,0,0-.09-3.17,7.7,7.7,0,0,0-.38-1.8,1.57,1.57,0,0,0-.55-.81,1.17,1.17,0,0,0-.59-.19,2.09,2.09,0,0,0-.9.2A2.51,2.51,0,0,0,134.35,25a2.35,2.35,0,0,0-.19.93v3.28a.9.9,0,0,1-.28.61,1,1,0,0,1-.57.28.91.91,0,0,1-.6-.15.89.89,0,0,1-.36-.67l0-12.81a.67.67,0,0,1,.27-.61.92.92,0,0,1,.59-.15,1.23,1.23,0,0,1,.59.2.52.52,0,0,1,.27.45l0,6.22a3.92,3.92,0,0,1,1.1-.6,3.76,3.76,0,0,1,1.26-.21,2.82,2.82,0,0,1,1.87.57,3.41,3.41,0,0,1,1,1.57,9.09,9.09,0,0,1,.41,2.4q.07,1.4.07,3a.68.68,0,0,1-.27.61.94.94,0,0,1-.59.15,1.22,1.22,0,0,1-.59-.2A.52.52,0,0,1,138.12,29.5Z" fill="#fcf9d9"/>
          <path d="M141.91,25.91a4.18,4.18,0,0,1,.31-1.6,4.09,4.09,0,0,1,.87-1.33,4.25,4.25,0,0,1,1.29-.9,3.86,3.86,0,0,1,3.15,0,4.25,4.25,0,0,1,1.29.9,4.09,4.09,0,0,1,.87,1.33,4.24,4.24,0,0,1,0,3.19,4.23,4.23,0,0,1-.87,1.34,4.15,4.15,0,0,1-1.29.91,3.86,3.86,0,0,1-3.15,0,4.15,4.15,0,0,1-1.29-.91,4.23,4.23,0,0,1-.87-1.34A4.17,4.17,0,0,1,141.91,25.91Zm1.69,0a2.36,2.36,0,0,0,.18.92A2.51,2.51,0,0,0,145,28.17a2.17,2.17,0,0,0,1.8,0,2.51,2.51,0,0,0,1.25-1.31,2.41,2.41,0,0,0,0-1.85,2.39,2.39,0,0,0-.51-.76,2.62,2.62,0,0,0-.74-.52,2.16,2.16,0,0,0-1.8,0,2.62,2.62,0,0,0-.74.52,2.39,2.39,0,0,0-.51.76A2.36,2.36,0,0,0,143.6,25.94Z" fill="#fcf9d9"/>
          <path d="M158,29.5a23.79,23.79,0,0,0-.09-3.17,7.7,7.7,0,0,0-.38-1.8,1.57,1.57,0,0,0-.55-.81,1.17,1.17,0,0,0-.59-.19,2.09,2.09,0,0,0-.9.2A2.51,2.51,0,0,0,154.26,25a2.35,2.35,0,0,0-.19.93v3.28a.9.9,0,0,1-.28.61,1,1,0,0,1-.57.28.91.91,0,0,1-.6-.15.89.89,0,0,1-.36-.67l0-7a.67.67,0,0,1,.27-.61.94.94,0,0,1,.59-.15,1.23,1.23,0,0,1,.59.2.52.52,0,0,1,.27.45l0,.37a3.92,3.92,0,0,1,1.1-.6,3.76,3.76,0,0,1,1.26-.21,2.82,2.82,0,0,1,1.87.57,3.41,3.41,0,0,1,1,1.57,9.09,9.09,0,0,1,.41,2.4q.07,1.4.07,3a.68.68,0,0,1-.27.61.94.94,0,0,1-.59.15,1.22,1.22,0,0,1-.59-.2A.52.52,0,0,1,158,29.5Z" fill="#fcf9d9"/>
          <path d="M168,27.49a.75.75,0,0,1,.58-.25,1.15,1.15,0,0,1,.62.17.89.89,0,0,1,.38.46.63.63,0,0,1-.15.61A4.34,4.34,0,0,1,168,29.69a4.44,4.44,0,0,1-1.67.46,4.32,4.32,0,0,1-1.65-.21,4.14,4.14,0,0,1-1.45-.82,4.1,4.1,0,0,1-1-1.38,4.32,4.32,0,0,1-.38-1.84A4.15,4.15,0,0,1,163,23a4.27,4.27,0,0,1,1.29-.9,4,4,0,0,1,1.57-.36,4.09,4.09,0,0,1,1.38.18,3.88,3.88,0,0,1,1.18.6,3.4,3.4,0,0,1,.87,1,3.62,3.62,0,0,1,.46,1.29,1.56,1.56,0,0,1-.24,1.24,2,2,0,0,1-1.58.45l-4.37,0a2.58,2.58,0,0,0,.61,1.25,2.42,2.42,0,0,0,1.11.73,2.34,2.34,0,0,0,1.36,0A2.94,2.94,0,0,0,168,27.49Zm-2.17-4a2.25,2.25,0,0,0-1.2.38,2.5,2.5,0,0,0-.83.94l4.25,0a1.73,1.73,0,0,0-.35-.71,1.71,1.71,0,0,0-.53-.42,2,2,0,0,0-.65-.2A5.35,5.35,0,0,0,165.85,23.48Z" fill="#fcf9d9"/>
          <path d="M180.83,19.58l0,9.85a.68.68,0,0,1-.27.61.93.93,0,0,1-.59.15,1.23,1.23,0,0,1-.59-.2.52.52,0,0,1-.27-.45L179,16.48a.73.73,0,0,1,.29-.52,1.15,1.15,0,0,1,.54-.21,1.12,1.12,0,0,1,.59.09.9.9,0,0,1,.43.36l5.92,10.11-.12-9.83a.75.75,0,0,1,.37-.58,1.12,1.12,0,0,1,.63-.14,1,1,0,0,1,.58.23.64.64,0,0,1,.25.51l0,13a.49.49,0,0,1-.22.43,1.12,1.12,0,0,1-.51.19,1.3,1.3,0,0,1-.57-.06.66.66,0,0,1-.39-.3Z" fill="#fcf9d9"/>
          <path d="M192.72,22.28a21.59,21.59,0,0,0-.06,3.32,6.42,6.42,0,0,0,.35,1.78,1.26,1.26,0,0,0,.57.73,1.53,1.53,0,0,0,.6.14,2.09,2.09,0,0,0,.9-.2,2.53,2.53,0,0,0,1.25-1.31,2.37,2.37,0,0,0,.19-.92V22.54a.89.89,0,0,1,.28-.61,1,1,0,0,1,.57-.28.91.91,0,0,1,.6.15.9.9,0,0,1,.36.67l0,7A.68.68,0,0,1,198,30a.93.93,0,0,1-.59.15,1.23,1.23,0,0,1-.59-.2.52.52,0,0,1-.27-.45l0-.37a3.9,3.9,0,0,1-1.1.6,3.76,3.76,0,0,1-1.26.21,2.8,2.8,0,0,1-2.95-2,8.29,8.29,0,0,1-.38-2.39q0-1.41,0-3.14a.7.7,0,0,1,.31-.61,1.05,1.05,0,0,1,.62-.15,1.31,1.31,0,0,1,.61.2A.47.47,0,0,1,192.72,22.28Z" fill="#fcf9d9"/>
          <path d="M206.38,29.5a23.79,23.79,0,0,0-.09-3.17,7.7,7.7,0,0,0-.38-1.8,1.57,1.57,0,0,0-.55-.81,1.17,1.17,0,0,0-.59-.19,2.09,2.09,0,0,0-.9.2A2.51,2.51,0,0,0,202.62,25a2.35,2.35,0,0,0-.19.93v3.28a.9.9,0,0,1-.28.61,1,1,0,0,1-.57.28A.91.91,0,0,1,201,30a.89.89,0,0,1-.36-.67l0-7a.67.67,0,0,1,.27-.61.94.94,0,0,1,.59-.15,1.23,1.23,0,0,1,.59.2.52.52,0,0,1,.27.45l0,.37a3.92,3.92,0,0,1,1.1-.6,3.76,3.76,0,0,1,1.26-.21,3,3,0,0,1,1.6.38,2.73,2.73,0,0,1,1,1.08,3.85,3.85,0,0,1,1.35-1.14,3.18,3.18,0,0,1,1.4-.4,2.82,2.82,0,0,1,1.87.57,3.41,3.41,0,0,1,1,1.57,9.06,9.06,0,0,1,.41,2.41q.07,1.4.07,3a.68.68,0,0,1-.27.61.93.93,0,0,1-.59.15,1.23,1.23,0,0,1-.59-.2.52.52,0,0,1-.27-.45,23.77,23.77,0,0,0-.09-3.17,7.71,7.71,0,0,0-.38-1.8,1.58,1.58,0,0,0-.55-.81,1.17,1.17,0,0,0-.59-.18,1.85,1.85,0,0,0-1.38.58,3.48,3.48,0,0,0-.82,1.32q.12.88.15,1.88t0,2.16a.68.68,0,0,1-.27.61.94.94,0,0,1-.59.15,1.22,1.22,0,0,1-.59-.2A.52.52,0,0,1,206.38,29.5Z" fill="#fcf9d9"/>
          <path d="M217.3,29.66a.52.52,0,0,1-.27.45,1.22,1.22,0,0,1-.59.2.94.94,0,0,1-.59-.15.68.68,0,0,1-.27-.61l0-13.11a.85.85,0,0,1,1-.82,1,1,0,0,1,.57.28.9.9,0,0,1,.28.61v1.56q0,.66,0,1.42t0,1.43q0,.67,0,1.11c0,.29,0,.45,0,.46a4.07,4.07,0,0,1,1.06-.54,3.71,3.71,0,0,1,1.2-.2,3.78,3.78,0,0,1,1.57.33,4.26,4.26,0,0,1,1.3.9,4.12,4.12,0,0,1,.87,1.33,4.24,4.24,0,0,1,0,3.19,4.26,4.26,0,0,1-.87,1.34,4.16,4.16,0,0,1-1.3.91,3.88,3.88,0,0,1-2.83.13,3.92,3.92,0,0,1-1.1-.6ZM222,25.94a2.4,2.4,0,0,0-.69-1.69,2.61,2.61,0,0,0-.74-.52,2.16,2.16,0,0,0-1.8,0,2.6,2.6,0,0,0-.74.52,2.4,2.4,0,0,0-.51,2.61,2.52,2.52,0,0,0,1.25,1.31,2.17,2.17,0,0,0,1.8,0,2.51,2.51,0,0,0,1.25-1.31A2.36,2.36,0,0,0,222,25.94Z" fill="#fcf9d9"/>
          <path d="M231.89,27.49a.75.75,0,0,1,.58-.25,1.15,1.15,0,0,1,.62.17.89.89,0,0,1,.38.46.63.63,0,0,1-.15.61,4.34,4.34,0,0,1-1.47,1.21,4.44,4.44,0,0,1-1.67.46,4.32,4.32,0,0,1-1.65-.21,4.14,4.14,0,0,1-1.45-.82,4.1,4.1,0,0,1-1-1.38,4.32,4.32,0,0,1-.38-1.84,4.15,4.15,0,0,1,1.18-2.9,4.27,4.27,0,0,1,1.29-.9,4,4,0,0,1,1.57-.36,4.09,4.09,0,0,1,1.38.18,3.88,3.88,0,0,1,1.18.6,3.4,3.4,0,0,1,.87,1,3.62,3.62,0,0,1,.46,1.29,1.56,1.56,0,0,1-.24,1.24,2,2,0,0,1-1.58.45l-4.37,0a2.58,2.58,0,0,0,.61,1.25,2.42,2.42,0,0,0,1.11.73,2.34,2.34,0,0,0,1.36,0A2.94,2.94,0,0,0,231.89,27.49Zm-2.17-4a2.25,2.25,0,0,0-1.2.38,2.5,2.5,0,0,0-.83.94l4.25,0a1.73,1.73,0,0,0-.35-.71,1.71,1.71,0,0,0-.53-.42,2,2,0,0,0-.65-.2A5.35,5.35,0,0,0,229.72,23.48Z" fill="#fcf9d9"/>
          <path d="M241.77,24.36a4.49,4.49,0,0,0-.77-.58,1.76,1.76,0,0,0-.91-.25,2.09,2.09,0,0,0-.9.2A2.51,2.51,0,0,0,237.93,25a2.35,2.35,0,0,0-.19.93v3.28a.9.9,0,0,1-.28.61,1,1,0,0,1-.57.28.91.91,0,0,1-.6-.15.89.89,0,0,1-.36-.67l0-7a.67.67,0,0,1,.27-.61.94.94,0,0,1,.59-.15,1.23,1.23,0,0,1,.59.2.52.52,0,0,1,.27.45l0,.37a3.92,3.92,0,0,1,1.1-.6,3.76,3.76,0,0,1,1.26-.21,3.93,3.93,0,0,1,1.78.41,3.22,3.22,0,0,1,1.29,1.17.7.7,0,0,1,.07.53,1,1,0,0,1-.28.51.83.83,0,0,1-.51.24A.84.84,0,0,1,241.77,24.36Z" fill="#fcf9d9"/>
        </g>
        <g>
          <path d="M38.07,26.31c-1.78,1.15-2.41,3.57-3.8,3-2.39-1-6-6.32-5.9-8.9,0-1.5,2.27-1.28,4.05-2.44,2.42-1.59-1.81-6.53-3.24-7s-5,1.6-5.41,3.9c-.66,3.06,1.29,9.24,3.42,12.53s7,7.6,10,8.26c2,.47,5.58-1.8,5.78-3.34S39.85,25.16,38.07,26.31Z" fill="#19487d" fill-rule="evenodd"/>
          <line x1="26.33" y1="11.94" x2="31.24" y2="18.62" fill="#19487d"/>
          <line x1="36.65" y1="27.56" x2="41.58" y2="34.22" fill="#19487d"/>
        </g>
        <g>
          <path d="M38.07,24.35c-1.78,1.15-2.41,3.57-3.8,3-2.39-1-6-6.32-5.9-8.9,0-1.5,2.27-1.28,4.05-2.44,2.42-1.59-1.81-6.53-3.24-7s-5,1.6-5.41,3.9c-.66,3.06,1.29,9.24,3.42,12.53s7,7.6,10,8.26c2,.47,5.58-1.8,5.78-3.34S39.85,23.2,38.07,24.35Z" fill="#fcf9d9" fill-rule="evenodd"/>
          <line x1="26.33" y1="9.98" x2="31.24" y2="16.66" fill="#fcf9d9"/>
          <line x1="36.65" y1="25.6" x2="41.58" y2="32.26" fill="#fcf9d9"/>
        </g>
      </g>
      <path d="M243.95,40H23.82a20.09,20.09,0,0,1-20-18.6c0,.5-.08,1-.08,1.5h0A20.1,20.1,0,0,0,23.82,43H243.95A20.1,20.1,0,0,0,264,22.9h0c0-.51,0-1-.08-1.5A20.09,20.09,0,0,1,243.95,40Z" fill="#1d81c4"/>
      <path d="M513.77,45.81H289.52a21.75,21.75,0,0,1-21.75-21.4c0,.12,0,.24,0,.36V27a21.76,21.76,0,0,0,21.76,21.76H513.77A21.76,21.76,0,0,0,535.53,27V24.77c0-.12,0-.24,0-.36A21.75,21.75,0,0,1,513.77,45.81Z" fill="#888"/>
      <rect x="267.76" width="267.76" height="45.79" rx="21.76" ry="21.76" fill="#fff"/>
      <path d="M511.71,40H291.58a20.09,20.09,0,0,1-20-18.6c0,.5-.08,1-.08,1.5h0A20.1,20.1,0,0,0,291.58,43H511.71a20.1,20.1,0,0,0,20.1-20.1h0c0-.51,0-1-.08-1.5A20.09,20.09,0,0,1,511.71,40Z" fill="#1d81c4"/>
      <rect x="271.48" y="2.79" width="260.33" height="39.49" rx="19.62" ry="19.62" fill="#42a4dc"/>
      <g>
        <g>
          <path d="M329.27,29.21a.67.67,0,0,1,.5-.47.88.88,0,0,1,.62.12,1.08,1.08,0,0,1,.44.53.9.9,0,0,1-.06.78,6.54,6.54,0,0,1-1.82,2.5,3.87,3.87,0,0,1-2.53.95,3.76,3.76,0,0,1-2-.55,5.47,5.47,0,0,1-1.62-1.51,7.55,7.55,0,0,1-1.09-2.25,9.57,9.57,0,0,1-.39-2.8,9.84,9.84,0,0,1,.39-2.81,8.13,8.13,0,0,1,1.09-2.33,5.52,5.52,0,0,1,1.62-1.58,3.65,3.65,0,0,1,2-.58A4.43,4.43,0,0,1,329,20a5.13,5.13,0,0,1,1.78,2.54.49.49,0,0,1,0,.57,1.12,1.12,0,0,1-.5.44,1.14,1.14,0,0,1-.68.09.78.78,0,0,1-.57-.47,3.31,3.31,0,0,0-1.13-1.62,2.77,2.77,0,0,0-1.55-.44,2.08,2.08,0,0,0-1.29.46A4.19,4.19,0,0,0,324,22.77a6.89,6.89,0,0,0-.71,1.78,8.4,8.4,0,0,0-.25,2.07,7.27,7.27,0,0,0,.27,2,5.72,5.72,0,0,0,.73,1.63,3.68,3.68,0,0,0,1.08,1.09,2.32,2.32,0,0,0,3-.31A4.71,4.71,0,0,0,329.27,29.21Z" fill="#19487d"/>
          <path d="M339.07,33a23.79,23.79,0,0,0-.09-3.17,7.7,7.7,0,0,0-.38-1.8,1.57,1.57,0,0,0-.55-.81,1.17,1.17,0,0,0-.59-.19,2.09,2.09,0,0,0-.9.2,2.51,2.51,0,0,0-1.25,1.31,2.35,2.35,0,0,0-.19.93v3.28a.9.9,0,0,1-.28.61,1,1,0,0,1-.57.28.91.91,0,0,1-.6-.15.89.89,0,0,1-.36-.67l0-12.81a.67.67,0,0,1,.27-.61.92.92,0,0,1,.59-.15,1.23,1.23,0,0,1,.59.2.52.52,0,0,1,.27.45l0,6.22a3.92,3.92,0,0,1,1.1-.6,3.76,3.76,0,0,1,1.26-.21,2.82,2.82,0,0,1,1.87.57,3.41,3.41,0,0,1,1,1.57,9.09,9.09,0,0,1,.41,2.4q.07,1.4.07,3a.68.68,0,0,1-.27.61.94.94,0,0,1-.59.15,1.22,1.22,0,0,1-.59-.2A.52.52,0,0,1,339.07,33Z" fill="#19487d"/>
          <path d="M349.27,32.84a3.93,3.93,0,0,1-1.1.6,3.89,3.89,0,0,1-2.83-.13A4.15,4.15,0,0,1,344,32.4a4.23,4.23,0,0,1-.87-1.34,4.23,4.23,0,0,1,0-3.19,4.09,4.09,0,0,1,.87-1.33,4.25,4.25,0,0,1,1.29-.9,3.78,3.78,0,0,1,1.57-.33,3.72,3.72,0,0,1,1.2.2,4.07,4.07,0,0,1,1.06.54.75.75,0,0,1,.42-.54,1.18,1.18,0,0,1,1.25.15.45.45,0,0,1,.18.49l0,7a.68.68,0,0,1-.27.61.93.93,0,0,1-.59.15,1.21,1.21,0,0,1-.59-.2.52.52,0,0,1-.27-.45Zm-4.72-3.35a2.36,2.36,0,0,0,.18.92A2.51,2.51,0,0,0,346,31.72a2.17,2.17,0,0,0,1.8,0A2.51,2.51,0,0,0,349,30.41a2.41,2.41,0,0,0,0-1.85,2.39,2.39,0,0,0-.51-.76,2.62,2.62,0,0,0-.74-.52,2.16,2.16,0,0,0-1.8,0,2.62,2.62,0,0,0-.74.52,2.39,2.39,0,0,0-.51.76A2.36,2.36,0,0,0,344.56,29.48Z" fill="#19487d"/>
          <path d="M359,33a23.79,23.79,0,0,0-.09-3.17,7.7,7.7,0,0,0-.38-1.8,1.57,1.57,0,0,0-.55-.81,1.17,1.17,0,0,0-.59-.19,2.09,2.09,0,0,0-.9.2,2.51,2.51,0,0,0-1.25,1.31,2.35,2.35,0,0,0-.19.93v3.28a.9.9,0,0,1-.28.61,1,1,0,0,1-.57.28.91.91,0,0,1-.6-.15.89.89,0,0,1-.36-.67l0-7a.67.67,0,0,1,.27-.61.94.94,0,0,1,.59-.15,1.23,1.23,0,0,1,.59.2.52.52,0,0,1,.27.45l0,.37a3.92,3.92,0,0,1,1.1-.6,3.76,3.76,0,0,1,1.26-.21,2.82,2.82,0,0,1,1.87.57,3.41,3.41,0,0,1,1,1.57,9.09,9.09,0,0,1,.41,2.4q.07,1.4.07,3a.68.68,0,0,1-.27.61.94.94,0,0,1-.59.15,1.22,1.22,0,0,1-.59-.2A.52.52,0,0,1,359,33Z" fill="#19487d"/>
          <path d="M369,25.53a.52.52,0,0,1,.27-.45,1.23,1.23,0,0,1,.59-.2.93.93,0,0,1,.59.15.68.68,0,0,1,.27.61v6a8.21,8.21,0,0,1-1,4.49,3.62,3.62,0,0,1-3.42,1.41,3.43,3.43,0,0,1-1.67-.44,6.57,6.57,0,0,1-1.55-1.36.58.58,0,0,1-.17-.6.94.94,0,0,1,.38-.49,1.45,1.45,0,0,1,.61-.23.65.65,0,0,1,.54.14,2.78,2.78,0,0,0,1,.95,3,3,0,0,0,1,.32,2.15,2.15,0,0,0,1.17-.16,1.88,1.88,0,0,0,.75-.65,2.61,2.61,0,0,0,.38-1,5.89,5.89,0,0,0,.08-1.25,3.71,3.71,0,0,1-1.08.46,4.67,4.67,0,0,1-1.19.16,3.76,3.76,0,0,1-1.57-.33,4.25,4.25,0,0,1-1.29-.9,4.08,4.08,0,0,1-.87-1.33,4.24,4.24,0,0,1,0-3.19,4.23,4.23,0,0,1,.87-1.34,4.17,4.17,0,0,1,1.29-.91,3.89,3.89,0,0,1,2.83-.13,3.9,3.9,0,0,1,1.1.6Zm-4.74,3.72a2.4,2.4,0,0,0,.69,1.69,2.62,2.62,0,0,0,.74.52,2.17,2.17,0,0,0,1.8,0,2.61,2.61,0,0,0,.74-.52,2.4,2.4,0,0,0,.51-2.61A2.52,2.52,0,0,0,367.54,27a2.17,2.17,0,0,0-1.8,0,2.51,2.51,0,0,0-.74.53,2.48,2.48,0,0,0-.51.77A2.35,2.35,0,0,0,364.3,29.25Z" fill="#19487d"/>
          <path d="M379.06,31a.75.75,0,0,1,.58-.25,1.15,1.15,0,0,1,.62.17.89.89,0,0,1,.38.46.63.63,0,0,1-.15.61A4.34,4.34,0,0,1,379,33.24a4.44,4.44,0,0,1-1.67.46,4.32,4.32,0,0,1-1.65-.21,4.14,4.14,0,0,1-1.45-.82,4.1,4.1,0,0,1-1-1.38,4.32,4.32,0,0,1-.38-1.84,4.15,4.15,0,0,1,1.18-2.9,4.27,4.27,0,0,1,1.29-.9,4,4,0,0,1,1.57-.36,4.09,4.09,0,0,1,1.38.18,3.88,3.88,0,0,1,1.18.6,3.4,3.4,0,0,1,.87,1,3.62,3.62,0,0,1,.46,1.29,1.56,1.56,0,0,1-.24,1.24A2,2,0,0,1,379,30l-4.37,0a2.58,2.58,0,0,0,.61,1.25,2.42,2.42,0,0,0,1.11.73,2.34,2.34,0,0,0,1.36,0A2.94,2.94,0,0,0,379.06,31Zm-2.17-4a2.25,2.25,0,0,0-1.2.38,2.5,2.5,0,0,0-.83.94l4.25,0a1.73,1.73,0,0,0-.35-.71,1.71,1.71,0,0,0-.53-.42,2,2,0,0,0-.65-.2A5.35,5.35,0,0,0,376.88,27Z" fill="#19487d"/>
          <path d="M391.73,33.21a.82.82,0,0,1-.43.37,1.39,1.39,0,0,1-.58.1,1.16,1.16,0,0,1-.52-.14.39.39,0,0,1-.23-.36l0-12.07a2,2,0,0,1,.49-1.41,1.72,1.72,0,0,1,1.27-.55h.95a9.85,9.85,0,0,1,1.29.09,8.76,8.76,0,0,1,1.41.31,4.29,4.29,0,0,1,1.29.65,3.49,3.49,0,0,1,1,1.11,3.63,3.63,0,0,1,.4,1.7,3.86,3.86,0,0,1-.55,2.2,4.53,4.53,0,0,1-1.5,1.46,6.3,6.3,0,0,1-2.06.77,8.77,8.77,0,0,1-2.24.15ZM396.42,23a1.53,1.53,0,0,0-.33-.91,2.66,2.66,0,0,0-.95-.76,4.59,4.59,0,0,0-1.47-.43,6.16,6.16,0,0,0-1.9.07l0,5a5.15,5.15,0,0,0,1.43-.07,5.6,5.6,0,0,0,1.54-.5,3.67,3.67,0,0,0,1.23-1A2.18,2.18,0,0,0,396.42,23Z" fill="#19487d"/>
          <path d="M405.88,33a23.79,23.79,0,0,0-.09-3.17,7.7,7.7,0,0,0-.38-1.8,1.57,1.57,0,0,0-.55-.81,1.17,1.17,0,0,0-.59-.19,2.09,2.09,0,0,0-.9.2,2.51,2.51,0,0,0-1.25,1.31,2.35,2.35,0,0,0-.19.93v3.28a.9.9,0,0,1-.28.61,1,1,0,0,1-.57.28.91.91,0,0,1-.6-.15.89.89,0,0,1-.36-.67l0-12.81a.67.67,0,0,1,.27-.61.92.92,0,0,1,.59-.15,1.23,1.23,0,0,1,.59.2.52.52,0,0,1,.27.45l0,6.22a3.92,3.92,0,0,1,1.1-.6,3.76,3.76,0,0,1,1.26-.21,2.82,2.82,0,0,1,1.87.57,3.41,3.41,0,0,1,1,1.57,9.09,9.09,0,0,1,.41,2.4q.07,1.4.07,3a.68.68,0,0,1-.27.61.94.94,0,0,1-.59.15,1.22,1.22,0,0,1-.59-.2A.52.52,0,0,1,405.88,33Z" fill="#19487d"/>
          <path d="M409.68,29.46a4.18,4.18,0,0,1,.31-1.6,4.09,4.09,0,0,1,.87-1.33,4.25,4.25,0,0,1,1.29-.9,3.86,3.86,0,0,1,3.15,0,4.25,4.25,0,0,1,1.29.9,4.09,4.09,0,0,1,.87,1.33,4.24,4.24,0,0,1,0,3.19,4.23,4.23,0,0,1-.87,1.34,4.15,4.15,0,0,1-1.29.91,3.86,3.86,0,0,1-3.15,0,4.15,4.15,0,0,1-1.29-.91,4.23,4.23,0,0,1-.87-1.34A4.17,4.17,0,0,1,409.68,29.46Zm1.69,0a2.36,2.36,0,0,0,.18.92,2.51,2.51,0,0,0,1.25,1.31,2.17,2.17,0,0,0,1.8,0,2.51,2.51,0,0,0,1.25-1.31,2.41,2.41,0,0,0,0-1.85,2.39,2.39,0,0,0-.51-.76,2.62,2.62,0,0,0-.74-.52,2.16,2.16,0,0,0-1.8,0,2.62,2.62,0,0,0-.74.52,2.39,2.39,0,0,0-.51.76A2.36,2.36,0,0,0,411.36,29.48Z" fill="#19487d"/>
          <path d="M425.79,33a23.79,23.79,0,0,0-.09-3.17,7.7,7.7,0,0,0-.38-1.8,1.57,1.57,0,0,0-.55-.81,1.17,1.17,0,0,0-.59-.19,2.09,2.09,0,0,0-.9.2A2.51,2.51,0,0,0,422,28.58a2.35,2.35,0,0,0-.19.93v3.28a.9.9,0,0,1-.28.61,1,1,0,0,1-.57.28.91.91,0,0,1-.6-.15.89.89,0,0,1-.36-.67l0-7a.67.67,0,0,1,.27-.61.94.94,0,0,1,.59-.15,1.23,1.23,0,0,1,.59.2.52.52,0,0,1,.27.45l0,.37a3.92,3.92,0,0,1,1.1-.6,3.76,3.76,0,0,1,1.26-.21,2.82,2.82,0,0,1,1.87.57,3.41,3.41,0,0,1,1,1.57,9.09,9.09,0,0,1,.41,2.4q.07,1.4.07,3a.68.68,0,0,1-.27.61.94.94,0,0,1-.59.15,1.22,1.22,0,0,1-.59-.2A.52.52,0,0,1,425.79,33Z" fill="#19487d"/>
          <path d="M435.78,31a.75.75,0,0,1,.58-.25A1.15,1.15,0,0,1,437,31a.89.89,0,0,1,.38.46.63.63,0,0,1-.15.61,4.34,4.34,0,0,1-1.47,1.21,4.44,4.44,0,0,1-1.67.46,4.32,4.32,0,0,1-1.65-.21,4.14,4.14,0,0,1-1.45-.82,4.1,4.1,0,0,1-1-1.38,4.32,4.32,0,0,1-.38-1.84,4.15,4.15,0,0,1,1.18-2.9,4.27,4.27,0,0,1,1.29-.9,4,4,0,0,1,1.57-.36,4.09,4.09,0,0,1,1.38.18,3.88,3.88,0,0,1,1.18.6,3.4,3.4,0,0,1,.87,1,3.62,3.62,0,0,1,.46,1.29,1.56,1.56,0,0,1-.24,1.24,2,2,0,0,1-1.58.45l-4.37,0a2.58,2.58,0,0,0,.61,1.25A2.42,2.42,0,0,0,433,32a2.34,2.34,0,0,0,1.36,0A2.94,2.94,0,0,0,435.78,31Zm-2.17-4a2.25,2.25,0,0,0-1.2.38,2.5,2.5,0,0,0-.83.94l4.25,0a1.73,1.73,0,0,0-.35-.71,1.71,1.71,0,0,0-.53-.42,2,2,0,0,0-.65-.2A5.35,5.35,0,0,0,433.61,27Z" fill="#19487d"/>
          <path d="M448.6,23.12l0,9.85a.68.68,0,0,1-.27.61.93.93,0,0,1-.59.15,1.23,1.23,0,0,1-.59-.2.52.52,0,0,1-.27-.45L446.77,20a.73.73,0,0,1,.29-.52,1.15,1.15,0,0,1,.54-.21,1.12,1.12,0,0,1,.59.09.9.9,0,0,1,.43.36l5.92,10.11L454.42,20a.75.75,0,0,1,.37-.58,1.12,1.12,0,0,1,.63-.14,1,1,0,0,1,.58.23.64.64,0,0,1,.25.51l0,13a.49.49,0,0,1-.22.43,1.12,1.12,0,0,1-.51.19,1.3,1.3,0,0,1-.57-.06.66.66,0,0,1-.39-.3Z" fill="#19487d"/>
          <path d="M460.48,25.83a21.59,21.59,0,0,0-.06,3.32,6.42,6.42,0,0,0,.35,1.78,1.26,1.26,0,0,0,.57.73,1.53,1.53,0,0,0,.6.14,2.09,2.09,0,0,0,.9-.2,2.53,2.53,0,0,0,1.25-1.31,2.37,2.37,0,0,0,.19-.92V26.08a.89.89,0,0,1,.28-.61,1,1,0,0,1,.57-.28.91.91,0,0,1,.6.15.9.9,0,0,1,.36.67l0,7a.68.68,0,0,1-.27.61.93.93,0,0,1-.59.15,1.23,1.23,0,0,1-.59-.2.52.52,0,0,1-.27-.45l0-.37a3.9,3.9,0,0,1-1.1.6,3.76,3.76,0,0,1-1.26.21,2.8,2.8,0,0,1-2.95-2,8.29,8.29,0,0,1-.38-2.39q0-1.41,0-3.14a.7.7,0,0,1,.31-.61,1.05,1.05,0,0,1,.62-.15,1.31,1.31,0,0,1,.61.2A.47.47,0,0,1,460.48,25.83Z" fill="#19487d"/>
          <path d="M474.15,33a23.79,23.79,0,0,0-.09-3.17,7.7,7.7,0,0,0-.38-1.8,1.57,1.57,0,0,0-.55-.81,1.17,1.17,0,0,0-.59-.19,2.09,2.09,0,0,0-.9.2,2.51,2.51,0,0,0-1.25,1.31,2.35,2.35,0,0,0-.19.93v3.28a.9.9,0,0,1-.28.61,1,1,0,0,1-.57.28.91.91,0,0,1-.6-.15.89.89,0,0,1-.36-.67l0-7a.67.67,0,0,1,.27-.61.94.94,0,0,1,.59-.15,1.23,1.23,0,0,1,.59.2.52.52,0,0,1,.27.45l0,.37a3.92,3.92,0,0,1,1.1-.6,3.76,3.76,0,0,1,1.26-.21,3,3,0,0,1,1.6.38,2.73,2.73,0,0,1,1,1.08,3.85,3.85,0,0,1,1.35-1.14,3.18,3.18,0,0,1,1.4-.4,2.82,2.82,0,0,1,1.87.57,3.41,3.41,0,0,1,1,1.57,9.06,9.06,0,0,1,.41,2.41q.07,1.4.07,3a.68.68,0,0,1-.27.61.93.93,0,0,1-.59.15,1.23,1.23,0,0,1-.59-.2.52.52,0,0,1-.27-.45,23.77,23.77,0,0,0-.09-3.17A7.71,7.71,0,0,0,479,28a1.58,1.58,0,0,0-.55-.81,1.17,1.17,0,0,0-.59-.18,1.85,1.85,0,0,0-1.38.58,3.48,3.48,0,0,0-.82,1.32q.12.88.15,1.88t0,2.16a.68.68,0,0,1-.27.61.94.94,0,0,1-.59.15,1.22,1.22,0,0,1-.59-.2A.52.52,0,0,1,474.15,33Z" fill="#19487d"/>
          <path d="M485.06,33.21a.52.52,0,0,1-.27.45,1.22,1.22,0,0,1-.59.2.94.94,0,0,1-.59-.15.68.68,0,0,1-.27-.61l0-13.11a.85.85,0,0,1,1-.82,1,1,0,0,1,.57.28.9.9,0,0,1,.28.61v1.56q0,.66,0,1.42t0,1.43q0,.67,0,1.11c0,.29,0,.45,0,.46a4.07,4.07,0,0,1,1.06-.54,3.71,3.71,0,0,1,1.2-.2,3.78,3.78,0,0,1,1.57.33,4.26,4.26,0,0,1,1.3.9,4.12,4.12,0,0,1,.87,1.33,4.24,4.24,0,0,1,0,3.19,4.26,4.26,0,0,1-.87,1.34,4.16,4.16,0,0,1-1.3.91,3.88,3.88,0,0,1-2.83.13,3.92,3.92,0,0,1-1.1-.6Zm4.74-3.72a2.4,2.4,0,0,0-.69-1.69,2.61,2.61,0,0,0-.74-.52,2.16,2.16,0,0,0-1.8,0,2.6,2.6,0,0,0-.74.52,2.4,2.4,0,0,0-.51,2.61,2.52,2.52,0,0,0,1.25,1.31,2.17,2.17,0,0,0,1.8,0,2.51,2.51,0,0,0,1.25-1.31A2.36,2.36,0,0,0,489.81,29.48Z" fill="#19487d"/>
          <path d="M499.66,31a.75.75,0,0,1,.58-.25,1.15,1.15,0,0,1,.62.17.89.89,0,0,1,.38.46.63.63,0,0,1-.15.61,4.34,4.34,0,0,1-1.47,1.21,4.44,4.44,0,0,1-1.67.46,4.32,4.32,0,0,1-1.65-.21,4.14,4.14,0,0,1-1.45-.82,4.1,4.1,0,0,1-1-1.38,4.32,4.32,0,0,1-.38-1.84,4.15,4.15,0,0,1,1.18-2.9,4.27,4.27,0,0,1,1.29-.9,4,4,0,0,1,1.57-.36,4.09,4.09,0,0,1,1.38.18,3.88,3.88,0,0,1,1.18.6,3.4,3.4,0,0,1,.87,1,3.62,3.62,0,0,1,.46,1.29,1.56,1.56,0,0,1-.24,1.24,2,2,0,0,1-1.58.45l-4.37,0a2.58,2.58,0,0,0,.61,1.25,2.42,2.42,0,0,0,1.11.73,2.34,2.34,0,0,0,1.36,0A2.94,2.94,0,0,0,499.66,31Zm-2.17-4a2.25,2.25,0,0,0-1.2.38,2.5,2.5,0,0,0-.83.94l4.25,0a1.73,1.73,0,0,0-.35-.71,1.71,1.71,0,0,0-.53-.42,2,2,0,0,0-.65-.2A5.35,5.35,0,0,0,497.48,27Z" fill="#19487d"/>
          <path d="M509.53,27.91a4.49,4.49,0,0,0-.77-.58,1.76,1.76,0,0,0-.91-.25,2.09,2.09,0,0,0-.9.2,2.51,2.51,0,0,0-1.25,1.31,2.35,2.35,0,0,0-.19.93v3.28a.9.9,0,0,1-.28.61,1,1,0,0,1-.57.28.91.91,0,0,1-.6-.15.89.89,0,0,1-.36-.67l0-7a.67.67,0,0,1,.27-.61.94.94,0,0,1,.59-.15,1.23,1.23,0,0,1,.59.2.52.52,0,0,1,.27.45l0,.37a3.92,3.92,0,0,1,1.1-.6,3.76,3.76,0,0,1,1.26-.21,3.93,3.93,0,0,1,1.78.41,3.22,3.22,0,0,1,1.29,1.17.7.7,0,0,1,.07.53,1,1,0,0,1-.28.51.83.83,0,0,1-.51.24A.84.84,0,0,1,509.53,27.91Z" fill="#19487d"/>
        </g>
        <g>
          <path d="M329.27,29.3a.67.67,0,0,1,.5-.47.88.88,0,0,1,.62.12,1.08,1.08,0,0,1,.44.53.9.9,0,0,1-.06.78,6.54,6.54,0,0,1-1.82,2.5,3.87,3.87,0,0,1-2.53.95,3.76,3.76,0,0,1-2-.55,5.47,5.47,0,0,1-1.62-1.51,7.55,7.55,0,0,1-1.09-2.25,9.57,9.57,0,0,1-.39-2.8,9.84,9.84,0,0,1,.39-2.81,8.13,8.13,0,0,1,1.09-2.33,5.52,5.52,0,0,1,1.62-1.58,3.65,3.65,0,0,1,2-.58,4.43,4.43,0,0,1,2.59.79,5.13,5.13,0,0,1,1.78,2.54.49.49,0,0,1,0,.57,1.12,1.12,0,0,1-.5.44,1.14,1.14,0,0,1-.68.09.78.78,0,0,1-.57-.47,3.31,3.31,0,0,0-1.13-1.62,2.77,2.77,0,0,0-1.55-.44,2.08,2.08,0,0,0-1.29.46A4.19,4.19,0,0,0,324,22.86a6.89,6.89,0,0,0-.71,1.78,8.4,8.4,0,0,0-.25,2.07,7.27,7.27,0,0,0,.27,2,5.72,5.72,0,0,0,.73,1.63,3.68,3.68,0,0,0,1.08,1.09,2.32,2.32,0,0,0,3-.31A4.71,4.71,0,0,0,329.27,29.3Z" fill="#fcf9d9"/>
          <path d="M339.07,33.14A23.79,23.79,0,0,0,339,30a7.7,7.7,0,0,0-.38-1.8,1.57,1.57,0,0,0-.55-.81,1.17,1.17,0,0,0-.59-.19,2.09,2.09,0,0,0-.9.2,2.51,2.51,0,0,0-1.25,1.31,2.35,2.35,0,0,0-.19.93v3.28a.9.9,0,0,1-.28.61,1,1,0,0,1-.57.28.91.91,0,0,1-.6-.15.89.89,0,0,1-.36-.67l0-12.81a.67.67,0,0,1,.27-.61.92.92,0,0,1,.59-.15,1.23,1.23,0,0,1,.59.2.52.52,0,0,1,.27.45l0,6.22a3.92,3.92,0,0,1,1.1-.6,3.76,3.76,0,0,1,1.26-.21,2.82,2.82,0,0,1,1.87.57,3.41,3.41,0,0,1,1,1.57,9.09,9.09,0,0,1,.41,2.4q.07,1.4.07,3a.68.68,0,0,1-.27.61.94.94,0,0,1-.59.15,1.22,1.22,0,0,1-.59-.2A.52.52,0,0,1,339.07,33.14Z" fill="#fcf9d9"/>
          <path d="M349.27,32.93a3.93,3.93,0,0,1-1.1.6,3.89,3.89,0,0,1-2.83-.13,4.15,4.15,0,0,1-1.29-.91,4.23,4.23,0,0,1-.87-1.34,4.23,4.23,0,0,1,0-3.19,4.09,4.09,0,0,1,.87-1.33,4.25,4.25,0,0,1,1.29-.9,3.78,3.78,0,0,1,1.57-.33,3.72,3.72,0,0,1,1.2.2,4.07,4.07,0,0,1,1.06.54.75.75,0,0,1,.42-.54,1.18,1.18,0,0,1,1.25.15.45.45,0,0,1,.18.49l0,7a.68.68,0,0,1-.27.61.93.93,0,0,1-.59.15,1.21,1.21,0,0,1-.59-.2.52.52,0,0,1-.27-.45Zm-4.72-3.35a2.36,2.36,0,0,0,.18.92A2.51,2.51,0,0,0,346,31.81a2.17,2.17,0,0,0,1.8,0A2.51,2.51,0,0,0,349,30.5a2.41,2.41,0,0,0,0-1.85,2.39,2.39,0,0,0-.51-.76,2.62,2.62,0,0,0-.74-.52,2.16,2.16,0,0,0-1.8,0,2.62,2.62,0,0,0-.74.52,2.39,2.39,0,0,0-.51.76A2.36,2.36,0,0,0,344.56,29.58Z" fill="#fcf9d9"/>
          <path d="M359,33.14a23.79,23.79,0,0,0-.09-3.17,7.7,7.7,0,0,0-.38-1.8,1.57,1.57,0,0,0-.55-.81,1.17,1.17,0,0,0-.59-.19,2.09,2.09,0,0,0-.9.2,2.51,2.51,0,0,0-1.25,1.31,2.35,2.35,0,0,0-.19.93v3.28a.9.9,0,0,1-.28.61,1,1,0,0,1-.57.28.91.91,0,0,1-.6-.15.89.89,0,0,1-.36-.67l0-7a.67.67,0,0,1,.27-.61.94.94,0,0,1,.59-.15,1.23,1.23,0,0,1,.59.2.52.52,0,0,1,.27.45l0,.37a3.92,3.92,0,0,1,1.1-.6,3.76,3.76,0,0,1,1.26-.21,2.82,2.82,0,0,1,1.87.57,3.41,3.41,0,0,1,1,1.57,9.09,9.09,0,0,1,.41,2.4q.07,1.4.07,3a.68.68,0,0,1-.27.61.94.94,0,0,1-.59.15,1.22,1.22,0,0,1-.59-.2A.52.52,0,0,1,359,33.14Z" fill="#fcf9d9"/>
          <path d="M369,25.62a.52.52,0,0,1,.27-.45,1.23,1.23,0,0,1,.59-.2.93.93,0,0,1,.59.15.68.68,0,0,1,.27.61v6a8.21,8.21,0,0,1-1,4.49,3.62,3.62,0,0,1-3.42,1.41,3.43,3.43,0,0,1-1.67-.44,6.57,6.57,0,0,1-1.55-1.36.58.58,0,0,1-.17-.6.94.94,0,0,1,.38-.49,1.45,1.45,0,0,1,.61-.23.65.65,0,0,1,.54.14,2.78,2.78,0,0,0,1,.95,3,3,0,0,0,1,.32,2.15,2.15,0,0,0,1.17-.16,1.88,1.88,0,0,0,.75-.65,2.61,2.61,0,0,0,.38-1,5.89,5.89,0,0,0,.08-1.25,3.71,3.71,0,0,1-1.08.46,4.67,4.67,0,0,1-1.19.16,3.76,3.76,0,0,1-1.57-.33,4.25,4.25,0,0,1-1.29-.9,4.08,4.08,0,0,1-.87-1.33,4.24,4.24,0,0,1,0-3.19,4.23,4.23,0,0,1,.87-1.34,4.17,4.17,0,0,1,1.29-.91,3.89,3.89,0,0,1,2.83-.13,3.9,3.9,0,0,1,1.1.6Zm-4.74,3.72A2.4,2.4,0,0,0,365,31a2.62,2.62,0,0,0,.74.52,2.17,2.17,0,0,0,1.8,0,2.61,2.61,0,0,0,.74-.52,2.4,2.4,0,0,0,.51-2.61,2.52,2.52,0,0,0-1.25-1.31,2.17,2.17,0,0,0-1.8,0,2.51,2.51,0,0,0-.74.53,2.48,2.48,0,0,0-.51.77A2.35,2.35,0,0,0,364.3,29.35Z" fill="#fcf9d9"/>
          <path d="M379.06,31.13a.75.75,0,0,1,.58-.25,1.15,1.15,0,0,1,.62.17.89.89,0,0,1,.38.46.63.63,0,0,1-.15.61A4.34,4.34,0,0,1,379,33.34a4.44,4.44,0,0,1-1.67.46,4.32,4.32,0,0,1-1.65-.21,4.14,4.14,0,0,1-1.45-.82,4.1,4.1,0,0,1-1-1.38,4.32,4.32,0,0,1-.38-1.84,4.15,4.15,0,0,1,1.18-2.9,4.27,4.27,0,0,1,1.29-.9,4,4,0,0,1,1.57-.36,4.09,4.09,0,0,1,1.38.18,3.88,3.88,0,0,1,1.18.6,3.4,3.4,0,0,1,.87,1,3.62,3.62,0,0,1,.46,1.29,1.56,1.56,0,0,1-.24,1.24,2,2,0,0,1-1.58.45l-4.37,0a2.58,2.58,0,0,0,.61,1.25,2.42,2.42,0,0,0,1.11.73,2.34,2.34,0,0,0,1.36,0A2.94,2.94,0,0,0,379.06,31.13Zm-2.17-4a2.25,2.25,0,0,0-1.2.38,2.5,2.5,0,0,0-.83.94l4.25,0a1.73,1.73,0,0,0-.35-.71,1.71,1.71,0,0,0-.53-.42,2,2,0,0,0-.65-.2A5.35,5.35,0,0,0,376.88,27.13Z" fill="#fcf9d9"/>
          <path d="M391.73,33.3a.82.82,0,0,1-.43.37,1.39,1.39,0,0,1-.58.1,1.16,1.16,0,0,1-.52-.14.39.39,0,0,1-.23-.36l0-12.07a2,2,0,0,1,.49-1.41,1.72,1.72,0,0,1,1.27-.55h.95a9.85,9.85,0,0,1,1.29.09,8.76,8.76,0,0,1,1.41.31,4.29,4.29,0,0,1,1.29.65,3.49,3.49,0,0,1,1,1.11,3.63,3.63,0,0,1,.4,1.7,3.86,3.86,0,0,1-.55,2.2,4.53,4.53,0,0,1-1.5,1.46,6.3,6.3,0,0,1-2.06.77,8.77,8.77,0,0,1-2.24.15Zm4.69-10.25a1.53,1.53,0,0,0-.33-.91,2.66,2.66,0,0,0-.95-.76,4.59,4.59,0,0,0-1.47-.43,6.16,6.16,0,0,0-1.9.07l0,5a5.15,5.15,0,0,0,1.43-.07,5.6,5.6,0,0,0,1.54-.5,3.67,3.67,0,0,0,1.23-1A2.18,2.18,0,0,0,396.42,23.06Z" fill="#fcf9d9"/>
          <path d="M405.88,33.14a23.79,23.79,0,0,0-.09-3.17,7.7,7.7,0,0,0-.38-1.8,1.57,1.57,0,0,0-.55-.81,1.17,1.17,0,0,0-.59-.19,2.09,2.09,0,0,0-.9.2,2.51,2.51,0,0,0-1.25,1.31,2.35,2.35,0,0,0-.19.93v3.28a.9.9,0,0,1-.28.61,1,1,0,0,1-.57.28.91.91,0,0,1-.6-.15.89.89,0,0,1-.36-.67l0-12.81a.67.67,0,0,1,.27-.61.92.92,0,0,1,.59-.15,1.23,1.23,0,0,1,.59.2.52.52,0,0,1,.27.45l0,6.22a3.92,3.92,0,0,1,1.1-.6,3.76,3.76,0,0,1,1.26-.21,2.82,2.82,0,0,1,1.87.57,3.41,3.41,0,0,1,1,1.57,9.09,9.09,0,0,1,.41,2.4q.07,1.4.07,3a.68.68,0,0,1-.27.61.94.94,0,0,1-.59.15,1.22,1.22,0,0,1-.59-.2A.52.52,0,0,1,405.88,33.14Z" fill="#fcf9d9"/>
          <path d="M409.68,29.55A4.18,4.18,0,0,1,410,28a4.09,4.09,0,0,1,.87-1.33,4.25,4.25,0,0,1,1.29-.9,3.86,3.86,0,0,1,3.15,0,4.25,4.25,0,0,1,1.29.9,4.09,4.09,0,0,1,.87,1.33,4.24,4.24,0,0,1,0,3.19,4.23,4.23,0,0,1-.87,1.34,4.15,4.15,0,0,1-1.29.91,3.86,3.86,0,0,1-3.15,0,4.15,4.15,0,0,1-1.29-.91,4.23,4.23,0,0,1-.87-1.34A4.17,4.17,0,0,1,409.68,29.55Zm1.69,0a2.36,2.36,0,0,0,.18.92,2.51,2.51,0,0,0,1.25,1.31,2.17,2.17,0,0,0,1.8,0,2.51,2.51,0,0,0,1.25-1.31,2.41,2.41,0,0,0,0-1.85,2.39,2.39,0,0,0-.51-.76,2.62,2.62,0,0,0-.74-.52,2.16,2.16,0,0,0-1.8,0,2.62,2.62,0,0,0-.74.52,2.39,2.39,0,0,0-.51.76A2.36,2.36,0,0,0,411.36,29.58Z" fill="#fcf9d9"/>
          <path d="M425.79,33.14A23.79,23.79,0,0,0,425.7,30a7.7,7.7,0,0,0-.38-1.8,1.57,1.57,0,0,0-.55-.81,1.17,1.17,0,0,0-.59-.19,2.09,2.09,0,0,0-.9.2A2.51,2.51,0,0,0,422,28.68a2.35,2.35,0,0,0-.19.93v3.28a.9.9,0,0,1-.28.61,1,1,0,0,1-.57.28.91.91,0,0,1-.6-.15A.89.89,0,0,1,420,33l0-7a.67.67,0,0,1,.27-.61.94.94,0,0,1,.59-.15,1.23,1.23,0,0,1,.59.2.52.52,0,0,1,.27.45l0,.37a3.92,3.92,0,0,1,1.1-.6,3.76,3.76,0,0,1,1.26-.21A2.82,2.82,0,0,1,426,26a3.41,3.41,0,0,1,1,1.57,9.09,9.09,0,0,1,.41,2.4q.07,1.4.07,3a.68.68,0,0,1-.27.61.94.94,0,0,1-.59.15,1.22,1.22,0,0,1-.59-.2A.52.52,0,0,1,425.79,33.14Z" fill="#fcf9d9"/>
          <path d="M435.78,31.13a.75.75,0,0,1,.58-.25A1.15,1.15,0,0,1,437,31a.89.89,0,0,1,.38.46.63.63,0,0,1-.15.61,4.34,4.34,0,0,1-1.47,1.21,4.44,4.44,0,0,1-1.67.46,4.32,4.32,0,0,1-1.65-.21,4.14,4.14,0,0,1-1.45-.82,4.1,4.1,0,0,1-1-1.38,4.32,4.32,0,0,1-.38-1.84,4.15,4.15,0,0,1,1.18-2.9,4.27,4.27,0,0,1,1.29-.9,4,4,0,0,1,1.57-.36,4.09,4.09,0,0,1,1.38.18,3.88,3.88,0,0,1,1.18.6,3.4,3.4,0,0,1,.87,1,3.62,3.62,0,0,1,.46,1.29,1.56,1.56,0,0,1-.24,1.24,2,2,0,0,1-1.58.45l-4.37,0a2.58,2.58,0,0,0,.61,1.25,2.42,2.42,0,0,0,1.11.73,2.34,2.34,0,0,0,1.36,0A2.94,2.94,0,0,0,435.78,31.13Zm-2.17-4a2.25,2.25,0,0,0-1.2.38,2.5,2.5,0,0,0-.83.94l4.25,0a1.73,1.73,0,0,0-.35-.71,1.71,1.71,0,0,0-.53-.42,2,2,0,0,0-.65-.2A5.35,5.35,0,0,0,433.61,27.13Z" fill="#fcf9d9"/>
          <path d="M448.6,23.22l0,9.85a.68.68,0,0,1-.27.61.93.93,0,0,1-.59.15,1.23,1.23,0,0,1-.59-.2.52.52,0,0,1-.27-.45l-.16-13.07a.73.73,0,0,1,.29-.52,1.15,1.15,0,0,1,.54-.21,1.12,1.12,0,0,1,.59.09.9.9,0,0,1,.43.36l5.92,10.11-.12-9.83a.75.75,0,0,1,.37-.58,1.12,1.12,0,0,1,.63-.14,1,1,0,0,1,.58.23.64.64,0,0,1,.25.51l0,13a.49.49,0,0,1-.22.43,1.12,1.12,0,0,1-.51.19,1.3,1.3,0,0,1-.57-.06.66.66,0,0,1-.39-.3Z" fill="#fcf9d9"/>
          <path d="M460.48,25.92a21.59,21.59,0,0,0-.06,3.32,6.42,6.42,0,0,0,.35,1.78,1.26,1.26,0,0,0,.57.73,1.53,1.53,0,0,0,.6.14,2.09,2.09,0,0,0,.9-.2,2.53,2.53,0,0,0,1.25-1.31,2.37,2.37,0,0,0,.19-.92V26.18a.89.89,0,0,1,.28-.61,1,1,0,0,1,.57-.28.91.91,0,0,1,.6.15.9.9,0,0,1,.36.67l0,7a.68.68,0,0,1-.27.61.93.93,0,0,1-.59.15,1.23,1.23,0,0,1-.59-.2.52.52,0,0,1-.27-.45l0-.37a3.9,3.9,0,0,1-1.1.6,3.76,3.76,0,0,1-1.26.21,2.8,2.8,0,0,1-2.95-2,8.29,8.29,0,0,1-.38-2.39q0-1.41,0-3.14a.7.7,0,0,1,.31-.61,1.05,1.05,0,0,1,.62-.15,1.31,1.31,0,0,1,.61.2A.47.47,0,0,1,460.48,25.92Z" fill="#fcf9d9"/>
          <path d="M474.15,33.14a23.79,23.79,0,0,0-.09-3.17,7.7,7.7,0,0,0-.38-1.8,1.57,1.57,0,0,0-.55-.81,1.17,1.17,0,0,0-.59-.19,2.09,2.09,0,0,0-.9.2,2.51,2.51,0,0,0-1.25,1.31,2.35,2.35,0,0,0-.19.93v3.28a.9.9,0,0,1-.28.61,1,1,0,0,1-.57.28.91.91,0,0,1-.6-.15.89.89,0,0,1-.36-.67l0-7a.67.67,0,0,1,.27-.61.94.94,0,0,1,.59-.15,1.23,1.23,0,0,1,.59.2.52.52,0,0,1,.27.45l0,.37a3.92,3.92,0,0,1,1.1-.6,3.76,3.76,0,0,1,1.26-.21,3,3,0,0,1,1.6.38,2.73,2.73,0,0,1,1,1.08,3.85,3.85,0,0,1,1.35-1.14,3.18,3.18,0,0,1,1.4-.4,2.82,2.82,0,0,1,1.87.57,3.41,3.41,0,0,1,1,1.57,9.06,9.06,0,0,1,.41,2.41q.07,1.4.07,3a.68.68,0,0,1-.27.61.93.93,0,0,1-.59.15,1.23,1.23,0,0,1-.59-.2.52.52,0,0,1-.27-.45,23.77,23.77,0,0,0-.09-3.17,7.71,7.71,0,0,0-.38-1.8,1.58,1.58,0,0,0-.55-.81,1.17,1.17,0,0,0-.59-.18,1.85,1.85,0,0,0-1.38.58,3.48,3.48,0,0,0-.82,1.32q.12.88.15,1.88t0,2.16a.68.68,0,0,1-.27.61.94.94,0,0,1-.59.15,1.22,1.22,0,0,1-.59-.2A.52.52,0,0,1,474.15,33.14Z" fill="#fcf9d9"/>
          <path d="M485.06,33.3a.52.52,0,0,1-.27.45,1.22,1.22,0,0,1-.59.2.94.94,0,0,1-.59-.15.68.68,0,0,1-.27-.61l0-13.11a.85.85,0,0,1,1-.82,1,1,0,0,1,.57.28.9.9,0,0,1,.28.61V21.7q0,.66,0,1.42t0,1.43q0,.67,0,1.11c0,.29,0,.45,0,.46a4.07,4.07,0,0,1,1.06-.54,3.71,3.71,0,0,1,1.2-.2,3.78,3.78,0,0,1,1.57.33,4.26,4.26,0,0,1,1.3.9,4.12,4.12,0,0,1,.87,1.33,4.24,4.24,0,0,1,0,3.19,4.26,4.26,0,0,1-.87,1.34,4.16,4.16,0,0,1-1.3.91,3.88,3.88,0,0,1-2.83.13,3.92,3.92,0,0,1-1.1-.6Zm4.74-3.72a2.4,2.4,0,0,0-.69-1.69,2.61,2.61,0,0,0-.74-.52,2.16,2.16,0,0,0-1.8,0,2.6,2.6,0,0,0-.74.52,2.4,2.4,0,0,0-.51,2.61,2.52,2.52,0,0,0,1.25,1.31,2.17,2.17,0,0,0,1.8,0,2.51,2.51,0,0,0,1.25-1.31A2.36,2.36,0,0,0,489.81,29.58Z" fill="#fcf9d9"/>
          <path d="M499.66,31.13a.75.75,0,0,1,.58-.25,1.15,1.15,0,0,1,.62.17.89.89,0,0,1,.38.46.63.63,0,0,1-.15.61,4.34,4.34,0,0,1-1.47,1.21,4.44,4.44,0,0,1-1.67.46,4.32,4.32,0,0,1-1.65-.21,4.14,4.14,0,0,1-1.45-.82,4.1,4.1,0,0,1-1-1.38,4.32,4.32,0,0,1-.38-1.84,4.15,4.15,0,0,1,1.18-2.9,4.27,4.27,0,0,1,1.29-.9,4,4,0,0,1,1.57-.36,4.09,4.09,0,0,1,1.38.18,3.88,3.88,0,0,1,1.18.6,3.4,3.4,0,0,1,.87,1,3.62,3.62,0,0,1,.46,1.29,1.56,1.56,0,0,1-.24,1.24,2,2,0,0,1-1.58.45l-4.37,0a2.58,2.58,0,0,0,.61,1.25,2.42,2.42,0,0,0,1.11.73,2.34,2.34,0,0,0,1.36,0A2.94,2.94,0,0,0,499.66,31.13Zm-2.17-4a2.25,2.25,0,0,0-1.2.38,2.5,2.5,0,0,0-.83.94l4.25,0a1.73,1.73,0,0,0-.35-.71,1.71,1.71,0,0,0-.53-.42,2,2,0,0,0-.65-.2A5.35,5.35,0,0,0,497.48,27.13Z" fill="#fcf9d9"/>
          <path d="M509.53,28a4.49,4.49,0,0,0-.77-.58,1.76,1.76,0,0,0-.91-.25,2.09,2.09,0,0,0-.9.2,2.51,2.51,0,0,0-1.25,1.31,2.35,2.35,0,0,0-.19.93v3.28a.9.9,0,0,1-.28.61,1,1,0,0,1-.57.28.91.91,0,0,1-.6-.15.89.89,0,0,1-.36-.67l0-7a.67.67,0,0,1,.27-.61.94.94,0,0,1,.59-.15,1.23,1.23,0,0,1,.59.2.52.52,0,0,1,.27.45l0,.37a3.92,3.92,0,0,1,1.1-.6,3.76,3.76,0,0,1,1.26-.21,3.93,3.93,0,0,1,1.78.41A3.22,3.22,0,0,1,510.9,27a.7.7,0,0,1,.07.53,1,1,0,0,1-.28.51.83.83,0,0,1-.51.24A.84.84,0,0,1,509.53,28Z" fill="#fcf9d9"/>
        </g>
        <g>
          <path d="M305.83,28c-1.78,1.15-2.41,3.57-3.8,3-2.39-1-6-6.32-5.9-8.9,0-1.5,2.27-1.28,4.05-2.44,2.42-1.59-1.81-6.53-3.24-7s-5,1.6-5.41,3.9c-.66,3.06,1.29,9.24,3.42,12.53s7,7.6,10,8.26c2,.47,5.58-1.8,5.78-3.34S307.61,26.8,305.83,28Z" fill="#19487d" fill-rule="evenodd"/>
          <line x1="294.1" y1="13.58" x2="299" y2="20.26" fill="#19487d"/>
          <line x1="304.41" y1="29.2" x2="309.35" y2="35.86" fill="#19487d"/>
        </g>
        <g>
          <path d="M305.83,28c-1.78,1.15-2.41,3.57-3.8,3-2.39-1-6-6.32-5.9-8.9,0-1.5,2.27-1.28,4.05-2.44,2.42-1.59-1.81-6.53-3.24-7s-5,1.6-5.41,3.9c-.66,3.06,1.29,9.24,3.42,12.53s7,7.6,10,8.26c2,.47,5.58-1.8,5.78-3.34S307.61,26.84,305.83,28Z" fill="#fcf9d9" fill-rule="evenodd"/>
          <line x1="294.1" y1="13.62" x2="299" y2="20.3" fill="#fcf9d9"/>
          <line x1="304.41" y1="29.24" x2="309.35" y2="35.9" fill="#fcf9d9"/>
        </g>
      </g>
    </g>
  </g>
</svg>
