<svg xmlns="http://www.w3.org/2000/svg" width="156.57" height="50.25" viewBox="0 0 156.57 50.25">
  <title>resend_1</title>
  <g id="Layer_2" data-name="Layer 2">
    <g id="Layer_1-2" data-name="Layer 1">
      <g>
        <rect x="0.42" width="156.14" height="43.91" rx="19.17" ry="19.17" fill="#fff"/>
        <rect x="2.81" y="0.6" width="150.87" height="40.36" rx="16.66" ry="16.66" fill="#3f3f3f"/>
        <rect x="2.38" y="0.98" width="151.26" height="39.04" rx="16.66" ry="16.66" fill="#5e5e5e"/>
        <rect x="3.55" y="0.6" width="149.4" height="34.98" rx="15.23" ry="15.23" fill="#8c8c8c"/>
        <path d="M134.5,43.64H22A22.06,22.06,0,0,1,.06,22.76c0,.37-.06.74-.06,1.12H0a22.07,22.07,0,0,0,22,22H134.5a22.07,22.07,0,0,0,22-22h0c0-.38,0-.75-.06-1.12A22.06,22.06,0,0,1,134.5,43.64Z" fill="#888" fill-rule="evenodd"/>
        <path d="M134.5,45.77H22A22.08,22.08,0,0,1,.11,26,22,22,0,0,0,0,28.25H0a22.07,22.07,0,0,0,22,22H134.5a22.07,22.07,0,0,0,22-22h0a22,22,0,0,0-.11-2.24A22.08,22.08,0,0,1,134.5,45.77Z" fill="#313131" fill-rule="evenodd"/>
        <path d="M133.83,35.37H22.67C12.53,35.37,4.19,28,3.61,18.9c0,.34-.06.68-.06,1,0,9.62,8.61,17.49,19.12,17.49H133.83c10.52,0,19.12-7.87,19.12-17.49,0-.35,0-.68-.06-1C152.31,28,144,35.37,133.83,35.37Z" fill="#3f3f3f" fill-rule="evenodd"/>
        <path d="M133.83.6H22.67C8.66.6,3.55,8.47,3.55,18.09h0c0,.52,0,1,.09,1.54.86-8.91,9.09-16,19-16H133.83c10,0,18.18,7,19,16,0-.51.09-1,.09-1.54h0C153,8.47,147.84.6,133.83.6Z" fill="#c7c7c7" fill-rule="evenodd"/>
        <g>
          <g>
            <path d="M49,25.36a.87.87,0,0,1-.44.39,1.36,1.36,0,0,1-.59.11,1.13,1.13,0,0,1-.53-.15.42.42,0,0,1-.23-.38l0-12.89a2.15,2.15,0,0,1,.52-1.51,1.83,1.83,0,0,1,1.36-.59h1a10.42,10.42,0,0,1,1.38.1,9.34,9.34,0,0,1,1.51.33,4.58,4.58,0,0,1,1.38.69,3.7,3.7,0,0,1,1,1.19,3.86,3.86,0,0,1,.43,1.82,3.6,3.6,0,0,1-.19,1.15,4.37,4.37,0,0,1-.49,1,4.17,4.17,0,0,1-.73.84,5,5,0,0,1-.86.62L56.19,25a.47.47,0,0,1-.19.56,1.51,1.51,0,0,1-.67.27,1.87,1.87,0,0,1-.74,0q-.36-.09-.38-.31l-2.57-7a5.22,5.22,0,0,1-1.53.16A7.4,7.4,0,0,1,49,18.49Zm5.09-10.94a1.56,1.56,0,0,0-.38-1,3.07,3.07,0,0,0-1.05-.82,5.09,5.09,0,0,0-1.61-.46,6.72,6.72,0,0,0-2.05.07v4.47a12.55,12.55,0,0,0,1.54.06,6.45,6.45,0,0,0,1.67-.23,3.2,3.2,0,0,0,1.33-.73A1.82,1.82,0,0,0,54.12,14.41Z" fill="#3f3f3f"/>
            <path d="M65.38,23a.8.8,0,0,1,.62-.27,1.24,1.24,0,0,1,.67.18,1,1,0,0,1,.41.49.67.67,0,0,1-.16.66,4.65,4.65,0,0,1-1.57,1.3,4.77,4.77,0,0,1-1.78.49,4.62,4.62,0,0,1-1.77-.22,4.42,4.42,0,0,1-1.54-.88,4.37,4.37,0,0,1-1.09-1.47,4.61,4.61,0,0,1-.41-2A4.43,4.43,0,0,1,60,18.26a4.55,4.55,0,0,1,1.38-1,4.33,4.33,0,0,1,1.68-.38,4.39,4.39,0,0,1,1.47.2,4.12,4.12,0,0,1,1.26.64,3.62,3.62,0,0,1,.93,1,3.87,3.87,0,0,1,.49,1.38A1.66,1.66,0,0,1,67,21.49a2.16,2.16,0,0,1-1.69.48l-4.67,0a2.75,2.75,0,0,0,.65,1.33,2.6,2.6,0,0,0,1.19.78,2.51,2.51,0,0,0,1.46,0A3.13,3.13,0,0,0,65.38,23Zm-2.32-4.27a2.39,2.39,0,0,0-1.28.41,2.67,2.67,0,0,0-.89,1l4.55,0a1.75,1.75,0,0,0-.94-1.2,2.2,2.2,0,0,0-.69-.21A5.56,5.56,0,0,0,63.06,18.76Z" fill="#3f3f3f"/>
            <path d="M77.19,18.69a.62.62,0,0,1,0,.63,1,1,0,0,1-.49.42,1.09,1.09,0,0,1-.64.07.52.52,0,0,1-.42-.41,1.81,1.81,0,0,0-.8-.73,3.17,3.17,0,0,0-.88-.28,1.93,1.93,0,0,0-1.21.2,1.17,1.17,0,0,0-.67.69.91.91,0,0,0,.06.63,1,1,0,0,0,.41.38,2.82,2.82,0,0,0,.67.25q.39.1.84.17a12.81,12.81,0,0,1,1.26.31,3.72,3.72,0,0,1,1.09.52,2.21,2.21,0,0,1,.94,2.19,2,2,0,0,1-.43,1.15,2.83,2.83,0,0,1-.94.77,4,4,0,0,1-1.24.38,4.94,4.94,0,0,1-2.51-.26,4.41,4.41,0,0,1-1-.56,3.68,3.68,0,0,1-.84-.84,3.42,3.42,0,0,1-.53-1.14,1,1,0,0,1,.19-.74,1.21,1.21,0,0,1,.56-.41.94.94,0,0,1,.62,0,.55.55,0,0,1,.37.45,1.93,1.93,0,0,0,.84,1.41,3.07,3.07,0,0,0,1.33.42,2.67,2.67,0,0,0,1.2-.16q.53-.21.58-.56a.81.81,0,0,0-.38-.91,4.16,4.16,0,0,0-1.22-.42L72.67,22a4.57,4.57,0,0,1-1.19-.42,2.37,2.37,0,0,1-.89-.8,2.45,2.45,0,0,1-.35-1.38,2.32,2.32,0,0,1,.31-1.21,2.85,2.85,0,0,1,.82-.88,3.23,3.23,0,0,1,1.16-.51,4.61,4.61,0,0,1,1.35-.1,4.79,4.79,0,0,1,1.84.54A3.7,3.7,0,0,1,77.19,18.69Z" fill="#3f3f3f"/>
            <path d="M86.28,23a.8.8,0,0,1,.62-.27,1.24,1.24,0,0,1,.67.18,1,1,0,0,1,.41.49.67.67,0,0,1-.16.66,4.65,4.65,0,0,1-1.57,1.3,4.77,4.77,0,0,1-1.78.49,4.62,4.62,0,0,1-1.77-.22,4.42,4.42,0,0,1-1.54-.88,4.37,4.37,0,0,1-1.09-1.47,4.61,4.61,0,0,1-.41-2,4.43,4.43,0,0,1,1.26-3.1,4.55,4.55,0,0,1,1.38-1A4.33,4.33,0,0,1,84,16.91a4.39,4.39,0,0,1,1.47.2,4.12,4.12,0,0,1,1.26.64,3.62,3.62,0,0,1,.93,1,3.87,3.87,0,0,1,.49,1.38,1.66,1.66,0,0,1-.26,1.32,2.16,2.16,0,0,1-1.69.48l-4.67,0a2.75,2.75,0,0,0,.65,1.33,2.6,2.6,0,0,0,1.19.78,2.51,2.51,0,0,0,1.46,0A3.13,3.13,0,0,0,86.28,23ZM84,18.76a2.39,2.39,0,0,0-1.28.41,2.67,2.67,0,0,0-.89,1l4.55,0a1.75,1.75,0,0,0-.94-1.2,2.2,2.2,0,0,0-.69-.21A5.56,5.56,0,0,0,84,18.76Z" fill="#3f3f3f"/>
            <path d="M96.76,25.19a25.42,25.42,0,0,0-.1-3.38,8.26,8.26,0,0,0-.41-1.93,1.69,1.69,0,0,0-.59-.87,1.25,1.25,0,0,0-.63-.2,2.23,2.23,0,0,0-1,.21,2.71,2.71,0,0,0-.79.57,2.67,2.67,0,0,0-.54.83,2.51,2.51,0,0,0-.2,1v3.51a1,1,0,0,1-.3.66,1,1,0,0,1-.61.3.91.91,0,0,1-1-.88l0-7.44a.72.72,0,0,1,.28-.65,1,1,0,0,1,.63-.16,1.31,1.31,0,0,1,.63.21.56.56,0,0,1,.28.48l0,.4a4.18,4.18,0,0,1,1.17-.64A4,4,0,0,1,95,17a3,3,0,0,1,2,.61,3.64,3.64,0,0,1,1.07,1.68,9.71,9.71,0,0,1,.43,2.57q.07,1.49.07,3.25a.72.72,0,0,1-.28.65,1,1,0,0,1-.63.16,1.31,1.31,0,0,1-.63-.21A.56.56,0,0,1,96.76,25.19Z" fill="#3f3f3f"/>
            <path d="M107.63,25a4.19,4.19,0,0,1-1.17.64,4.15,4.15,0,0,1-3-.14,4.42,4.42,0,0,1-1.38-1,4.5,4.5,0,0,1-.93-1.43,4.52,4.52,0,0,1,0-3.41,4.37,4.37,0,0,1,.93-1.42,4.55,4.55,0,0,1,1.38-1,4,4,0,0,1,1.68-.36,4,4,0,0,1,1.28.21,4.37,4.37,0,0,1,1.14.58s0-.18,0-.49,0-.71,0-1.19,0-1,0-1.53,0-1,0-1.52V11.3a1,1,0,0,1,.3-.65,1,1,0,0,1,.6-.3,1,1,0,0,1,.64.16,1,1,0,0,1,.38.72l0,14a.72.72,0,0,1-.28.66,1,1,0,0,1-.63.16,1.31,1.31,0,0,1-.63-.21.56.56,0,0,1-.28-.48Zm-5-3.58a2.51,2.51,0,0,0,.2,1,2.7,2.7,0,0,0,1.33,1.4,2.32,2.32,0,0,0,1.93,0,2.7,2.7,0,0,0,1.33-1.4,2.56,2.56,0,0,0-.54-2.79A2.82,2.82,0,0,0,106,19a2.32,2.32,0,0,0-1.93,0,2.81,2.81,0,0,0-.79.56,2.56,2.56,0,0,0-.74,1.8Z" fill="#3f3f3f"/>
          </g>
          <g>
            <path d="M49,24.19a.87.87,0,0,1-.44.39,1.36,1.36,0,0,1-.59.11,1.13,1.13,0,0,1-.53-.15.42.42,0,0,1-.23-.38l0-12.89a2.15,2.15,0,0,1,.52-1.51,1.83,1.83,0,0,1,1.36-.59h1a10.42,10.42,0,0,1,1.38.1,9.34,9.34,0,0,1,1.51.33,4.58,4.58,0,0,1,1.38.69,3.7,3.7,0,0,1,1,1.19,3.86,3.86,0,0,1,.43,1.82,3.6,3.6,0,0,1-.19,1.15,4.37,4.37,0,0,1-.49,1,4.17,4.17,0,0,1-.73.84,5,5,0,0,1-.86.62l2.57,6.87a.47.47,0,0,1-.19.56,1.51,1.51,0,0,1-.67.27,1.87,1.87,0,0,1-.74,0q-.36-.09-.38-.31l-2.57-7a5.22,5.22,0,0,1-1.53.16A7.4,7.4,0,0,1,49,17.32Zm5.09-10.94a1.56,1.56,0,0,0-.38-1,3.07,3.07,0,0,0-1.05-.82A5.09,5.09,0,0,0,51.08,11a6.72,6.72,0,0,0-2.05.07v4.47a12.55,12.55,0,0,0,1.54.06,6.45,6.45,0,0,0,1.67-.23,3.2,3.2,0,0,0,1.33-.73A1.82,1.82,0,0,0,54.12,13.24Z" fill="#f9f9f9"/>
            <path d="M65.38,21.87a.8.8,0,0,1,.62-.27,1.24,1.24,0,0,1,.67.18,1,1,0,0,1,.41.49.67.67,0,0,1-.16.66,4.65,4.65,0,0,1-1.57,1.3,4.77,4.77,0,0,1-1.78.49,4.62,4.62,0,0,1-1.77-.22,4.42,4.42,0,0,1-1.54-.88,4.37,4.37,0,0,1-1.09-1.47,4.61,4.61,0,0,1-.41-2A4.43,4.43,0,0,1,60,17.08a4.55,4.55,0,0,1,1.38-1,4.33,4.33,0,0,1,1.68-.38,4.39,4.39,0,0,1,1.47.2,4.12,4.12,0,0,1,1.26.64,3.62,3.62,0,0,1,.93,1A3.87,3.87,0,0,1,67.24,19,1.66,1.66,0,0,1,67,20.32a2.16,2.16,0,0,1-1.69.48l-4.67,0a2.75,2.75,0,0,0,.65,1.33,2.6,2.6,0,0,0,1.19.78,2.51,2.51,0,0,0,1.46,0A3.13,3.13,0,0,0,65.38,21.87Zm-2.32-4.27a2.39,2.39,0,0,0-1.28.41,2.67,2.67,0,0,0-.89,1l4.55,0a1.75,1.75,0,0,0-.94-1.2,2.2,2.2,0,0,0-.69-.21A5.56,5.56,0,0,0,63.06,17.59Z" fill="#f9f9f9"/>
            <path d="M77.19,17.52a.62.62,0,0,1,0,.63,1,1,0,0,1-.49.42,1.09,1.09,0,0,1-.64.07.52.52,0,0,1-.42-.41,1.81,1.81,0,0,0-.8-.73,3.17,3.17,0,0,0-.88-.28,1.93,1.93,0,0,0-1.21.2,1.17,1.17,0,0,0-.67.69.91.91,0,0,0,.06.63,1,1,0,0,0,.41.38,2.82,2.82,0,0,0,.67.25q.39.1.84.17a12.81,12.81,0,0,1,1.26.31,3.72,3.72,0,0,1,1.09.52,2.21,2.21,0,0,1,.94,2.19,2,2,0,0,1-.43,1.15,2.83,2.83,0,0,1-.94.77,4,4,0,0,1-1.24.38,4.94,4.94,0,0,1-2.51-.26,4.41,4.41,0,0,1-1-.56,3.68,3.68,0,0,1-.84-.84,3.42,3.42,0,0,1-.53-1.14,1,1,0,0,1,.19-.74,1.21,1.21,0,0,1,.56-.41.94.94,0,0,1,.62,0,.55.55,0,0,1,.37.45,1.93,1.93,0,0,0,.84,1.41,3.07,3.07,0,0,0,1.33.42,2.67,2.67,0,0,0,1.2-.16q.53-.21.58-.56a.81.81,0,0,0-.38-.91,4.16,4.16,0,0,0-1.22-.42l-1.21-.26a4.57,4.57,0,0,1-1.19-.42,2.37,2.37,0,0,1-.89-.8,2.45,2.45,0,0,1-.35-1.38A2.32,2.32,0,0,1,70.56,17a2.85,2.85,0,0,1,.82-.88,3.23,3.23,0,0,1,1.16-.51,4.61,4.61,0,0,1,1.35-.1,4.79,4.79,0,0,1,1.84.54A3.7,3.7,0,0,1,77.19,17.52Z" fill="#f9f9f9"/>
            <path d="M86.28,21.87a.8.8,0,0,1,.62-.27,1.24,1.24,0,0,1,.67.18,1,1,0,0,1,.41.49.67.67,0,0,1-.16.66,4.65,4.65,0,0,1-1.57,1.3,4.77,4.77,0,0,1-1.78.49,4.62,4.62,0,0,1-1.77-.22,4.42,4.42,0,0,1-1.54-.88,4.37,4.37,0,0,1-1.09-1.47,4.61,4.61,0,0,1-.41-2,4.43,4.43,0,0,1,1.26-3.1,4.55,4.55,0,0,1,1.38-1A4.33,4.33,0,0,1,84,15.74a4.39,4.39,0,0,1,1.47.2,4.12,4.12,0,0,1,1.26.64,3.62,3.62,0,0,1,.93,1A3.87,3.87,0,0,1,88.14,19a1.66,1.66,0,0,1-.26,1.32,2.16,2.16,0,0,1-1.69.48l-4.67,0a2.75,2.75,0,0,0,.65,1.33,2.6,2.6,0,0,0,1.19.78,2.51,2.51,0,0,0,1.46,0A3.13,3.13,0,0,0,86.28,21.87ZM84,17.59a2.39,2.39,0,0,0-1.28.41,2.67,2.67,0,0,0-.89,1l4.55,0a1.75,1.75,0,0,0-.94-1.2,2.2,2.2,0,0,0-.69-.21A5.56,5.56,0,0,0,84,17.59Z" fill="#f9f9f9"/>
            <path d="M96.76,24a25.42,25.42,0,0,0-.1-3.38,8.26,8.26,0,0,0-.41-1.93,1.69,1.69,0,0,0-.59-.87,1.25,1.25,0,0,0-.63-.2,2.23,2.23,0,0,0-1,.21,2.71,2.71,0,0,0-.79.57,2.67,2.67,0,0,0-.54.83,2.51,2.51,0,0,0-.2,1v3.51a1,1,0,0,1-.3.66,1,1,0,0,1-.61.3.91.91,0,0,1-1-.88l0-7.44a.72.72,0,0,1,.28-.65,1,1,0,0,1,.63-.16,1.31,1.31,0,0,1,.63.21.56.56,0,0,1,.28.48l0,.4A4.18,4.18,0,0,1,93.66,16,4,4,0,0,1,95,15.79a3,3,0,0,1,2,.61,3.64,3.64,0,0,1,1.07,1.68,9.71,9.71,0,0,1,.43,2.57q.07,1.49.07,3.25a.72.72,0,0,1-.28.65,1,1,0,0,1-.63.16A1.31,1.31,0,0,1,97,24.5.56.56,0,0,1,96.76,24Z" fill="#f9f9f9"/>
            <path d="M107.63,23.79a4.19,4.19,0,0,1-1.17.64,4.15,4.15,0,0,1-3-.14,4.42,4.42,0,0,1-1.38-1,4.5,4.5,0,0,1-.93-1.43,4.52,4.52,0,0,1,0-3.41,4.37,4.37,0,0,1,.93-1.42,4.55,4.55,0,0,1,1.38-1,4,4,0,0,1,1.68-.36,4,4,0,0,1,1.28.21,4.37,4.37,0,0,1,1.14.58s0-.18,0-.49,0-.71,0-1.19,0-1,0-1.53,0-1,0-1.52V10.13a1,1,0,0,1,.3-.65,1,1,0,0,1,.6-.3,1,1,0,0,1,.64.16,1,1,0,0,1,.38.72l0,14a.72.72,0,0,1-.28.66,1,1,0,0,1-.63.16,1.31,1.31,0,0,1-.63-.21.56.56,0,0,1-.28-.48Zm-5-3.58a2.51,2.51,0,0,0,.2,1,2.7,2.7,0,0,0,1.33,1.4,2.32,2.32,0,0,0,1.93,0,2.7,2.7,0,0,0,1.33-1.4,2.56,2.56,0,0,0-.54-2.79,2.82,2.82,0,0,0-.79-.56,2.32,2.32,0,0,0-1.93,0,2.81,2.81,0,0,0-.79.56,2.56,2.56,0,0,0-.74,1.8Z" fill="#f9f9f9"/>
          </g>
        </g>
      </g>
    </g>
  </g>
</svg>
