<svg xmlns="http://www.w3.org/2000/svg" width="175" height="56" viewBox="0 0 175 56"><defs><style>.cls-1,.cls-10{fill:#fff;}.cls-2{fill:#575757;}.cls-3,.cls-8{fill:#858585;}.cls-4{fill:#b0b0b0;}.cls-5{fill:#c7c7c7;}.cls-5,.cls-6,.cls-7,.cls-8{fill-rule:evenodd;}.cls-6,.cls-9{fill:#929292;}.cls-7{fill:#313131;}.cls-10{stroke:#c7c7c7;stroke-miterlimit:10;stroke-width:0.3px;}</style></defs><title>submit_grey_2</title><g id="Layer_2" data-name="Layer 2"><g id="Layer_1-2" data-name="Layer 1"><rect class="cls-1" width="175" height="49.53" rx="24.69" ry="24.69"/><rect class="cls-2" x="2.68" y="1.44" width="169.1" height="45.52" rx="22.69" ry="22.69"/><rect class="cls-3" x="2.19" y="1.1" width="169.53" height="44.03" rx="21.94" ry="21.94"/><rect class="cls-4" x="3.54" y="0.68" width="167.45" height="39.46" rx="19.67" ry="19.67"/><path class="cls-5" d="M151.35.68H23.1A19.72,19.72,0,0,0,3.5,20.41h0c0,.38,0,.76,0,1.14A19.72,19.72,0,0,1,23.1,3H151.35a19.72,19.72,0,0,1,19.57,18.59c0-.38,0-.76,0-1.14h0A19.72,19.72,0,0,0,151.35.68Z"/><path class="cls-6" d="M151.35,37.85H23.1A19.72,19.72,0,0,1,3.54,19.27c0,.38,0,.76,0,1.14h0A19.72,19.72,0,0,0,23.1,40.13H151.35A19.72,19.72,0,0,0,171,20.41h0c0-.38,0-.76,0-1.14A19.72,19.72,0,0,1,151.35,37.85Z"/><path class="cls-7" d="M150.39,51.05H24.61A24.67,24.67,0,0,1,.12,28.76C0,29.57,0,30.4,0,31.23H0A24.69,24.69,0,0,0,24.61,56H150.39A24.69,24.69,0,0,0,175,31.23h0c0-.83,0-1.66-.12-2.47A24.67,24.67,0,0,1,150.39,51.05Z"/><path class="cls-8" d="M150.39,49.53H24.61A24.68,24.68,0,0,1,0,25.91c0,.38,0,.76,0,1.14H0A24.69,24.69,0,0,0,24.61,51.82H150.39A24.69,24.69,0,0,0,175,27h0c0-.38,0-.76,0-1.14A24.68,24.68,0,0,1,150.39,49.53Z"/><path class="cls-9" d="M66.39,17.39a.61.61,0,0,1,0,.62,1,1,0,0,1-.5.37,1.18,1.18,0,0,1-.62,0,.46.46,0,0,1-.38-.39,2.62,2.62,0,0,0-.51-1.1,2.73,2.73,0,0,0-.73-.62,2.28,2.28,0,0,0-.74-.27L62.35,16a2.9,2.9,0,0,0-1.09.11,2.73,2.73,0,0,0-.86.43,2.26,2.26,0,0,0-.57.63,1.59,1.59,0,0,0-.24.72,2.19,2.19,0,0,0,.19,1.25,2.24,2.24,0,0,0,.77.82,6.13,6.13,0,0,0,1.21.6l1.46.57q.74.31,1.46.68a4.93,4.93,0,0,1,1.26.91,3.47,3.47,0,0,1,.81,1.3,4.11,4.11,0,0,1,.15,1.84,4,4,0,0,1-.67,1.9,4,4,0,0,1-1.34,1.22,5,5,0,0,1-1.74.57,5.32,5.32,0,0,1-1.84-.06,5.24,5.24,0,0,1-2.18-1,3.41,3.41,0,0,1-1.27-1.94,1,1,0,0,1,.23-.72,1.31,1.31,0,0,1,.56-.39.85.85,0,0,1,.59,0,.51.51,0,0,1,.33.44,1.78,1.78,0,0,0,.81,1.31,3.74,3.74,0,0,0,2.62.56,2.57,2.57,0,0,0,1-.35,2.46,2.46,0,0,0,.73-.68,2.38,2.38,0,0,0,.39-1,2.29,2.29,0,0,0-.1-1.16,2.18,2.18,0,0,0-.59-.85,4,4,0,0,0-1-.62q-.57-.26-1.21-.52-.81-.31-1.63-.67A6.23,6.23,0,0,1,59.11,21a3.71,3.71,0,0,1-1-1.3,3.56,3.56,0,0,1-.25-1.92,3.67,3.67,0,0,1,.52-1.61A3.8,3.8,0,0,1,59.45,15a4.5,4.5,0,0,1,1.42-.64,4.84,4.84,0,0,1,1.53-.16,5,5,0,0,1,1,.18,4.27,4.27,0,0,1,1.14.51,4.4,4.4,0,0,1,1.06,1A4.45,4.45,0,0,1,66.39,17.39Z"/><path class="cls-9" d="M71.08,21.16A22.36,22.36,0,0,0,71,24.58a6.64,6.64,0,0,0,.36,1.84,1.3,1.3,0,0,0,.58.75,1.58,1.58,0,0,0,.62.14,2.14,2.14,0,0,0,.93-.2,2.6,2.6,0,0,0,1.28-1.35,2.44,2.44,0,0,0,.19-1V21.42a.92.92,0,0,1,.29-.63,1,1,0,0,1,.58-.29.88.88,0,0,1,1,.85l0,7.18a.7.7,0,0,1-.27.63,1,1,0,0,1-.61.16,1.25,1.25,0,0,1-.61-.2.54.54,0,0,1-.27-.47l0-.38a4,4,0,0,1-1.13.62,3.86,3.86,0,0,1-1.3.21,2.88,2.88,0,0,1-3-2.11,8.58,8.58,0,0,1-.39-2.47q0-1.45,0-3.24a.72.72,0,0,1,.32-.63,1.08,1.08,0,0,1,.64-.16,1.35,1.35,0,0,1,.63.2A.48.48,0,0,1,71.08,21.16Z"/><path class="cls-9" d="M81.07,28.76a.54.54,0,0,1-.27.47,1.26,1.26,0,0,1-.61.2,1,1,0,0,1-.61-.16.7.7,0,0,1-.27-.63l0-13.52a.88.88,0,0,1,1-.85,1,1,0,0,1,.58.29.92.92,0,0,1,.29.63V16.8q0,.68,0,1.47t0,1.48q0,.69,0,1.14t0,.48a4.19,4.19,0,0,1,1.09-.56,3.82,3.82,0,0,1,1.24-.2,3.87,3.87,0,0,1,1.62.35,4.38,4.38,0,0,1,1.33.93,4.23,4.23,0,0,1,.89,1.37,4.38,4.38,0,0,1,0,3.29,4.36,4.36,0,0,1-.89,1.38,4.27,4.27,0,0,1-1.33.94,4,4,0,0,1-2.91.13,4,4,0,0,1-1.13-.62ZM86,24.92a2.47,2.47,0,0,0-.71-1.74,2.71,2.71,0,0,0-.76-.54,2.23,2.23,0,0,0-1.86,0,2.7,2.7,0,0,0-.76.54,2.48,2.48,0,0,0-.52,2.69,2.6,2.6,0,0,0,1.28,1.35,2.23,2.23,0,0,0,1.86,0,2.6,2.6,0,0,0,1.28-1.35A2.44,2.44,0,0,0,86,24.92Z"/><path class="cls-9" d="M95.73,28.6a24.56,24.56,0,0,0-.1-3.27,8,8,0,0,0-.39-1.86,1.62,1.62,0,0,0-.57-.83,1.2,1.2,0,0,0-.61-.19,2.15,2.15,0,0,0-.93.2A2.6,2.6,0,0,0,91.85,24a2.43,2.43,0,0,0-.19,1v3.39a.92.92,0,0,1-.29.63,1,1,0,0,1-.58.29.88.88,0,0,1-1-.85l0-7.18a.7.7,0,0,1,.27-.63,1,1,0,0,1,.61-.16,1.26,1.26,0,0,1,.61.2.54.54,0,0,1,.27.47l0,.38a4,4,0,0,1,1.13-.62,3.86,3.86,0,0,1,1.3-.21,3.1,3.1,0,0,1,1.64.39,2.82,2.82,0,0,1,1,1.11A4,4,0,0,1,98.1,21a3.27,3.27,0,0,1,1.44-.42,2.9,2.9,0,0,1,1.93.58,3.52,3.52,0,0,1,1,1.62,9.4,9.4,0,0,1,.42,2.48q.07,1.44.07,3.14a.7.7,0,0,1-.27.63,1,1,0,0,1-.61.16,1.25,1.25,0,0,1-.61-.2.54.54,0,0,1-.27-.47,24.56,24.56,0,0,0-.1-3.27,8,8,0,0,0-.39-1.86,1.62,1.62,0,0,0-.57-.83,1.2,1.2,0,0,0-.61-.19,1.91,1.91,0,0,0-1.42.6,3.59,3.59,0,0,0-.84,1.36q.12.91.15,1.94t0,2.23a.7.7,0,0,1-.27.63,1,1,0,0,1-.61.16,1.25,1.25,0,0,1-.61-.2A.54.54,0,0,1,95.73,28.6Z"/><path class="cls-9" d="M105.27,19a1.06,1.06,0,0,1,.3-.76,1,1,0,0,1,.75-.31A1.06,1.06,0,0,1,107.39,19a1,1,0,0,1-.31.75,1.05,1.05,0,0,1-.76.3,1,1,0,0,1-1-1Zm0,2.46a.72.72,0,0,1,.4-.58,1.22,1.22,0,0,1,.69-.11A1.21,1.21,0,0,1,107,21a.47.47,0,0,1,.19.5l0,6.8a.7.7,0,0,1-.27.63,1,1,0,0,1-.61.16,1.25,1.25,0,0,1-.61-.2.54.54,0,0,1-.27-.47Z"/><path class="cls-9" d="M112.15,20l0-3.77a.72.72,0,0,1,.4-.58,1.27,1.27,0,0,1,.68-.12,1.12,1.12,0,0,1,.61.25.47.47,0,0,1,.19.5V20h2.09a.81.81,0,0,1,.61.38,1,1,0,0,1,.13.63.93.93,0,0,1-.31.56.87.87,0,0,1-.71.19H114l0,6.61a.69.69,0,0,1-.29.63,1,1,0,0,1-.62.16,1.33,1.33,0,0,1-.62-.2.53.53,0,0,1-.29-.47l0-6.73h-2a.69.69,0,0,1-.63-.27,1,1,0,0,1-.15-.61,1.26,1.26,0,0,1,.2-.61.54.54,0,0,1,.46-.27Z"/><path class="cls-10" d="M66.39,13.72a.61.61,0,0,1,0,.62,1,1,0,0,1-.5.37,1.18,1.18,0,0,1-.62,0,.46.46,0,0,1-.38-.39,2.62,2.62,0,0,0-.51-1.1,2.73,2.73,0,0,0-.73-.62,2.28,2.28,0,0,0-.74-.27l-.52-.08a2.9,2.9,0,0,0-1.09.11,2.73,2.73,0,0,0-.86.43,2.26,2.26,0,0,0-.57.63,1.59,1.59,0,0,0-.24.72,2.19,2.19,0,0,0,.19,1.25,2.24,2.24,0,0,0,.77.82,6.13,6.13,0,0,0,1.21.6l1.46.57q.74.31,1.46.68A4.93,4.93,0,0,1,66,19a3.47,3.47,0,0,1,.81,1.3,4.11,4.11,0,0,1,.15,1.84,4,4,0,0,1-.67,1.9,4,4,0,0,1-1.34,1.22,5,5,0,0,1-1.74.57,5.32,5.32,0,0,1-1.84-.06,5.24,5.24,0,0,1-2.18-1,3.41,3.41,0,0,1-1.27-1.94,1,1,0,0,1,.23-.72,1.31,1.31,0,0,1,.56-.39.85.85,0,0,1,.59,0,.51.51,0,0,1,.33.44,1.78,1.78,0,0,0,.81,1.31,3.74,3.74,0,0,0,2.62.56,2.57,2.57,0,0,0,1-.35,2.46,2.46,0,0,0,.73-.68,2.38,2.38,0,0,0,.39-1,2.29,2.29,0,0,0-.1-1.16,2.18,2.18,0,0,0-.59-.85,4,4,0,0,0-1-.62q-.57-.26-1.21-.52-.81-.31-1.63-.67a6.23,6.23,0,0,1-1.46-.88,3.71,3.71,0,0,1-1-1.3,3.56,3.56,0,0,1-.25-1.92,3.67,3.67,0,0,1,.52-1.61,3.8,3.8,0,0,1,1.07-1.12,4.5,4.5,0,0,1,1.42-.64,4.84,4.84,0,0,1,1.53-.16,5,5,0,0,1,1,.18,4.27,4.27,0,0,1,1.14.51,4.4,4.4,0,0,1,1.06,1A4.45,4.45,0,0,1,66.39,13.72Z"/><path class="cls-10" d="M71.08,17.49A22.36,22.36,0,0,0,71,20.91a6.64,6.64,0,0,0,.36,1.84,1.3,1.3,0,0,0,.58.75,1.58,1.58,0,0,0,.62.14,2.14,2.14,0,0,0,.93-.2,2.6,2.6,0,0,0,1.28-1.35,2.44,2.44,0,0,0,.19-1V17.75a.92.92,0,0,1,.29-.63,1,1,0,0,1,.58-.29.88.88,0,0,1,1,.85l0,7.18a.7.7,0,0,1-.27.63,1,1,0,0,1-.61.16,1.25,1.25,0,0,1-.61-.2.54.54,0,0,1-.27-.47l0-.38a4,4,0,0,1-1.13.62,3.86,3.86,0,0,1-1.3.21,2.88,2.88,0,0,1-3-2.11,8.58,8.58,0,0,1-.39-2.47q0-1.45,0-3.24a.72.72,0,0,1,.32-.63,1.08,1.08,0,0,1,.64-.16,1.35,1.35,0,0,1,.63.2A.48.48,0,0,1,71.08,17.49Z"/><path class="cls-10" d="M81.07,25.1a.54.54,0,0,1-.27.47,1.26,1.26,0,0,1-.61.2,1,1,0,0,1-.61-.16.7.7,0,0,1-.27-.63l0-13.52a.88.88,0,0,1,1-.85,1,1,0,0,1,.58.29.92.92,0,0,1,.29.63v1.61q0,.68,0,1.47t0,1.48q0,.69,0,1.14t0,.48a4.19,4.19,0,0,1,1.09-.56,3.82,3.82,0,0,1,1.24-.2,3.87,3.87,0,0,1,1.62.35,4.38,4.38,0,0,1,1.33.93,4.23,4.23,0,0,1,.89,1.37,4.38,4.38,0,0,1,0,3.29,4.36,4.36,0,0,1-.89,1.38,4.27,4.27,0,0,1-1.33.94,4,4,0,0,1-2.91.13,4,4,0,0,1-1.13-.62ZM86,21.26a2.47,2.47,0,0,0-.71-1.74,2.71,2.71,0,0,0-.76-.54,2.23,2.23,0,0,0-1.86,0,2.7,2.7,0,0,0-.76.54,2.48,2.48,0,0,0-.52,2.69,2.6,2.6,0,0,0,1.28,1.35,2.23,2.23,0,0,0,1.86,0,2.6,2.6,0,0,0,1.28-1.35A2.44,2.44,0,0,0,86,21.26Z"/><path class="cls-10" d="M95.73,24.93a24.56,24.56,0,0,0-.1-3.27,8,8,0,0,0-.39-1.86,1.62,1.62,0,0,0-.57-.83,1.2,1.2,0,0,0-.61-.19,2.15,2.15,0,0,0-.93.2,2.6,2.6,0,0,0-1.28,1.35,2.43,2.43,0,0,0-.19,1v3.39a.92.92,0,0,1-.29.63,1,1,0,0,1-.58.29.88.88,0,0,1-1-.85l0-7.18a.7.7,0,0,1,.27-.63,1,1,0,0,1,.61-.16,1.26,1.26,0,0,1,.61.2.54.54,0,0,1,.27.47l0,.38a4,4,0,0,1,1.13-.62A3.86,3.86,0,0,1,94,17a3.1,3.1,0,0,1,1.64.39,2.82,2.82,0,0,1,1,1.11,4,4,0,0,1,1.39-1.18,3.27,3.27,0,0,1,1.44-.42,2.9,2.9,0,0,1,1.93.58,3.52,3.52,0,0,1,1,1.62,9.4,9.4,0,0,1,.42,2.48Q103,23,103,24.72a.7.7,0,0,1-.27.63,1,1,0,0,1-.61.16,1.25,1.25,0,0,1-.61-.2.54.54,0,0,1-.27-.47,24.56,24.56,0,0,0-.1-3.27,8,8,0,0,0-.39-1.86,1.62,1.62,0,0,0-.57-.83,1.2,1.2,0,0,0-.61-.19,1.91,1.91,0,0,0-1.42.6,3.59,3.59,0,0,0-.84,1.36q.12.91.15,1.94t0,2.23a.7.7,0,0,1-.27.63,1,1,0,0,1-.61.16,1.25,1.25,0,0,1-.61-.2A.54.54,0,0,1,95.73,24.93Z"/><path class="cls-10" d="M105.27,15.3a1.06,1.06,0,0,1,.3-.76,1,1,0,0,1,.75-.31,1.06,1.06,0,0,1,1.07,1.07,1,1,0,0,1-.31.75,1.05,1.05,0,0,1-.76.3,1,1,0,0,1-1-1Zm0,2.46a.72.72,0,0,1,.4-.58,1.22,1.22,0,0,1,.69-.11,1.21,1.21,0,0,1,.62.26.47.47,0,0,1,.19.5l0,6.8a.7.7,0,0,1-.27.63,1,1,0,0,1-.61.16,1.25,1.25,0,0,1-.61-.2.54.54,0,0,1-.27-.47Z"/><path class="cls-10" d="M112.15,16.35l0-3.77a.72.72,0,0,1,.4-.58,1.27,1.27,0,0,1,.68-.12,1.12,1.12,0,0,1,.61.25.47.47,0,0,1,.19.5v3.72h2.09a.81.81,0,0,1,.61.38,1,1,0,0,1,.13.63.93.93,0,0,1-.31.56.87.87,0,0,1-.71.19H114l0,6.61a.69.69,0,0,1-.29.63,1,1,0,0,1-.62.16,1.33,1.33,0,0,1-.62-.2.53.53,0,0,1-.29-.47l0-6.73h-2a.69.69,0,0,1-.63-.27,1,1,0,0,1-.15-.61,1.26,1.26,0,0,1,.2-.61.54.54,0,0,1,.46-.27Z"/></g></g></svg>