<svg xmlns="http://www.w3.org/2000/svg" width="350" height="56" viewBox="0 0 350 56">
  <title>start_button</title>
  <g id="Layer_2" data-name="Layer 2">
    <g id="Layer_1-2" data-name="Layer 1">
      <g>
        <rect width="175" height="49.53" rx="24.69" ry="24.69" fill="#fdfefd"/>
        <rect x="2.68" y="1.44" width="169.1" height="45.52" rx="22.69" ry="22.69" fill="#28377b"/>
        <rect x="2.19" y="1.1" width="169.53" height="44.03" rx="21.94" ry="21.94" fill="#3267b0"/>
        <rect x="3.54" y="0.68" width="167.45" height="39.46" rx="19.67" ry="19.67" fill="#42a4dc"/>
        <path d="M151.35.68H23.1A19.72,19.72,0,0,0,3.5,20.41h0c0,.38,0,.76,0,1.14A19.72,19.72,0,0,1,23.1,3H151.35a19.72,19.72,0,0,1,19.57,18.59c0-.38,0-.76,0-1.14h0A19.72,19.72,0,0,0,151.35.68Z" fill="#9dd4ed" fill-rule="evenodd"/>
        <path d="M151.35,37.85H23.1A19.72,19.72,0,0,1,3.54,19.27c0,.38,0,.76,0,1.14h0A19.72,19.72,0,0,0,23.1,40.13H151.35A19.72,19.72,0,0,0,171,20.41h0c0-.38,0-.76,0-1.14A19.72,19.72,0,0,1,151.35,37.85Z" fill="#243f94" fill-rule="evenodd"/>
        <path d="M150.39,51.05H24.61A24.67,24.67,0,0,1,.12,28.76C0,29.57,0,30.4,0,31.23H0A24.69,24.69,0,0,0,24.61,56H150.39A24.69,24.69,0,0,0,175,31.23h0c0-.83,0-1.66-.12-2.47A24.67,24.67,0,0,1,150.39,51.05Z" fill="#5e5f5f" fill-rule="evenodd"/>
        <path d="M150.39,49.53H24.61A24.68,24.68,0,0,1,0,25.91c0,.38,0,.76,0,1.14H0A24.69,24.69,0,0,0,24.61,51.82H150.39A24.69,24.69,0,0,0,175,27h0c0-.38,0-.76,0-1.14A24.68,24.68,0,0,1,150.39,49.53Z" fill="#888" fill-rule="evenodd"/>
        <g>
          <g>
            <path d="M72.79,16.56a.6.6,0,0,1,0,.61,1,1,0,0,1-.49.36,1.16,1.16,0,0,1-.61,0,.45.45,0,0,1-.37-.39,2.56,2.56,0,0,0-.5-1.08,2.68,2.68,0,0,0-.71-.61,2.24,2.24,0,0,0-.73-.27l-.52-.08a2.85,2.85,0,0,0-1.08.11,2.67,2.67,0,0,0-.84.42,2.22,2.22,0,0,0-.56.62,1.56,1.56,0,0,0-.23.7,2.15,2.15,0,0,0,.19,1.23A2.21,2.21,0,0,0,67,19a6.08,6.08,0,0,0,1.2.59l1.44.56q.73.3,1.44.67a4.84,4.84,0,0,1,1.24.89,3.41,3.41,0,0,1,.8,1.28,4,4,0,0,1,.15,1.8,3.88,3.88,0,0,1-.66,1.86,4,4,0,0,1-1.32,1.2,4.91,4.91,0,0,1-1.71.56,5.24,5.24,0,0,1-1.82-.06,5.17,5.17,0,0,1-2.14-.95,3.35,3.35,0,0,1-1.25-1.91.94.94,0,0,1,.22-.7,1.3,1.3,0,0,1,.55-.39.84.84,0,0,1,.59,0,.5.5,0,0,1,.33.43,1.75,1.75,0,0,0,.8,1.29,3.69,3.69,0,0,0,2.58.55,2.55,2.55,0,0,0,.94-.34,2.43,2.43,0,0,0,.71-.67,2.34,2.34,0,0,0,.39-1,2.23,2.23,0,0,0-.09-1.14,2.13,2.13,0,0,0-.59-.83,3.89,3.89,0,0,0-1-.61q-.56-.26-1.2-.52-.8-.3-1.61-.66a6.15,6.15,0,0,1-1.44-.87,3.65,3.65,0,0,1-1-1.28,3.5,3.5,0,0,1-.25-1.89,3.61,3.61,0,0,1,.52-1.58,3.74,3.74,0,0,1,1.05-1.1,4.43,4.43,0,0,1,1.39-.63,4.77,4.77,0,0,1,1.51-.15,4.89,4.89,0,0,1,1,.18,4.2,4.2,0,0,1,1.13.5,4.32,4.32,0,0,1,1,.94A4.36,4.36,0,0,1,72.79,16.56Z" fill="#243f94"/>
            <path d="M77.9,19.14l0-3.7a.71.71,0,0,1,.4-.57,1.25,1.25,0,0,1,.67-.12,1.1,1.1,0,0,1,.6.25.46.46,0,0,1,.19.49v3.66h2.06a.79.79,0,0,1,.6.38.94.94,0,0,1,.13.62.91.91,0,0,1-.3.55.86.86,0,0,1-.7.19H79.73l0,6.49a.67.67,0,0,1-.28.62,1,1,0,0,1-.61.15,1.31,1.31,0,0,1-.61-.2.52.52,0,0,1-.28-.46l0-6.61H76a.68.68,0,0,1-.62-.27.94.94,0,0,1-.15-.6,1.24,1.24,0,0,1,.2-.6.53.53,0,0,1,.46-.27Z" fill="#243f94"/>
            <path d="M90.09,27.37A4,4,0,0,1,89,28a3.94,3.94,0,0,1-2.87-.13,4.21,4.21,0,0,1-1.31-.93,4.29,4.29,0,0,1-.88-1.36,4.29,4.29,0,0,1,0-3.23A4.15,4.15,0,0,1,84.79,21a4.31,4.31,0,0,1,1.31-.91,3.82,3.82,0,0,1,1.59-.34,3.76,3.76,0,0,1,1.22.2,4.13,4.13,0,0,1,1.08.55.76.76,0,0,1,.42-.55,1.19,1.19,0,0,1,1.27.15.46.46,0,0,1,.19.49l0,7.05a.68.68,0,0,1-.27.62.94.94,0,0,1-.6.15,1.24,1.24,0,0,1-.6-.2.53.53,0,0,1-.27-.46ZM85.31,24a2.39,2.39,0,0,0,.19.94,2.56,2.56,0,0,0,1.27,1.32,2.2,2.2,0,0,0,1.83,0,2.56,2.56,0,0,0,1.27-1.32,2.43,2.43,0,0,0-.52-2.65,2.66,2.66,0,0,0-.75-.53,2.2,2.2,0,0,0-1.83,0,2.66,2.66,0,0,0-.75.53,2.43,2.43,0,0,0-.7,1.71Z" fill="#243f94"/>
            <path d="M100,22.37a4.57,4.57,0,0,0-.79-.59,1.78,1.78,0,0,0-.93-.26,2.11,2.11,0,0,0-.91.2,2.56,2.56,0,0,0-1.27,1.32,2.39,2.39,0,0,0-.19.94v3.33a.9.9,0,0,1-.28.62,1,1,0,0,1-.57.28.92.92,0,0,1-.61-.15.91.91,0,0,1-.36-.68l0-7.05a.68.68,0,0,1,.27-.62.94.94,0,0,1,.6-.15,1.24,1.24,0,0,1,.6.2.53.53,0,0,1,.27.46l0,.38A4,4,0,0,1,97,20a3.81,3.81,0,0,1,1.28-.21,4,4,0,0,1,1.8.41,3.25,3.25,0,0,1,1.31,1.18.7.7,0,0,1,.07.54,1,1,0,0,1-.28.52.77.77,0,0,1-1.17,0Z" fill="#243f94"/>
            <path d="M105.72,19.14l0-3.7a.71.71,0,0,1,.4-.57,1.25,1.25,0,0,1,.67-.12,1.1,1.1,0,0,1,.6.25.46.46,0,0,1,.19.49v3.66h2.06a.79.79,0,0,1,.6.38.94.94,0,0,1,.13.62.91.91,0,0,1-.3.55.86.86,0,0,1-.7.19h-1.76l0,6.49a.67.67,0,0,1-.28.62,1,1,0,0,1-.61.15,1.31,1.31,0,0,1-.61-.2.52.52,0,0,1-.28-.46l0-6.61H103.8a.68.68,0,0,1-.62-.27A.94.94,0,0,1,103,20a1.24,1.24,0,0,1,.2-.6.53.53,0,0,1,.46-.27Z" fill="#243f94"/>
          </g>
          <g>
            <path d="M72.79,14.56a.6.6,0,0,1,0,.61,1,1,0,0,1-.49.36,1.16,1.16,0,0,1-.61,0,.45.45,0,0,1-.37-.39,2.56,2.56,0,0,0-.5-1.08,2.68,2.68,0,0,0-.71-.61,2.24,2.24,0,0,0-.73-.27l-.52-.08a2.85,2.85,0,0,0-1.08.11,2.67,2.67,0,0,0-.84.42,2.22,2.22,0,0,0-.56.62,1.56,1.56,0,0,0-.23.7,2.15,2.15,0,0,0,.19,1.23A2.21,2.21,0,0,0,67,17a6.08,6.08,0,0,0,1.2.59l1.44.56q.73.3,1.44.67a4.84,4.84,0,0,1,1.24.89,3.41,3.41,0,0,1,.8,1.28,4,4,0,0,1,.15,1.8,3.88,3.88,0,0,1-.66,1.86,4,4,0,0,1-1.32,1.2,4.91,4.91,0,0,1-1.71.56,5.24,5.24,0,0,1-1.82-.06,5.17,5.17,0,0,1-2.14-.95,3.35,3.35,0,0,1-1.25-1.91.94.94,0,0,1,.22-.7,1.3,1.3,0,0,1,.55-.39.84.84,0,0,1,.59,0,.5.5,0,0,1,.33.43,1.75,1.75,0,0,0,.8,1.29,3.69,3.69,0,0,0,2.58.55,2.55,2.55,0,0,0,.94-.34,2.43,2.43,0,0,0,.71-.67,2.34,2.34,0,0,0,.39-1,2.23,2.23,0,0,0-.09-1.14,2.13,2.13,0,0,0-.59-.83,3.89,3.89,0,0,0-1-.61q-.56-.26-1.2-.52-.8-.3-1.61-.66a6.15,6.15,0,0,1-1.44-.87,3.65,3.65,0,0,1-1-1.28,3.5,3.5,0,0,1-.25-1.89,3.61,3.61,0,0,1,.52-1.58,3.74,3.74,0,0,1,1.05-1.1,4.43,4.43,0,0,1,1.39-.63,4.77,4.77,0,0,1,1.51-.15,4.89,4.89,0,0,1,1,.18,4.2,4.2,0,0,1,1.13.5,4.32,4.32,0,0,1,1,.94A4.36,4.36,0,0,1,72.79,14.56Z" fill="#fcf9d9"/>
            <path d="M77.9,17.14l0-3.7a.71.71,0,0,1,.4-.57,1.25,1.25,0,0,1,.67-.12,1.1,1.1,0,0,1,.6.25.46.46,0,0,1,.19.49v3.66h2.06a.79.79,0,0,1,.6.38.94.94,0,0,1,.13.62.91.91,0,0,1-.3.55.86.86,0,0,1-.7.19H79.73l0,6.49a.67.67,0,0,1-.28.62,1,1,0,0,1-.61.15,1.31,1.31,0,0,1-.61-.2.52.52,0,0,1-.28-.46l0-6.61H76a.68.68,0,0,1-.62-.27.94.94,0,0,1-.15-.6,1.24,1.24,0,0,1,.2-.6.53.53,0,0,1,.46-.27Z" fill="#fcf9d9"/>
            <path d="M90.09,25.37A4,4,0,0,1,89,26a3.94,3.94,0,0,1-2.87-.13,4.21,4.21,0,0,1-1.31-.93,4.29,4.29,0,0,1-.88-1.36,4.29,4.29,0,0,1,0-3.23A4.15,4.15,0,0,1,84.79,19a4.31,4.31,0,0,1,1.31-.91,3.82,3.82,0,0,1,1.59-.34,3.76,3.76,0,0,1,1.22.2,4.13,4.13,0,0,1,1.08.55.76.76,0,0,1,.42-.55,1.19,1.19,0,0,1,1.27.15.46.46,0,0,1,.19.49l0,7.05a.68.68,0,0,1-.27.62.94.94,0,0,1-.6.15,1.24,1.24,0,0,1-.6-.2.53.53,0,0,1-.27-.46ZM85.31,22a2.39,2.39,0,0,0,.19.94,2.56,2.56,0,0,0,1.27,1.32,2.2,2.2,0,0,0,1.83,0,2.56,2.56,0,0,0,1.27-1.32,2.43,2.43,0,0,0-.52-2.65,2.66,2.66,0,0,0-.75-.53,2.2,2.2,0,0,0-1.83,0,2.66,2.66,0,0,0-.75.53,2.43,2.43,0,0,0-.7,1.71Z" fill="#fcf9d9"/>
            <path d="M100,20.37a4.57,4.57,0,0,0-.79-.59,1.78,1.78,0,0,0-.93-.26,2.11,2.11,0,0,0-.91.2,2.56,2.56,0,0,0-1.27,1.32,2.39,2.39,0,0,0-.19.94v3.33a.9.9,0,0,1-.28.62,1,1,0,0,1-.57.28.92.92,0,0,1-.61-.15.91.91,0,0,1-.36-.68l0-7.05a.68.68,0,0,1,.27-.62.94.94,0,0,1,.6-.15,1.24,1.24,0,0,1,.6.2.53.53,0,0,1,.27.46l0,.38A4,4,0,0,1,97,18a3.81,3.81,0,0,1,1.28-.21,4,4,0,0,1,1.8.41,3.25,3.25,0,0,1,1.31,1.18.7.7,0,0,1,.07.54,1,1,0,0,1-.28.52.77.77,0,0,1-1.17,0Z" fill="#fcf9d9"/>
            <path d="M105.72,17.14l0-3.7a.71.71,0,0,1,.4-.57,1.25,1.25,0,0,1,.67-.12,1.1,1.1,0,0,1,.6.25.46.46,0,0,1,.19.49v3.66h2.06a.79.79,0,0,1,.6.38.94.94,0,0,1,.13.62.91.91,0,0,1-.3.55.86.86,0,0,1-.7.19h-1.76l0,6.49a.67.67,0,0,1-.28.62,1,1,0,0,1-.61.15,1.31,1.31,0,0,1-.61-.2.52.52,0,0,1-.28-.46l0-6.61H103.8a.68.68,0,0,1-.62-.27A.94.94,0,0,1,103,18a1.24,1.24,0,0,1,.2-.6.53.53,0,0,1,.46-.27Z" fill="#fcf9d9"/>
          </g>
        </g>
      </g>
      <g>
        <rect x="175" y="6" width="175" height="43.79" rx="21.89" ry="21.89" fill="#fdfefd"/>
        <rect x="177.68" y="7.22" width="169.1" height="40.09" rx="20.05" ry="20.05" fill="#28377b"/>
        <rect x="177.19" y="7.22" width="169.53" height="38.33" rx="19.17" ry="19.17" fill="#3267b0"/>
        <rect x="178.54" y="7.22" width="167.45" height="37.92" rx="18.96" ry="18.96" fill="#42a4dc"/>
        <path d="M326.35,7.22H198.1c-10.78,0-19.6,8.53-19.6,19h0c0,.37,0,.73,0,1.1.59-9.92,9.17-17.86,19.57-17.86H326.35c10.4,0,19,7.94,19.57,17.86,0-.36,0-.73,0-1.1h0C346,15.75,337.13,7.22,326.35,7.22Z" fill="#9dd4ed" fill-rule="evenodd"/>
        <path d="M326.35,42.95H198.1c-10.4,0-19-7.94-19.57-17.86,0,.36,0,.73,0,1.1h0c0,10.43,8.82,19,19.6,19H326.35c10.78,0,19.6-8.53,19.6-19h0c0-.37,0-.73,0-1.1C345.32,35,336.75,42.95,326.35,42.95Z" fill="#243f94" fill-rule="evenodd"/>
        <path d="M325.39,51.25H199.61c-12.76,0-23.25-9.4-24.49-21.42A23.28,23.28,0,0,0,175,32.2h0C175,45.34,186,56,199.61,56H325.39C339,56,350,45.34,350,32.2h0a23.28,23.28,0,0,0-.12-2.38C348.64,41.85,338.15,51.25,325.39,51.25Z" fill="#5e5f5f" fill-rule="evenodd"/>
        <path d="M325.39,49.79H199.61c-13.21,0-24-10.07-24.58-22.7,0,.36,0,.73,0,1.1h0C175,41.32,186,52,199.61,52H325.39C339,52,350,41.32,350,28.18h0c0-.37,0-.73,0-1.1C349.38,39.72,338.6,49.79,325.39,49.79Z" fill="#888" fill-rule="evenodd"/>
        <g>
          <g>
            <path d="M247.79,21.31a.6.6,0,0,1,0,.61,1,1,0,0,1-.49.36,1.16,1.16,0,0,1-.61,0,.45.45,0,0,1-.37-.39,2.56,2.56,0,0,0-.5-1.08,2.68,2.68,0,0,0-.71-.61,2.24,2.24,0,0,0-.73-.27l-.52-.08a2.85,2.85,0,0,0-1.08.11,2.67,2.67,0,0,0-.84.42,2.22,2.22,0,0,0-.56.62,1.56,1.56,0,0,0-.23.7,2.15,2.15,0,0,0,.19,1.23,2.21,2.21,0,0,0,.76.81,6.08,6.08,0,0,0,1.2.59l1.44.56q.73.3,1.44.67a4.84,4.84,0,0,1,1.24.89,3.41,3.41,0,0,1,.8,1.28,4,4,0,0,1,.15,1.8,3.88,3.88,0,0,1-.66,1.86,4,4,0,0,1-1.32,1.2,4.91,4.91,0,0,1-1.71.56,5.24,5.24,0,0,1-1.82-.06,5.17,5.17,0,0,1-2.14-.95,3.35,3.35,0,0,1-1.25-1.91.94.94,0,0,1,.22-.7,1.3,1.3,0,0,1,.55-.39.84.84,0,0,1,.59,0,.5.5,0,0,1,.33.43,1.75,1.75,0,0,0,.8,1.29,3.69,3.69,0,0,0,2.58.55,2.55,2.55,0,0,0,.94-.34,2.43,2.43,0,0,0,.71-.67,2.34,2.34,0,0,0,.39-1,2.23,2.23,0,0,0-.09-1.14,2.13,2.13,0,0,0-.59-.83,3.89,3.89,0,0,0-1-.61q-.56-.26-1.2-.52-.8-.3-1.61-.66a6.15,6.15,0,0,1-1.44-.87,3.65,3.65,0,0,1-1-1.28,3.5,3.5,0,0,1-.25-1.89,3.61,3.61,0,0,1,.52-1.58,3.74,3.74,0,0,1,1.05-1.1,4.43,4.43,0,0,1,1.39-.63,4.77,4.77,0,0,1,1.51-.15,4.89,4.89,0,0,1,1,.18,4.2,4.2,0,0,1,1.13.5,4.32,4.32,0,0,1,1,.94A4.36,4.36,0,0,1,247.79,21.31Z" fill="#243f94"/>
            <path d="M252.9,23.89l0-3.7a.71.71,0,0,1,.4-.57,1.25,1.25,0,0,1,.67-.12,1.1,1.1,0,0,1,.6.25.46.46,0,0,1,.19.49v3.66h2.06a.79.79,0,0,1,.6.38.94.94,0,0,1,.13.62.91.91,0,0,1-.3.55.86.86,0,0,1-.7.19h-1.76l0,6.49a.67.67,0,0,1-.28.62,1,1,0,0,1-.61.15,1.31,1.31,0,0,1-.61-.2.52.52,0,0,1-.28-.46l0-6.61H251a.68.68,0,0,1-.62-.27.94.94,0,0,1-.15-.6,1.24,1.24,0,0,1,.2-.6.53.53,0,0,1,.46-.27Z" fill="#243f94"/>
            <path d="M265.09,32.12a4,4,0,0,1-1.11.61,3.94,3.94,0,0,1-2.87-.13,4.21,4.21,0,0,1-1.31-.93,4.29,4.29,0,0,1-.88-1.36,4.29,4.29,0,0,1,0-3.23,4.15,4.15,0,0,1,.88-1.35,4.31,4.31,0,0,1,1.31-.91,3.82,3.82,0,0,1,1.59-.34,3.76,3.76,0,0,1,1.22.2,4.13,4.13,0,0,1,1.08.55.76.76,0,0,1,.42-.55,1.19,1.19,0,0,1,1.27.15.46.46,0,0,1,.19.49l0,7.05a.68.68,0,0,1-.27.62.94.94,0,0,1-.6.15,1.24,1.24,0,0,1-.6-.2.53.53,0,0,1-.27-.46Zm-4.78-3.4a2.39,2.39,0,0,0,.19.94A2.56,2.56,0,0,0,261.76,31a2.2,2.2,0,0,0,1.83,0,2.56,2.56,0,0,0,1.27-1.32,2.43,2.43,0,0,0-.52-2.65,2.66,2.66,0,0,0-.75-.53,2.2,2.2,0,0,0-1.83,0A2.66,2.66,0,0,0,261,27a2.43,2.43,0,0,0-.7,1.71Z" fill="#243f94"/>
            <path d="M275,27.12a4.57,4.57,0,0,0-.79-.59,1.78,1.78,0,0,0-.93-.26,2.11,2.11,0,0,0-.91.2,2.56,2.56,0,0,0-1.27,1.32,2.39,2.39,0,0,0-.19.94v3.33a.9.9,0,0,1-.28.62,1,1,0,0,1-.57.28.92.92,0,0,1-.61-.15.91.91,0,0,1-.36-.68l0-7.05a.68.68,0,0,1,.27-.62.94.94,0,0,1,.6-.15,1.24,1.24,0,0,1,.6.2.53.53,0,0,1,.27.46l0,.38a4,4,0,0,1,1.11-.61,3.81,3.81,0,0,1,1.28-.21,4,4,0,0,1,1.8.41,3.25,3.25,0,0,1,1.31,1.18.7.7,0,0,1,.07.54,1,1,0,0,1-.28.52.77.77,0,0,1-1.17,0Z" fill="#243f94"/>
            <path d="M280.72,23.89l0-3.7a.71.71,0,0,1,.4-.57,1.25,1.25,0,0,1,.67-.12,1.1,1.1,0,0,1,.6.25.46.46,0,0,1,.19.49v3.66h2.06a.79.79,0,0,1,.6.38.94.94,0,0,1,.13.62.91.91,0,0,1-.3.55.86.86,0,0,1-.7.19h-1.76l0,6.49a.67.67,0,0,1-.28.62,1,1,0,0,1-.61.15,1.31,1.31,0,0,1-.61-.2.52.52,0,0,1-.28-.46l0-6.61H278.8a.68.68,0,0,1-.62-.27.94.94,0,0,1-.15-.6,1.24,1.24,0,0,1,.2-.6.53.53,0,0,1,.46-.27Z" fill="#243f94"/>
          </g>
          <g>
            <path d="M247.79,21.31a.6.6,0,0,1,0,.61,1,1,0,0,1-.49.36,1.16,1.16,0,0,1-.61,0,.45.45,0,0,1-.37-.39,2.56,2.56,0,0,0-.5-1.08,2.68,2.68,0,0,0-.71-.61,2.24,2.24,0,0,0-.73-.27l-.52-.08a2.85,2.85,0,0,0-1.08.11,2.67,2.67,0,0,0-.84.42,2.22,2.22,0,0,0-.56.62,1.56,1.56,0,0,0-.23.7,2.15,2.15,0,0,0,.19,1.23,2.21,2.21,0,0,0,.76.81,6.08,6.08,0,0,0,1.2.59l1.44.56q.73.3,1.44.67a4.84,4.84,0,0,1,1.24.89,3.41,3.41,0,0,1,.8,1.28,4,4,0,0,1,.15,1.8,3.88,3.88,0,0,1-.66,1.86,4,4,0,0,1-1.32,1.2,4.91,4.91,0,0,1-1.71.56,5.24,5.24,0,0,1-1.82-.06,5.17,5.17,0,0,1-2.14-.95,3.35,3.35,0,0,1-1.25-1.91.94.94,0,0,1,.22-.7,1.3,1.3,0,0,1,.55-.39.84.84,0,0,1,.59,0,.5.5,0,0,1,.33.43,1.75,1.75,0,0,0,.8,1.29,3.69,3.69,0,0,0,2.58.55,2.55,2.55,0,0,0,.94-.34,2.43,2.43,0,0,0,.71-.67,2.34,2.34,0,0,0,.39-1,2.23,2.23,0,0,0-.09-1.14,2.13,2.13,0,0,0-.59-.83,3.89,3.89,0,0,0-1-.61q-.56-.26-1.2-.52-.8-.3-1.61-.66a6.15,6.15,0,0,1-1.44-.87,3.65,3.65,0,0,1-1-1.28,3.5,3.5,0,0,1-.25-1.89,3.61,3.61,0,0,1,.52-1.58,3.74,3.74,0,0,1,1.05-1.1,4.43,4.43,0,0,1,1.39-.63,4.77,4.77,0,0,1,1.51-.15,4.89,4.89,0,0,1,1,.18,4.2,4.2,0,0,1,1.13.5,4.32,4.32,0,0,1,1,.94A4.36,4.36,0,0,1,247.79,21.31Z" fill="#fcf9d9"/>
            <path d="M252.9,23.89l0-3.7a.71.71,0,0,1,.4-.57,1.25,1.25,0,0,1,.67-.12,1.1,1.1,0,0,1,.6.25.46.46,0,0,1,.19.49v3.66h2.06a.79.79,0,0,1,.6.38.94.94,0,0,1,.13.62.91.91,0,0,1-.3.55.86.86,0,0,1-.7.19h-1.76l0,6.49a.67.67,0,0,1-.28.62,1,1,0,0,1-.61.15,1.31,1.31,0,0,1-.61-.2.52.52,0,0,1-.28-.46l0-6.61H251a.68.68,0,0,1-.62-.27.94.94,0,0,1-.15-.6,1.24,1.24,0,0,1,.2-.6.53.53,0,0,1,.46-.27Z" fill="#fcf9d9"/>
            <path d="M265.09,32.12a4,4,0,0,1-1.11.61,3.94,3.94,0,0,1-2.87-.13,4.21,4.21,0,0,1-1.31-.93,4.29,4.29,0,0,1-.88-1.36,4.29,4.29,0,0,1,0-3.23,4.15,4.15,0,0,1,.88-1.35,4.31,4.31,0,0,1,1.31-.91,3.82,3.82,0,0,1,1.59-.34,3.76,3.76,0,0,1,1.22.2,4.13,4.13,0,0,1,1.08.55.76.76,0,0,1,.42-.55,1.19,1.19,0,0,1,1.27.15.46.46,0,0,1,.19.49l0,7.05a.68.68,0,0,1-.27.62.94.94,0,0,1-.6.15,1.24,1.24,0,0,1-.6-.2.53.53,0,0,1-.27-.46Zm-4.78-3.4a2.39,2.39,0,0,0,.19.94A2.56,2.56,0,0,0,261.76,31a2.2,2.2,0,0,0,1.83,0,2.56,2.56,0,0,0,1.27-1.32,2.43,2.43,0,0,0-.52-2.65,2.66,2.66,0,0,0-.75-.53,2.2,2.2,0,0,0-1.83,0A2.66,2.66,0,0,0,261,27a2.43,2.43,0,0,0-.7,1.71Z" fill="#fcf9d9"/>
            <path d="M275,27.12a4.57,4.57,0,0,0-.79-.59,1.78,1.78,0,0,0-.93-.26,2.11,2.11,0,0,0-.91.2,2.56,2.56,0,0,0-1.27,1.32,2.39,2.39,0,0,0-.19.94v3.33a.9.9,0,0,1-.28.62,1,1,0,0,1-.57.28.92.92,0,0,1-.61-.15.91.91,0,0,1-.36-.68l0-7.05a.68.68,0,0,1,.27-.62.94.94,0,0,1,.6-.15,1.24,1.24,0,0,1,.6.2.53.53,0,0,1,.27.46l0,.38a4,4,0,0,1,1.11-.61,3.81,3.81,0,0,1,1.28-.21,4,4,0,0,1,1.8.41,3.25,3.25,0,0,1,1.31,1.18.7.7,0,0,1,.07.54,1,1,0,0,1-.28.52.77.77,0,0,1-1.17,0Z" fill="#fcf9d9"/>
            <path d="M280.72,23.89l0-3.7a.71.71,0,0,1,.4-.57,1.25,1.25,0,0,1,.67-.12,1.1,1.1,0,0,1,.6.25.46.46,0,0,1,.19.49v3.66h2.06a.79.79,0,0,1,.6.38.94.94,0,0,1,.13.62.91.91,0,0,1-.3.55.86.86,0,0,1-.7.19h-1.76l0,6.49a.67.67,0,0,1-.28.62,1,1,0,0,1-.61.15,1.31,1.31,0,0,1-.61-.2.52.52,0,0,1-.28-.46l0-6.61H278.8a.68.68,0,0,1-.62-.27.94.94,0,0,1-.15-.6,1.24,1.24,0,0,1,.2-.6.53.53,0,0,1,.46-.27Z" fill="#fcf9d9"/>
          </g>
        </g>
      </g>
    </g>
  </g>
</svg>
