<svg xmlns="http://www.w3.org/2000/svg" width="397.61" height="36.24" viewBox="0 0 397.61 36.24">
  <title>phoneNumber_small</title>
  <g id="Layer_2" data-name="Layer 2">
    <g id="Layer_1-2" data-name="Layer 1">
      <g>
        <path d="M182.65,34H16.15A16.15,16.15,0,0,1,0,18.12c0,.09,0,.18,0,.27v1.69A16.15,16.15,0,0,0,16.15,36.24H182.65A16.15,16.15,0,0,0,198.8,20.08V18.39c0-.09,0-.18,0-.27A16.15,16.15,0,0,1,182.65,34Z" fill="#888"/>
        <rect width="198.8" height="34" rx="16.15" ry="16.15" fill="#fff"/>
        <rect x="2.76" y="2.08" width="193.29" height="29.85" rx="14.93" ry="14.93" fill="#42a4dc"/>
        <g>
          <g>
            <path d="M53.5,12.79a.78.78,0,0,1,.35-.38.65.65,0,0,1,.42-.06,1,1,0,0,1,.39.18.74.74,0,0,1,.25.31l3.3,9.53a.39.39,0,0,1-.07.38.84.84,0,0,1-.36.28.74.74,0,0,1-.46,0,.47.47,0,0,1-.33-.34l-1.25-3.55H52.68l-1.24,3.5a.47.47,0,0,1-.33.34.72.72,0,0,1-.46,0,.83.83,0,0,1-.36-.28.39.39,0,0,1-.07-.38Zm-.36,5.08h2.13l-1.06-3Z" fill="#19487d"/>
            <path d="M64.3,22.42a2.91,2.91,0,0,1-.82.45,2.88,2.88,0,0,1-2.1-.09,3.06,3.06,0,0,1-1-.68,3.14,3.14,0,0,1-.64-1,3.14,3.14,0,0,1,0-2.37,3,3,0,0,1,.64-1,3.15,3.15,0,0,1,1-.67,2.81,2.81,0,0,1,1.17-.25,2.74,2.74,0,0,1,.89.15,3,3,0,0,1,.79.4s0-.13,0-.34,0-.49,0-.82,0-.69,0-1.06,0-.73,0-1.06V12.92a.66.66,0,0,1,.21-.46.72.72,0,0,1,.42-.21.67.67,0,0,1,.45.11.66.66,0,0,1,.27.5l0,9.73a.5.5,0,0,1-.2.46.69.69,0,0,1-.44.11.91.91,0,0,1-.44-.15.39.39,0,0,1-.2-.33Zm-3.5-2.49a1.75,1.75,0,0,0,.14.69,1.87,1.87,0,0,0,.93,1,1.6,1.6,0,0,0,1.34,0,1.87,1.87,0,0,0,.93-1,1.79,1.79,0,0,0,0-1.37,1.78,1.78,0,0,0-.38-.57,1.93,1.93,0,0,0-.55-.39,1.6,1.6,0,0,0-1.34,0,1.93,1.93,0,0,0-.55.39,1.78,1.78,0,0,0-.52,1.25Z" fill="#19487d"/>
            <path d="M72.06,22.42a2.91,2.91,0,0,1-.82.45,2.88,2.88,0,0,1-2.1-.09,3.06,3.06,0,0,1-1-.68,3.14,3.14,0,0,1-.64-1,3.14,3.14,0,0,1,0-2.37,3,3,0,0,1,.64-1,3.15,3.15,0,0,1,1-.67,2.81,2.81,0,0,1,1.17-.25,2.74,2.74,0,0,1,.89.15,3,3,0,0,1,.79.4s0-.13,0-.34,0-.49,0-.82,0-.69,0-1.06,0-.73,0-1.06V12.92a.66.66,0,0,1,.21-.46.72.72,0,0,1,.42-.21.67.67,0,0,1,.45.11.66.66,0,0,1,.27.5l0,9.73a.5.5,0,0,1-.2.46.69.69,0,0,1-.44.11.91.91,0,0,1-.44-.15.39.39,0,0,1-.2-.33Zm-3.5-2.49a1.75,1.75,0,0,0,.14.69,1.87,1.87,0,0,0,.93,1,1.6,1.6,0,0,0,1.34,0,1.87,1.87,0,0,0,.93-1,1.79,1.79,0,0,0,0-1.37,1.78,1.78,0,0,0-.38-.57,1.93,1.93,0,0,0-.55-.39,1.6,1.6,0,0,0-1.34,0,1.93,1.93,0,0,0-.55.39,1.78,1.78,0,0,0-.52,1.25Z" fill="#19487d"/>
            <path d="M81.56,22.69a.6.6,0,0,1-.32.28,1,1,0,0,1-.43.08.85.85,0,0,1-.39-.1.29.29,0,0,1-.17-.27l0-9a1.49,1.49,0,0,1,.36-1,1.27,1.27,0,0,1,.94-.41h.7a7.29,7.29,0,0,1,1,.07,6.56,6.56,0,0,1,1,.23,3.18,3.18,0,0,1,1,.48,2.57,2.57,0,0,1,.71.82,2.68,2.68,0,0,1,.3,1.26,2.86,2.86,0,0,1-.41,1.63,3.37,3.37,0,0,1-1.12,1.08,4.69,4.69,0,0,1-1.53.58,6.59,6.59,0,0,1-1.67.11ZM85,15.09a1.13,1.13,0,0,0-.25-.68,2,2,0,0,0-.7-.57A3.41,3.41,0,0,0,83,13.53a4.58,4.58,0,0,0-1.41.05l0,3.71a3.83,3.83,0,0,0,1.06-.05,4.15,4.15,0,0,0,1.14-.37,2.72,2.72,0,0,0,.91-.71A1.62,1.62,0,0,0,85,15.09Z" fill="#19487d"/>
            <path d="M92.07,22.57A17.56,17.56,0,0,0,92,20.22a5.73,5.73,0,0,0-.28-1.34,1.17,1.17,0,0,0-.41-.6.86.86,0,0,0-.44-.14,1.54,1.54,0,0,0-.67.15,1.87,1.87,0,0,0-.93,1,1.75,1.75,0,0,0-.14.69v2.44a.66.66,0,0,1-.21.46.72.72,0,0,1-.42.21.67.67,0,0,1-.45-.11.66.66,0,0,1-.27-.5l0-9.51a.5.5,0,0,1,.2-.46.7.7,0,0,1,.44-.11.91.91,0,0,1,.44.15.39.39,0,0,1,.2.33l0,4.62a2.9,2.9,0,0,1,.82-.45,2.78,2.78,0,0,1,.94-.15,2.09,2.09,0,0,1,1.39.42A2.54,2.54,0,0,1,93,18.44a6.73,6.73,0,0,1,.3,1.79q.05,1,.05,2.26a.5.5,0,0,1-.2.46.7.7,0,0,1-.44.11.91.91,0,0,1-.44-.15A.39.39,0,0,1,92.07,22.57Z" fill="#19487d"/>
            <path d="M94.88,19.91a3.1,3.1,0,0,1,.23-1.18,3,3,0,0,1,.64-1,3.15,3.15,0,0,1,1-.67,2.86,2.86,0,0,1,2.33,0,3.16,3.16,0,0,1,1,.67,3,3,0,0,1,.64,1,3.16,3.16,0,0,1-.64,3.37,3.07,3.07,0,0,1-1,.68,2.86,2.86,0,0,1-2.33,0,3.06,3.06,0,0,1-1-.68,3.14,3.14,0,0,1-.64-1A3.1,3.1,0,0,1,94.88,19.91Zm1.25,0a1.75,1.75,0,0,0,.14.69,1.87,1.87,0,0,0,.93,1,1.6,1.6,0,0,0,1.34,0,1.87,1.87,0,0,0,.93-1,1.79,1.79,0,0,0,0-1.37,1.78,1.78,0,0,0-.38-.57,1.94,1.94,0,0,0-.55-.39,1.6,1.6,0,0,0-1.34,0,1.93,1.93,0,0,0-.55.39,1.78,1.78,0,0,0-.52,1.25Z" fill="#19487d"/>
            <path d="M106.85,22.57a17.56,17.56,0,0,0-.07-2.35,5.73,5.73,0,0,0-.28-1.34,1.17,1.17,0,0,0-.41-.6.86.86,0,0,0-.44-.14,1.54,1.54,0,0,0-.67.15,1.87,1.87,0,0,0-.93,1,1.75,1.75,0,0,0-.14.69v2.44a.66.66,0,0,1-.21.46.72.72,0,0,1-.42.21.67.67,0,0,1-.45-.11.66.66,0,0,1-.27-.5l0-5.17a.5.5,0,0,1,.2-.46.69.69,0,0,1,.44-.11.91.91,0,0,1,.44.15.39.39,0,0,1,.2.33l0,.27a2.9,2.9,0,0,1,.82-.45,2.78,2.78,0,0,1,.94-.15,2.09,2.09,0,0,1,1.39.42,2.54,2.54,0,0,1,.75,1.17,6.73,6.73,0,0,1,.3,1.79q.05,1,.05,2.26a.5.5,0,0,1-.2.46.7.7,0,0,1-.44.11.91.91,0,0,1-.44-.15A.39.39,0,0,1,106.85,22.57Z" fill="#19487d"/>
            <path d="M114.27,21.08a.56.56,0,0,1,.43-.19.86.86,0,0,1,.46.13.66.66,0,0,1,.28.34.46.46,0,0,1-.11.46,3.23,3.23,0,0,1-1.09.9,3.29,3.29,0,0,1-1.24.34,3.2,3.2,0,0,1-1.23-.15,3.06,3.06,0,0,1-1.07-.61,3,3,0,0,1-.76-1,3.2,3.2,0,0,1-.28-1.37,3.08,3.08,0,0,1,.88-2.15,3.15,3.15,0,0,1,1-.67,3,3,0,0,1,1.17-.27,3.07,3.07,0,0,1,1,.14,2.9,2.9,0,0,1,.88.45,2.52,2.52,0,0,1,.64.72,2.68,2.68,0,0,1,.34,1,1.15,1.15,0,0,1-.18.92,1.5,1.5,0,0,1-1.18.33l-3.25,0a1.9,1.9,0,0,0,.46.93,1.8,1.8,0,0,0,.82.54,1.75,1.75,0,0,0,1,0A2.18,2.18,0,0,0,114.27,21.08Zm-1.61-3a1.68,1.68,0,0,0-.89.28,1.86,1.86,0,0,0-.62.7l3.16,0a1.3,1.3,0,0,0-.26-.52,1.27,1.27,0,0,0-.4-.31,1.54,1.54,0,0,0-.48-.15A4,4,0,0,0,112.65,18.11Z" fill="#19487d"/>
            <path d="M123.78,15.21l0,7.31a.5.5,0,0,1-.2.45.69.69,0,0,1-.44.11.91.91,0,0,1-.44-.15.39.39,0,0,1-.2-.33l-.12-9.7a.54.54,0,0,1,.21-.39.85.85,0,0,1,.4-.15.83.83,0,0,1,.44.07.68.68,0,0,1,.32.27l4.4,7.5-.09-7.3a.56.56,0,0,1,.27-.43.83.83,0,0,1,.46-.1.75.75,0,0,1,.43.17.47.47,0,0,1,.19.38l0,9.63a.36.36,0,0,1-.16.32A.84.84,0,0,1,129,23a1,1,0,0,1-.42,0,.49.49,0,0,1-.29-.22Z" fill="#19487d"/>
            <path d="M132.6,17.22a16.12,16.12,0,0,0,0,2.46,4.78,4.78,0,0,0,.26,1.32.94.94,0,0,0,.42.54,1.13,1.13,0,0,0,.45.1,1.54,1.54,0,0,0,.67-.15,1.87,1.87,0,0,0,.93-1,1.75,1.75,0,0,0,.14-.69V17.41a.66.66,0,0,1,.21-.46.72.72,0,0,1,.42-.21.67.67,0,0,1,.45.11.66.66,0,0,1,.27.5l0,5.17a.5.5,0,0,1-.2.45.69.69,0,0,1-.44.11.91.91,0,0,1-.44-.15.39.39,0,0,1-.2-.33l0-.27a2.88,2.88,0,0,1-.82.45,2.78,2.78,0,0,1-.94.15,2.07,2.07,0,0,1-2.19-1.52,6.17,6.17,0,0,1-.28-1.78q0-1,0-2.33a.52.52,0,0,1,.23-.46.78.78,0,0,1,.46-.11,1,1,0,0,1,.46.15A.35.35,0,0,1,132.6,17.22Z" fill="#19487d"/>
            <path d="M142.75,22.57a17.56,17.56,0,0,0-.07-2.35,5.73,5.73,0,0,0-.28-1.34,1.17,1.17,0,0,0-.41-.6.86.86,0,0,0-.44-.14,1.54,1.54,0,0,0-.67.15,1.87,1.87,0,0,0-.93,1,1.75,1.75,0,0,0-.14.69v2.44a.66.66,0,0,1-.21.46.72.72,0,0,1-.42.21.67.67,0,0,1-.45-.11.66.66,0,0,1-.27-.5l0-5.17a.5.5,0,0,1,.2-.46.69.69,0,0,1,.44-.11.91.91,0,0,1,.44.15.39.39,0,0,1,.2.33l0,.27a2.9,2.9,0,0,1,.82-.45,2.78,2.78,0,0,1,.94-.15,2.24,2.24,0,0,1,1.19.28,2,2,0,0,1,.74.8,2.86,2.86,0,0,1,1-.85,2.36,2.36,0,0,1,1-.3,2.09,2.09,0,0,1,1.39.42,2.53,2.53,0,0,1,.75,1.17,6.74,6.74,0,0,1,.3,1.79q.05,1,.05,2.26a.5.5,0,0,1-.2.46.69.69,0,0,1-.44.11.91.91,0,0,1-.44-.15.39.39,0,0,1-.2-.33,17.66,17.66,0,0,0-.07-2.35,5.73,5.73,0,0,0-.28-1.34,1.16,1.16,0,0,0-.41-.6.86.86,0,0,0-.44-.14,1.38,1.38,0,0,0-1,.43,2.59,2.59,0,0,0-.61,1q.09.65.11,1.4t0,1.61a.5.5,0,0,1-.2.46.7.7,0,0,1-.44.11.91.91,0,0,1-.44-.15A.39.39,0,0,1,142.75,22.57Z" fill="#19487d"/>
            <path d="M150.85,22.69a.39.39,0,0,1-.2.33.91.91,0,0,1-.44.15.69.69,0,0,1-.44-.11.5.5,0,0,1-.2-.46l0-9.73a.66.66,0,0,1,.27-.5.67.67,0,0,1,.45-.11.72.72,0,0,1,.42.21.66.66,0,0,1,.21.46v1.16c0,.33,0,.68,0,1.06s0,.73,0,1.06,0,.61,0,.82,0,.33,0,.34a3,3,0,0,1,.79-.4,2.75,2.75,0,0,1,.89-.15,2.81,2.81,0,0,1,1.17.25,3.16,3.16,0,0,1,1,.67,3,3,0,0,1,.64,1,3.15,3.15,0,0,1,0,2.37,3.14,3.14,0,0,1-.64,1,3.07,3.07,0,0,1-1,.68,2.89,2.89,0,0,1-2.1.09,2.91,2.91,0,0,1-.82-.45Zm3.52-2.76a1.78,1.78,0,0,0-.51-1.25,1.94,1.94,0,0,0-.55-.39,1.6,1.6,0,0,0-1.34,0,1.93,1.93,0,0,0-.55.39,1.78,1.78,0,0,0-.52,1.25,1.75,1.75,0,0,0,.14.69,1.87,1.87,0,0,0,.93,1,1.6,1.6,0,0,0,1.34,0,1.87,1.87,0,0,0,.93-1A1.76,1.76,0,0,0,154.37,19.93Z" fill="#19487d"/>
            <path d="M161.69,21.08a.56.56,0,0,1,.43-.19.86.86,0,0,1,.46.13.66.66,0,0,1,.28.34.46.46,0,0,1-.11.46,3.23,3.23,0,0,1-1.09.9,3.29,3.29,0,0,1-1.24.34,3.2,3.2,0,0,1-1.23-.15,3.06,3.06,0,0,1-1.07-.61,3,3,0,0,1-.76-1,3.2,3.2,0,0,1-.28-1.37,3.08,3.08,0,0,1,.88-2.15,3.15,3.15,0,0,1,1-.67,3,3,0,0,1,1.17-.27,3.07,3.07,0,0,1,1,.14,2.9,2.9,0,0,1,.88.45,2.52,2.52,0,0,1,.64.72,2.68,2.68,0,0,1,.34,1,1.15,1.15,0,0,1-.18.92,1.5,1.5,0,0,1-1.18.33l-3.25,0a1.9,1.9,0,0,0,.46.93,1.8,1.8,0,0,0,.82.54,1.75,1.75,0,0,0,1,0A2.18,2.18,0,0,0,161.69,21.08Zm-1.61-3a1.68,1.68,0,0,0-.89.28,1.86,1.86,0,0,0-.62.7l3.16,0a1.3,1.3,0,0,0-.26-.52,1.27,1.27,0,0,0-.4-.31,1.54,1.54,0,0,0-.48-.15A4,4,0,0,0,160.07,18.11Z" fill="#19487d"/>
            <path d="M169,18.76a3.33,3.33,0,0,0-.58-.43,1.3,1.3,0,0,0-.68-.19,1.54,1.54,0,0,0-.67.15,1.87,1.87,0,0,0-.93,1,1.75,1.75,0,0,0-.14.69v2.44a.66.66,0,0,1-.21.46.72.72,0,0,1-.42.21.67.67,0,0,1-.45-.11.66.66,0,0,1-.27-.5l0-5.17a.5.5,0,0,1,.2-.46.69.69,0,0,1,.44-.11.91.91,0,0,1,.44.15.39.39,0,0,1,.2.33l0,.27a2.9,2.9,0,0,1,.82-.45,2.78,2.78,0,0,1,.94-.15,2.92,2.92,0,0,1,1.32.3,2.38,2.38,0,0,1,1,.87.51.51,0,0,1,.05.4.76.76,0,0,1-.21.38.62.62,0,0,1-.38.18A.63.63,0,0,1,169,18.76Z" fill="#19487d"/>
          </g>
          <g>
            <path d="M53.5,12.11a.78.78,0,0,1,.35-.38.65.65,0,0,1,.42-.06,1,1,0,0,1,.39.18.74.74,0,0,1,.25.31l3.3,9.53a.39.39,0,0,1-.07.38.84.84,0,0,1-.36.28.74.74,0,0,1-.46,0,.47.47,0,0,1-.33-.34L55.73,18.5H52.68L51.44,22a.47.47,0,0,1-.33.34.72.72,0,0,1-.46,0,.83.83,0,0,1-.36-.28.39.39,0,0,1-.07-.38Zm-.36,5.08h2.13l-1.06-3Z" fill="#fcf9d9"/>
            <path d="M64.3,21.75a2.91,2.91,0,0,1-.82.45,2.88,2.88,0,0,1-2.1-.09,3.06,3.06,0,0,1-1-.68,3.14,3.14,0,0,1-.64-1,3.14,3.14,0,0,1,0-2.37,3,3,0,0,1,.64-1,3.15,3.15,0,0,1,1-.67,2.81,2.81,0,0,1,1.17-.25,2.74,2.74,0,0,1,.89.15,3,3,0,0,1,.79.4s0-.13,0-.34,0-.49,0-.82,0-.69,0-1.06,0-.73,0-1.06V12.25a.66.66,0,0,1,.21-.46.72.72,0,0,1,.42-.21.67.67,0,0,1,.45.11.66.66,0,0,1,.27.5l0,9.73a.5.5,0,0,1-.2.46.69.69,0,0,1-.44.11.91.91,0,0,1-.44-.15.39.39,0,0,1-.2-.33Zm-3.5-2.49a1.75,1.75,0,0,0,.14.69,1.87,1.87,0,0,0,.93,1,1.6,1.6,0,0,0,1.34,0,1.87,1.87,0,0,0,.93-1,1.79,1.79,0,0,0,0-1.37,1.78,1.78,0,0,0-.38-.57,1.93,1.93,0,0,0-.55-.39,1.6,1.6,0,0,0-1.34,0,1.93,1.93,0,0,0-.55.39,1.78,1.78,0,0,0-.52,1.25Z" fill="#fcf9d9"/>
            <path d="M72.06,21.75a2.91,2.91,0,0,1-.82.45,2.88,2.88,0,0,1-2.1-.09,3.06,3.06,0,0,1-1-.68,3.14,3.14,0,0,1-.64-1,3.14,3.14,0,0,1,0-2.37,3,3,0,0,1,.64-1,3.15,3.15,0,0,1,1-.67,2.81,2.81,0,0,1,1.17-.25,2.74,2.74,0,0,1,.89.15,3,3,0,0,1,.79.4s0-.13,0-.34,0-.49,0-.82,0-.69,0-1.06,0-.73,0-1.06V12.25a.66.66,0,0,1,.21-.46.72.72,0,0,1,.42-.21.67.67,0,0,1,.45.11.66.66,0,0,1,.27.5l0,9.73a.5.5,0,0,1-.2.46.69.69,0,0,1-.44.11.91.91,0,0,1-.44-.15.39.39,0,0,1-.2-.33Zm-3.5-2.49a1.75,1.75,0,0,0,.14.69,1.87,1.87,0,0,0,.93,1,1.6,1.6,0,0,0,1.34,0,1.87,1.87,0,0,0,.93-1,1.79,1.79,0,0,0,0-1.37,1.78,1.78,0,0,0-.38-.57,1.93,1.93,0,0,0-.55-.39,1.6,1.6,0,0,0-1.34,0,1.93,1.93,0,0,0-.55.39,1.78,1.78,0,0,0-.52,1.25Z" fill="#fcf9d9"/>
            <path d="M81.56,22a.6.6,0,0,1-.32.28,1,1,0,0,1-.43.08.85.85,0,0,1-.39-.1.29.29,0,0,1-.17-.27l0-9a1.49,1.49,0,0,1,.36-1,1.27,1.27,0,0,1,.94-.41h.7a7.29,7.29,0,0,1,1,.07,6.56,6.56,0,0,1,1,.23,3.18,3.18,0,0,1,1,.48,2.57,2.57,0,0,1,.71.82,2.68,2.68,0,0,1,.3,1.26,2.86,2.86,0,0,1-.41,1.63,3.37,3.37,0,0,1-1.12,1.08,4.69,4.69,0,0,1-1.53.58,6.59,6.59,0,0,1-1.67.11ZM85,14.42a1.13,1.13,0,0,0-.25-.68,2,2,0,0,0-.7-.57A3.41,3.41,0,0,0,83,12.85a4.58,4.58,0,0,0-1.41.05l0,3.71a3.83,3.83,0,0,0,1.06-.05,4.15,4.15,0,0,0,1.14-.37,2.72,2.72,0,0,0,.91-.71A1.62,1.62,0,0,0,85,14.42Z" fill="#fcf9d9"/>
            <path d="M92.07,21.9A17.56,17.56,0,0,0,92,19.55a5.73,5.73,0,0,0-.28-1.34,1.17,1.17,0,0,0-.41-.6.86.86,0,0,0-.44-.14,1.54,1.54,0,0,0-.67.15,1.87,1.87,0,0,0-.93,1,1.75,1.75,0,0,0-.14.69v2.44a.66.66,0,0,1-.21.46.72.72,0,0,1-.42.21.67.67,0,0,1-.45-.11.66.66,0,0,1-.27-.5l0-9.51a.5.5,0,0,1,.2-.46.7.7,0,0,1,.44-.11.91.91,0,0,1,.44.15.39.39,0,0,1,.2.33l0,4.62a2.9,2.9,0,0,1,.82-.45,2.78,2.78,0,0,1,.94-.15,2.09,2.09,0,0,1,1.39.42A2.54,2.54,0,0,1,93,17.77a6.73,6.73,0,0,1,.3,1.79q.05,1,.05,2.26a.5.5,0,0,1-.2.46.7.7,0,0,1-.44.11.91.91,0,0,1-.44-.15A.39.39,0,0,1,92.07,21.9Z" fill="#fcf9d9"/>
            <path d="M94.88,19.24a3.1,3.1,0,0,1,.23-1.18,3,3,0,0,1,.64-1,3.15,3.15,0,0,1,1-.67,2.86,2.86,0,0,1,2.33,0,3.16,3.16,0,0,1,1,.67,3,3,0,0,1,.64,1,3.16,3.16,0,0,1-.64,3.37,3.07,3.07,0,0,1-1,.68,2.86,2.86,0,0,1-2.33,0,3.06,3.06,0,0,1-1-.68,3.14,3.14,0,0,1-.64-1A3.1,3.1,0,0,1,94.88,19.24Zm1.25,0a1.75,1.75,0,0,0,.14.69,1.87,1.87,0,0,0,.93,1,1.6,1.6,0,0,0,1.34,0,1.87,1.87,0,0,0,.93-1,1.79,1.79,0,0,0,0-1.37,1.78,1.78,0,0,0-.38-.57,1.94,1.94,0,0,0-.55-.39,1.6,1.6,0,0,0-1.34,0,1.93,1.93,0,0,0-.55.39,1.78,1.78,0,0,0-.52,1.25Z" fill="#fcf9d9"/>
            <path d="M106.85,21.9a17.56,17.56,0,0,0-.07-2.35,5.73,5.73,0,0,0-.28-1.34,1.17,1.17,0,0,0-.41-.6.86.86,0,0,0-.44-.14,1.54,1.54,0,0,0-.67.15,1.87,1.87,0,0,0-.93,1,1.75,1.75,0,0,0-.14.69v2.44a.66.66,0,0,1-.21.46.72.72,0,0,1-.42.21.67.67,0,0,1-.45-.11.66.66,0,0,1-.27-.5l0-5.17a.5.5,0,0,1,.2-.46.69.69,0,0,1,.44-.11.91.91,0,0,1,.44.15.39.39,0,0,1,.2.33l0,.27a2.9,2.9,0,0,1,.82-.45,2.78,2.78,0,0,1,.94-.15,2.09,2.09,0,0,1,1.39.42,2.54,2.54,0,0,1,.75,1.17,6.73,6.73,0,0,1,.3,1.79q.05,1,.05,2.26a.5.5,0,0,1-.2.46.7.7,0,0,1-.44.11.91.91,0,0,1-.44-.15A.39.39,0,0,1,106.85,21.9Z" fill="#fcf9d9"/>
            <path d="M114.27,20.41a.56.56,0,0,1,.43-.19.86.86,0,0,1,.46.13.66.66,0,0,1,.28.34.46.46,0,0,1-.11.46,3.23,3.23,0,0,1-1.09.9,3.29,3.29,0,0,1-1.24.34,3.2,3.2,0,0,1-1.23-.15,3.06,3.06,0,0,1-1.07-.61,3,3,0,0,1-.76-1,3.2,3.2,0,0,1-.28-1.37,3.08,3.08,0,0,1,.88-2.15,3.15,3.15,0,0,1,1-.67,3,3,0,0,1,1.17-.27,3.07,3.07,0,0,1,1,.14,2.9,2.9,0,0,1,.88.45,2.52,2.52,0,0,1,.64.72,2.68,2.68,0,0,1,.34,1,1.15,1.15,0,0,1-.18.92,1.5,1.5,0,0,1-1.18.33l-3.25,0a1.9,1.9,0,0,0,.46.93,1.8,1.8,0,0,0,.82.54,1.75,1.75,0,0,0,1,0A2.18,2.18,0,0,0,114.27,20.41Zm-1.61-3a1.68,1.68,0,0,0-.89.28,1.86,1.86,0,0,0-.62.7l3.16,0a1.3,1.3,0,0,0-.26-.52,1.27,1.27,0,0,0-.4-.31,1.54,1.54,0,0,0-.48-.15A4,4,0,0,0,112.65,17.44Z" fill="#fcf9d9"/>
            <path d="M123.78,14.54l0,7.31a.5.5,0,0,1-.2.45.69.69,0,0,1-.44.11.91.91,0,0,1-.44-.15.39.39,0,0,1-.2-.33l-.12-9.7a.54.54,0,0,1,.21-.39.85.85,0,0,1,.4-.15.83.83,0,0,1,.44.07.68.68,0,0,1,.32.27l4.4,7.5-.09-7.3a.56.56,0,0,1,.27-.43.83.83,0,0,1,.46-.1.75.75,0,0,1,.43.17.47.47,0,0,1,.19.38l0,9.63a.36.36,0,0,1-.16.32.84.84,0,0,1-.38.14,1,1,0,0,1-.42,0,.49.49,0,0,1-.29-.22Z" fill="#fcf9d9"/>
            <path d="M132.6,16.54a16.12,16.12,0,0,0,0,2.46,4.78,4.78,0,0,0,.26,1.32.94.94,0,0,0,.42.54,1.13,1.13,0,0,0,.45.1,1.54,1.54,0,0,0,.67-.15,1.87,1.87,0,0,0,.93-1,1.75,1.75,0,0,0,.14-.69V16.73a.66.66,0,0,1,.21-.46.72.72,0,0,1,.42-.21.67.67,0,0,1,.45.11.66.66,0,0,1,.27.5l0,5.17a.5.5,0,0,1-.2.45.69.69,0,0,1-.44.11.91.91,0,0,1-.44-.15.39.39,0,0,1-.2-.33l0-.27a2.88,2.88,0,0,1-.82.45,2.78,2.78,0,0,1-.94.15,2.07,2.07,0,0,1-2.19-1.52,6.17,6.17,0,0,1-.28-1.78q0-1,0-2.33a.52.52,0,0,1,.23-.46.78.78,0,0,1,.46-.11,1,1,0,0,1,.46.15A.35.35,0,0,1,132.6,16.54Z" fill="#fcf9d9"/>
            <path d="M142.75,21.9a17.56,17.56,0,0,0-.07-2.35,5.73,5.73,0,0,0-.28-1.34,1.17,1.17,0,0,0-.41-.6.86.86,0,0,0-.44-.14,1.54,1.54,0,0,0-.67.15,1.87,1.87,0,0,0-.93,1,1.75,1.75,0,0,0-.14.69v2.44a.66.66,0,0,1-.21.46.72.72,0,0,1-.42.21.67.67,0,0,1-.45-.11.66.66,0,0,1-.27-.5l0-5.17a.5.5,0,0,1,.2-.46.69.69,0,0,1,.44-.11.91.91,0,0,1,.44.15.39.39,0,0,1,.2.33l0,.27a2.9,2.9,0,0,1,.82-.45,2.78,2.78,0,0,1,.94-.15,2.24,2.24,0,0,1,1.19.28,2,2,0,0,1,.74.8,2.86,2.86,0,0,1,1-.85,2.36,2.36,0,0,1,1-.3,2.09,2.09,0,0,1,1.39.42,2.53,2.53,0,0,1,.75,1.17,6.74,6.74,0,0,1,.3,1.79q.05,1,.05,2.26a.5.5,0,0,1-.2.46.69.69,0,0,1-.44.11.91.91,0,0,1-.44-.15.39.39,0,0,1-.2-.33,17.66,17.66,0,0,0-.07-2.35,5.73,5.73,0,0,0-.28-1.34,1.16,1.16,0,0,0-.41-.6.86.86,0,0,0-.44-.14,1.38,1.38,0,0,0-1,.43,2.59,2.59,0,0,0-.61,1q.09.65.11,1.4t0,1.61a.5.5,0,0,1-.2.46.7.7,0,0,1-.44.11.91.91,0,0,1-.44-.15A.39.39,0,0,1,142.75,21.9Z" fill="#fcf9d9"/>
            <path d="M150.85,22a.39.39,0,0,1-.2.33.91.91,0,0,1-.44.15.69.69,0,0,1-.44-.11.5.5,0,0,1-.2-.46l0-9.73a.66.66,0,0,1,.27-.5.67.67,0,0,1,.45-.11.72.72,0,0,1,.42.21.66.66,0,0,1,.21.46v1.16c0,.33,0,.68,0,1.06s0,.73,0,1.06,0,.61,0,.82,0,.33,0,.34a3,3,0,0,1,.79-.4,2.75,2.75,0,0,1,.89-.15,2.81,2.81,0,0,1,1.17.25,3.16,3.16,0,0,1,1,.67,3,3,0,0,1,.64,1,3.15,3.15,0,0,1,0,2.37,3.14,3.14,0,0,1-.64,1,3.07,3.07,0,0,1-1,.68,2.89,2.89,0,0,1-2.1.09,2.91,2.91,0,0,1-.82-.45Zm3.52-2.76a1.78,1.78,0,0,0-.51-1.25,1.94,1.94,0,0,0-.55-.39,1.6,1.6,0,0,0-1.34,0,1.93,1.93,0,0,0-.55.39,1.78,1.78,0,0,0-.52,1.25,1.75,1.75,0,0,0,.14.69,1.87,1.87,0,0,0,.93,1,1.6,1.6,0,0,0,1.34,0,1.87,1.87,0,0,0,.93-1A1.76,1.76,0,0,0,154.37,19.26Z" fill="#fcf9d9"/>
            <path d="M161.69,20.41a.56.56,0,0,1,.43-.19.86.86,0,0,1,.46.13.66.66,0,0,1,.28.34.46.46,0,0,1-.11.46,3.23,3.23,0,0,1-1.09.9,3.29,3.29,0,0,1-1.24.34,3.2,3.2,0,0,1-1.23-.15,3.06,3.06,0,0,1-1.07-.61,3,3,0,0,1-.76-1,3.2,3.2,0,0,1-.28-1.37,3.08,3.08,0,0,1,.88-2.15,3.15,3.15,0,0,1,1-.67,3,3,0,0,1,1.17-.27,3.07,3.07,0,0,1,1,.14,2.9,2.9,0,0,1,.88.45,2.52,2.52,0,0,1,.64.72,2.68,2.68,0,0,1,.34,1,1.15,1.15,0,0,1-.18.92,1.5,1.5,0,0,1-1.18.33l-3.25,0a1.9,1.9,0,0,0,.46.93,1.8,1.8,0,0,0,.82.54,1.75,1.75,0,0,0,1,0A2.18,2.18,0,0,0,161.69,20.41Zm-1.61-3a1.68,1.68,0,0,0-.89.28,1.86,1.86,0,0,0-.62.7l3.16,0a1.3,1.3,0,0,0-.26-.52,1.27,1.27,0,0,0-.4-.31,1.54,1.54,0,0,0-.48-.15A4,4,0,0,0,160.07,17.44Z" fill="#fcf9d9"/>
            <path d="M169,18.09a3.33,3.33,0,0,0-.58-.43,1.3,1.3,0,0,0-.68-.19,1.54,1.54,0,0,0-.67.15,1.87,1.87,0,0,0-.93,1,1.75,1.75,0,0,0-.14.69v2.44a.66.66,0,0,1-.21.46.72.72,0,0,1-.42.21.67.67,0,0,1-.45-.11.66.66,0,0,1-.27-.5l0-5.17a.5.5,0,0,1,.2-.46.69.69,0,0,1,.44-.11.91.91,0,0,1,.44.15.39.39,0,0,1,.2.33l0,.27a2.9,2.9,0,0,1,.82-.45,2.78,2.78,0,0,1,.94-.15,2.92,2.92,0,0,1,1.32.3,2.38,2.38,0,0,1,1,.87.51.51,0,0,1,.05.4.76.76,0,0,1-.21.38.62.62,0,0,1-.38.18A.63.63,0,0,1,169,18.09Z" fill="#fcf9d9"/>
          </g>
          <g>
            <path d="M38.75,19.54c-1.32.85-1.79,2.65-2.82,2.23-1.77-.73-4.45-4.69-4.38-6.61,0-1.11,1.69-1,3-1.81,1.79-1.18-1.34-4.85-2.41-5.17s-3.69,1.19-4,2.9c-.49,2.27,1,6.86,2.54,9.31s5.17,5.65,7.45,6.13c1.49.35,4.15-1.33,4.29-2.48S40.07,18.68,38.75,19.54Z" fill="#19487d" fill-rule="evenodd"/>
            <line x1="30.03" y1="8.86" x2="33.67" y2="13.83" fill="#19487d"/>
            <line x1="37.69" y1="20.46" x2="41.36" y2="25.41" fill="#19487d"/>
          </g>
          <g>
            <path d="M38.75,18.08c-1.32.85-1.79,2.65-2.82,2.23-1.77-.73-4.45-4.69-4.38-6.61,0-1.11,1.69-1,3-1.81,1.79-1.18-1.34-4.85-2.41-5.17s-3.69,1.19-4,2.9c-.49,2.27,1,6.86,2.54,9.31s5.17,5.65,7.45,6.13c1.49.35,4.15-1.33,4.29-2.48S40.07,17.22,38.75,18.08Z" fill="#fcf9d9" fill-rule="evenodd"/>
            <line x1="30.03" y1="7.41" x2="33.67" y2="12.37" fill="#fcf9d9"/>
            <line x1="37.69" y1="19.01" x2="41.36" y2="23.95" fill="#fcf9d9"/>
          </g>
        </g>
        <path d="M181.12,29.7H17.68A14.92,14.92,0,0,1,2.81,15.89c0,.37-.06.74-.06,1.11h0A14.93,14.93,0,0,0,17.68,31.93H181.12A14.93,14.93,0,0,0,196,17h0c0-.38,0-.74-.06-1.11A14.92,14.92,0,0,1,181.12,29.7Z" fill="#1d81c4"/>
        <path d="M381.45,34H215a16.15,16.15,0,0,1-16.15-15.89c0,.09,0,.18,0,.27v1.69A16.15,16.15,0,0,0,215,36.24H381.45a16.15,16.15,0,0,0,16.15-16.15V18.39c0-.09,0-.18,0-.27A16.15,16.15,0,0,1,381.45,34Z" fill="#888"/>
        <rect x="198.8" width="198.8" height="34" rx="16.15" ry="16.15" fill="#fff"/>
        <path d="M379.92,29.7H216.49a14.92,14.92,0,0,1-14.87-13.81c0,.37-.06.74-.06,1.11h0a14.93,14.93,0,0,0,14.93,14.93H379.92A14.93,14.93,0,0,0,394.85,17h0c0-.38,0-.74-.06-1.11A14.92,14.92,0,0,1,379.92,29.7Z" fill="#1d81c4"/>
        <rect x="201.56" y="2.08" width="193.29" height="29.32" rx="14.57" ry="14.57" fill="#42a4dc"/>
        <g>
          <g>
            <path d="M252.31,14.27a.78.78,0,0,1,.35-.38.65.65,0,0,1,.42-.06,1,1,0,0,1,.39.18.74.74,0,0,1,.25.31l3.3,9.53a.39.39,0,0,1-.07.38.84.84,0,0,1-.36.28.74.74,0,0,1-.46,0,.47.47,0,0,1-.33-.34l-1.25-3.55h-3.06l-1.24,3.5a.47.47,0,0,1-.33.34.72.72,0,0,1-.46,0,.83.83,0,0,1-.36-.28.39.39,0,0,1-.07-.38Zm-.36,5.08h2.13l-1.06-3Z" fill="#19487d"/>
            <path d="M263.11,23.9a2.91,2.91,0,0,1-.82.45,2.88,2.88,0,0,1-2.1-.09,3.06,3.06,0,0,1-1-.68,3.14,3.14,0,0,1-.64-1,3.14,3.14,0,0,1,0-2.37,3,3,0,0,1,.64-1,3.15,3.15,0,0,1,1-.67,2.81,2.81,0,0,1,1.17-.25,2.74,2.74,0,0,1,.89.15,3,3,0,0,1,.79.4s0-.13,0-.34,0-.49,0-.82,0-.69,0-1.06,0-.73,0-1.06V14.41a.66.66,0,0,1,.21-.46.72.72,0,0,1,.42-.21.67.67,0,0,1,.45.11.66.66,0,0,1,.27.5l0,9.73a.5.5,0,0,1-.2.46.69.69,0,0,1-.44.11.91.91,0,0,1-.44-.15.39.39,0,0,1-.2-.33Zm-3.5-2.49a1.75,1.75,0,0,0,.14.69,1.87,1.87,0,0,0,.93,1,1.6,1.6,0,0,0,1.34,0,1.87,1.87,0,0,0,.93-1,1.79,1.79,0,0,0,0-1.37,1.78,1.78,0,0,0-.38-.57,1.93,1.93,0,0,0-.55-.39,1.6,1.6,0,0,0-1.34,0,1.93,1.93,0,0,0-.55.39,1.78,1.78,0,0,0-.52,1.25Z" fill="#19487d"/>
            <path d="M270.87,23.9a2.91,2.91,0,0,1-.82.45,2.88,2.88,0,0,1-2.1-.09,3.06,3.06,0,0,1-1-.68,3.14,3.14,0,0,1-.64-1,3.14,3.14,0,0,1,0-2.37,3,3,0,0,1,.64-1,3.15,3.15,0,0,1,1-.67,2.81,2.81,0,0,1,1.17-.25,2.74,2.74,0,0,1,.89.15,3,3,0,0,1,.79.4s0-.13,0-.34,0-.49,0-.82,0-.69,0-1.06,0-.73,0-1.06V14.41A.66.66,0,0,1,271,14a.72.72,0,0,1,.42-.21.67.67,0,0,1,.45.11.66.66,0,0,1,.27.5l0,9.73a.5.5,0,0,1-.2.46.69.69,0,0,1-.44.11.91.91,0,0,1-.44-.15.39.39,0,0,1-.2-.33Zm-3.5-2.49a1.75,1.75,0,0,0,.14.69,1.87,1.87,0,0,0,.93,1,1.6,1.6,0,0,0,1.34,0,1.87,1.87,0,0,0,.93-1,1.79,1.79,0,0,0,0-1.37,1.78,1.78,0,0,0-.38-.57,1.93,1.93,0,0,0-.55-.39,1.6,1.6,0,0,0-1.34,0,1.93,1.93,0,0,0-.55.39,1.78,1.78,0,0,0-.52,1.25Z" fill="#19487d"/>
            <path d="M280.36,24.18a.6.6,0,0,1-.32.28,1,1,0,0,1-.43.08.85.85,0,0,1-.39-.1.29.29,0,0,1-.17-.27l0-9a1.49,1.49,0,0,1,.36-1,1.27,1.27,0,0,1,.94-.41h.7a7.29,7.29,0,0,1,1,.07,6.56,6.56,0,0,1,1,.23,3.18,3.18,0,0,1,1,.48,2.57,2.57,0,0,1,.71.82,2.68,2.68,0,0,1,.3,1.26,2.86,2.86,0,0,1-.41,1.63,3.37,3.37,0,0,1-1.12,1.08,4.69,4.69,0,0,1-1.53.58,6.59,6.59,0,0,1-1.67.11Zm3.49-7.61a1.13,1.13,0,0,0-.25-.68,2,2,0,0,0-.7-.57A3.41,3.41,0,0,0,281.8,15a4.58,4.58,0,0,0-1.41.05l0,3.71a3.83,3.83,0,0,0,1.06-.05,4.15,4.15,0,0,0,1.14-.37,2.72,2.72,0,0,0,.91-.71A1.62,1.62,0,0,0,283.85,16.57Z" fill="#19487d"/>
            <path d="M290.87,24.06a17.56,17.56,0,0,0-.07-2.35,5.73,5.73,0,0,0-.28-1.34,1.17,1.17,0,0,0-.41-.6.86.86,0,0,0-.44-.14,1.54,1.54,0,0,0-.67.15,1.87,1.87,0,0,0-.93,1,1.75,1.75,0,0,0-.14.69v2.44a.66.66,0,0,1-.21.46.72.72,0,0,1-.42.21.67.67,0,0,1-.45-.11.66.66,0,0,1-.27-.5l0-9.51a.5.5,0,0,1,.2-.46.7.7,0,0,1,.44-.11.91.91,0,0,1,.44.15.39.39,0,0,1,.2.33l0,4.62a2.9,2.9,0,0,1,.82-.45,2.78,2.78,0,0,1,.94-.15,2.09,2.09,0,0,1,1.39.42,2.54,2.54,0,0,1,.75,1.17,6.73,6.73,0,0,1,.3,1.79q.05,1,.05,2.26a.5.5,0,0,1-.2.46.7.7,0,0,1-.44.11.91.91,0,0,1-.44-.15A.39.39,0,0,1,290.87,24.06Z" fill="#19487d"/>
            <path d="M293.69,21.4a3.1,3.1,0,0,1,.23-1.18,3,3,0,0,1,.64-1,3.15,3.15,0,0,1,1-.67,2.86,2.86,0,0,1,2.33,0,3.16,3.16,0,0,1,1,.67,3,3,0,0,1,.64,1,3.16,3.16,0,0,1-.64,3.37,3.07,3.07,0,0,1-1,.68,2.86,2.86,0,0,1-2.33,0,3.06,3.06,0,0,1-1-.68,3.14,3.14,0,0,1-.64-1A3.1,3.1,0,0,1,293.69,21.4Zm1.25,0a1.75,1.75,0,0,0,.14.69,1.87,1.87,0,0,0,.93,1,1.6,1.6,0,0,0,1.34,0,1.87,1.87,0,0,0,.93-1,1.79,1.79,0,0,0,0-1.37,1.78,1.78,0,0,0-.38-.57,1.94,1.94,0,0,0-.55-.39,1.6,1.6,0,0,0-1.34,0,1.93,1.93,0,0,0-.55.39,1.78,1.78,0,0,0-.52,1.25Z" fill="#19487d"/>
            <path d="M305.65,24.06a17.56,17.56,0,0,0-.07-2.35,5.73,5.73,0,0,0-.28-1.34,1.17,1.17,0,0,0-.41-.6.86.86,0,0,0-.44-.14,1.54,1.54,0,0,0-.67.15,1.87,1.87,0,0,0-.93,1,1.75,1.75,0,0,0-.14.69v2.44a.66.66,0,0,1-.21.46.72.72,0,0,1-.42.21.67.67,0,0,1-.45-.11.66.66,0,0,1-.27-.5l0-5.17a.5.5,0,0,1,.2-.46.69.69,0,0,1,.44-.11.91.91,0,0,1,.44.15.39.39,0,0,1,.2.33l0,.27a2.9,2.9,0,0,1,.82-.45,2.78,2.78,0,0,1,.94-.15,2.09,2.09,0,0,1,1.39.42,2.54,2.54,0,0,1,.75,1.17,6.73,6.73,0,0,1,.3,1.79q.05,1,.05,2.26a.5.5,0,0,1-.2.46.7.7,0,0,1-.44.11.91.91,0,0,1-.44-.15A.39.39,0,0,1,305.65,24.06Z" fill="#19487d"/>
            <path d="M313.07,22.57a.56.56,0,0,1,.43-.19.86.86,0,0,1,.46.13.66.66,0,0,1,.28.34.46.46,0,0,1-.11.46,3.23,3.23,0,0,1-1.09.9,3.29,3.29,0,0,1-1.24.34,3.2,3.2,0,0,1-1.23-.15,3.06,3.06,0,0,1-1.07-.61,3,3,0,0,1-.76-1,3.2,3.2,0,0,1-.28-1.37,3.08,3.08,0,0,1,.88-2.15,3.15,3.15,0,0,1,1-.67,3,3,0,0,1,1.17-.27,3.07,3.07,0,0,1,1,.14,2.9,2.9,0,0,1,.88.45,2.52,2.52,0,0,1,.64.72,2.68,2.68,0,0,1,.34,1,1.15,1.15,0,0,1-.18.92,1.5,1.5,0,0,1-1.18.33l-3.25,0a1.9,1.9,0,0,0,.46.93,1.8,1.8,0,0,0,.82.54,1.75,1.75,0,0,0,1,0A2.18,2.18,0,0,0,313.07,22.57Zm-1.61-3a1.68,1.68,0,0,0-.89.28,1.86,1.86,0,0,0-.62.7l3.16,0a1.3,1.3,0,0,0-.26-.52,1.27,1.27,0,0,0-.4-.31,1.54,1.54,0,0,0-.48-.15A4,4,0,0,0,311.46,19.59Z" fill="#19487d"/>
            <path d="M322.58,16.69l0,7.31a.5.5,0,0,1-.2.45.69.69,0,0,1-.44.11.91.91,0,0,1-.44-.15.39.39,0,0,1-.2-.33l-.12-9.7a.54.54,0,0,1,.21-.39.85.85,0,0,1,.4-.15.83.83,0,0,1,.44.07.68.68,0,0,1,.32.27l4.4,7.5-.09-7.3a.56.56,0,0,1,.27-.43.83.83,0,0,1,.46-.1.75.75,0,0,1,.43.17.47.47,0,0,1,.19.38l0,9.63a.36.36,0,0,1-.16.32.84.84,0,0,1-.38.14,1,1,0,0,1-.42,0,.49.49,0,0,1-.29-.22Z" fill="#19487d"/>
            <path d="M331.41,18.7a16.12,16.12,0,0,0,0,2.46,4.78,4.78,0,0,0,.26,1.32A.94.94,0,0,0,332,23a1.13,1.13,0,0,0,.45.1,1.54,1.54,0,0,0,.67-.15,1.87,1.87,0,0,0,.93-1,1.75,1.75,0,0,0,.14-.69V18.89a.66.66,0,0,1,.21-.46.72.72,0,0,1,.42-.21.67.67,0,0,1,.45.11.66.66,0,0,1,.27.5l0,5.17a.5.5,0,0,1-.2.45.69.69,0,0,1-.44.11.91.91,0,0,1-.44-.15.39.39,0,0,1-.2-.33l0-.27a2.88,2.88,0,0,1-.82.45,2.78,2.78,0,0,1-.94.15,2.07,2.07,0,0,1-2.19-1.52,6.17,6.17,0,0,1-.28-1.78q0-1,0-2.33a.52.52,0,0,1,.23-.46.78.78,0,0,1,.46-.11,1,1,0,0,1,.46.15A.35.35,0,0,1,331.41,18.7Z" fill="#19487d"/>
            <path d="M341.55,24.06a17.56,17.56,0,0,0-.07-2.35,5.73,5.73,0,0,0-.28-1.34,1.17,1.17,0,0,0-.41-.6.86.86,0,0,0-.44-.14,1.54,1.54,0,0,0-.67.15,1.87,1.87,0,0,0-.93,1,1.75,1.75,0,0,0-.14.69v2.44a.66.66,0,0,1-.21.46.72.72,0,0,1-.42.21.67.67,0,0,1-.45-.11.66.66,0,0,1-.27-.5l0-5.17a.5.5,0,0,1,.2-.46.69.69,0,0,1,.44-.11.91.91,0,0,1,.44.15.39.39,0,0,1,.2.33l0,.27a2.9,2.9,0,0,1,.82-.45,2.78,2.78,0,0,1,.94-.15,2.24,2.24,0,0,1,1.19.28,2,2,0,0,1,.74.8,2.86,2.86,0,0,1,1-.85,2.36,2.36,0,0,1,1-.3,2.09,2.09,0,0,1,1.39.42,2.53,2.53,0,0,1,.75,1.17,6.74,6.74,0,0,1,.3,1.79q.05,1,.05,2.26a.5.5,0,0,1-.2.46.69.69,0,0,1-.44.11.91.91,0,0,1-.44-.15.39.39,0,0,1-.2-.33,17.66,17.66,0,0,0-.07-2.35,5.73,5.73,0,0,0-.28-1.34,1.16,1.16,0,0,0-.41-.6.86.86,0,0,0-.44-.14,1.38,1.38,0,0,0-1,.43,2.59,2.59,0,0,0-.61,1q.09.65.11,1.4t0,1.61a.5.5,0,0,1-.2.46.7.7,0,0,1-.44.11.91.91,0,0,1-.44-.15A.39.39,0,0,1,341.55,24.06Z" fill="#19487d"/>
            <path d="M349.66,24.18a.39.39,0,0,1-.2.33.91.91,0,0,1-.44.15.69.69,0,0,1-.44-.11.5.5,0,0,1-.2-.46l0-9.73a.66.66,0,0,1,.27-.5.67.67,0,0,1,.45-.11.72.72,0,0,1,.42.21.66.66,0,0,1,.21.46v1.16c0,.33,0,.68,0,1.06s0,.73,0,1.06,0,.61,0,.82,0,.33,0,.34a3,3,0,0,1,.79-.4,2.75,2.75,0,0,1,.89-.15,2.81,2.81,0,0,1,1.17.25,3.16,3.16,0,0,1,1,.67,3,3,0,0,1,.64,1,3.15,3.15,0,0,1,0,2.37,3.14,3.14,0,0,1-.64,1,3.07,3.07,0,0,1-1,.68,2.89,2.89,0,0,1-2.1.09,2.91,2.91,0,0,1-.82-.45Zm3.52-2.76a1.78,1.78,0,0,0-.51-1.25,1.94,1.94,0,0,0-.55-.39,1.6,1.6,0,0,0-1.34,0,1.93,1.93,0,0,0-.55.39,1.78,1.78,0,0,0-.52,1.25,1.75,1.75,0,0,0,.14.69,1.87,1.87,0,0,0,.93,1,1.6,1.6,0,0,0,1.34,0,1.87,1.87,0,0,0,.93-1A1.76,1.76,0,0,0,353.18,21.42Z" fill="#19487d"/>
            <path d="M360.49,22.57a.56.56,0,0,1,.43-.19.86.86,0,0,1,.46.13.66.66,0,0,1,.28.34.46.46,0,0,1-.11.46,3.23,3.23,0,0,1-1.09.9,3.29,3.29,0,0,1-1.24.34,3.2,3.2,0,0,1-1.23-.15,3.06,3.06,0,0,1-1.07-.61,3,3,0,0,1-.76-1,3.2,3.2,0,0,1-.28-1.37,3.08,3.08,0,0,1,.88-2.15,3.15,3.15,0,0,1,1-.67,3,3,0,0,1,1.17-.27,3.07,3.07,0,0,1,1,.14,2.9,2.9,0,0,1,.88.45,2.52,2.52,0,0,1,.64.72,2.68,2.68,0,0,1,.34,1,1.15,1.15,0,0,1-.18.92,1.5,1.5,0,0,1-1.18.33l-3.25,0a1.9,1.9,0,0,0,.46.93,1.8,1.8,0,0,0,.82.54,1.75,1.75,0,0,0,1,0A2.18,2.18,0,0,0,360.49,22.57Zm-1.61-3a1.68,1.68,0,0,0-.89.28,1.86,1.86,0,0,0-.62.7l3.16,0a1.3,1.3,0,0,0-.26-.52,1.27,1.27,0,0,0-.4-.31,1.54,1.54,0,0,0-.48-.15A4,4,0,0,0,358.88,19.59Z" fill="#19487d"/>
            <path d="M367.82,20.25a3.33,3.33,0,0,0-.58-.43,1.3,1.3,0,0,0-.68-.19,1.54,1.54,0,0,0-.67.15,1.87,1.87,0,0,0-.93,1,1.75,1.75,0,0,0-.14.69v2.44a.66.66,0,0,1-.21.46.72.72,0,0,1-.42.21.67.67,0,0,1-.45-.11.66.66,0,0,1-.27-.5l0-5.17a.5.5,0,0,1,.2-.46.69.69,0,0,1,.44-.11.91.91,0,0,1,.44.15.39.39,0,0,1,.2.33l0,.27a2.9,2.9,0,0,1,.82-.45,2.78,2.78,0,0,1,.94-.15,2.92,2.92,0,0,1,1.32.3,2.38,2.38,0,0,1,1,.87.51.51,0,0,1,.05.4.76.76,0,0,1-.21.38.62.62,0,0,1-.38.18A.63.63,0,0,1,367.82,20.25Z" fill="#19487d"/>
          </g>
          <g>
            <path d="M252.31,14.16a.78.78,0,0,1,.35-.38.65.65,0,0,1,.42-.06,1,1,0,0,1,.39.18.74.74,0,0,1,.25.31l3.3,9.53a.39.39,0,0,1-.07.38.84.84,0,0,1-.36.28.74.74,0,0,1-.46,0,.47.47,0,0,1-.33-.34l-1.25-3.55h-3.06L250.25,24a.47.47,0,0,1-.33.34.72.72,0,0,1-.46,0,.83.83,0,0,1-.36-.28.39.39,0,0,1-.07-.38Zm-.36,5.08h2.13l-1.06-3Z" fill="#fcf9d9"/>
            <path d="M263.11,23.79a2.91,2.91,0,0,1-.82.45,2.88,2.88,0,0,1-2.1-.09,3.06,3.06,0,0,1-1-.68,3.14,3.14,0,0,1-.64-1,3.14,3.14,0,0,1,0-2.37,3,3,0,0,1,.64-1,3.15,3.15,0,0,1,1-.67,2.81,2.81,0,0,1,1.17-.25,2.74,2.74,0,0,1,.89.15,3,3,0,0,1,.79.4s0-.13,0-.34,0-.49,0-.82,0-.69,0-1.06,0-.73,0-1.06V14.29a.66.66,0,0,1,.21-.46.72.72,0,0,1,.42-.21.67.67,0,0,1,.45.11.66.66,0,0,1,.27.5l0,9.73a.5.5,0,0,1-.2.46.69.69,0,0,1-.44.11.91.91,0,0,1-.44-.15.39.39,0,0,1-.2-.33Zm-3.5-2.49a1.75,1.75,0,0,0,.14.69,1.87,1.87,0,0,0,.93,1A1.6,1.6,0,0,0,262,23a1.87,1.87,0,0,0,.93-1,1.79,1.79,0,0,0,0-1.37,1.78,1.78,0,0,0-.38-.57,1.93,1.93,0,0,0-.55-.39,1.6,1.6,0,0,0-1.34,0,1.93,1.93,0,0,0-.55.39,1.78,1.78,0,0,0-.52,1.25Z" fill="#fcf9d9"/>
            <path d="M270.87,23.79a2.91,2.91,0,0,1-.82.45,2.88,2.88,0,0,1-2.1-.09,3.06,3.06,0,0,1-1-.68,3.14,3.14,0,0,1-.64-1,3.14,3.14,0,0,1,0-2.37,3,3,0,0,1,.64-1,3.15,3.15,0,0,1,1-.67,2.81,2.81,0,0,1,1.17-.25,2.74,2.74,0,0,1,.89.15,3,3,0,0,1,.79.4s0-.13,0-.34,0-.49,0-.82,0-.69,0-1.06,0-.73,0-1.06V14.29a.66.66,0,0,1,.21-.46.72.72,0,0,1,.42-.21.67.67,0,0,1,.45.11.66.66,0,0,1,.27.5l0,9.73a.5.5,0,0,1-.2.46.69.69,0,0,1-.44.11.91.91,0,0,1-.44-.15.39.39,0,0,1-.2-.33Zm-3.5-2.49a1.75,1.75,0,0,0,.14.69,1.87,1.87,0,0,0,.93,1,1.6,1.6,0,0,0,1.34,0,1.87,1.87,0,0,0,.93-1,1.79,1.79,0,0,0,0-1.37,1.78,1.78,0,0,0-.38-.57,1.93,1.93,0,0,0-.55-.39,1.6,1.6,0,0,0-1.34,0,1.93,1.93,0,0,0-.55.39,1.78,1.78,0,0,0-.52,1.25Z" fill="#fcf9d9"/>
            <path d="M280.36,24.06a.6.6,0,0,1-.32.28,1,1,0,0,1-.43.08.85.85,0,0,1-.39-.1.29.29,0,0,1-.17-.27l0-9a1.49,1.49,0,0,1,.36-1,1.27,1.27,0,0,1,.94-.41h.7a7.29,7.29,0,0,1,1,.07,6.56,6.56,0,0,1,1,.23,3.18,3.18,0,0,1,1,.48,2.57,2.57,0,0,1,.71.82,2.68,2.68,0,0,1,.3,1.26,2.86,2.86,0,0,1-.41,1.63,3.37,3.37,0,0,1-1.12,1.08,4.69,4.69,0,0,1-1.53.58,6.59,6.59,0,0,1-1.67.11Zm3.49-7.61a1.13,1.13,0,0,0-.25-.68,2,2,0,0,0-.7-.57,3.41,3.41,0,0,0-1.09-.32,4.58,4.58,0,0,0-1.41.05l0,3.71a3.83,3.83,0,0,0,1.06-.05,4.15,4.15,0,0,0,1.14-.37,2.72,2.72,0,0,0,.91-.71A1.62,1.62,0,0,0,283.85,16.46Z" fill="#fcf9d9"/>
            <path d="M290.87,23.94a17.56,17.56,0,0,0-.07-2.35,5.73,5.73,0,0,0-.28-1.34,1.17,1.17,0,0,0-.41-.6.86.86,0,0,0-.44-.14,1.54,1.54,0,0,0-.67.15,1.87,1.87,0,0,0-.93,1,1.75,1.75,0,0,0-.14.69v2.44a.66.66,0,0,1-.21.46.72.72,0,0,1-.42.21.67.67,0,0,1-.45-.11.66.66,0,0,1-.27-.5l0-9.51a.5.5,0,0,1,.2-.46.7.7,0,0,1,.44-.11.91.91,0,0,1,.44.15.39.39,0,0,1,.2.33l0,4.62a2.9,2.9,0,0,1,.82-.45,2.78,2.78,0,0,1,.94-.15,2.09,2.09,0,0,1,1.39.42,2.54,2.54,0,0,1,.75,1.17,6.73,6.73,0,0,1,.3,1.79q.05,1,.05,2.26a.5.5,0,0,1-.2.46.7.7,0,0,1-.44.11.91.91,0,0,1-.44-.15A.39.39,0,0,1,290.87,23.94Z" fill="#fcf9d9"/>
            <path d="M293.69,21.28a3.1,3.1,0,0,1,.23-1.18,3,3,0,0,1,.64-1,3.15,3.15,0,0,1,1-.67,2.86,2.86,0,0,1,2.33,0,3.16,3.16,0,0,1,1,.67,3,3,0,0,1,.64,1,3.16,3.16,0,0,1-.64,3.37,3.07,3.07,0,0,1-1,.68,2.86,2.86,0,0,1-2.33,0,3.06,3.06,0,0,1-1-.68,3.14,3.14,0,0,1-.64-1A3.1,3.1,0,0,1,293.69,21.28Zm1.25,0a1.75,1.75,0,0,0,.14.69,1.87,1.87,0,0,0,.93,1,1.6,1.6,0,0,0,1.34,0,1.87,1.87,0,0,0,.93-1,1.79,1.79,0,0,0,0-1.37,1.78,1.78,0,0,0-.38-.57,1.94,1.94,0,0,0-.55-.39,1.6,1.6,0,0,0-1.34,0,1.93,1.93,0,0,0-.55.39,1.78,1.78,0,0,0-.52,1.25Z" fill="#fcf9d9"/>
            <path d="M305.65,23.94a17.56,17.56,0,0,0-.07-2.35,5.73,5.73,0,0,0-.28-1.34,1.17,1.17,0,0,0-.41-.6.86.86,0,0,0-.44-.14,1.54,1.54,0,0,0-.67.15,1.87,1.87,0,0,0-.93,1,1.75,1.75,0,0,0-.14.69v2.44a.66.66,0,0,1-.21.46.72.72,0,0,1-.42.21.67.67,0,0,1-.45-.11.66.66,0,0,1-.27-.5l0-5.17a.5.5,0,0,1,.2-.46.69.69,0,0,1,.44-.11.91.91,0,0,1,.44.15.39.39,0,0,1,.2.33l0,.27a2.9,2.9,0,0,1,.82-.45,2.78,2.78,0,0,1,.94-.15,2.09,2.09,0,0,1,1.39.42,2.54,2.54,0,0,1,.75,1.17,6.73,6.73,0,0,1,.3,1.79q.05,1,.05,2.26a.5.5,0,0,1-.2.46.7.7,0,0,1-.44.11.91.91,0,0,1-.44-.15A.39.39,0,0,1,305.65,23.94Z" fill="#fcf9d9"/>
            <path d="M313.07,22.45a.56.56,0,0,1,.43-.19.86.86,0,0,1,.46.13.66.66,0,0,1,.28.34.46.46,0,0,1-.11.46,3.23,3.23,0,0,1-1.09.9,3.29,3.29,0,0,1-1.24.34,3.2,3.2,0,0,1-1.23-.15,3.06,3.06,0,0,1-1.07-.61,3,3,0,0,1-.76-1,3.2,3.2,0,0,1-.28-1.37,3.08,3.08,0,0,1,.88-2.15,3.15,3.15,0,0,1,1-.67,3,3,0,0,1,1.17-.27,3.07,3.07,0,0,1,1,.14,2.9,2.9,0,0,1,.88.45,2.52,2.52,0,0,1,.64.72,2.68,2.68,0,0,1,.34,1,1.15,1.15,0,0,1-.18.92,1.5,1.5,0,0,1-1.18.33l-3.25,0a1.9,1.9,0,0,0,.46.93,1.8,1.8,0,0,0,.82.54,1.75,1.75,0,0,0,1,0A2.18,2.18,0,0,0,313.07,22.45Zm-1.61-3a1.68,1.68,0,0,0-.89.28,1.86,1.86,0,0,0-.62.7l3.16,0a1.3,1.3,0,0,0-.26-.52,1.27,1.27,0,0,0-.4-.31,1.54,1.54,0,0,0-.48-.15A4,4,0,0,0,311.46,19.48Z" fill="#fcf9d9"/>
            <path d="M322.58,16.58l0,7.31a.5.5,0,0,1-.2.45.69.69,0,0,1-.44.11.91.91,0,0,1-.44-.15.39.39,0,0,1-.2-.33l-.12-9.7a.54.54,0,0,1,.21-.39.85.85,0,0,1,.4-.15.83.83,0,0,1,.44.07.68.68,0,0,1,.32.27l4.4,7.5-.09-7.3a.56.56,0,0,1,.27-.43.83.83,0,0,1,.46-.1.75.75,0,0,1,.43.17.47.47,0,0,1,.19.38l0,9.63a.36.36,0,0,1-.16.32.84.84,0,0,1-.38.14,1,1,0,0,1-.42,0,.49.49,0,0,1-.29-.22Z" fill="#fcf9d9"/>
            <path d="M331.41,18.59a16.12,16.12,0,0,0,0,2.46,4.78,4.78,0,0,0,.26,1.32.94.94,0,0,0,.42.54,1.13,1.13,0,0,0,.45.1,1.54,1.54,0,0,0,.67-.15,1.87,1.87,0,0,0,.93-1,1.75,1.75,0,0,0,.14-.69V18.77a.66.66,0,0,1,.21-.46.72.72,0,0,1,.42-.21.67.67,0,0,1,.45.11.66.66,0,0,1,.27.5l0,5.17a.5.5,0,0,1-.2.45.69.69,0,0,1-.44.11.91.91,0,0,1-.44-.15.39.39,0,0,1-.2-.33l0-.27a2.88,2.88,0,0,1-.82.45,2.78,2.78,0,0,1-.94.15,2.07,2.07,0,0,1-2.19-1.52A6.17,6.17,0,0,1,330,21q0-1,0-2.33a.52.52,0,0,1,.23-.46.78.78,0,0,1,.46-.11,1,1,0,0,1,.46.15A.35.35,0,0,1,331.41,18.59Z" fill="#fcf9d9"/>
            <path d="M341.55,23.94a17.56,17.56,0,0,0-.07-2.35,5.73,5.73,0,0,0-.28-1.34,1.17,1.17,0,0,0-.41-.6.86.86,0,0,0-.44-.14,1.54,1.54,0,0,0-.67.15,1.87,1.87,0,0,0-.93,1,1.75,1.75,0,0,0-.14.69v2.44a.66.66,0,0,1-.21.46.72.72,0,0,1-.42.21.67.67,0,0,1-.45-.11.66.66,0,0,1-.27-.5l0-5.17a.5.5,0,0,1,.2-.46.69.69,0,0,1,.44-.11.91.91,0,0,1,.44.15.39.39,0,0,1,.2.33l0,.27a2.9,2.9,0,0,1,.82-.45,2.78,2.78,0,0,1,.94-.15,2.24,2.24,0,0,1,1.19.28,2,2,0,0,1,.74.8,2.86,2.86,0,0,1,1-.85,2.36,2.36,0,0,1,1-.3,2.09,2.09,0,0,1,1.39.42,2.53,2.53,0,0,1,.75,1.17,6.74,6.74,0,0,1,.3,1.79q.05,1,.05,2.26a.5.5,0,0,1-.2.46.69.69,0,0,1-.44.11.91.91,0,0,1-.44-.15.39.39,0,0,1-.2-.33,17.66,17.66,0,0,0-.07-2.35,5.73,5.73,0,0,0-.28-1.34,1.16,1.16,0,0,0-.41-.6.86.86,0,0,0-.44-.14,1.38,1.38,0,0,0-1,.43,2.59,2.59,0,0,0-.61,1q.09.65.11,1.4t0,1.61a.5.5,0,0,1-.2.46.7.7,0,0,1-.44.11.91.91,0,0,1-.44-.15A.39.39,0,0,1,341.55,23.94Z" fill="#fcf9d9"/>
            <path d="M349.66,24.06a.39.39,0,0,1-.2.33.91.91,0,0,1-.44.15.69.69,0,0,1-.44-.11.5.5,0,0,1-.2-.46l0-9.73a.66.66,0,0,1,.27-.5.67.67,0,0,1,.45-.11.72.72,0,0,1,.42.21.66.66,0,0,1,.21.46v1.16c0,.33,0,.68,0,1.06s0,.73,0,1.06,0,.61,0,.82,0,.33,0,.34a3,3,0,0,1,.79-.4,2.75,2.75,0,0,1,.89-.15,2.81,2.81,0,0,1,1.17.25,3.16,3.16,0,0,1,1,.67,3,3,0,0,1,.64,1,3.15,3.15,0,0,1,0,2.37,3.14,3.14,0,0,1-.64,1,3.07,3.07,0,0,1-1,.68,2.89,2.89,0,0,1-2.1.09,2.91,2.91,0,0,1-.82-.45Zm3.52-2.76a1.78,1.78,0,0,0-.51-1.25,1.94,1.94,0,0,0-.55-.39,1.6,1.6,0,0,0-1.34,0,1.93,1.93,0,0,0-.55.39,1.78,1.78,0,0,0-.52,1.25,1.75,1.75,0,0,0,.14.69,1.87,1.87,0,0,0,.93,1,1.6,1.6,0,0,0,1.34,0,1.87,1.87,0,0,0,.93-1A1.76,1.76,0,0,0,353.18,21.3Z" fill="#fcf9d9"/>
            <path d="M360.49,22.45a.56.56,0,0,1,.43-.19.86.86,0,0,1,.46.13.66.66,0,0,1,.28.34.46.46,0,0,1-.11.46,3.23,3.23,0,0,1-1.09.9,3.29,3.29,0,0,1-1.24.34,3.2,3.2,0,0,1-1.23-.15,3.06,3.06,0,0,1-1.07-.61,3,3,0,0,1-.76-1,3.2,3.2,0,0,1-.28-1.37,3.08,3.08,0,0,1,.88-2.15,3.15,3.15,0,0,1,1-.67,3,3,0,0,1,1.17-.27,3.07,3.07,0,0,1,1,.14,2.9,2.9,0,0,1,.88.45,2.52,2.52,0,0,1,.64.72,2.68,2.68,0,0,1,.34,1,1.15,1.15,0,0,1-.18.92,1.5,1.5,0,0,1-1.18.33l-3.25,0a1.9,1.9,0,0,0,.46.93,1.8,1.8,0,0,0,.82.54,1.75,1.75,0,0,0,1,0A2.18,2.18,0,0,0,360.49,22.45Zm-1.61-3a1.68,1.68,0,0,0-.89.28,1.86,1.86,0,0,0-.62.7l3.16,0a1.3,1.3,0,0,0-.26-.52,1.27,1.27,0,0,0-.4-.31,1.54,1.54,0,0,0-.48-.15A4,4,0,0,0,358.88,19.48Z" fill="#fcf9d9"/>
            <path d="M367.82,20.13a3.33,3.33,0,0,0-.58-.43,1.3,1.3,0,0,0-.68-.19,1.54,1.54,0,0,0-.67.15,1.87,1.87,0,0,0-.93,1,1.75,1.75,0,0,0-.14.69v2.44a.66.66,0,0,1-.21.46.72.72,0,0,1-.42.21.67.67,0,0,1-.45-.11.66.66,0,0,1-.27-.5l0-5.17a.5.5,0,0,1,.2-.46.69.69,0,0,1,.44-.11.91.91,0,0,1,.44.15.39.39,0,0,1,.2.33l0,.27a2.9,2.9,0,0,1,.82-.45,2.78,2.78,0,0,1,.94-.15,2.92,2.92,0,0,1,1.32.3,2.38,2.38,0,0,1,1,.87.51.51,0,0,1,.05.4.76.76,0,0,1-.21.38.62.62,0,0,1-.38.18A.63.63,0,0,1,367.82,20.13Z" fill="#fcf9d9"/>
          </g>
          <g>
            <path d="M237.55,21c-1.32.85-1.79,2.65-2.82,2.23-1.77-.73-4.45-4.69-4.38-6.61,0-1.11,1.69-1,3-1.81C235.15,13.65,232,10,231,9.66s-3.69,1.19-4,2.9c-.49,2.27,1,6.86,2.54,9.31s5.17,5.65,7.45,6.13c1.49.35,4.15-1.33,4.29-2.48S238.87,20.17,237.55,21Z" fill="#19487d" fill-rule="evenodd"/>
            <line x1="228.84" y1="10.35" x2="232.48" y2="15.31" fill="#19487d"/>
            <line x1="236.49" y1="21.95" x2="240.16" y2="26.89" fill="#19487d"/>
          </g>
          <g>
            <path d="M237.55,21c-1.32.85-1.79,2.65-2.82,2.23-1.77-.73-4.45-4.69-4.38-6.61,0-1.11,1.69-1,3-1.81C235.15,13.65,232,10,231,9.66s-3.69,1.19-4,2.9c-.49,2.27,1,6.86,2.54,9.31s5.17,5.65,7.45,6.13c1.49.35,4.15-1.33,4.29-2.48S238.87,20.17,237.55,21Z" fill="#fcf9d9" fill-rule="evenodd"/>
            <line x1="228.84" y1="10.35" x2="232.48" y2="15.31" fill="#fcf9d9"/>
            <line x1="236.49" y1="21.95" x2="240.16" y2="26.89" fill="#fcf9d9"/>
          </g>
        </g>
      </g>
    </g>
  </g>
</svg>
