<svg xmlns="http://www.w3.org/2000/svg" width="176.02" height="90.42" viewBox="0 0 176.02 90.42"><defs><style>.cls-1{fill:#5e5f5f;}.cls-2{fill:#f7f8fa;}.cls-3{fill:#18477c;}.cls-4{fill:#3166b1;}.cls-5{fill:#898989;}.cls-6{fill:#40a5dd;}.cls-7{fill:#9dd5ef;}.cls-8{fill:#fff;stroke:#3166b1;stroke-miterlimit:10;stroke-width:1px;}.cls-9{fill:#263b97;}</style></defs><title>video_button</title><g id="Layer_2" data-name="Layer 2"><g id="Layer_1-2" data-name="Layer 1"><path class="cls-1" d="M132,84.28C108.82,84.28,89.85,67,88.2,45.21c-.08,1-.16,2-.16,3.07,0,23.27,19.7,42.14,44,42.14s44-18.87,44-42.14c0-1-.09-2.05-.16-3.07C174.21,67,155.25,84.28,132,84.28Z"/><ellipse class="cls-2" cx="132" cy="42.14" rx="43.99" ry="42.14"/><circle class="cls-3" cx="132.15" cy="39.24" r="38.74"/><circle class="cls-4" cx="132.15" cy="38.35" r="37.47"/><path class="cls-5" d="M175.67,45.51C173.06,66.39,154.52,82.59,132,82.59c-22.31,0-40.69-15.89-43.58-36.48l0-.08-.18-.21C90,67.53,108.85,84.64,132,84.64c23.38,0,42.45-17.45,43.9-39.47A2.84,2.84,0,0,1,175.67,45.51Z"/><ellipse class="cls-6" cx="131.96" cy="38.13" rx="37.65" ry="35.07"/><path class="cls-7" d="M132,5.38c20.38,0,36.93,15.15,37.59,34,0-.39.06-.77.06-1.16,0-19.44-16.86-35.21-37.65-35.21S94.31,18.82,94.31,38.27c0,.39,0,.77.06,1.16C95,20.52,111.59,5.38,132,5.38Z"/><path class="cls-3" d="M154.49,29.84c0-.3-.39-.5-.74-.38-4.53,1.55-9.22,3.15-13.66,4.56-2.61-.08-3,9.68-.56,9.78l14.13,4.63c.35.11.73-.08.73-.37Z"/><path class="cls-3" d="M136.3,49.9l-23.63-.41c-1.8,0-3.25-1.23-3.24-2.69l.1-16.37c0-1.45,1.47-2.63,3.28-2.63l23.63,0c1.88,0,3.41,1.2,3.4,2.69l-.1,16.8C139.72,48.75,138.19,49.93,136.3,49.9Z"/><path class="cls-8" d="M154,28.38c0-.3-.38-.5-.72-.38-4.44,1.57-9,3.18-13.37,4.61-2.56-.07-3,9.69-.55,9.79L153.22,47c.34.11.71-.08.71-.38Z"/><path class="cls-8" d="M135.38,48.49l-21.46-.3c-2.21,0-4-1.53-4-3.35l.09-15c0-1.82,1.81-3.31,4-3.32l21.46-.11c2.31,0,4.18,1.49,4.16,3.36l-.09,15.43C139.58,47,137.69,48.52,135.38,48.49Z"/><path class="cls-9" d="M132,70.89c-20.38,0-36.93-15.15-37.59-34,0,.39-.06.77-.06,1.16,0,19.44,16.86,35.21,37.65,35.21S169.62,57.44,169.62,38c0-.39,0-.77-.06-1.16C168.9,55.74,152.34,70.89,132,70.89Z"/><path class="cls-1" d="M44,84.28C20.81,84.28,1.84,67,.19,45.21c-.08,1-.16,2-.16,3.07,0,23.27,19.7,42.14,44,42.14S88,71.55,88,48.28c0-1-.09-2.05-.16-3.07C86.2,67,67.23,84.28,44,84.28Z"/><ellipse class="cls-2" cx="43.99" cy="42.14" rx="43.99" ry="42.14"/><circle class="cls-3" cx="44.14" cy="39.24" r="38.74"/><circle class="cls-4" cx="44.14" cy="38.35" r="37.47"/><ellipse class="cls-6" cx="43.99" cy="34.06" rx="33.28" ry="31"/><path class="cls-7" d="M44,5.11c18,0,32.65,13.39,33.23,30.1,0-.34.06-.68.06-1C77.28,17,62.38,3.06,44,3.06S10.71,17,10.71,34.18c0,.35,0,.68.06,1C11.34,18.49,26,5.11,44,5.11Z"/><path class="cls-3" d="M67.79,27.22c0-.3-.39-.5-.74-.38C62.52,28.39,57.83,30,53.39,31.4c-2.61-.08-3,9.68-.56,9.78L67,45.82c.35.11.73-.08.73-.37Z"/><path class="cls-3" d="M49.6,47.27,26,46.86c-1.8,0-3.25-1.23-3.24-2.69l.1-16.37c0-1.45,1.47-2.63,3.28-2.63l23.63,0c1.88,0,3.41,1.2,3.4,2.69L53,44.63C53,46.13,51.48,47.31,49.6,47.27Z"/><path class="cls-8" d="M67.33,21.74c0-.3-.38-.5-.72-.38-4.44,1.57-9,3.18-13.37,4.61-2.56-.07-3,9.69-.55,9.79l13.83,4.57c.34.11.71-.08.71-.38Z"/><path class="cls-8" d="M48.68,41.85l-21.46-.3c-2.21,0-4-1.53-4-3.35l.09-15c0-1.82,1.81-3.31,4-3.32l21.46-.11c2.31,0,4.18,1.49,4.16,3.36l-.09,15.43C52.88,40.39,51,41.88,48.68,41.85Z"/><path class="cls-5" d="M87.66,45.51C85,66.39,66.51,82.59,44,82.59,21.67,82.59,3.29,66.71.4,46.12l0-.08L.2,45.82C2,67.53,20.84,84.64,44,84.64c23.38,0,42.45-17.45,43.9-39.47A2.84,2.84,0,0,1,87.66,45.51Z"/><path class="cls-9" d="M44,63c-18,0-32.65-13.39-33.23-30.1,0,.34-.06.68-.06,1,0,17.19,14.9,31.12,33.28,31.12S77.28,51.13,77.28,33.94c0-.35,0-.68-.06-1C76.64,49.63,62,63,44,63Z"/></g></g></svg>