<svg xmlns="http://www.w3.org/2000/svg" width="175" height="56" viewBox="0 0 175 56"><defs><style>.cls-1,.cls-10{fill:#fff;}.cls-2{fill:#575757;}.cls-3,.cls-8{fill:#858585;}.cls-4{fill:#b0b0b0;}.cls-5{fill:#c7c7c7;}.cls-5,.cls-6,.cls-7,.cls-8{fill-rule:evenodd;}.cls-6,.cls-9{fill:#929292;}.cls-7{fill:#313131;}.cls-10,.cls-9{font-size:20px;font-family:KGPrimaryPenmanship2, KG Primary Penmanship 2;}.cls-10{stroke:#c7c7c7;stroke-miterlimit:10;stroke-width:0.25px;}</style></defs><title>submit_grey</title><g id="Layer_2" data-name="Layer 2"><g id="Layer_1-2" data-name="Layer 1"><rect class="cls-1" width="175" height="49.53" rx="24.69" ry="24.69"/><rect class="cls-2" x="2.68" y="1.44" width="169.1" height="45.52" rx="22.69" ry="22.69"/><rect class="cls-3" x="2.19" y="1.1" width="169.53" height="44.03" rx="21.94" ry="21.94"/><rect class="cls-4" x="3.54" y="0.68" width="167.45" height="39.46" rx="19.67" ry="19.67"/><path class="cls-5" d="M151.35.68H23.1A19.72,19.72,0,0,0,3.5,20.41h0c0,.38,0,.76,0,1.14A19.72,19.72,0,0,1,23.1,3H151.35a19.72,19.72,0,0,1,19.57,18.59c0-.38,0-.76,0-1.14h0A19.72,19.72,0,0,0,151.35.68Z"/><path class="cls-6" d="M151.35,37.85H23.1A19.72,19.72,0,0,1,3.54,19.27c0,.38,0,.76,0,1.14h0A19.72,19.72,0,0,0,23.1,40.13H151.35A19.72,19.72,0,0,0,171,20.41h0c0-.38,0-.76,0-1.14A19.72,19.72,0,0,1,151.35,37.85Z"/><path class="cls-7" d="M150.39,51.05H24.61A24.67,24.67,0,0,1,.12,28.76C0,29.57,0,30.4,0,31.23H0A24.69,24.69,0,0,0,24.61,56H150.39A24.69,24.69,0,0,0,175,31.23h0c0-.83,0-1.66-.12-2.47A24.67,24.67,0,0,1,150.39,51.05Z"/><path class="cls-8" d="M150.39,49.53H24.61A24.68,24.68,0,0,1,0,25.91c0,.38,0,.76,0,1.14H0A24.69,24.69,0,0,0,24.61,51.82H150.39A24.69,24.69,0,0,0,175,27h0c0-.38,0-.76,0-1.14A24.68,24.68,0,0,1,150.39,49.53Z"/><text class="cls-9" transform="translate(62.27 27.34)">Submit</text><text class="cls-10" transform="translate(62.27 24.34)">Submit</text></g></g></svg>