<svg xmlns="http://www.w3.org/2000/svg" width="176" height="90" viewBox="0 0 176 90"><defs><style>.cls-1{fill:#f7f8fa;}.cls-2,.cls-6{fill:#a51e2d;}.cls-3{fill:#ce2d41;}.cls-4{fill:#cc202e;}.cls-5{fill:#e76477;}.cls-6,.cls-7{fill-rule:evenodd;}.cls-7{fill:#fff;stroke:#ce4d5c;stroke-miterlimit:10;stroke-width:1.19px;}</style></defs><title>quit_no</title><g id="Layer_2" data-name="Layer 2"><g id="Layer_1-2" data-name="Layer 1"><ellipse class="cls-1" cx="44" cy="45" rx="44" ry="45"/><ellipse class="cls-2" cx="44.15" cy="41.9" rx="38.74" ry="41.37"/><ellipse class="cls-3" cx="44.15" cy="40.96" rx="37.47" ry="40.01"/><ellipse class="cls-4" cx="44" cy="36.37" rx="33.29" ry="33.1"/><path class="cls-5" d="M44,5.45A33.24,33.24,0,0,1,77.24,37.59c0-.37.06-.72.06-1.09a33.29,33.29,0,0,0-66.58,0c0,.37,0,.73.06,1.09A33.24,33.24,0,0,1,44,5.45Z"/><path class="cls-2" d="M44,67.29A33.24,33.24,0,0,1,10.76,35.15c0,.37-.06.72-.06,1.09a33.29,33.29,0,0,0,66.58,0c0-.37,0-.73-.06-1.09A33.24,33.24,0,0,1,44,67.29Z"/><path class="cls-6" d="M31.58,30.39c-1.81-1.93-2.15-4.71-.73-6.22s4-1.13,5.83.78,3.42,3.64,5.12,5.47c2.69,2.89,1.8,2.79,4.54-.14l5-5.32c1.79-1.91,4.42-2.28,5.83-.78s1.08,4.29-.73,6.22L51.55,35.6c-2.91,3.1-2.92,2.1,0,5.19L56.42,46c1.81,1.93,2.15,4.71.73,6.22s-4,1.13-5.83-.78l-5-5.36c-2.71-2.9-1.85-3-4.52-.1l-5.11,5.46c-1.79,1.91-4.42,2.28-5.83.78S29.77,48,31.58,46l4.81-5.14c3-3.24,3-2.2-.11-5.48Z"/><path class="cls-7" d="M31.58,26.71c-1.81-1.93-2.15-4.71-.73-6.22s4-1.13,5.83.78,3.42,3.64,5.12,5.47c2.69,2.89,1.8,2.79,4.54-.14l5-5.32c1.79-1.91,4.42-2.28,5.83-.78s1.08,4.29-.73,6.22l-4.88,5.21c-2.91,3.1-2.92,2.1,0,5.19l4.91,5.24c1.81,1.93,2.15,4.71.73,6.22s-4,1.13-5.83-.78l-5-5.36c-2.71-2.9-1.85-3-4.52-.1L36.67,47.8c-1.79,1.91-4.42,2.28-5.83.78s-1.08-4.29.73-6.22l4.81-5.14c3-3.24,3-2.2-.11-5.48Z"/><ellipse class="cls-1" cx="132" cy="45" rx="44" ry="45"/><ellipse class="cls-2" cx="132.15" cy="41.9" rx="38.74" ry="41.37"/><ellipse class="cls-3" cx="132.15" cy="40.96" rx="37.47" ry="40.01"/><ellipse class="cls-4" cx="132" cy="40" rx="36.58" ry="37.48"/><path class="cls-5" d="M132,5c19.8,0,35.88,16.19,36.52,36.39,0-.41.06-.82.06-1.24,0-20.78-16.38-37.63-36.58-37.63S95.42,19.36,95.42,40.14c0,.42,0,.82.06,1.24C96.12,21.18,112.2,5,132,5Z"/><path class="cls-2" d="M132,75c-19.8,0-35.88-16.19-36.52-36.39,0,.41-.06.82-.06,1.24,0,20.78,16.38,37.63,36.58,37.63s36.58-16.85,36.58-37.63c0-.42,0-.82-.06-1.24C167.88,58.82,151.8,75,132,75Z"/><path class="cls-6" d="M119.58,35.39c-1.81-1.93-2.15-4.71-.73-6.22s4-1.13,5.83.78,3.42,3.64,5.12,5.47c2.69,2.89,1.8,2.79,4.54-.14l5-5.32c1.79-1.91,4.42-2.28,5.83-.78s1.08,4.29-.73,6.22l-4.88,5.21c-2.91,3.1-2.92,2.1,0,5.19L144.42,51c1.81,1.93,2.15,4.71.73,6.22s-4,1.13-5.83-.78l-5-5.36c-2.71-2.9-1.85-3-4.52-.1l-5.11,5.46c-1.79,1.91-4.42,2.28-5.83.78s-1.08-4.29.73-6.22l4.81-5.14c3-3.24,3-2.2-.11-5.48Z"/><path class="cls-7" d="M119.58,33.71c-1.81-1.93-2.15-4.71-.73-6.22s4-1.13,5.83.78,3.42,3.64,5.12,5.47c2.69,2.89,1.8,2.79,4.54-.14l5-5.32c1.79-1.91,4.42-2.28,5.83-.78s1.08,4.29-.73,6.22l-4.88,5.21c-2.91,3.1-2.92,2.1,0,5.19l4.91,5.24c1.81,1.93,2.15,4.71.73,6.22s-4,1.13-5.83-.78l-5-5.36c-2.71-2.9-1.85-3-4.52-.1l-5.11,5.46c-1.79,1.91-4.42,2.28-5.83.78s-1.08-4.29.73-6.22l4.81-5.14c3-3.24,3-2.2-.11-5.48Z"/></g></g></svg>