<svg xmlns="http://www.w3.org/2000/svg" width="535.53" height="48.81" viewBox="0 0 535.53 48.81">
  <title>add phone number</title>
  <g id="Layer_2" data-name="Layer 2">
    <g id="Layer_1-2" data-name="Layer 1">
      <path d="M246,45.81H21.76A21.75,21.75,0,0,1,0,24.41c0,.12,0,.24,0,.36V27A21.76,21.76,0,0,0,21.76,48.81H246A21.76,21.76,0,0,0,267.76,27V24.77c0-.12,0-.24,0-.36A21.75,21.75,0,0,1,246,45.81Z" fill="#888"/>
      <rect width="267.76" height="45.79" rx="21.76" ry="21.76" fill="#fff"/>
      <rect x="3.72" y="2.79" width="260.33" height="40.21" rx="20.1" ry="20.1" fill="#42a4dc"/>
      <g>
        <g>
          <path d="M72.06,17.22a1.06,1.06,0,0,1,.47-.51.88.88,0,0,1,.57-.08,1.29,1.29,0,0,1,.52.24,1,1,0,0,1,.34.42L78.4,30.13a.52.52,0,0,1-.09.51,1.15,1.15,0,0,1-.49.38,1,1,0,0,1-.61.06.64.64,0,0,1-.45-.46l-1.69-4.79H71l-1.67,4.72a.63.63,0,0,1-.45.46,1,1,0,0,1-.61-.06,1.14,1.14,0,0,1-.49-.38.52.52,0,0,1-.09-.51Zm-.49,6.84h2.87L73,20Z" fill="#19487d"/>
          <path d="M86.61,30.2a3.92,3.92,0,0,1-1.1.6,3.89,3.89,0,0,1-2.83-.13,4.15,4.15,0,0,1-1.29-.91,4.23,4.23,0,0,1-.87-1.34,4.24,4.24,0,0,1,0-3.19,4.09,4.09,0,0,1,.87-1.33,4.25,4.25,0,0,1,1.29-.9,3.78,3.78,0,0,1,1.57-.33,3.72,3.72,0,0,1,1.2.2,4.07,4.07,0,0,1,1.06.54s0-.17,0-.46,0-.66,0-1.11,0-.92,0-1.43,0-1,0-1.42V17.41a.89.89,0,0,1,.28-.61,1,1,0,0,1,.57-.28.85.85,0,0,1,1,.82l0,13.11a.68.68,0,0,1-.27.61.94.94,0,0,1-.59.15,1.22,1.22,0,0,1-.59-.2.52.52,0,0,1-.27-.45Zm-4.72-3.35a2.34,2.34,0,0,0,.19.92,2.52,2.52,0,0,0,1.25,1.31,2.17,2.17,0,0,0,1.8,0,2.52,2.52,0,0,0,1.25-1.31,2.4,2.4,0,0,0-.51-2.61,2.61,2.61,0,0,0-.74-.52,2.16,2.16,0,0,0-1.8,0,2.61,2.61,0,0,0-.74.52,2.4,2.4,0,0,0-.69,1.69Z" fill="#19487d"/>
          <path d="M97.06,30.2a3.92,3.92,0,0,1-1.1.6,3.89,3.89,0,0,1-2.83-.13,4.15,4.15,0,0,1-1.29-.91A4.23,4.23,0,0,1,91,28.41a4.24,4.24,0,0,1,0-3.19,4.09,4.09,0,0,1,.87-1.33,4.25,4.25,0,0,1,1.29-.9,3.78,3.78,0,0,1,1.57-.33,3.72,3.72,0,0,1,1.2.2A4.07,4.07,0,0,1,97,23.4s0-.17,0-.46,0-.66,0-1.11,0-.92,0-1.43,0-1,0-1.42V17.41a.89.89,0,0,1,.28-.61,1,1,0,0,1,.57-.28.85.85,0,0,1,1,.82l0,13.11a.68.68,0,0,1-.27.61.94.94,0,0,1-.59.15,1.22,1.22,0,0,1-.59-.2.52.52,0,0,1-.27-.45Zm-4.72-3.35a2.34,2.34,0,0,0,.19.92,2.52,2.52,0,0,0,1.25,1.31,2.17,2.17,0,0,0,1.8,0,2.52,2.52,0,0,0,1.25-1.31,2.4,2.4,0,0,0-.51-2.61,2.61,2.61,0,0,0-.74-.52,2.16,2.16,0,0,0-1.8,0,2.61,2.61,0,0,0-.74.52,2.4,2.4,0,0,0-.69,1.69Z" fill="#19487d"/>
          <path d="M109.85,30.57a.82.82,0,0,1-.43.37,1.39,1.39,0,0,1-.58.1,1.16,1.16,0,0,1-.52-.14.39.39,0,0,1-.23-.36l0-12.07a2,2,0,0,1,.49-1.41,1.72,1.72,0,0,1,1.27-.55h.95a9.85,9.85,0,0,1,1.29.09,8.76,8.76,0,0,1,1.41.31,4.29,4.29,0,0,1,1.29.65,3.49,3.49,0,0,1,1,1.11,3.63,3.63,0,0,1,.4,1.7,3.86,3.86,0,0,1-.55,2.2,4.53,4.53,0,0,1-1.5,1.46,6.3,6.3,0,0,1-2.06.77,8.77,8.77,0,0,1-2.24.15Zm4.69-10.25a1.53,1.53,0,0,0-.33-.91,2.66,2.66,0,0,0-.95-.76,4.59,4.59,0,0,0-1.47-.43,6.16,6.16,0,0,0-1.9.07l0,5a5.15,5.15,0,0,0,1.43-.07,5.6,5.6,0,0,0,1.54-.5,3.67,3.67,0,0,0,1.23-1A2.18,2.18,0,0,0,114.54,20.32Z" fill="#19487d"/>
          <path d="M124,30.4a23.79,23.79,0,0,0-.09-3.17,7.7,7.7,0,0,0-.38-1.8,1.57,1.57,0,0,0-.55-.81,1.17,1.17,0,0,0-.59-.19,2.09,2.09,0,0,0-.9.2,2.51,2.51,0,0,0-1.25,1.31,2.35,2.35,0,0,0-.19.93v3.28a.9.9,0,0,1-.28.61,1,1,0,0,1-.57.28.91.91,0,0,1-.6-.15.89.89,0,0,1-.36-.67l0-12.81a.67.67,0,0,1,.27-.61.92.92,0,0,1,.59-.15,1.23,1.23,0,0,1,.59.2.52.52,0,0,1,.27.45l0,6.22a3.92,3.92,0,0,1,1.1-.6,3.76,3.76,0,0,1,1.26-.21,2.82,2.82,0,0,1,1.87.57,3.41,3.41,0,0,1,1,1.57,9.09,9.09,0,0,1,.41,2.4q.07,1.4.07,3a.68.68,0,0,1-.27.61.94.94,0,0,1-.59.15,1.22,1.22,0,0,1-.59-.2A.52.52,0,0,1,124,30.4Z" fill="#19487d"/>
          <path d="M127.79,26.82a4.18,4.18,0,0,1,.31-1.6,4.09,4.09,0,0,1,.87-1.33,4.25,4.25,0,0,1,1.29-.9,3.86,3.86,0,0,1,3.15,0,4.25,4.25,0,0,1,1.29.9,4.09,4.09,0,0,1,.87,1.33,4.24,4.24,0,0,1,0,3.19,4.23,4.23,0,0,1-.87,1.34,4.15,4.15,0,0,1-1.29.91,3.86,3.86,0,0,1-3.15,0,4.15,4.15,0,0,1-1.29-.91,4.23,4.23,0,0,1-.87-1.34A4.17,4.17,0,0,1,127.79,26.82Zm1.69,0a2.36,2.36,0,0,0,.18.92,2.51,2.51,0,0,0,1.25,1.31,2.17,2.17,0,0,0,1.8,0A2.51,2.51,0,0,0,134,27.77a2.41,2.41,0,0,0,0-1.85,2.39,2.39,0,0,0-.51-.76,2.62,2.62,0,0,0-.74-.52,2.16,2.16,0,0,0-1.8,0,2.62,2.62,0,0,0-.74.52,2.39,2.39,0,0,0-.51.76A2.36,2.36,0,0,0,129.48,26.84Z" fill="#19487d"/>
          <path d="M143.91,30.4a23.79,23.79,0,0,0-.09-3.17,7.7,7.7,0,0,0-.38-1.8,1.57,1.57,0,0,0-.55-.81,1.17,1.17,0,0,0-.59-.19,2.09,2.09,0,0,0-.9.2,2.51,2.51,0,0,0-1.25,1.31,2.35,2.35,0,0,0-.19.93v3.28a.9.9,0,0,1-.28.61,1,1,0,0,1-.57.28.91.91,0,0,1-.6-.15.89.89,0,0,1-.36-.67l0-7a.67.67,0,0,1,.27-.61.94.94,0,0,1,.59-.15,1.23,1.23,0,0,1,.59.2.52.52,0,0,1,.27.45l0,.37a3.92,3.92,0,0,1,1.1-.6,3.76,3.76,0,0,1,1.26-.21,2.82,2.82,0,0,1,1.87.57,3.41,3.41,0,0,1,1,1.57,9.09,9.09,0,0,1,.41,2.4q.07,1.4.07,3a.68.68,0,0,1-.27.61.94.94,0,0,1-.59.15,1.22,1.22,0,0,1-.59-.2A.52.52,0,0,1,143.91,30.4Z" fill="#19487d"/>
          <path d="M153.9,28.39a.75.75,0,0,1,.58-.25,1.15,1.15,0,0,1,.62.17.89.89,0,0,1,.38.46.63.63,0,0,1-.15.61,4.34,4.34,0,0,1-1.47,1.21,4.44,4.44,0,0,1-1.67.46,4.32,4.32,0,0,1-1.65-.21A4.14,4.14,0,0,1,149.1,30a4.1,4.1,0,0,1-1-1.38,4.32,4.32,0,0,1-.38-1.84,4.15,4.15,0,0,1,1.18-2.9,4.27,4.27,0,0,1,1.29-.9,4,4,0,0,1,1.57-.36,4.09,4.09,0,0,1,1.38.18,3.88,3.88,0,0,1,1.18.6,3.4,3.4,0,0,1,.87,1,3.62,3.62,0,0,1,.46,1.29,1.56,1.56,0,0,1-.24,1.24,2,2,0,0,1-1.58.45l-4.37,0a2.58,2.58,0,0,0,.61,1.25,2.42,2.42,0,0,0,1.11.73,2.34,2.34,0,0,0,1.36,0A2.94,2.94,0,0,0,153.9,28.39Zm-2.17-4a2.25,2.25,0,0,0-1.2.38,2.5,2.5,0,0,0-.83.94l4.25,0a1.73,1.73,0,0,0-.35-.71,1.71,1.71,0,0,0-.53-.42,2,2,0,0,0-.65-.2A5.35,5.35,0,0,0,151.73,24.39Z" fill="#19487d"/>
          <path d="M166.71,20.48l0,9.85a.68.68,0,0,1-.27.61.93.93,0,0,1-.59.15,1.23,1.23,0,0,1-.59-.2.52.52,0,0,1-.27-.45l-.16-13.07a.73.73,0,0,1,.29-.52,1.15,1.15,0,0,1,.54-.21,1.12,1.12,0,0,1,.59.09.9.9,0,0,1,.43.36l5.92,10.11-.12-9.83a.75.75,0,0,1,.37-.58,1.12,1.12,0,0,1,.63-.14,1,1,0,0,1,.58.23.64.64,0,0,1,.25.51l0,13a.49.49,0,0,1-.22.43,1.12,1.12,0,0,1-.51.19,1.3,1.3,0,0,1-.57-.06.66.66,0,0,1-.39-.3Z" fill="#19487d"/>
          <path d="M178.6,23.19a21.59,21.59,0,0,0-.06,3.32,6.42,6.42,0,0,0,.35,1.78,1.26,1.26,0,0,0,.57.73,1.53,1.53,0,0,0,.6.14,2.09,2.09,0,0,0,.9-.2,2.53,2.53,0,0,0,1.25-1.31,2.37,2.37,0,0,0,.19-.92V23.44a.89.89,0,0,1,.28-.61,1,1,0,0,1,.57-.28.91.91,0,0,1,.6.15.9.9,0,0,1,.36.67l0,7a.68.68,0,0,1-.27.61.93.93,0,0,1-.59.15,1.23,1.23,0,0,1-.59-.2.52.52,0,0,1-.27-.45l0-.37a3.9,3.9,0,0,1-1.1.6,3.76,3.76,0,0,1-1.26.21,2.8,2.8,0,0,1-2.95-2,8.29,8.29,0,0,1-.38-2.39q0-1.41,0-3.14a.7.7,0,0,1,.31-.61,1.05,1.05,0,0,1,.62-.15,1.31,1.31,0,0,1,.61.2A.47.47,0,0,1,178.6,23.19Z" fill="#19487d"/>
          <path d="M192.27,30.4a23.79,23.79,0,0,0-.09-3.17,7.7,7.7,0,0,0-.38-1.8,1.57,1.57,0,0,0-.55-.81,1.17,1.17,0,0,0-.59-.19,2.09,2.09,0,0,0-.9.2,2.51,2.51,0,0,0-1.25,1.31,2.35,2.35,0,0,0-.19.93v3.28a.9.9,0,0,1-.28.61,1,1,0,0,1-.57.28.91.91,0,0,1-.6-.15.89.89,0,0,1-.36-.67l0-7a.67.67,0,0,1,.27-.61.94.94,0,0,1,.59-.15,1.23,1.23,0,0,1,.59.2.52.52,0,0,1,.27.45l0,.37a3.92,3.92,0,0,1,1.1-.6,3.76,3.76,0,0,1,1.26-.21,3,3,0,0,1,1.6.38,2.73,2.73,0,0,1,1,1.08A3.85,3.85,0,0,1,194.57,23a3.18,3.18,0,0,1,1.4-.4,2.82,2.82,0,0,1,1.87.57,3.41,3.41,0,0,1,1,1.57,9.06,9.06,0,0,1,.41,2.41q.07,1.4.07,3a.68.68,0,0,1-.27.61.93.93,0,0,1-.59.15,1.23,1.23,0,0,1-.59-.2.52.52,0,0,1-.27-.45,23.77,23.77,0,0,0-.09-3.17,7.71,7.71,0,0,0-.38-1.8,1.58,1.58,0,0,0-.55-.81,1.17,1.17,0,0,0-.59-.18,1.85,1.85,0,0,0-1.38.58,3.48,3.48,0,0,0-.82,1.32q.12.88.15,1.88t0,2.16a.68.68,0,0,1-.27.61.94.94,0,0,1-.59.15,1.22,1.22,0,0,1-.59-.2A.52.52,0,0,1,192.27,30.4Z" fill="#19487d"/>
          <path d="M203.18,30.57a.52.52,0,0,1-.27.45,1.22,1.22,0,0,1-.59.2.94.94,0,0,1-.59-.15.68.68,0,0,1-.27-.61l0-13.11a.85.85,0,0,1,1-.82,1,1,0,0,1,.57.28.9.9,0,0,1,.28.61V19q0,.66,0,1.42t0,1.43q0,.67,0,1.11c0,.29,0,.45,0,.46a4.07,4.07,0,0,1,1.06-.54,3.71,3.71,0,0,1,1.2-.2,3.78,3.78,0,0,1,1.57.33,4.26,4.26,0,0,1,1.3.9,4.12,4.12,0,0,1,.87,1.33,4.24,4.24,0,0,1,0,3.19,4.26,4.26,0,0,1-.87,1.34,4.16,4.16,0,0,1-1.3.91,3.88,3.88,0,0,1-2.83.13,3.92,3.92,0,0,1-1.1-.6Zm4.74-3.72a2.4,2.4,0,0,0-.69-1.69,2.61,2.61,0,0,0-.74-.52,2.16,2.16,0,0,0-1.8,0,2.6,2.6,0,0,0-.74.52,2.4,2.4,0,0,0-.51,2.61,2.52,2.52,0,0,0,1.25,1.31,2.17,2.17,0,0,0,1.8,0,2.51,2.51,0,0,0,1.25-1.31A2.36,2.36,0,0,0,207.92,26.84Z" fill="#19487d"/>
          <path d="M217.77,28.39a.75.75,0,0,1,.58-.25,1.15,1.15,0,0,1,.62.17.89.89,0,0,1,.38.46.63.63,0,0,1-.15.61,4.34,4.34,0,0,1-1.47,1.21,4.44,4.44,0,0,1-1.67.46,4.32,4.32,0,0,1-1.65-.21A4.14,4.14,0,0,1,213,30a4.1,4.1,0,0,1-1-1.38,4.32,4.32,0,0,1-.38-1.84,4.15,4.15,0,0,1,1.18-2.9,4.27,4.27,0,0,1,1.29-.9,4,4,0,0,1,1.57-.36,4.09,4.09,0,0,1,1.38.18,3.88,3.88,0,0,1,1.18.6,3.4,3.4,0,0,1,.87,1,3.62,3.62,0,0,1,.46,1.29,1.56,1.56,0,0,1-.24,1.24,2,2,0,0,1-1.58.45l-4.37,0a2.58,2.58,0,0,0,.61,1.25,2.42,2.42,0,0,0,1.11.73,2.34,2.34,0,0,0,1.36,0A2.94,2.94,0,0,0,217.77,28.39Zm-2.17-4a2.25,2.25,0,0,0-1.2.38,2.5,2.5,0,0,0-.83.94l4.25,0a1.73,1.73,0,0,0-.35-.71,1.71,1.71,0,0,0-.53-.42,2,2,0,0,0-.65-.2A5.35,5.35,0,0,0,215.6,24.39Z" fill="#19487d"/>
          <path d="M227.65,25.27a4.49,4.49,0,0,0-.77-.58,1.76,1.76,0,0,0-.91-.25,2.09,2.09,0,0,0-.9.2,2.51,2.51,0,0,0-1.25,1.31,2.35,2.35,0,0,0-.19.93v3.28a.9.9,0,0,1-.28.61,1,1,0,0,1-.57.28.91.91,0,0,1-.6-.15.89.89,0,0,1-.36-.67l0-7a.67.67,0,0,1,.27-.61.94.94,0,0,1,.59-.15,1.23,1.23,0,0,1,.59.2.52.52,0,0,1,.27.45l0,.37a3.92,3.92,0,0,1,1.1-.6,3.76,3.76,0,0,1,1.26-.21,3.93,3.93,0,0,1,1.78.41A3.22,3.22,0,0,1,229,24.27a.7.7,0,0,1,.07.53,1,1,0,0,1-.28.51.83.83,0,0,1-.51.24A.84.84,0,0,1,227.65,25.27Z" fill="#19487d"/>
        </g>
        <g>
          <path d="M72.06,16.32a1.06,1.06,0,0,1,.47-.51.88.88,0,0,1,.57-.08,1.29,1.29,0,0,1,.52.24,1,1,0,0,1,.34.42L78.4,29.22a.52.52,0,0,1-.09.51,1.15,1.15,0,0,1-.49.38,1,1,0,0,1-.61.06.64.64,0,0,1-.45-.46l-1.69-4.79H71l-1.67,4.72a.63.63,0,0,1-.45.46,1,1,0,0,1-.61-.06,1.14,1.14,0,0,1-.49-.38.52.52,0,0,1-.09-.51Zm-.49,6.84h2.87l-1.43-4Z" fill="#fcf9d9"/>
          <path d="M86.61,29.29a3.92,3.92,0,0,1-1.1.6,3.89,3.89,0,0,1-2.83-.13,4.15,4.15,0,0,1-1.29-.91,4.23,4.23,0,0,1-.87-1.34,4.24,4.24,0,0,1,0-3.19A4.09,4.09,0,0,1,81.38,23a4.25,4.25,0,0,1,1.29-.9,3.78,3.78,0,0,1,1.57-.33,3.72,3.72,0,0,1,1.2.2,4.07,4.07,0,0,1,1.06.54s0-.17,0-.46,0-.66,0-1.11,0-.92,0-1.43,0-1,0-1.42V16.5a.89.89,0,0,1,.28-.61,1,1,0,0,1,.57-.28.85.85,0,0,1,1,.82l0,13.11a.68.68,0,0,1-.27.61.94.94,0,0,1-.59.15,1.22,1.22,0,0,1-.59-.2.52.52,0,0,1-.27-.45Zm-4.72-3.35a2.34,2.34,0,0,0,.19.92,2.52,2.52,0,0,0,1.25,1.31,2.17,2.17,0,0,0,1.8,0,2.52,2.52,0,0,0,1.25-1.31,2.4,2.4,0,0,0-.51-2.61,2.61,2.61,0,0,0-.74-.52,2.16,2.16,0,0,0-1.8,0,2.61,2.61,0,0,0-.74.52,2.4,2.4,0,0,0-.69,1.69Z" fill="#fcf9d9"/>
          <path d="M97.06,29.29a3.92,3.92,0,0,1-1.1.6,3.89,3.89,0,0,1-2.83-.13,4.15,4.15,0,0,1-1.29-.91A4.23,4.23,0,0,1,91,27.51a4.24,4.24,0,0,1,0-3.19A4.09,4.09,0,0,1,91.83,23a4.25,4.25,0,0,1,1.29-.9,3.78,3.78,0,0,1,1.57-.33,3.72,3.72,0,0,1,1.2.2,4.07,4.07,0,0,1,1.06.54s0-.17,0-.46,0-.66,0-1.11,0-.92,0-1.43,0-1,0-1.42V16.5a.89.89,0,0,1,.28-.61,1,1,0,0,1,.57-.28.85.85,0,0,1,1,.82l0,13.11a.68.68,0,0,1-.27.61.94.94,0,0,1-.59.15,1.22,1.22,0,0,1-.59-.2.52.52,0,0,1-.27-.45Zm-4.72-3.35a2.34,2.34,0,0,0,.19.92,2.52,2.52,0,0,0,1.25,1.31,2.17,2.17,0,0,0,1.8,0,2.52,2.52,0,0,0,1.25-1.31,2.4,2.4,0,0,0-.51-2.61,2.61,2.61,0,0,0-.74-.52,2.16,2.16,0,0,0-1.8,0,2.61,2.61,0,0,0-.74.52,2.4,2.4,0,0,0-.69,1.69Z" fill="#fcf9d9"/>
          <path d="M109.85,29.66a.82.82,0,0,1-.43.37,1.39,1.39,0,0,1-.58.1,1.16,1.16,0,0,1-.52-.14.39.39,0,0,1-.23-.36l0-12.07a2,2,0,0,1,.49-1.41,1.72,1.72,0,0,1,1.27-.55h.95a9.85,9.85,0,0,1,1.29.09,8.76,8.76,0,0,1,1.41.31,4.29,4.29,0,0,1,1.29.65,3.49,3.49,0,0,1,1,1.11,3.63,3.63,0,0,1,.4,1.7,3.86,3.86,0,0,1-.55,2.2,4.53,4.53,0,0,1-1.5,1.46,6.3,6.3,0,0,1-2.06.77,8.77,8.77,0,0,1-2.24.15Zm4.69-10.25a1.53,1.53,0,0,0-.33-.91,2.66,2.66,0,0,0-.95-.76,4.59,4.59,0,0,0-1.47-.43,6.16,6.16,0,0,0-1.9.07l0,5a5.15,5.15,0,0,0,1.43-.07,5.6,5.6,0,0,0,1.54-.5,3.67,3.67,0,0,0,1.23-1A2.18,2.18,0,0,0,114.54,19.41Z" fill="#fcf9d9"/>
          <path d="M124,29.5a23.79,23.79,0,0,0-.09-3.17,7.7,7.7,0,0,0-.38-1.8,1.57,1.57,0,0,0-.55-.81,1.17,1.17,0,0,0-.59-.19,2.09,2.09,0,0,0-.9.2A2.51,2.51,0,0,0,120.23,25,2.35,2.35,0,0,0,120,26v3.28a.9.9,0,0,1-.28.61,1,1,0,0,1-.57.28.91.91,0,0,1-.6-.15.89.89,0,0,1-.36-.67l0-12.81a.67.67,0,0,1,.27-.61.92.92,0,0,1,.59-.15,1.23,1.23,0,0,1,.59.2.52.52,0,0,1,.27.45l0,6.22a3.92,3.92,0,0,1,1.1-.6,3.76,3.76,0,0,1,1.26-.21,2.82,2.82,0,0,1,1.87.57,3.41,3.41,0,0,1,1,1.57,9.09,9.09,0,0,1,.41,2.4q.07,1.4.07,3a.68.68,0,0,1-.27.61.94.94,0,0,1-.59.15,1.22,1.22,0,0,1-.59-.2A.52.52,0,0,1,124,29.5Z" fill="#fcf9d9"/>
          <path d="M127.79,25.91a4.18,4.18,0,0,1,.31-1.6A4.09,4.09,0,0,1,129,23a4.25,4.25,0,0,1,1.29-.9,3.86,3.86,0,0,1,3.15,0,4.25,4.25,0,0,1,1.29.9,4.09,4.09,0,0,1,.87,1.33,4.24,4.24,0,0,1,0,3.19,4.23,4.23,0,0,1-.87,1.34,4.15,4.15,0,0,1-1.29.91,3.86,3.86,0,0,1-3.15,0,4.15,4.15,0,0,1-1.29-.91,4.23,4.23,0,0,1-.87-1.34A4.17,4.17,0,0,1,127.79,25.91Zm1.69,0a2.36,2.36,0,0,0,.18.92,2.51,2.51,0,0,0,1.25,1.31,2.17,2.17,0,0,0,1.8,0A2.51,2.51,0,0,0,134,26.86,2.41,2.41,0,0,0,134,25a2.39,2.39,0,0,0-.51-.76,2.62,2.62,0,0,0-.74-.52,2.16,2.16,0,0,0-1.8,0,2.62,2.62,0,0,0-.74.52,2.39,2.39,0,0,0-.51.76A2.36,2.36,0,0,0,129.48,25.94Z" fill="#fcf9d9"/>
          <path d="M143.91,29.5a23.79,23.79,0,0,0-.09-3.17,7.7,7.7,0,0,0-.38-1.8,1.57,1.57,0,0,0-.55-.81,1.17,1.17,0,0,0-.59-.19,2.09,2.09,0,0,0-.9.2A2.51,2.51,0,0,0,140.14,25,2.35,2.35,0,0,0,140,26v3.28a.9.9,0,0,1-.28.61,1,1,0,0,1-.57.28.91.91,0,0,1-.6-.15.89.89,0,0,1-.36-.67l0-7a.67.67,0,0,1,.27-.61.94.94,0,0,1,.59-.15,1.23,1.23,0,0,1,.59.2.52.52,0,0,1,.27.45l0,.37A3.92,3.92,0,0,1,141,22a3.76,3.76,0,0,1,1.26-.21,2.82,2.82,0,0,1,1.87.57,3.41,3.41,0,0,1,1,1.57,9.09,9.09,0,0,1,.41,2.4q.07,1.4.07,3a.68.68,0,0,1-.27.61.94.94,0,0,1-.59.15,1.22,1.22,0,0,1-.59-.2A.52.52,0,0,1,143.91,29.5Z" fill="#fcf9d9"/>
          <path d="M153.9,27.49a.75.75,0,0,1,.58-.25,1.15,1.15,0,0,1,.62.17.89.89,0,0,1,.38.46.63.63,0,0,1-.15.61,4.34,4.34,0,0,1-1.47,1.21,4.44,4.44,0,0,1-1.67.46,4.32,4.32,0,0,1-1.65-.21,4.14,4.14,0,0,1-1.45-.82,4.1,4.1,0,0,1-1-1.38,4.32,4.32,0,0,1-.38-1.84,4.15,4.15,0,0,1,1.18-2.9,4.27,4.27,0,0,1,1.29-.9,4,4,0,0,1,1.57-.36,4.09,4.09,0,0,1,1.38.18,3.88,3.88,0,0,1,1.18.6,3.4,3.4,0,0,1,.87,1,3.62,3.62,0,0,1,.46,1.29,1.56,1.56,0,0,1-.24,1.24,2,2,0,0,1-1.58.45l-4.37,0a2.58,2.58,0,0,0,.61,1.25,2.42,2.42,0,0,0,1.11.73,2.34,2.34,0,0,0,1.36,0A2.94,2.94,0,0,0,153.9,27.49Zm-2.17-4a2.25,2.25,0,0,0-1.2.38,2.5,2.5,0,0,0-.83.94l4.25,0a1.73,1.73,0,0,0-.35-.71,1.71,1.71,0,0,0-.53-.42,2,2,0,0,0-.65-.2A5.35,5.35,0,0,0,151.73,23.48Z" fill="#fcf9d9"/>
          <path d="M166.71,19.58l0,9.85a.68.68,0,0,1-.27.61.93.93,0,0,1-.59.15,1.23,1.23,0,0,1-.59-.2.52.52,0,0,1-.27-.45l-.16-13.07a.73.73,0,0,1,.29-.52,1.15,1.15,0,0,1,.54-.21,1.12,1.12,0,0,1,.59.09.9.9,0,0,1,.43.36l5.92,10.11-.12-9.83a.75.75,0,0,1,.37-.58,1.12,1.12,0,0,1,.63-.14,1,1,0,0,1,.58.23.64.64,0,0,1,.25.51l0,13a.49.49,0,0,1-.22.43,1.12,1.12,0,0,1-.51.19,1.3,1.3,0,0,1-.57-.06.66.66,0,0,1-.39-.3Z" fill="#fcf9d9"/>
          <path d="M178.6,22.28a21.59,21.59,0,0,0-.06,3.32,6.42,6.42,0,0,0,.35,1.78,1.26,1.26,0,0,0,.57.73,1.53,1.53,0,0,0,.6.14,2.09,2.09,0,0,0,.9-.2,2.53,2.53,0,0,0,1.25-1.31,2.37,2.37,0,0,0,.19-.92V22.54a.89.89,0,0,1,.28-.61,1,1,0,0,1,.57-.28.91.91,0,0,1,.6.15.9.9,0,0,1,.36.67l0,7a.68.68,0,0,1-.27.61.93.93,0,0,1-.59.15,1.23,1.23,0,0,1-.59-.2.52.52,0,0,1-.27-.45l0-.37a3.9,3.9,0,0,1-1.1.6,3.76,3.76,0,0,1-1.26.21,2.8,2.8,0,0,1-2.95-2,8.29,8.29,0,0,1-.38-2.39q0-1.41,0-3.14a.7.7,0,0,1,.31-.61,1.05,1.05,0,0,1,.62-.15,1.31,1.31,0,0,1,.61.2A.47.47,0,0,1,178.6,22.28Z" fill="#fcf9d9"/>
          <path d="M192.27,29.5a23.79,23.79,0,0,0-.09-3.17,7.7,7.7,0,0,0-.38-1.8,1.57,1.57,0,0,0-.55-.81,1.17,1.17,0,0,0-.59-.19,2.09,2.09,0,0,0-.9.2A2.51,2.51,0,0,0,188.5,25a2.35,2.35,0,0,0-.19.93v3.28a.9.9,0,0,1-.28.61,1,1,0,0,1-.57.28.91.91,0,0,1-.6-.15.89.89,0,0,1-.36-.67l0-7a.67.67,0,0,1,.27-.61.94.94,0,0,1,.59-.15,1.23,1.23,0,0,1,.59.2.52.52,0,0,1,.27.45l0,.37a3.92,3.92,0,0,1,1.1-.6,3.76,3.76,0,0,1,1.26-.21,3,3,0,0,1,1.6.38,2.73,2.73,0,0,1,1,1.08,3.85,3.85,0,0,1,1.35-1.14,3.18,3.18,0,0,1,1.4-.4,2.82,2.82,0,0,1,1.87.57,3.41,3.41,0,0,1,1,1.57,9.06,9.06,0,0,1,.41,2.41q.07,1.4.07,3a.68.68,0,0,1-.27.61.93.93,0,0,1-.59.15,1.23,1.23,0,0,1-.59-.2.52.52,0,0,1-.27-.45,23.77,23.77,0,0,0-.09-3.17,7.71,7.71,0,0,0-.38-1.8,1.58,1.58,0,0,0-.55-.81,1.17,1.17,0,0,0-.59-.18,1.85,1.85,0,0,0-1.38.58,3.48,3.48,0,0,0-.82,1.32q.12.88.15,1.88t0,2.16a.68.68,0,0,1-.27.61.94.94,0,0,1-.59.15,1.22,1.22,0,0,1-.59-.2A.52.52,0,0,1,192.27,29.5Z" fill="#fcf9d9"/>
          <path d="M203.18,29.66a.52.52,0,0,1-.27.45,1.22,1.22,0,0,1-.59.2.94.94,0,0,1-.59-.15.68.68,0,0,1-.27-.61l0-13.11a.85.85,0,0,1,1-.82,1,1,0,0,1,.57.28.9.9,0,0,1,.28.61v1.56q0,.66,0,1.42t0,1.43q0,.67,0,1.11c0,.29,0,.45,0,.46a4.07,4.07,0,0,1,1.06-.54,3.71,3.71,0,0,1,1.2-.2,3.78,3.78,0,0,1,1.57.33,4.26,4.26,0,0,1,1.3.9,4.12,4.12,0,0,1,.87,1.33,4.24,4.24,0,0,1,0,3.19,4.26,4.26,0,0,1-.87,1.34,4.16,4.16,0,0,1-1.3.91,3.88,3.88,0,0,1-2.83.13,3.92,3.92,0,0,1-1.1-.6Zm4.74-3.72a2.4,2.4,0,0,0-.69-1.69,2.61,2.61,0,0,0-.74-.52,2.16,2.16,0,0,0-1.8,0,2.6,2.6,0,0,0-.74.52,2.4,2.4,0,0,0-.51,2.61,2.52,2.52,0,0,0,1.25,1.31,2.17,2.17,0,0,0,1.8,0,2.51,2.51,0,0,0,1.25-1.31A2.36,2.36,0,0,0,207.92,25.94Z" fill="#fcf9d9"/>
          <path d="M217.77,27.49a.75.75,0,0,1,.58-.25,1.15,1.15,0,0,1,.62.17.89.89,0,0,1,.38.46.63.63,0,0,1-.15.61,4.34,4.34,0,0,1-1.47,1.21,4.44,4.44,0,0,1-1.67.46,4.32,4.32,0,0,1-1.65-.21,4.14,4.14,0,0,1-1.45-.82,4.1,4.1,0,0,1-1-1.38,4.32,4.32,0,0,1-.38-1.84,4.15,4.15,0,0,1,1.18-2.9,4.27,4.27,0,0,1,1.29-.9,4,4,0,0,1,1.57-.36,4.09,4.09,0,0,1,1.38.18,3.88,3.88,0,0,1,1.18.6,3.4,3.4,0,0,1,.87,1,3.62,3.62,0,0,1,.46,1.29,1.56,1.56,0,0,1-.24,1.24,2,2,0,0,1-1.58.45l-4.37,0a2.58,2.58,0,0,0,.61,1.25,2.42,2.42,0,0,0,1.11.73,2.34,2.34,0,0,0,1.36,0A2.94,2.94,0,0,0,217.77,27.49Zm-2.17-4a2.25,2.25,0,0,0-1.2.38,2.5,2.5,0,0,0-.83.94l4.25,0a1.73,1.73,0,0,0-.35-.71,1.71,1.71,0,0,0-.53-.42,2,2,0,0,0-.65-.2A5.35,5.35,0,0,0,215.6,23.48Z" fill="#fcf9d9"/>
          <path d="M227.65,24.36a4.49,4.49,0,0,0-.77-.58,1.76,1.76,0,0,0-.91-.25,2.09,2.09,0,0,0-.9.2A2.51,2.51,0,0,0,223.81,25a2.35,2.35,0,0,0-.19.93v3.28a.9.9,0,0,1-.28.61,1,1,0,0,1-.57.28.91.91,0,0,1-.6-.15.89.89,0,0,1-.36-.67l0-7a.67.67,0,0,1,.27-.61.94.94,0,0,1,.59-.15,1.23,1.23,0,0,1,.59.2.52.52,0,0,1,.27.45l0,.37a3.92,3.92,0,0,1,1.1-.6,3.76,3.76,0,0,1,1.26-.21,3.93,3.93,0,0,1,1.78.41A3.22,3.22,0,0,1,229,23.37a.7.7,0,0,1,.07.53,1,1,0,0,1-.28.51.83.83,0,0,1-.51.24A.84.84,0,0,1,227.65,24.36Z" fill="#fcf9d9"/>
        </g>
        <g>
          <path d="M52.19,26.31c-1.78,1.15-2.41,3.57-3.8,3-2.39-1-6-6.32-5.9-8.9,0-1.5,2.27-1.28,4.05-2.44,2.42-1.59-1.81-6.53-3.24-7s-5,1.6-5.41,3.9c-.66,3.06,1.29,9.24,3.42,12.53s7,7.6,10,8.26c2,.47,5.58-1.8,5.78-3.34S54,25.16,52.19,26.31Z" fill="#19487d" fill-rule="evenodd"/>
          <line x1="40.45" y1="11.94" x2="45.35" y2="18.62" fill="#19487d"/>
          <line x1="50.76" y1="27.56" x2="55.7" y2="34.22" fill="#19487d"/>
        </g>
        <g>
          <path d="M52.19,24.35c-1.78,1.15-2.41,3.57-3.8,3-2.39-1-6-6.32-5.9-8.9,0-1.5,2.27-1.28,4.05-2.44C49,14.42,44.73,9.49,43.3,9s-5,1.6-5.41,3.9c-.66,3.06,1.29,9.24,3.42,12.53s7,7.6,10,8.26c2,.47,5.58-1.8,5.78-3.34S54,23.2,52.19,24.35Z" fill="#fcf9d9" fill-rule="evenodd"/>
          <line x1="40.45" y1="9.98" x2="45.35" y2="16.66" fill="#fcf9d9"/>
          <line x1="50.76" y1="25.6" x2="55.7" y2="32.26" fill="#fcf9d9"/>
        </g>
      </g>
      <path d="M243.95,40H23.82a20.09,20.09,0,0,1-20-18.6c0,.5-.08,1-.08,1.5h0A20.1,20.1,0,0,0,23.82,43H243.95A20.1,20.1,0,0,0,264,22.9h0c0-.51,0-1-.08-1.5A20.09,20.09,0,0,1,243.95,40Z" fill="#1d81c4"/>
      <path d="M513.77,45.81H289.52a21.75,21.75,0,0,1-21.75-21.4c0,.12,0,.24,0,.36V27a21.76,21.76,0,0,0,21.76,21.76H513.77A21.76,21.76,0,0,0,535.53,27V24.77c0-.12,0-.24,0-.36A21.75,21.75,0,0,1,513.77,45.81Z" fill="#888"/>
      <rect x="267.76" width="267.76" height="45.79" rx="21.76" ry="21.76" fill="#fff"/>
      <path d="M511.71,40H291.58a20.09,20.09,0,0,1-20-18.6c0,.5-.08,1-.08,1.5h0A20.1,20.1,0,0,0,291.58,43H511.71a20.1,20.1,0,0,0,20.1-20.1h0c0-.51,0-1-.08-1.5A20.09,20.09,0,0,1,511.71,40Z" fill="#1d81c4"/>
      <rect x="271.48" y="2.79" width="260.33" height="39.49" rx="19.62" ry="19.62" fill="#42a4dc"/>
      <g>
        <g>
          <path d="M339.82,19.22a1.06,1.06,0,0,1,.47-.51.88.88,0,0,1,.57-.08,1.29,1.29,0,0,1,.52.24,1,1,0,0,1,.34.42l4.44,12.83a.52.52,0,0,1-.09.51,1.15,1.15,0,0,1-.49.38,1,1,0,0,1-.61.06.64.64,0,0,1-.45-.46l-1.69-4.79h-4.12L337,32.54a.63.63,0,0,1-.45.46,1,1,0,0,1-.61-.06,1.14,1.14,0,0,1-.49-.38.52.52,0,0,1-.09-.51Zm-.49,6.84h2.87l-1.43-4Z" fill="#19487d"/>
          <path d="M354.37,32.2a3.92,3.92,0,0,1-1.1.6,3.89,3.89,0,0,1-2.83-.13,4.15,4.15,0,0,1-1.29-.91,4.23,4.23,0,0,1-.87-1.34,4.24,4.24,0,0,1,0-3.19,4.09,4.09,0,0,1,.87-1.33,4.25,4.25,0,0,1,1.29-.9,3.78,3.78,0,0,1,1.57-.33,3.72,3.72,0,0,1,1.2.2,4.07,4.07,0,0,1,1.06.54s0-.17,0-.46,0-.66,0-1.11,0-.92,0-1.43,0-1,0-1.42V19.41a.89.89,0,0,1,.28-.61,1,1,0,0,1,.57-.28.85.85,0,0,1,1,.82l0,13.11a.68.68,0,0,1-.27.61.94.94,0,0,1-.59.15,1.22,1.22,0,0,1-.59-.2.52.52,0,0,1-.27-.45Zm-4.72-3.35a2.34,2.34,0,0,0,.19.92,2.52,2.52,0,0,0,1.25,1.31,2.17,2.17,0,0,0,1.8,0,2.52,2.52,0,0,0,1.25-1.31,2.4,2.4,0,0,0-.51-2.61,2.61,2.61,0,0,0-.74-.52,2.16,2.16,0,0,0-1.8,0,2.61,2.61,0,0,0-.74.52,2.4,2.4,0,0,0-.69,1.69Z" fill="#19487d"/>
          <path d="M364.82,32.2a3.92,3.92,0,0,1-1.1.6,3.89,3.89,0,0,1-2.83-.13,4.15,4.15,0,0,1-1.29-.91,4.23,4.23,0,0,1-.87-1.34,4.24,4.24,0,0,1,0-3.19,4.09,4.09,0,0,1,.87-1.33,4.25,4.25,0,0,1,1.29-.9,3.78,3.78,0,0,1,1.57-.33,3.72,3.72,0,0,1,1.2.2,4.07,4.07,0,0,1,1.06.54s0-.17,0-.46,0-.66,0-1.11,0-.92,0-1.43,0-1,0-1.42V19.41a.89.89,0,0,1,.28-.61,1,1,0,0,1,.57-.28.85.85,0,0,1,1,.82l0,13.11a.68.68,0,0,1-.27.61.94.94,0,0,1-.59.15,1.22,1.22,0,0,1-.59-.2.52.52,0,0,1-.27-.45Zm-4.72-3.35a2.34,2.34,0,0,0,.19.92,2.52,2.52,0,0,0,1.25,1.31,2.17,2.17,0,0,0,1.8,0,2.52,2.52,0,0,0,1.25-1.31,2.4,2.4,0,0,0-.51-2.61,2.61,2.61,0,0,0-.74-.52,2.16,2.16,0,0,0-1.8,0,2.61,2.61,0,0,0-.74.52,2.4,2.4,0,0,0-.69,1.69Z" fill="#19487d"/>
          <path d="M377.61,32.57a.82.82,0,0,1-.43.37,1.39,1.39,0,0,1-.58.1,1.16,1.16,0,0,1-.52-.14.39.39,0,0,1-.23-.36l0-12.07a2,2,0,0,1,.49-1.41,1.72,1.72,0,0,1,1.27-.55h.95a9.85,9.85,0,0,1,1.29.09,8.76,8.76,0,0,1,1.41.31,4.29,4.29,0,0,1,1.29.65,3.49,3.49,0,0,1,1,1.11,3.63,3.63,0,0,1,.4,1.7,3.86,3.86,0,0,1-.55,2.2,4.53,4.53,0,0,1-1.5,1.46,6.3,6.3,0,0,1-2.06.77,8.77,8.77,0,0,1-2.24.15Zm4.69-10.25a1.53,1.53,0,0,0-.33-.91,2.66,2.66,0,0,0-.95-.76,4.59,4.59,0,0,0-1.47-.43,6.16,6.16,0,0,0-1.9.07l0,5a5.15,5.15,0,0,0,1.43-.07,5.6,5.6,0,0,0,1.54-.5,3.67,3.67,0,0,0,1.23-1A2.18,2.18,0,0,0,382.31,22.32Z" fill="#19487d"/>
          <path d="M391.76,32.4a23.79,23.79,0,0,0-.09-3.17,7.7,7.7,0,0,0-.38-1.8,1.57,1.57,0,0,0-.55-.81,1.17,1.17,0,0,0-.59-.19,2.09,2.09,0,0,0-.9.2A2.51,2.51,0,0,0,388,27.94a2.35,2.35,0,0,0-.19.93v3.28a.9.9,0,0,1-.28.61A1,1,0,0,1,387,33a.91.91,0,0,1-.6-.15.89.89,0,0,1-.36-.67l0-12.81a.67.67,0,0,1,.27-.61.92.92,0,0,1,.59-.15,1.23,1.23,0,0,1,.59.2.52.52,0,0,1,.27.45l0,6.22a3.92,3.92,0,0,1,1.1-.6,3.76,3.76,0,0,1,1.26-.21,2.82,2.82,0,0,1,1.87.57,3.41,3.41,0,0,1,1,1.57,9.09,9.09,0,0,1,.41,2.4q.07,1.4.07,3a.68.68,0,0,1-.27.61.94.94,0,0,1-.59.15,1.22,1.22,0,0,1-.59-.2A.52.52,0,0,1,391.76,32.4Z" fill="#19487d"/>
          <path d="M395.56,28.82a4.18,4.18,0,0,1,.31-1.6,4.09,4.09,0,0,1,.87-1.33A4.25,4.25,0,0,1,398,25a3.86,3.86,0,0,1,3.15,0,4.25,4.25,0,0,1,1.29.9,4.09,4.09,0,0,1,.87,1.33,4.24,4.24,0,0,1,0,3.19,4.23,4.23,0,0,1-.87,1.34,4.15,4.15,0,0,1-1.29.91,3.86,3.86,0,0,1-3.15,0,4.15,4.15,0,0,1-1.29-.91,4.23,4.23,0,0,1-.87-1.34A4.17,4.17,0,0,1,395.56,28.82Zm1.69,0a2.36,2.36,0,0,0,.18.92,2.51,2.51,0,0,0,1.25,1.31,2.17,2.17,0,0,0,1.8,0,2.51,2.51,0,0,0,1.25-1.31,2.41,2.41,0,0,0,0-1.85,2.39,2.39,0,0,0-.51-.76,2.62,2.62,0,0,0-.74-.52,2.16,2.16,0,0,0-1.8,0,2.62,2.62,0,0,0-.74.52,2.39,2.39,0,0,0-.51.76A2.36,2.36,0,0,0,397.24,28.84Z" fill="#19487d"/>
          <path d="M411.67,32.4a23.79,23.79,0,0,0-.09-3.17,7.7,7.7,0,0,0-.38-1.8,1.57,1.57,0,0,0-.55-.81,1.17,1.17,0,0,0-.59-.19,2.09,2.09,0,0,0-.9.2,2.51,2.51,0,0,0-1.25,1.31,2.35,2.35,0,0,0-.19.93v3.28a.9.9,0,0,1-.28.61,1,1,0,0,1-.57.28.91.91,0,0,1-.6-.15.89.89,0,0,1-.36-.67l0-7a.67.67,0,0,1,.27-.61.94.94,0,0,1,.59-.15,1.23,1.23,0,0,1,.59.2.52.52,0,0,1,.27.45l0,.37a3.92,3.92,0,0,1,1.1-.6A3.76,3.76,0,0,1,410,24.7a2.82,2.82,0,0,1,1.87.57,3.41,3.41,0,0,1,1,1.57,9.09,9.09,0,0,1,.41,2.4q.07,1.4.07,3a.68.68,0,0,1-.27.61.94.94,0,0,1-.59.15,1.22,1.22,0,0,1-.59-.2A.52.52,0,0,1,411.67,32.4Z" fill="#19487d"/>
          <path d="M421.67,30.39a.75.75,0,0,1,.58-.25,1.15,1.15,0,0,1,.62.17.89.89,0,0,1,.38.46.63.63,0,0,1-.15.61,4.34,4.34,0,0,1-1.47,1.21,4.44,4.44,0,0,1-1.67.46,4.32,4.32,0,0,1-1.65-.21,4.14,4.14,0,0,1-1.45-.82,4.1,4.1,0,0,1-1-1.38,4.32,4.32,0,0,1-.38-1.84,4.15,4.15,0,0,1,1.18-2.9,4.27,4.27,0,0,1,1.29-.9,4,4,0,0,1,1.57-.36,4.09,4.09,0,0,1,1.38.18,3.88,3.88,0,0,1,1.18.6,3.4,3.4,0,0,1,.87,1,3.62,3.62,0,0,1,.46,1.29,1.56,1.56,0,0,1-.24,1.24,2,2,0,0,1-1.58.45l-4.37,0a2.58,2.58,0,0,0,.61,1.25,2.42,2.42,0,0,0,1.11.73,2.34,2.34,0,0,0,1.36,0A2.94,2.94,0,0,0,421.67,30.39Zm-2.17-4a2.25,2.25,0,0,0-1.2.38,2.5,2.5,0,0,0-.83.94l4.25,0a1.73,1.73,0,0,0-.35-.71,1.71,1.71,0,0,0-.53-.42,2,2,0,0,0-.65-.2A5.35,5.35,0,0,0,419.49,26.39Z" fill="#19487d"/>
          <path d="M434.48,22.48l0,9.85a.68.68,0,0,1-.27.61.93.93,0,0,1-.59.15,1.23,1.23,0,0,1-.59-.2.52.52,0,0,1-.27-.45l-.16-13.07a.73.73,0,0,1,.29-.52,1.15,1.15,0,0,1,.54-.21,1.12,1.12,0,0,1,.59.09.9.9,0,0,1,.43.36l5.92,10.11-.12-9.83a.75.75,0,0,1,.37-.58,1.12,1.12,0,0,1,.63-.14,1,1,0,0,1,.58.23.64.64,0,0,1,.25.51l0,13a.49.49,0,0,1-.22.43,1.12,1.12,0,0,1-.51.19,1.3,1.3,0,0,1-.57-.06.66.66,0,0,1-.39-.3Z" fill="#19487d"/>
          <path d="M446.36,25.19a21.59,21.59,0,0,0-.06,3.32,6.42,6.42,0,0,0,.35,1.78,1.26,1.26,0,0,0,.57.73,1.53,1.53,0,0,0,.6.14,2.09,2.09,0,0,0,.9-.2A2.53,2.53,0,0,0,450,29.65a2.37,2.37,0,0,0,.19-.92V25.44a.89.89,0,0,1,.28-.61,1,1,0,0,1,.57-.28.91.91,0,0,1,.6.15.9.9,0,0,1,.36.67l0,7a.68.68,0,0,1-.27.61.93.93,0,0,1-.59.15,1.23,1.23,0,0,1-.59-.2.52.52,0,0,1-.27-.45l0-.37a3.9,3.9,0,0,1-1.1.6,3.76,3.76,0,0,1-1.26.21,2.8,2.8,0,0,1-2.95-2,8.29,8.29,0,0,1-.38-2.39q0-1.41,0-3.14a.7.7,0,0,1,.31-.61,1.05,1.05,0,0,1,.62-.15,1.31,1.31,0,0,1,.61.2A.47.47,0,0,1,446.36,25.19Z" fill="#19487d"/>
          <path d="M460,32.4a23.79,23.79,0,0,0-.09-3.17,7.7,7.7,0,0,0-.38-1.8,1.57,1.57,0,0,0-.55-.81,1.17,1.17,0,0,0-.59-.19,2.09,2.09,0,0,0-.9.2,2.51,2.51,0,0,0-1.25,1.31,2.35,2.35,0,0,0-.19.93v3.28a.9.9,0,0,1-.28.61,1,1,0,0,1-.57.28.91.91,0,0,1-.6-.15.89.89,0,0,1-.36-.67l0-7a.67.67,0,0,1,.27-.61.94.94,0,0,1,.59-.15,1.23,1.23,0,0,1,.59.2.52.52,0,0,1,.27.45l0,.37a3.92,3.92,0,0,1,1.1-.6,3.76,3.76,0,0,1,1.26-.21,3,3,0,0,1,1.6.38,2.73,2.73,0,0,1,1,1.08A3.85,3.85,0,0,1,462.33,25a3.18,3.18,0,0,1,1.4-.4,2.82,2.82,0,0,1,1.87.57,3.41,3.41,0,0,1,1,1.57,9.06,9.06,0,0,1,.41,2.41q.07,1.4.07,3a.68.68,0,0,1-.27.61.93.93,0,0,1-.59.15,1.23,1.23,0,0,1-.59-.2.52.52,0,0,1-.27-.45,23.77,23.77,0,0,0-.09-3.17,7.71,7.71,0,0,0-.38-1.8,1.58,1.58,0,0,0-.55-.81,1.17,1.17,0,0,0-.59-.18,1.85,1.85,0,0,0-1.38.58,3.48,3.48,0,0,0-.82,1.32q.12.88.15,1.88t0,2.16a.68.68,0,0,1-.27.61.94.94,0,0,1-.59.15,1.22,1.22,0,0,1-.59-.2A.52.52,0,0,1,460,32.4Z" fill="#19487d"/>
          <path d="M470.94,32.57a.52.52,0,0,1-.27.45,1.22,1.22,0,0,1-.59.2.94.94,0,0,1-.59-.15.68.68,0,0,1-.27-.61l0-13.11a.85.85,0,0,1,1-.82,1,1,0,0,1,.57.28.9.9,0,0,1,.28.61V21q0,.66,0,1.42t0,1.43q0,.67,0,1.11c0,.29,0,.45,0,.46a4.07,4.07,0,0,1,1.06-.54,3.71,3.71,0,0,1,1.2-.2,3.78,3.78,0,0,1,1.57.33,4.26,4.26,0,0,1,1.3.9,4.12,4.12,0,0,1,.87,1.33,4.24,4.24,0,0,1,0,3.19,4.26,4.26,0,0,1-.87,1.34,4.16,4.16,0,0,1-1.3.91,3.88,3.88,0,0,1-2.83.13,3.92,3.92,0,0,1-1.1-.6Zm4.74-3.72a2.4,2.4,0,0,0-.69-1.69,2.61,2.61,0,0,0-.74-.52,2.16,2.16,0,0,0-1.8,0,2.6,2.6,0,0,0-.74.52,2.4,2.4,0,0,0-.51,2.61,2.52,2.52,0,0,0,1.25,1.31,2.17,2.17,0,0,0,1.8,0,2.51,2.51,0,0,0,1.25-1.31A2.36,2.36,0,0,0,475.69,28.84Z" fill="#19487d"/>
          <path d="M485.54,30.39a.75.75,0,0,1,.58-.25,1.15,1.15,0,0,1,.62.17.89.89,0,0,1,.38.46.63.63,0,0,1-.15.61,4.34,4.34,0,0,1-1.47,1.21,4.44,4.44,0,0,1-1.67.46,4.32,4.32,0,0,1-1.65-.21,4.14,4.14,0,0,1-1.45-.82,4.1,4.1,0,0,1-1-1.38,4.32,4.32,0,0,1-.38-1.84,4.15,4.15,0,0,1,1.18-2.9,4.27,4.27,0,0,1,1.29-.9,4,4,0,0,1,1.57-.36,4.09,4.09,0,0,1,1.38.18,3.88,3.88,0,0,1,1.18.6,3.4,3.4,0,0,1,.87,1,3.62,3.62,0,0,1,.46,1.29,1.56,1.56,0,0,1-.24,1.24,2,2,0,0,1-1.58.45l-4.37,0a2.58,2.58,0,0,0,.61,1.25,2.42,2.42,0,0,0,1.11.73,2.34,2.34,0,0,0,1.36,0A2.94,2.94,0,0,0,485.54,30.39Zm-2.17-4a2.25,2.25,0,0,0-1.2.38,2.5,2.5,0,0,0-.83.94l4.25,0a1.73,1.73,0,0,0-.35-.71,1.71,1.71,0,0,0-.53-.42,2,2,0,0,0-.65-.2A5.35,5.35,0,0,0,483.36,26.39Z" fill="#19487d"/>
          <path d="M495.41,27.27a4.49,4.49,0,0,0-.77-.58,1.76,1.76,0,0,0-.91-.25,2.09,2.09,0,0,0-.9.2,2.51,2.51,0,0,0-1.25,1.31,2.35,2.35,0,0,0-.19.93v3.28a.9.9,0,0,1-.28.61,1,1,0,0,1-.57.28.91.91,0,0,1-.6-.15.89.89,0,0,1-.36-.67l0-7a.67.67,0,0,1,.27-.61.94.94,0,0,1,.59-.15,1.23,1.23,0,0,1,.59.2.52.52,0,0,1,.27.45l0,.37a3.92,3.92,0,0,1,1.1-.6,3.76,3.76,0,0,1,1.26-.21,3.93,3.93,0,0,1,1.78.41,3.22,3.22,0,0,1,1.29,1.17.7.7,0,0,1,.07.53,1,1,0,0,1-.28.51.83.83,0,0,1-.51.24A.84.84,0,0,1,495.41,27.27Z" fill="#19487d"/>
        </g>
        <g>
          <path d="M339.82,19.07a1.06,1.06,0,0,1,.47-.51.88.88,0,0,1,.57-.08,1.29,1.29,0,0,1,.52.24,1,1,0,0,1,.34.42L346.16,32a.52.52,0,0,1-.09.51,1.15,1.15,0,0,1-.49.38,1,1,0,0,1-.61.06.64.64,0,0,1-.45-.46l-1.69-4.79h-4.12L337,32.39a.63.63,0,0,1-.45.46,1,1,0,0,1-.61-.06,1.14,1.14,0,0,1-.49-.38.52.52,0,0,1-.09-.51Zm-.49,6.84h2.87l-1.43-4Z" fill="#fcf9d9"/>
          <path d="M354.37,32a3.92,3.92,0,0,1-1.1.6,3.89,3.89,0,0,1-2.83-.13,4.15,4.15,0,0,1-1.29-.91,4.23,4.23,0,0,1-.87-1.34,4.24,4.24,0,0,1,0-3.19,4.09,4.09,0,0,1,.87-1.33,4.25,4.25,0,0,1,1.29-.9A3.78,3.78,0,0,1,352,24.5a3.72,3.72,0,0,1,1.2.2,4.07,4.07,0,0,1,1.06.54s0-.17,0-.46,0-.66,0-1.11,0-.92,0-1.43,0-1,0-1.42V19.25a.89.89,0,0,1,.28-.61,1,1,0,0,1,.57-.28.85.85,0,0,1,1,.82l0,13.11a.68.68,0,0,1-.27.61.94.94,0,0,1-.59.15,1.22,1.22,0,0,1-.59-.2.52.52,0,0,1-.27-.45Zm-4.72-3.35a2.34,2.34,0,0,0,.19.92,2.52,2.52,0,0,0,1.25,1.31,2.17,2.17,0,0,0,1.8,0,2.52,2.52,0,0,0,1.25-1.31,2.4,2.4,0,0,0-.51-2.61,2.61,2.61,0,0,0-.74-.52,2.16,2.16,0,0,0-1.8,0,2.61,2.61,0,0,0-.74.52,2.4,2.4,0,0,0-.69,1.69Z" fill="#fcf9d9"/>
          <path d="M364.82,32a3.92,3.92,0,0,1-1.1.6,3.89,3.89,0,0,1-2.83-.13,4.15,4.15,0,0,1-1.29-.91,4.23,4.23,0,0,1-.87-1.34,4.24,4.24,0,0,1,0-3.19,4.09,4.09,0,0,1,.87-1.33,4.25,4.25,0,0,1,1.29-.9,3.78,3.78,0,0,1,1.57-.33,3.72,3.72,0,0,1,1.2.2,4.07,4.07,0,0,1,1.06.54s0-.17,0-.46,0-.66,0-1.11,0-.92,0-1.43,0-1,0-1.42V19.25a.89.89,0,0,1,.28-.61,1,1,0,0,1,.57-.28.85.85,0,0,1,1,.82l0,13.11a.68.68,0,0,1-.27.61.94.94,0,0,1-.59.15,1.22,1.22,0,0,1-.59-.2.52.52,0,0,1-.27-.45Zm-4.72-3.35a2.34,2.34,0,0,0,.19.92,2.52,2.52,0,0,0,1.25,1.31,2.17,2.17,0,0,0,1.8,0,2.52,2.52,0,0,0,1.25-1.31,2.4,2.4,0,0,0-.51-2.61,2.61,2.61,0,0,0-.74-.52,2.16,2.16,0,0,0-1.8,0,2.61,2.61,0,0,0-.74.52,2.4,2.4,0,0,0-.69,1.69Z" fill="#fcf9d9"/>
          <path d="M377.61,32.41a.82.82,0,0,1-.43.37,1.39,1.39,0,0,1-.58.1,1.16,1.16,0,0,1-.52-.14.39.39,0,0,1-.23-.36l0-12.07a2,2,0,0,1,.49-1.41,1.72,1.72,0,0,1,1.27-.55h.95a9.85,9.85,0,0,1,1.29.09,8.76,8.76,0,0,1,1.41.31,4.29,4.29,0,0,1,1.29.65,3.49,3.49,0,0,1,1,1.11,3.63,3.63,0,0,1,.4,1.7,3.86,3.86,0,0,1-.55,2.2,4.53,4.53,0,0,1-1.5,1.46,6.3,6.3,0,0,1-2.06.77,8.77,8.77,0,0,1-2.24.15Zm4.69-10.25a1.53,1.53,0,0,0-.33-.91,2.66,2.66,0,0,0-.95-.76,4.59,4.59,0,0,0-1.47-.43,6.16,6.16,0,0,0-1.9.07l0,5a5.15,5.15,0,0,0,1.43-.07,5.6,5.6,0,0,0,1.54-.5,3.67,3.67,0,0,0,1.23-1A2.18,2.18,0,0,0,382.31,22.16Z" fill="#fcf9d9"/>
          <path d="M391.76,32.25a23.79,23.79,0,0,0-.09-3.17,7.7,7.7,0,0,0-.38-1.8,1.57,1.57,0,0,0-.55-.81,1.17,1.17,0,0,0-.59-.19,2.09,2.09,0,0,0-.9.2A2.51,2.51,0,0,0,388,27.78a2.35,2.35,0,0,0-.19.93V32a.9.9,0,0,1-.28.61,1,1,0,0,1-.57.28.91.91,0,0,1-.6-.15.89.89,0,0,1-.36-.67l0-12.81a.67.67,0,0,1,.27-.61.92.92,0,0,1,.59-.15,1.23,1.23,0,0,1,.59.2.52.52,0,0,1,.27.45l0,6.22a3.92,3.92,0,0,1,1.1-.6,3.76,3.76,0,0,1,1.26-.21,2.82,2.82,0,0,1,1.87.57,3.41,3.41,0,0,1,1,1.57,9.09,9.09,0,0,1,.41,2.4q.07,1.4.07,3a.68.68,0,0,1-.27.61.94.94,0,0,1-.59.15,1.22,1.22,0,0,1-.59-.2A.52.52,0,0,1,391.76,32.25Z" fill="#fcf9d9"/>
          <path d="M395.56,28.66a4.18,4.18,0,0,1,.31-1.6,4.09,4.09,0,0,1,.87-1.33,4.25,4.25,0,0,1,1.29-.9,3.86,3.86,0,0,1,3.15,0,4.25,4.25,0,0,1,1.29.9,4.09,4.09,0,0,1,.87,1.33,4.24,4.24,0,0,1,0,3.19,4.23,4.23,0,0,1-.87,1.34,4.15,4.15,0,0,1-1.29.91,3.86,3.86,0,0,1-3.15,0,4.15,4.15,0,0,1-1.29-.91,4.23,4.23,0,0,1-.87-1.34A4.17,4.17,0,0,1,395.56,28.66Zm1.69,0a2.36,2.36,0,0,0,.18.92,2.51,2.51,0,0,0,1.25,1.31,2.17,2.17,0,0,0,1.8,0,2.51,2.51,0,0,0,1.25-1.31,2.41,2.41,0,0,0,0-1.85,2.39,2.39,0,0,0-.51-.76,2.62,2.62,0,0,0-.74-.52,2.16,2.16,0,0,0-1.8,0,2.62,2.62,0,0,0-.74.52,2.39,2.39,0,0,0-.51.76A2.36,2.36,0,0,0,397.24,28.69Z" fill="#fcf9d9"/>
          <path d="M411.67,32.25a23.79,23.79,0,0,0-.09-3.17,7.7,7.7,0,0,0-.38-1.8,1.57,1.57,0,0,0-.55-.81,1.17,1.17,0,0,0-.59-.19,2.09,2.09,0,0,0-.9.2,2.51,2.51,0,0,0-1.25,1.31,2.35,2.35,0,0,0-.19.93V32a.9.9,0,0,1-.28.61,1,1,0,0,1-.57.28.91.91,0,0,1-.6-.15.89.89,0,0,1-.36-.67l0-7a.67.67,0,0,1,.27-.61.94.94,0,0,1,.59-.15,1.23,1.23,0,0,1,.59.2.52.52,0,0,1,.27.45l0,.37a3.92,3.92,0,0,1,1.1-.6,3.76,3.76,0,0,1,1.26-.21,2.82,2.82,0,0,1,1.87.57,3.41,3.41,0,0,1,1,1.57,9.09,9.09,0,0,1,.41,2.4q.07,1.4.07,3a.68.68,0,0,1-.27.61.94.94,0,0,1-.59.15,1.22,1.22,0,0,1-.59-.2A.52.52,0,0,1,411.67,32.25Z" fill="#fcf9d9"/>
          <path d="M421.67,30.24a.75.75,0,0,1,.58-.25,1.15,1.15,0,0,1,.62.17.89.89,0,0,1,.38.46.63.63,0,0,1-.15.61,4.34,4.34,0,0,1-1.47,1.21,4.44,4.44,0,0,1-1.67.46,4.32,4.32,0,0,1-1.65-.21,4.14,4.14,0,0,1-1.45-.82,4.1,4.1,0,0,1-1-1.38,4.32,4.32,0,0,1-.38-1.84,4.15,4.15,0,0,1,1.18-2.9,4.27,4.27,0,0,1,1.29-.9,4,4,0,0,1,1.57-.36,4.09,4.09,0,0,1,1.38.18,3.88,3.88,0,0,1,1.18.6,3.4,3.4,0,0,1,.87,1,3.62,3.62,0,0,1,.46,1.29,1.56,1.56,0,0,1-.24,1.24,2,2,0,0,1-1.58.45l-4.37,0a2.58,2.58,0,0,0,.61,1.25,2.42,2.42,0,0,0,1.11.73,2.34,2.34,0,0,0,1.36,0A2.94,2.94,0,0,0,421.67,30.24Zm-2.17-4a2.25,2.25,0,0,0-1.2.38,2.5,2.5,0,0,0-.83.94l4.25,0a1.73,1.73,0,0,0-.35-.71,1.71,1.71,0,0,0-.53-.42,2,2,0,0,0-.65-.2A5.35,5.35,0,0,0,419.49,26.23Z" fill="#fcf9d9"/>
          <path d="M434.48,22.33l0,9.85a.68.68,0,0,1-.27.61.93.93,0,0,1-.59.15,1.23,1.23,0,0,1-.59-.2.52.52,0,0,1-.27-.45l-.16-13.07a.73.73,0,0,1,.29-.52,1.15,1.15,0,0,1,.54-.21,1.12,1.12,0,0,1,.59.09.9.9,0,0,1,.43.36l5.92,10.11-.12-9.83a.75.75,0,0,1,.37-.58,1.12,1.12,0,0,1,.63-.14,1,1,0,0,1,.58.23.64.64,0,0,1,.25.51l0,13a.49.49,0,0,1-.22.43,1.12,1.12,0,0,1-.51.19,1.3,1.3,0,0,1-.57-.06.66.66,0,0,1-.39-.3Z" fill="#fcf9d9"/>
          <path d="M446.36,25a21.59,21.59,0,0,0-.06,3.32,6.42,6.42,0,0,0,.35,1.78,1.26,1.26,0,0,0,.57.73,1.53,1.53,0,0,0,.6.14,2.09,2.09,0,0,0,.9-.2A2.53,2.53,0,0,0,450,29.5a2.37,2.37,0,0,0,.19-.92V25.29a.89.89,0,0,1,.28-.61,1,1,0,0,1,.57-.28.91.91,0,0,1,.6.15.9.9,0,0,1,.36.67l0,7a.68.68,0,0,1-.27.61.93.93,0,0,1-.59.15,1.23,1.23,0,0,1-.59-.2.52.52,0,0,1-.27-.45l0-.37a3.9,3.9,0,0,1-1.1.6,3.76,3.76,0,0,1-1.26.21,2.8,2.8,0,0,1-2.95-2,8.29,8.29,0,0,1-.38-2.39q0-1.41,0-3.14a.7.7,0,0,1,.31-.61,1.05,1.05,0,0,1,.62-.15,1.31,1.31,0,0,1,.61.2A.47.47,0,0,1,446.36,25Z" fill="#fcf9d9"/>
          <path d="M460,32.25a23.79,23.79,0,0,0-.09-3.17,7.7,7.7,0,0,0-.38-1.8,1.57,1.57,0,0,0-.55-.81,1.17,1.17,0,0,0-.59-.19,2.09,2.09,0,0,0-.9.2,2.51,2.51,0,0,0-1.25,1.31,2.35,2.35,0,0,0-.19.93V32a.9.9,0,0,1-.28.61,1,1,0,0,1-.57.28.91.91,0,0,1-.6-.15.89.89,0,0,1-.36-.67l0-7a.67.67,0,0,1,.27-.61.94.94,0,0,1,.59-.15,1.23,1.23,0,0,1,.59.2A.52.52,0,0,1,456,25l0,.37a3.92,3.92,0,0,1,1.1-.6,3.76,3.76,0,0,1,1.26-.21,3,3,0,0,1,1.6.38A2.73,2.73,0,0,1,461,26a3.85,3.85,0,0,1,1.35-1.14,3.18,3.18,0,0,1,1.4-.4,2.82,2.82,0,0,1,1.87.57,3.41,3.41,0,0,1,1,1.57A9.06,9.06,0,0,1,467,29q.07,1.4.07,3a.68.68,0,0,1-.27.61.93.93,0,0,1-.59.15,1.23,1.23,0,0,1-.59-.2.52.52,0,0,1-.27-.45,23.77,23.77,0,0,0-.09-3.17,7.71,7.71,0,0,0-.38-1.8,1.58,1.58,0,0,0-.55-.81,1.17,1.17,0,0,0-.59-.18,1.85,1.85,0,0,0-1.38.58,3.48,3.48,0,0,0-.82,1.32q.12.88.15,1.88t0,2.16a.68.68,0,0,1-.27.61.94.94,0,0,1-.59.15,1.22,1.22,0,0,1-.59-.2A.52.52,0,0,1,460,32.25Z" fill="#fcf9d9"/>
          <path d="M470.94,32.41a.52.52,0,0,1-.27.45,1.22,1.22,0,0,1-.59.2.94.94,0,0,1-.59-.15.68.68,0,0,1-.27-.61l0-13.11a.85.85,0,0,1,1-.82,1,1,0,0,1,.57.28.9.9,0,0,1,.28.61v1.56q0,.66,0,1.42t0,1.43q0,.67,0,1.11c0,.29,0,.45,0,.46a4.07,4.07,0,0,1,1.06-.54,3.71,3.71,0,0,1,1.2-.2,3.78,3.78,0,0,1,1.57.33,4.26,4.26,0,0,1,1.3.9,4.12,4.12,0,0,1,.87,1.33,4.24,4.24,0,0,1,0,3.19,4.26,4.26,0,0,1-.87,1.34,4.16,4.16,0,0,1-1.3.91,3.88,3.88,0,0,1-2.83.13A3.92,3.92,0,0,1,471,32Zm4.74-3.72A2.4,2.4,0,0,0,475,27a2.61,2.61,0,0,0-.74-.52,2.16,2.16,0,0,0-1.8,0,2.6,2.6,0,0,0-.74.52,2.4,2.4,0,0,0-.51,2.61,2.52,2.52,0,0,0,1.25,1.31,2.17,2.17,0,0,0,1.8,0,2.51,2.51,0,0,0,1.25-1.31A2.36,2.36,0,0,0,475.69,28.69Z" fill="#fcf9d9"/>
          <path d="M485.54,30.24a.75.75,0,0,1,.58-.25,1.15,1.15,0,0,1,.62.17.89.89,0,0,1,.38.46.63.63,0,0,1-.15.61,4.34,4.34,0,0,1-1.47,1.21,4.44,4.44,0,0,1-1.67.46,4.32,4.32,0,0,1-1.65-.21,4.14,4.14,0,0,1-1.45-.82,4.1,4.1,0,0,1-1-1.38,4.32,4.32,0,0,1-.38-1.84,4.15,4.15,0,0,1,1.18-2.9,4.27,4.27,0,0,1,1.29-.9,4,4,0,0,1,1.57-.36,4.09,4.09,0,0,1,1.38.18,3.88,3.88,0,0,1,1.18.6,3.4,3.4,0,0,1,.87,1,3.62,3.62,0,0,1,.46,1.29,1.56,1.56,0,0,1-.24,1.24,2,2,0,0,1-1.58.45l-4.37,0a2.58,2.58,0,0,0,.61,1.25,2.42,2.42,0,0,0,1.11.73,2.34,2.34,0,0,0,1.36,0A2.94,2.94,0,0,0,485.54,30.24Zm-2.17-4a2.25,2.25,0,0,0-1.2.38,2.5,2.5,0,0,0-.83.94l4.25,0a1.73,1.73,0,0,0-.35-.71,1.71,1.71,0,0,0-.53-.42,2,2,0,0,0-.65-.2A5.35,5.35,0,0,0,483.36,26.23Z" fill="#fcf9d9"/>
          <path d="M495.41,27.11a4.49,4.49,0,0,0-.77-.58,1.76,1.76,0,0,0-.91-.25,2.09,2.09,0,0,0-.9.2,2.51,2.51,0,0,0-1.25,1.31,2.35,2.35,0,0,0-.19.93V32a.9.9,0,0,1-.28.61,1,1,0,0,1-.57.28.91.91,0,0,1-.6-.15.89.89,0,0,1-.36-.67l0-7a.67.67,0,0,1,.27-.61.94.94,0,0,1,.59-.15,1.23,1.23,0,0,1,.59.2.52.52,0,0,1,.27.45l0,.37a3.92,3.92,0,0,1,1.1-.6,3.76,3.76,0,0,1,1.26-.21,3.93,3.93,0,0,1,1.78.41,3.22,3.22,0,0,1,1.29,1.17.7.7,0,0,1,.07.53,1,1,0,0,1-.28.51.83.83,0,0,1-.51.24A.84.84,0,0,1,495.41,27.11Z" fill="#fcf9d9"/>
        </g>
        <g>
          <path d="M320,28.31c-1.78,1.15-2.41,3.57-3.8,3-2.39-1-6-6.32-5.9-8.9,0-1.5,2.27-1.28,4.05-2.44,2.42-1.59-1.81-6.53-3.24-7s-5,1.6-5.41,3.9c-.66,3.06,1.29,9.24,3.42,12.53s7,7.6,10,8.26c2,.47,5.58-1.8,5.78-3.34S321.73,27.16,320,28.31Z" fill="#19487d" fill-rule="evenodd"/>
          <line x1="308.21" y1="13.94" x2="313.12" y2="20.62" fill="#19487d"/>
          <line x1="318.53" y1="29.56" x2="323.47" y2="36.22" fill="#19487d"/>
        </g>
        <g>
          <path d="M320,28.31c-1.78,1.15-2.41,3.57-3.8,3-2.39-1-6-6.32-5.9-8.9,0-1.5,2.27-1.28,4.05-2.44,2.42-1.59-1.81-6.53-3.24-7s-5,1.6-5.41,3.9c-.66,3.06,1.29,9.24,3.42,12.53s7,7.6,10,8.26c2,.47,5.58-1.8,5.78-3.34S321.73,27.16,320,28.31Z" fill="#fcf9d9" fill-rule="evenodd"/>
          <line x1="308.21" y1="13.94" x2="313.12" y2="20.62" fill="#fcf9d9"/>
          <line x1="318.53" y1="29.56" x2="323.47" y2="36.22" fill="#fcf9d9"/>
        </g>
      </g>
    </g>
  </g>
</svg>
