<svg xmlns="http://www.w3.org/2000/svg" width="250.41" height="119.93" viewBox="0 0 250.41 119.93"><defs><style>.cls-1{fill:#f7f8fa;}.cls-2{fill:#18477c;}.cls-3{fill:#3166b1;}.cls-4{fill:#40a5dd;}.cls-5{fill:#9dd5ef;}.cls-6{fill:#263b97;}.cls-7{fill:#fff;stroke:#3166b1;stroke-miterlimit:10;}</style></defs><title>audio_button</title><g id="Layer_2" data-name="Layer 2"><g id="Layer_1-2" data-name="Layer 1"><ellipse class="cls-1" cx="62.6" cy="59.96" rx="62.6" ry="59.96"/><circle class="cls-2" cx="62.81" cy="55.84" r="55.12"/><circle class="cls-3" cx="62.81" cy="54.57" r="53.31"/><ellipse class="cls-4" cx="62.6" cy="48.47" rx="47.37" ry="44.11"/><path class="cls-5" d="M62.6,7.27c25.63,0,46.46,19.05,47.29,42.83,0-.49.08-1,.08-1.46C110,24.18,88.76,4.36,62.6,4.36S15.24,24.18,15.24,48.64c0,.49.06,1,.08,1.46C16.14,26.32,37,7.27,62.6,7.27Z"/><path class="cls-6" d="M62.6,89.67C37,89.67,16.14,70.62,15.32,46.84c0,.49-.08,1-.08,1.46,0,24.46,21.21,44.29,47.37,44.29S110,72.76,110,48.3c0-.49-.06-1-.08-1.46C109.06,70.62,88.24,89.67,62.6,89.67Z"/><path class="cls-2" d="M38,42.86c-2.19,0-3.15,5.16-3.15,9.11s1,9,2.91,9h9.42c2.91,0,7.43,5,9.71,6.86,1.64,1.37,4.51.88,4.51-2V38c0-2.81-2.89-3.27-4.51-1.84-2.37,2.09-6.74,6.69-9.59,6.69Z"/><path class="cls-2" d="M76.21,41.54a2.18,2.18,0,0,0-3.08,3.09h0a10.35,10.35,0,0,1,0,14.66A2.18,2.18,0,0,0,74.67,63a2.16,2.16,0,0,0,1.55-.64,14.73,14.73,0,0,0,0-20.84Z"/><path class="cls-2" d="M83.76,36a2.25,2.25,0,0,0-3.18,3.18,18,18,0,0,1,0,25.48,2.25,2.25,0,1,0,3.19,3.18,22.48,22.48,0,0,0,0-31.85Z"/><path class="cls-2" d="M67.9,45a1.46,1.46,0,0,0-2.06,2.07h0a6.92,6.92,0,0,1,0,9.8,1.46,1.46,0,0,0,1,2.5,1.44,1.44,0,0,0,1-.43A9.85,9.85,0,0,0,67.9,45Z"/><path class="cls-7" d="M38,36.86c-2.19,0-3.15,5.16-3.15,9.11s1,9,2.91,9h9.42c2.91,0,7.43,5,9.71,6.86,1.64,1.37,4.51.88,4.51-2V32c0-2.81-2.89-3.27-4.51-1.84-2.37,2.09-6.74,6.69-9.59,6.69Z"/><path class="cls-7" d="M76.21,35.54a2.18,2.18,0,0,0-3.08,3.09h0a10.35,10.35,0,0,1,0,14.66A2.18,2.18,0,0,0,74.67,57a2.16,2.16,0,0,0,1.55-.64,14.73,14.73,0,0,0,0-20.84Z"/><path class="cls-7" d="M83.76,30a2.25,2.25,0,0,0-3.18,3.18,18,18,0,0,1,0,25.48,2.25,2.25,0,1,0,3.19,3.18,22.48,22.48,0,0,0,0-31.85Z"/><path class="cls-7" d="M67.9,39a1.46,1.46,0,0,0-2.06,2.07h0a6.92,6.92,0,0,1,0,9.8,1.46,1.46,0,0,0,1,2.5,1.44,1.44,0,0,0,1-.43A9.85,9.85,0,0,0,67.9,39Z"/><ellipse class="cls-1" cx="187.8" cy="59.96" rx="62.6" ry="59.96"/><circle class="cls-2" cx="188.02" cy="55.84" r="55.12"/><circle class="cls-3" cx="188.02" cy="54.57" r="53.31"/><ellipse class="cls-4" cx="187.8" cy="53.68" rx="51.8" ry="50.6"/><path class="cls-5" d="M187.8,6.42c28,0,50.81,21.85,51.72,49.13,0-.56.09-1.11.09-1.67,0-28.06-23.19-50.8-51.8-50.8S136,25.82,136,53.88c0,.56.07,1.11.09,1.67C137,28.27,159.77,6.42,187.8,6.42Z"/><path class="cls-6" d="M187.8,100.94c-28,0-50.81-21.85-51.72-49.13,0,.56-.09,1.11-.09,1.67,0,28.06,23.19,50.8,51.8,50.8s51.8-22.74,51.8-50.8c0-.56-.07-1.11-.09-1.67C238.62,79.09,215.84,100.94,187.8,100.94Z"/><path class="cls-2" d="M163.18,42.86C161,42.86,160,48,160,52s1,9,2.91,9h9.42c2.91,0,7.43,5,9.71,6.86,1.64,1.37,4.51.88,4.51-2V38c0-2.81-2.89-3.27-4.51-1.84-2.37,2.09-6.74,6.69-9.59,6.69Z"/><path class="cls-2" d="M201.41,41.54a2.18,2.18,0,0,0-3.08,3.09h0a10.35,10.35,0,0,1,0,14.66A2.18,2.18,0,0,0,199.87,63a2.16,2.16,0,0,0,1.55-.64,14.73,14.73,0,0,0,0-20.84Z"/><path class="cls-2" d="M209,36a2.25,2.25,0,0,0-3.18,3.18,18,18,0,0,1,0,25.48A2.25,2.25,0,1,0,209,67.88,22.48,22.48,0,0,0,209,36Z"/><path class="cls-2" d="M193.1,45A1.46,1.46,0,0,0,191,47.06h0a6.92,6.92,0,0,1,0,9.8,1.46,1.46,0,0,0,1,2.5,1.44,1.44,0,0,0,1-.43,9.85,9.85,0,0,0,0-13.94Z"/><path class="cls-7" d="M163.18,41.86C161,41.86,160,47,160,51s1,9,2.91,9h9.42c2.91,0,7.43,5,9.71,6.86,1.64,1.37,4.51.88,4.51-2V37c0-2.81-2.89-3.27-4.51-1.84-2.37,2.09-6.74,6.69-9.59,6.69Z"/><path class="cls-7" d="M201.41,40.54a2.18,2.18,0,0,0-3.08,3.09h0a10.35,10.35,0,0,1,0,14.66A2.18,2.18,0,0,0,199.87,62a2.16,2.16,0,0,0,1.55-.64,14.73,14.73,0,0,0,0-20.84Z"/><path class="cls-7" d="M209,35a2.25,2.25,0,0,0-3.18,3.18,18,18,0,0,1,0,25.48A2.25,2.25,0,1,0,209,66.88,22.48,22.48,0,0,0,209,35Z"/><path class="cls-7" d="M193.1,44A1.46,1.46,0,0,0,191,46.06h0a6.92,6.92,0,0,1,0,9.8,1.46,1.46,0,0,0,1,2.5,1.44,1.44,0,0,0,1-.43,9.85,9.85,0,0,0,0-13.94Z"/></g></g></svg>