<svg xmlns="http://www.w3.org/2000/svg" width="313.13" height="50.1" viewBox="0 0 313.13 50.1">
  <title>resend</title>
  <g id="Layer_2" data-name="Layer 2">
    <g id="Layer_1-2" data-name="Layer 1">
      <rect width="156.56" height="44.32" rx="22.09" ry="22.09" fill="#fdfefd"/>
      <rect x="2.4" y="1.29" width="151.28" height="40.73" rx="20.3" ry="20.3" fill="#19487d"/>
      <rect x="1.96" y="0.98" width="151.67" height="39.39" rx="19.63" ry="19.63" fill="#3267b0"/>
      <rect x="3.16" y="0.61" width="149.81" height="35.3" rx="17.59" ry="17.59" fill="#42a4dc"/>
      <path d="M135.41.61H20.67A17.65,17.65,0,0,0,3.13,18.26h0c0,.34,0,.68,0,1A17.64,17.64,0,0,1,20.67,2.65H135.41a17.64,17.64,0,0,1,17.51,16.63c0-.34,0-.68,0-1h0A17.65,17.65,0,0,0,135.41.61Z" fill="#9dd4ed" fill-rule="evenodd"/>
      <path d="M135.41,33.86H20.67A17.64,17.64,0,0,1,3.16,17.24c0,.34,0,.68,0,1h0A17.65,17.65,0,0,0,20.67,35.91H135.41a17.65,17.65,0,0,0,17.54-17.65h0c0-.34,0-.68,0-1A17.64,17.64,0,0,1,135.41,33.86Z" fill="#243f94" fill-rule="evenodd"/>
      <path d="M134.55,45.68H22A22.07,22.07,0,0,1,.11,25.73C0,26.46,0,27.2,0,27.94H0A22.09,22.09,0,0,0,22,50.1H134.55a22.09,22.09,0,0,0,22-22.16h0c0-.75,0-1.48-.11-2.21A22.07,22.07,0,0,1,134.55,45.68Z" fill="#5e5f5f" fill-rule="evenodd"/>
      <path d="M134.55,44.32H22A22.08,22.08,0,0,1,0,23.18c0,.34,0,.68,0,1H0A22.09,22.09,0,0,0,22,46.36H134.55a22.09,22.09,0,0,0,22-22.16h0c0-.34,0-.68,0-1A22.08,22.08,0,0,1,134.55,44.32Z" fill="#888" fill-rule="evenodd"/>
      <rect x="156.56" y="4.97" width="156.56" height="39.17" rx="19.59" ry="19.59" fill="#fdfefd"/>
      <rect x="158.96" y="6.07" width="151.28" height="35.87" rx="17.93" ry="17.93" fill="#19487d"/>
      <rect x="158.52" y="6.07" width="151.67" height="34.29" rx="17.15" ry="17.15" fill="#3267b0"/>
      <rect x="159.73" y="6.07" width="149.81" height="33.92" rx="16.96" ry="16.96" fill="#42a4dc"/>
      <path d="M292,6.07H177.24c-9.65,0-17.54,7.63-17.54,17h0c0,.33,0,.66,0,1,.53-8.88,8.2-16,17.51-16H292c9.31,0,17,7.1,17.51,16,0-.32,0-.65,0-1h0C309.51,13.7,301.62,6.07,292,6.07Z" fill="#9dd4ed" fill-rule="evenodd"/>
      <path d="M292,38H177.24c-9.31,0-17-7.1-17.51-16,0,.32,0,.65,0,1h0c0,9.33,7.89,17,17.54,17H292c9.65,0,17.54-7.63,17.54-17h0c0-.33,0-.66,0-1C308.95,30.92,301.28,38,292,38Z" fill="#243f94" fill-rule="evenodd"/>
      <path d="M291.11,45.45H178.58c-11.42,0-20.8-8.41-21.91-19.17a20.83,20.83,0,0,0-.11,2.13h0c0,11.76,9.86,21.29,22,21.29H291.11c12.16,0,22-9.53,22-21.29h0a20.83,20.83,0,0,0-.11-2.13C311.92,37,302.53,45.45,291.11,45.45Z" fill="#5e5f5f" fill-rule="evenodd"/>
      <path d="M291.11,44.15H178.58c-11.82,0-21.46-9-22-20.31,0,.33,0,.65,0,1h0c0,11.76,9.86,21.29,22,21.29H291.11c12.16,0,22-9.53,22-21.29h0c0-.33,0-.66,0-1C312.57,35.14,302.93,44.15,291.11,44.15Z" fill="#888" fill-rule="evenodd"/>
      <g>
        <g>
          <path d="M47.92,25.75a.9.9,0,0,1-.46.41,1.42,1.42,0,0,1-.61.11,1.18,1.18,0,0,1-.55-.15.44.44,0,0,1-.24-.4l.05-13.3a2.22,2.22,0,0,1,.54-1.55,1.89,1.89,0,0,1,1.4-.61h1a10.93,10.93,0,0,1,1.43.1,9.74,9.74,0,0,1,1.55.34,4.7,4.7,0,0,1,1.43.71,3.82,3.82,0,0,1,1.06,1.22A4,4,0,0,1,55,14.51a3.73,3.73,0,0,1-.19,1.18,4.51,4.51,0,0,1-.51,1.06,4.32,4.32,0,0,1-.75.87,5.1,5.1,0,0,1-.89.64l2.65,7.08a.49.49,0,0,1-.19.57,1.57,1.57,0,0,1-.69.28,1.93,1.93,0,0,1-.76,0q-.37-.09-.4-.32l-2.65-7.24a5.36,5.36,0,0,1-1.58.17,7.76,7.76,0,0,1-1.12-.11Zm5.25-11.29a1.61,1.61,0,0,0-.4-1,3.16,3.16,0,0,0-1.08-.84A5.21,5.21,0,0,0,50,12.14a6.93,6.93,0,0,0-2.11.08v4.61a12.9,12.9,0,0,0,1.59.06,6.72,6.72,0,0,0,1.72-.24,3.29,3.29,0,0,0,1.38-.75A1.87,1.87,0,0,0,53.17,14.46Z" fill="#19487d"/>
          <path d="M64.79,23.35a.83.83,0,0,1,.64-.28,1.28,1.28,0,0,1,.69.19,1,1,0,0,1,.42.51.69.69,0,0,1-.17.67,4.78,4.78,0,0,1-1.62,1.34,4.86,4.86,0,0,1-1.83.51,4.75,4.75,0,0,1-1.82-.23,4.54,4.54,0,0,1-1.59-.9,4.49,4.49,0,0,1-1.12-1.52,4.74,4.74,0,0,1-.42-2,4.57,4.57,0,0,1,1.3-3.2,4.68,4.68,0,0,1,1.43-1,4.47,4.47,0,0,1,1.73-.4,4.52,4.52,0,0,1,1.52.2,4.27,4.27,0,0,1,1.3.66,3.74,3.74,0,0,1,1,1.07,4,4,0,0,1,.51,1.43,1.72,1.72,0,0,1-.27,1.36,2.23,2.23,0,0,1-1.75.5l-4.82,0a2.83,2.83,0,0,0,.68,1.38,2.66,2.66,0,0,0,1.22.8,2.59,2.59,0,0,0,1.5,0A3.22,3.22,0,0,0,64.79,23.35Zm-2.4-4.41a2.48,2.48,0,0,0-1.32.42,2.76,2.76,0,0,0-.92,1l4.69.05a1.8,1.8,0,0,0-1-1.24,2.25,2.25,0,0,0-.71-.22A5.91,5.91,0,0,0,62.4,18.94Z" fill="#19487d"/>
          <path d="M77,18.87a.64.64,0,0,1,0,.65,1.07,1.07,0,0,1-.51.43,1.12,1.12,0,0,1-.66.08.54.54,0,0,1-.43-.42,1.86,1.86,0,0,0-.83-.75,3.26,3.26,0,0,0-.9-.29,2,2,0,0,0-1.25.2,1.21,1.21,0,0,0-.69.71.94.94,0,0,0,.06.65,1,1,0,0,0,.42.4,2.91,2.91,0,0,0,.69.25c.27.07.56.13.87.18a13.07,13.07,0,0,1,1.3.32,3.8,3.8,0,0,1,1.12.54,2.28,2.28,0,0,1,1,2.25,2.11,2.11,0,0,1-.45,1.18,2.9,2.9,0,0,1-1,.79,4.08,4.08,0,0,1-1.27.4,5.48,5.48,0,0,1-1.39,0,5.39,5.39,0,0,1-1.2-.29,4.57,4.57,0,0,1-1.08-.57,3.79,3.79,0,0,1-.87-.87,3.52,3.52,0,0,1-.55-1.17,1,1,0,0,1,.19-.76,1.25,1.25,0,0,1,.57-.42,1,1,0,0,1,.64,0,.57.57,0,0,1,.38.46A2,2,0,0,0,72,24.27a3.17,3.17,0,0,0,1.38.43,2.77,2.77,0,0,0,1.24-.17q.55-.22.6-.57a.83.83,0,0,0-.39-.94,4.29,4.29,0,0,0-1.26-.43l-1.25-.27a4.76,4.76,0,0,1-1.22-.43,2.45,2.45,0,0,1-.92-.83,2.53,2.53,0,0,1-.36-1.43,2.39,2.39,0,0,1,.32-1.25,2.94,2.94,0,0,1,.84-.9,3.32,3.32,0,0,1,1.2-.52,4.73,4.73,0,0,1,1.39-.1,5,5,0,0,1,1.9.56A3.83,3.83,0,0,1,77,18.87Z" fill="#19487d"/>
          <path d="M86.35,23.35a.83.83,0,0,1,.64-.28,1.28,1.28,0,0,1,.69.19,1,1,0,0,1,.42.51.69.69,0,0,1-.17.67,4.78,4.78,0,0,1-1.62,1.34,4.86,4.86,0,0,1-1.83.51,4.75,4.75,0,0,1-1.82-.23,4.54,4.54,0,0,1-1.59-.9,4.49,4.49,0,0,1-1.12-1.52,4.74,4.74,0,0,1-.42-2,4.57,4.57,0,0,1,1.3-3.2,4.68,4.68,0,0,1,1.43-1A4.47,4.47,0,0,1,84,17a4.52,4.52,0,0,1,1.52.2,4.27,4.27,0,0,1,1.3.66,3.74,3.74,0,0,1,1,1.07,4,4,0,0,1,.51,1.43A1.72,1.72,0,0,1,88,21.76a2.23,2.23,0,0,1-1.75.5l-4.82,0a2.83,2.83,0,0,0,.68,1.38,2.66,2.66,0,0,0,1.22.8,2.59,2.59,0,0,0,1.5,0A3.22,3.22,0,0,0,86.35,23.35ZM84,18.94a2.48,2.48,0,0,0-1.32.42,2.76,2.76,0,0,0-.92,1l4.69.05a1.8,1.8,0,0,0-1-1.24,2.25,2.25,0,0,0-.71-.22A5.91,5.91,0,0,0,84,18.94Z" fill="#19487d"/>
          <path d="M97.16,25.57a26.18,26.18,0,0,0-.1-3.49,8.49,8.49,0,0,0-.42-2A1.73,1.73,0,0,0,96,19.2a1.29,1.29,0,0,0-.65-.2,2.31,2.31,0,0,0-1,.22A2.78,2.78,0,0,0,93,20.65a2.6,2.6,0,0,0-.2,1v3.62a1,1,0,0,1-.31.67,1.06,1.06,0,0,1-.62.31.94.94,0,0,1-1.06-.9l0-7.67a.74.74,0,0,1,.29-.67,1,1,0,0,1,.65-.17,1.36,1.36,0,0,1,.65.22.57.57,0,0,1,.29.5l0,.41A4.32,4.32,0,0,1,94,17.31a4.15,4.15,0,0,1,1.39-.23,3.1,3.1,0,0,1,2.06.63,3.75,3.75,0,0,1,1.11,1.73A10,10,0,0,1,99,22.09q.08,1.54.08,3.35a.75.75,0,0,1-.29.68,1,1,0,0,1-.65.17,1.34,1.34,0,0,1-.65-.22A.57.57,0,0,1,97.16,25.57Z" fill="#19487d"/>
          <path d="M108.37,25.34a4.31,4.31,0,0,1-1.21.66,4.28,4.28,0,0,1-3.12-.14,4.57,4.57,0,0,1-1.43-1,4.66,4.66,0,0,1-1-1.48,4.66,4.66,0,0,1,0-3.52,4.51,4.51,0,0,1,1-1.47,4.7,4.7,0,0,1,1.43-1,4.15,4.15,0,0,1,1.73-.37,4.08,4.08,0,0,1,1.33.22,4.5,4.5,0,0,1,1.17.6s0-.19,0-.51,0-.73,0-1.22,0-1,0-1.58,0-1.08,0-1.57V11.25a1,1,0,0,1,.31-.68,1.06,1.06,0,0,1,.62-.31,1,1,0,0,1,.66.17,1,1,0,0,1,.4.74l0,14.45a.74.74,0,0,1-.29.67,1,1,0,0,1-.65.17,1.34,1.34,0,0,1-.65-.22.57.57,0,0,1-.29-.5Zm-5.2-3.7a2.59,2.59,0,0,0,.2,1,2.78,2.78,0,0,0,1.38,1.44,2.39,2.39,0,0,0,2,0,2.78,2.78,0,0,0,1.38-1.44,2.64,2.64,0,0,0-.56-2.88,2.91,2.91,0,0,0-.82-.57,2.39,2.39,0,0,0-2,0,2.9,2.9,0,0,0-.82.57,2.64,2.64,0,0,0-.76,1.86Z" fill="#19487d"/>
        </g>
        <g>
          <path d="M47.92,24.54a.9.9,0,0,1-.46.41,1.42,1.42,0,0,1-.61.11,1.18,1.18,0,0,1-.55-.15.44.44,0,0,1-.24-.4l.05-13.3a2.22,2.22,0,0,1,.54-1.55A1.89,1.89,0,0,1,48.05,9h1a10.93,10.93,0,0,1,1.43.1,9.74,9.74,0,0,1,1.55.34,4.7,4.7,0,0,1,1.43.71,3.82,3.82,0,0,1,1.06,1.22A4,4,0,0,1,55,13.3a3.73,3.73,0,0,1-.19,1.18,4.51,4.51,0,0,1-.51,1.06,4.32,4.32,0,0,1-.75.87,5.1,5.1,0,0,1-.89.64l2.65,7.08a.49.49,0,0,1-.19.57,1.57,1.57,0,0,1-.69.28,1.93,1.93,0,0,1-.76,0q-.37-.09-.4-.32l-2.65-7.24a5.36,5.36,0,0,1-1.58.17,7.76,7.76,0,0,1-1.12-.11Zm5.25-11.29a1.61,1.61,0,0,0-.4-1,3.16,3.16,0,0,0-1.08-.84A5.21,5.21,0,0,0,50,10.93a6.93,6.93,0,0,0-2.11.08v4.61a12.9,12.9,0,0,0,1.59.06,6.72,6.72,0,0,0,1.72-.24,3.29,3.29,0,0,0,1.38-.75A1.87,1.87,0,0,0,53.17,13.25Z" fill="#fcf9d9"/>
          <path d="M64.79,22.15a.83.83,0,0,1,.64-.28,1.28,1.28,0,0,1,.69.19,1,1,0,0,1,.42.51.69.69,0,0,1-.17.67,4.78,4.78,0,0,1-1.62,1.34,4.86,4.86,0,0,1-1.83.51,4.75,4.75,0,0,1-1.82-.23,4.54,4.54,0,0,1-1.59-.9,4.49,4.49,0,0,1-1.12-1.52,4.74,4.74,0,0,1-.42-2,4.57,4.57,0,0,1,1.3-3.2,4.68,4.68,0,0,1,1.43-1,4.47,4.47,0,0,1,1.73-.4,4.52,4.52,0,0,1,1.52.2,4.27,4.27,0,0,1,1.3.66,3.74,3.74,0,0,1,1,1.07,4,4,0,0,1,.51,1.43,1.72,1.72,0,0,1-.27,1.36,2.23,2.23,0,0,1-1.75.5l-4.82,0a2.83,2.83,0,0,0,.68,1.38,2.66,2.66,0,0,0,1.22.8,2.59,2.59,0,0,0,1.5,0A3.22,3.22,0,0,0,64.79,22.15Zm-2.4-4.41a2.48,2.48,0,0,0-1.32.42,2.76,2.76,0,0,0-.92,1l4.69.05a1.8,1.8,0,0,0-1-1.24,2.25,2.25,0,0,0-.71-.22A5.91,5.91,0,0,0,62.4,17.74Z" fill="#fcf9d9"/>
          <path d="M77,17.66a.64.64,0,0,1,0,.65,1.07,1.07,0,0,1-.51.43,1.12,1.12,0,0,1-.66.08.54.54,0,0,1-.43-.42,1.86,1.86,0,0,0-.83-.75,3.26,3.26,0,0,0-.9-.29,2,2,0,0,0-1.25.2,1.21,1.21,0,0,0-.69.71.94.94,0,0,0,.06.65,1,1,0,0,0,.42.4,2.91,2.91,0,0,0,.69.25c.27.07.56.13.87.18a13.07,13.07,0,0,1,1.3.32,3.8,3.8,0,0,1,1.12.54,2.28,2.28,0,0,1,1,2.25A2.11,2.11,0,0,1,76.68,24a2.9,2.9,0,0,1-1,.79,4.08,4.08,0,0,1-1.27.4,5.48,5.48,0,0,1-1.39,0,5.39,5.39,0,0,1-1.2-.29,4.57,4.57,0,0,1-1.08-.57,3.79,3.79,0,0,1-.87-.87,3.52,3.52,0,0,1-.55-1.17,1,1,0,0,1,.19-.76,1.25,1.25,0,0,1,.57-.42,1,1,0,0,1,.64,0,.57.57,0,0,1,.38.46A2,2,0,0,0,72,23.06a3.17,3.17,0,0,0,1.38.43,2.77,2.77,0,0,0,1.24-.17q.55-.22.6-.57a.83.83,0,0,0-.39-.94,4.29,4.29,0,0,0-1.26-.43l-1.25-.27a4.76,4.76,0,0,1-1.22-.43,2.45,2.45,0,0,1-.92-.83,2.53,2.53,0,0,1-.36-1.43,2.39,2.39,0,0,1,.32-1.25,2.94,2.94,0,0,1,.84-.9,3.32,3.32,0,0,1,1.2-.52,4.73,4.73,0,0,1,1.39-.1,5,5,0,0,1,1.9.56A3.83,3.83,0,0,1,77,17.66Z" fill="#fcf9d9"/>
          <path d="M86.35,22.15a.83.83,0,0,1,.64-.28,1.28,1.28,0,0,1,.69.19,1,1,0,0,1,.42.51.69.69,0,0,1-.17.67,4.78,4.78,0,0,1-1.62,1.34,4.86,4.86,0,0,1-1.83.51,4.75,4.75,0,0,1-1.82-.23,4.54,4.54,0,0,1-1.59-.9,4.49,4.49,0,0,1-1.12-1.52,4.74,4.74,0,0,1-.42-2,4.57,4.57,0,0,1,1.3-3.2,4.68,4.68,0,0,1,1.43-1,4.47,4.47,0,0,1,1.73-.4,4.52,4.52,0,0,1,1.52.2,4.27,4.27,0,0,1,1.3.66,3.74,3.74,0,0,1,1,1.07,4,4,0,0,1,.51,1.43A1.72,1.72,0,0,1,88,20.55a2.23,2.23,0,0,1-1.75.5l-4.82,0a2.83,2.83,0,0,0,.68,1.38,2.66,2.66,0,0,0,1.22.8,2.59,2.59,0,0,0,1.5,0A3.22,3.22,0,0,0,86.35,22.15ZM84,17.74a2.48,2.48,0,0,0-1.32.42,2.76,2.76,0,0,0-.92,1l4.69.05a1.8,1.8,0,0,0-1-1.24,2.25,2.25,0,0,0-.71-.22A5.91,5.91,0,0,0,84,17.74Z" fill="#fcf9d9"/>
          <path d="M97.16,24.36a26.18,26.18,0,0,0-.1-3.49,8.49,8.49,0,0,0-.42-2A1.73,1.73,0,0,0,96,18a1.29,1.29,0,0,0-.65-.2,2.31,2.31,0,0,0-1,.22A2.78,2.78,0,0,0,93,19.44a2.6,2.6,0,0,0-.2,1v3.62a1,1,0,0,1-.31.67,1.06,1.06,0,0,1-.62.31.94.94,0,0,1-1.06-.9l0-7.67a.74.74,0,0,1,.29-.67,1,1,0,0,1,.65-.17,1.36,1.36,0,0,1,.65.22.57.57,0,0,1,.29.5l0,.41A4.32,4.32,0,0,1,94,16.11a4.15,4.15,0,0,1,1.39-.23,3.1,3.1,0,0,1,2.06.63,3.75,3.75,0,0,1,1.11,1.73A10,10,0,0,1,99,20.88q.08,1.54.08,3.35a.75.75,0,0,1-.29.68,1,1,0,0,1-.65.17,1.34,1.34,0,0,1-.65-.22A.57.57,0,0,1,97.16,24.36Z" fill="#fcf9d9"/>
          <path d="M108.37,24.13a4.31,4.31,0,0,1-1.21.66,4.28,4.28,0,0,1-3.12-.14,4.57,4.57,0,0,1-1.43-1,4.66,4.66,0,0,1-1-1.48,4.66,4.66,0,0,1,0-3.52,4.51,4.51,0,0,1,1-1.47,4.7,4.7,0,0,1,1.43-1,4.15,4.15,0,0,1,1.73-.37,4.08,4.08,0,0,1,1.33.22,4.5,4.5,0,0,1,1.17.6s0-.19,0-.51,0-.73,0-1.22,0-1,0-1.58,0-1.08,0-1.57V10a1,1,0,0,1,.31-.68,1.06,1.06,0,0,1,.62-.31,1,1,0,0,1,.66.17,1,1,0,0,1,.4.74l0,14.45a.74.74,0,0,1-.29.67,1,1,0,0,1-.65.17,1.34,1.34,0,0,1-.65-.22.57.57,0,0,1-.29-.5Zm-5.2-3.7a2.59,2.59,0,0,0,.2,1,2.78,2.78,0,0,0,1.38,1.44,2.39,2.39,0,0,0,2,0,2.78,2.78,0,0,0,1.38-1.44,2.64,2.64,0,0,0-.56-2.88,2.91,2.91,0,0,0-.82-.57,2.39,2.39,0,0,0-2,0,2.9,2.9,0,0,0-.82.57,2.64,2.64,0,0,0-.76,1.86Z" fill="#fcf9d9"/>
        </g>
      </g>
      <g>
        <g>
          <path d="M204.49,31a.9.9,0,0,1-.46.41,1.42,1.42,0,0,1-.61.11,1.18,1.18,0,0,1-.55-.15.44.44,0,0,1-.24-.4l.05-13.3a2.22,2.22,0,0,1,.54-1.55,1.89,1.89,0,0,1,1.4-.61h1a10.93,10.93,0,0,1,1.43.1,9.74,9.74,0,0,1,1.55.34,4.7,4.7,0,0,1,1.43.71,3.82,3.82,0,0,1,1.06,1.22,4,4,0,0,1,.45,1.87,3.73,3.73,0,0,1-.19,1.18,4.51,4.51,0,0,1-.51,1.06,4.32,4.32,0,0,1-.75.87,5.1,5.1,0,0,1-.89.64l2.65,7.08a.49.49,0,0,1-.19.57,1.57,1.57,0,0,1-.69.28,1.93,1.93,0,0,1-.76,0q-.37-.09-.4-.32l-2.65-7.24a5.36,5.36,0,0,1-1.58.17,7.76,7.76,0,0,1-1.12-.11Zm5.25-11.29a1.61,1.61,0,0,0-.4-1,3.16,3.16,0,0,0-1.08-.84,5.21,5.21,0,0,0-1.66-.47,6.93,6.93,0,0,0-2.11.08V22a12.9,12.9,0,0,0,1.59.06,6.72,6.72,0,0,0,1.72-.24,3.29,3.29,0,0,0,1.38-.75A1.87,1.87,0,0,0,209.74,19.67Z" fill="#19487d"/>
          <path d="M221.36,28.56a.83.83,0,0,1,.64-.28,1.28,1.28,0,0,1,.69.19,1,1,0,0,1,.42.51.69.69,0,0,1-.17.67A4.78,4.78,0,0,1,221.32,31a4.86,4.86,0,0,1-1.83.51,4.75,4.75,0,0,1-1.82-.23,4.54,4.54,0,0,1-1.59-.9,4.49,4.49,0,0,1-1.12-1.52,4.74,4.74,0,0,1-.42-2,4.57,4.57,0,0,1,1.3-3.2,4.68,4.68,0,0,1,1.43-1,4.47,4.47,0,0,1,1.73-.4,4.52,4.52,0,0,1,1.52.2,4.27,4.27,0,0,1,1.3.66,3.74,3.74,0,0,1,1,1.07,4,4,0,0,1,.51,1.43A1.72,1.72,0,0,1,223,27a2.23,2.23,0,0,1-1.75.5l-4.82,0a2.83,2.83,0,0,0,.68,1.38,2.66,2.66,0,0,0,1.22.8,2.59,2.59,0,0,0,1.5,0A3.22,3.22,0,0,0,221.36,28.56ZM219,24.16a2.48,2.48,0,0,0-1.32.42,2.76,2.76,0,0,0-.92,1l4.69.05a1.8,1.8,0,0,0-1-1.24,2.25,2.25,0,0,0-.71-.22A5.91,5.91,0,0,0,219,24.16Z" fill="#19487d"/>
          <path d="M233.54,24.08a.64.64,0,0,1,0,.65,1.07,1.07,0,0,1-.51.43,1.12,1.12,0,0,1-.66.08.54.54,0,0,1-.43-.42,1.86,1.86,0,0,0-.83-.75,3.26,3.26,0,0,0-.9-.29A2,2,0,0,0,229,24a1.21,1.21,0,0,0-.69.71.94.94,0,0,0,.06.65,1,1,0,0,0,.42.4,2.91,2.91,0,0,0,.69.25c.27.07.56.13.87.18a13.07,13.07,0,0,1,1.3.32,3.8,3.8,0,0,1,1.12.54,2.28,2.28,0,0,1,1,2.25,2.11,2.11,0,0,1-.45,1.18,2.9,2.9,0,0,1-1,.79,4.08,4.08,0,0,1-1.27.4,5.48,5.48,0,0,1-1.39,0,5.39,5.39,0,0,1-1.2-.29,4.57,4.57,0,0,1-1.08-.57,3.79,3.79,0,0,1-.87-.87,3.52,3.52,0,0,1-.55-1.17,1,1,0,0,1,.19-.76,1.25,1.25,0,0,1,.57-.42,1,1,0,0,1,.64,0,.57.57,0,0,1,.38.46,2,2,0,0,0,.87,1.45,3.17,3.17,0,0,0,1.38.43,2.77,2.77,0,0,0,1.24-.17q.55-.22.6-.57a.83.83,0,0,0-.39-.94,4.29,4.29,0,0,0-1.26-.43l-1.25-.27a4.76,4.76,0,0,1-1.22-.43,2.45,2.45,0,0,1-.92-.83,2.53,2.53,0,0,1-.36-1.43,2.39,2.39,0,0,1,.32-1.25,2.94,2.94,0,0,1,.84-.9,3.32,3.32,0,0,1,1.2-.52,4.73,4.73,0,0,1,1.39-.1,5,5,0,0,1,1.9.56A3.83,3.83,0,0,1,233.54,24.08Z" fill="#19487d"/>
          <path d="M242.92,28.56a.83.83,0,0,1,.64-.28,1.28,1.28,0,0,1,.69.19,1,1,0,0,1,.42.51.69.69,0,0,1-.17.67A4.78,4.78,0,0,1,242.88,31a4.86,4.86,0,0,1-1.83.51,4.75,4.75,0,0,1-1.82-.23,4.54,4.54,0,0,1-1.59-.9,4.49,4.49,0,0,1-1.12-1.52,4.74,4.74,0,0,1-.42-2,4.57,4.57,0,0,1,1.3-3.2,4.68,4.68,0,0,1,1.43-1,4.47,4.47,0,0,1,1.73-.4,4.52,4.52,0,0,1,1.52.2,4.27,4.27,0,0,1,1.3.66,3.74,3.74,0,0,1,1,1.07,4,4,0,0,1,.51,1.43,1.72,1.72,0,0,1-.27,1.36,2.23,2.23,0,0,1-1.75.5l-4.82,0a2.83,2.83,0,0,0,.68,1.38,2.66,2.66,0,0,0,1.22.8,2.59,2.59,0,0,0,1.5,0A3.22,3.22,0,0,0,242.92,28.56Zm-2.4-4.41a2.48,2.48,0,0,0-1.32.42,2.76,2.76,0,0,0-.92,1l4.69.05a1.8,1.8,0,0,0-1-1.24,2.25,2.25,0,0,0-.71-.22A5.91,5.91,0,0,0,240.52,24.16Z" fill="#19487d"/>
          <path d="M253.72,30.78a26.18,26.18,0,0,0-.1-3.49,8.49,8.49,0,0,0-.42-2,1.73,1.73,0,0,0-.61-.89,1.29,1.29,0,0,0-.65-.2,2.31,2.31,0,0,0-1,.22,2.78,2.78,0,0,0-1.38,1.44,2.6,2.6,0,0,0-.2,1V30.5a1,1,0,0,1-.31.67,1.06,1.06,0,0,1-.62.31.94.94,0,0,1-1.06-.9l0-7.67a.74.74,0,0,1,.29-.67,1,1,0,0,1,.65-.17,1.36,1.36,0,0,1,.65.22.57.57,0,0,1,.29.5l0,.41a4.32,4.32,0,0,1,1.21-.66,4.15,4.15,0,0,1,1.39-.23,3.1,3.1,0,0,1,2.06.63,3.75,3.75,0,0,1,1.11,1.73,10,10,0,0,1,.45,2.65q.08,1.54.08,3.35a.75.75,0,0,1-.29.68,1,1,0,0,1-.65.17,1.34,1.34,0,0,1-.65-.22A.57.57,0,0,1,253.72,30.78Z" fill="#19487d"/>
          <path d="M264.93,30.55a4.31,4.31,0,0,1-1.21.66,4.28,4.28,0,0,1-3.12-.14,4.57,4.57,0,0,1-1.43-1,4.66,4.66,0,0,1-1-1.48,4.66,4.66,0,0,1,0-3.52,4.51,4.51,0,0,1,1-1.47,4.7,4.7,0,0,1,1.43-1,4.15,4.15,0,0,1,1.73-.37,4.08,4.08,0,0,1,1.33.22,4.5,4.5,0,0,1,1.17.6s0-.19,0-.51,0-.73,0-1.22,0-1,0-1.58,0-1.08,0-1.57V16.46a1,1,0,0,1,.31-.68,1.06,1.06,0,0,1,.62-.31,1,1,0,0,1,.66.17,1,1,0,0,1,.4.74l0,14.45a.74.74,0,0,1-.29.67,1,1,0,0,1-.65.17,1.34,1.34,0,0,1-.65-.22A.57.57,0,0,1,265,31Zm-5.2-3.7a2.59,2.59,0,0,0,.2,1,2.78,2.78,0,0,0,1.38,1.44,2.39,2.39,0,0,0,2,0,2.78,2.78,0,0,0,1.38-1.44,2.64,2.64,0,0,0-.56-2.88,2.91,2.91,0,0,0-.82-.57,2.39,2.39,0,0,0-2,0,2.9,2.9,0,0,0-.82.57,2.64,2.64,0,0,0-.76,1.86Z" fill="#19487d"/>
        </g>
        <g>
          <path d="M204.49,31a.9.9,0,0,1-.46.41,1.42,1.42,0,0,1-.61.11,1.18,1.18,0,0,1-.55-.15.44.44,0,0,1-.24-.4l.05-13.3a2.22,2.22,0,0,1,.54-1.55,1.89,1.89,0,0,1,1.4-.61h1a10.93,10.93,0,0,1,1.43.1,9.74,9.74,0,0,1,1.55.34,4.7,4.7,0,0,1,1.43.71,3.82,3.82,0,0,1,1.06,1.22,4,4,0,0,1,.45,1.87,3.73,3.73,0,0,1-.19,1.18,4.51,4.51,0,0,1-.51,1.06,4.32,4.32,0,0,1-.75.87,5.1,5.1,0,0,1-.89.64l2.65,7.08a.49.49,0,0,1-.19.57,1.57,1.57,0,0,1-.69.28,1.93,1.93,0,0,1-.76,0q-.37-.09-.4-.32l-2.65-7.24a5.36,5.36,0,0,1-1.58.17,7.76,7.76,0,0,1-1.12-.11Zm5.25-11.29a1.61,1.61,0,0,0-.4-1,3.16,3.16,0,0,0-1.08-.84,5.21,5.21,0,0,0-1.66-.47,6.93,6.93,0,0,0-2.11.08V22a12.9,12.9,0,0,0,1.59.06,6.72,6.72,0,0,0,1.72-.24,3.29,3.29,0,0,0,1.38-.75A1.87,1.87,0,0,0,209.74,19.67Z" fill="#fcf9d9"/>
          <path d="M221.36,28.56a.83.83,0,0,1,.64-.28,1.28,1.28,0,0,1,.69.19,1,1,0,0,1,.42.51.69.69,0,0,1-.17.67A4.78,4.78,0,0,1,221.32,31a4.86,4.86,0,0,1-1.83.51,4.75,4.75,0,0,1-1.82-.23,4.54,4.54,0,0,1-1.59-.9,4.49,4.49,0,0,1-1.12-1.52,4.74,4.74,0,0,1-.42-2,4.57,4.57,0,0,1,1.3-3.2,4.68,4.68,0,0,1,1.43-1,4.47,4.47,0,0,1,1.73-.4,4.52,4.52,0,0,1,1.52.2,4.27,4.27,0,0,1,1.3.66,3.74,3.74,0,0,1,1,1.07,4,4,0,0,1,.51,1.43A1.72,1.72,0,0,1,223,27a2.23,2.23,0,0,1-1.75.5l-4.82,0a2.83,2.83,0,0,0,.68,1.38,2.66,2.66,0,0,0,1.22.8,2.59,2.59,0,0,0,1.5,0A3.22,3.22,0,0,0,221.36,28.56ZM219,24.16a2.48,2.48,0,0,0-1.32.42,2.76,2.76,0,0,0-.92,1l4.69.05a1.8,1.8,0,0,0-1-1.24,2.25,2.25,0,0,0-.71-.22A5.91,5.91,0,0,0,219,24.16Z" fill="#fcf9d9"/>
          <path d="M233.54,24.08a.64.64,0,0,1,0,.65,1.07,1.07,0,0,1-.51.43,1.12,1.12,0,0,1-.66.08.54.54,0,0,1-.43-.42,1.86,1.86,0,0,0-.83-.75,3.26,3.26,0,0,0-.9-.29A2,2,0,0,0,229,24a1.21,1.21,0,0,0-.69.71.94.94,0,0,0,.06.65,1,1,0,0,0,.42.4,2.91,2.91,0,0,0,.69.25c.27.07.56.13.87.18a13.07,13.07,0,0,1,1.3.32,3.8,3.8,0,0,1,1.12.54,2.28,2.28,0,0,1,1,2.25,2.11,2.11,0,0,1-.45,1.18,2.9,2.9,0,0,1-1,.79,4.08,4.08,0,0,1-1.27.4,5.48,5.48,0,0,1-1.39,0,5.39,5.39,0,0,1-1.2-.29,4.57,4.57,0,0,1-1.08-.57,3.79,3.79,0,0,1-.87-.87,3.52,3.52,0,0,1-.55-1.17,1,1,0,0,1,.19-.76,1.25,1.25,0,0,1,.57-.42,1,1,0,0,1,.64,0,.57.57,0,0,1,.38.46,2,2,0,0,0,.87,1.45,3.17,3.17,0,0,0,1.38.43,2.77,2.77,0,0,0,1.24-.17q.55-.22.6-.57a.83.83,0,0,0-.39-.94,4.29,4.29,0,0,0-1.26-.43l-1.25-.27a4.76,4.76,0,0,1-1.22-.43,2.45,2.45,0,0,1-.92-.83,2.53,2.53,0,0,1-.36-1.43,2.39,2.39,0,0,1,.32-1.25,2.94,2.94,0,0,1,.84-.9,3.32,3.32,0,0,1,1.2-.52,4.73,4.73,0,0,1,1.39-.1,5,5,0,0,1,1.9.56A3.83,3.83,0,0,1,233.54,24.08Z" fill="#fcf9d9"/>
          <path d="M242.92,28.56a.83.83,0,0,1,.64-.28,1.28,1.28,0,0,1,.69.19,1,1,0,0,1,.42.51.69.69,0,0,1-.17.67A4.78,4.78,0,0,1,242.88,31a4.86,4.86,0,0,1-1.83.51,4.75,4.75,0,0,1-1.82-.23,4.54,4.54,0,0,1-1.59-.9,4.49,4.49,0,0,1-1.12-1.52,4.74,4.74,0,0,1-.42-2,4.57,4.57,0,0,1,1.3-3.2,4.68,4.68,0,0,1,1.43-1,4.47,4.47,0,0,1,1.73-.4,4.52,4.52,0,0,1,1.52.2,4.27,4.27,0,0,1,1.3.66,3.74,3.74,0,0,1,1,1.07,4,4,0,0,1,.51,1.43,1.72,1.72,0,0,1-.27,1.36,2.23,2.23,0,0,1-1.75.5l-4.82,0a2.83,2.83,0,0,0,.68,1.38,2.66,2.66,0,0,0,1.22.8,2.59,2.59,0,0,0,1.5,0A3.22,3.22,0,0,0,242.92,28.56Zm-2.4-4.41a2.48,2.48,0,0,0-1.32.42,2.76,2.76,0,0,0-.92,1l4.69.05a1.8,1.8,0,0,0-1-1.24,2.25,2.25,0,0,0-.71-.22A5.91,5.91,0,0,0,240.52,24.16Z" fill="#fcf9d9"/>
          <path d="M253.72,30.78a26.18,26.18,0,0,0-.1-3.49,8.49,8.49,0,0,0-.42-2,1.73,1.73,0,0,0-.61-.89,1.29,1.29,0,0,0-.65-.2,2.31,2.31,0,0,0-1,.22,2.78,2.78,0,0,0-1.38,1.44,2.6,2.6,0,0,0-.2,1V30.5a1,1,0,0,1-.31.67,1.06,1.06,0,0,1-.62.31.94.94,0,0,1-1.06-.9l0-7.67a.74.74,0,0,1,.29-.67,1,1,0,0,1,.65-.17,1.36,1.36,0,0,1,.65.22.57.57,0,0,1,.29.5l0,.41a4.32,4.32,0,0,1,1.21-.66,4.15,4.15,0,0,1,1.39-.23,3.1,3.1,0,0,1,2.06.63,3.75,3.75,0,0,1,1.11,1.73,10,10,0,0,1,.45,2.65q.08,1.54.08,3.35a.75.75,0,0,1-.29.68,1,1,0,0,1-.65.17,1.34,1.34,0,0,1-.65-.22A.57.57,0,0,1,253.72,30.78Z" fill="#fcf9d9"/>
          <path d="M264.93,30.55a4.31,4.31,0,0,1-1.21.66,4.28,4.28,0,0,1-3.12-.14,4.57,4.57,0,0,1-1.43-1,4.66,4.66,0,0,1-1-1.48,4.66,4.66,0,0,1,0-3.52,4.51,4.51,0,0,1,1-1.47,4.7,4.7,0,0,1,1.43-1,4.15,4.15,0,0,1,1.73-.37,4.08,4.08,0,0,1,1.33.22,4.5,4.5,0,0,1,1.17.6s0-.19,0-.51,0-.73,0-1.22,0-1,0-1.58,0-1.08,0-1.57V16.46a1,1,0,0,1,.31-.68,1.06,1.06,0,0,1,.62-.31,1,1,0,0,1,.66.17,1,1,0,0,1,.4.74l0,14.45a.74.74,0,0,1-.29.67,1,1,0,0,1-.65.17,1.34,1.34,0,0,1-.65-.22A.57.57,0,0,1,265,31Zm-5.2-3.7a2.59,2.59,0,0,0,.2,1,2.78,2.78,0,0,0,1.38,1.44,2.39,2.39,0,0,0,2,0,2.78,2.78,0,0,0,1.38-1.44,2.64,2.64,0,0,0-.56-2.88,2.91,2.91,0,0,0-.82-.57,2.39,2.39,0,0,0-2,0,2.9,2.9,0,0,0-.82.57,2.64,2.64,0,0,0-.76,1.86Z" fill="#fcf9d9"/>
        </g>
      </g>
    </g>
  </g>
</svg>
