<svg xmlns="http://www.w3.org/2000/svg" width="176" height="90" viewBox="0 0 176 90"><defs><style>.cls-1{fill:#f7f8fa;}.cls-2,.cls-6{fill:#156735;}.cls-3{fill:#49b349;}.cls-4{fill:#7dc243;}.cls-5{fill:#b1d681;}.cls-6,.cls-7{fill-rule:evenodd;}.cls-7{fill:#fff;stroke:#b1d681;stroke-miterlimit:10;stroke-width:1.04px;}</style></defs><title>Asset 28</title><g id="Layer_2" data-name="Layer 2"><g id="Layer_1-2" data-name="Layer 1"><ellipse class="cls-1" cx="44" cy="45" rx="44" ry="45"/><ellipse class="cls-2" cx="44.15" cy="41.9" rx="38.74" ry="41.37"/><ellipse class="cls-3" cx="44.15" cy="40.96" rx="37.47" ry="40.01"/><ellipse class="cls-4" cx="44" cy="36.37" rx="33.29" ry="33.1"/><path class="cls-5" d="M44,5.45A33.24,33.24,0,0,1,77.24,37.59c0-.37.06-.72.06-1.09a33.29,33.29,0,0,0-66.58,0c0,.37,0,.73.06,1.09A33.24,33.24,0,0,1,44,5.45Z"/><path class="cls-2" d="M44,67.29A33.24,33.24,0,0,1,10.76,35.15c0,.37-.06.72-.06,1.09a33.29,33.29,0,0,0,66.58,0c0-.37,0-.73-.06-1.09A33.24,33.24,0,0,1,44,67.29Z"/><path class="cls-6" d="M57.46,24.78c1.17-1,3.44-.43,4.35.82a3,3,0,0,1-.46,4L38.79,52.16a2.54,2.54,0,0,1-2.14.55,2.6,2.6,0,0,1-1.45-.78l-8.85-9.66a3,3,0,0,1,.13-4.07,2.72,2.72,0,0,1,3.91,0c2.83,3.11,2.74,3,5.85,6.11a1.91,1.91,0,0,0,2.56,0Z"/><path class="cls-7" d="M57.46,20.49c1.17-1,3.44-.43,4.35.82a3,3,0,0,1-.46,4L38.79,47.86a2.54,2.54,0,0,1-2.14.55,2.6,2.6,0,0,1-1.45-.78L26.34,38a3,3,0,0,1,.13-4.07,2.72,2.72,0,0,1,3.91,0c2.83,3.11,2.74,3,5.85,6.11a1.91,1.91,0,0,0,2.56,0Z"/><ellipse class="cls-1" cx="132" cy="45" rx="44" ry="45"/><ellipse class="cls-2" cx="132.15" cy="41.9" rx="38.74" ry="41.37"/><ellipse class="cls-3" cx="132.15" cy="40.96" rx="37.47" ry="40.01"/><ellipse class="cls-4" cx="132" cy="39.56" rx="35.85" ry="37.44"/><path class="cls-5" d="M132,4.6c19.4,0,35.17,16.17,35.79,36.35,0-.41.06-.82.06-1.24C167.85,19,151.8,2.13,132,2.13S96.15,19,96.15,39.71c0,.42,0,.82.06,1.24C96.83,20.77,112.6,4.6,132,4.6Z"/><path class="cls-2" d="M132,74.53c-19.4,0-35.17-16.17-35.79-36.35,0,.41-.06.82-.06,1.24C96.15,60.17,112.2,77,132,77s35.85-16.83,35.85-37.58c0-.42,0-.82-.06-1.24C167.17,58.36,151.4,74.53,132,74.53Z"/><path class="cls-6" d="M145.46,25.78c1.17-1,3.44-.43,4.35.82a3,3,0,0,1-.46,4L126.79,53.16a2.54,2.54,0,0,1-2.14.55,2.6,2.6,0,0,1-1.45-.78l-8.85-9.66a3,3,0,0,1,.13-4.07,2.72,2.72,0,0,1,3.91,0c2.83,3.11,2.74,3,5.85,6.11a1.91,1.91,0,0,0,2.56,0Z"/><path class="cls-7" d="M145.46,24.49c1.17-1,3.44-.43,4.35.82a3,3,0,0,1-.46,4L126.79,51.86a2.54,2.54,0,0,1-2.14.55,2.6,2.6,0,0,1-1.45-.78L114.34,42a3,3,0,0,1,.13-4.07,2.72,2.72,0,0,1,3.91,0c2.83,3.11,2.74,3,5.85,6.11a1.91,1.91,0,0,0,2.56,0Z"/></g></g></svg>