<svg xmlns="http://www.w3.org/2000/svg" width="118.66" height="38.09" viewBox="0 0 118.66 38.09">
  <title>resend_1</title>
  <g id="Layer_2" data-name="Layer 2">
    <g id="Layer_1-2" data-name="Layer 1">
      <g>
        <rect x="0.32" width="118.34" height="33.28" rx="14.53" ry="14.53" fill="#fff"/>
        <rect x="2.13" y="0.46" width="114.35" height="30.59" rx="12.62" ry="12.62" fill="#3f3f3f"/>
        <rect x="1.8" y="0.74" width="114.64" height="29.59" rx="12.62" ry="12.62" fill="#5e5e5e"/>
        <rect x="2.69" y="0.46" width="113.24" height="26.51" rx="11.54" ry="11.54" fill="#8c8c8c"/>
        <path d="M101.94,33.08H16.68A16.72,16.72,0,0,1,0,17.25c0,.28,0,.56,0,.85H0A16.73,16.73,0,0,0,16.68,34.78h85.26A16.73,16.73,0,0,0,118.62,18.1h0c0-.29,0-.57,0-.85A16.72,16.72,0,0,1,101.94,33.08Z" fill="#888" fill-rule="evenodd"/>
        <path d="M101.94,34.69H16.68a16.74,16.74,0,0,1-16.59-15A16.68,16.68,0,0,0,0,21.41H0A16.73,16.73,0,0,0,16.68,38.09h85.26a16.73,16.73,0,0,0,16.68-16.68h0a16.68,16.68,0,0,0-.09-1.7A16.74,16.74,0,0,1,101.94,34.69Z" fill="#313131" fill-rule="evenodd"/>
        <path d="M101.43,26.81H17.18c-7.69,0-14-5.55-14.45-12.48,0,.26,0,.51,0,.78,0,7.29,6.52,13.26,14.5,13.26h84.25c8,0,14.5-6,14.5-13.26,0-.26,0-.52,0-.78C115.44,21.26,109.12,26.81,101.43,26.81Z" fill="#3f3f3f" fill-rule="evenodd"/>
        <path d="M101.43.46H17.18c-10.62,0-14.5,6-14.5,13.26h0c0,.39,0,.78.06,1.16C3.41,8.13,9.64,2.79,17.18,2.79h84.25c7.54,0,13.78,5.34,14.43,12.09,0-.38.06-.77.06-1.16h0C115.93,6.42,112.05.46,101.43.46Z" fill="#c7c7c7" fill-rule="evenodd"/>
        <g>
          <g>
            <path d="M37.16,19.22a.66.66,0,0,1-.34.3,1,1,0,0,1-.45.08.87.87,0,0,1-.4-.11.32.32,0,0,1-.18-.29l0-9.77a1.63,1.63,0,0,1,.39-1.14,1.38,1.38,0,0,1,1-.45H38a8,8,0,0,1,1,.07,7.14,7.14,0,0,1,1.14.25,3.46,3.46,0,0,1,1,.52,2.8,2.8,0,0,1,.78.9A2.93,2.93,0,0,1,42.37,11a2.74,2.74,0,0,1-.14.87,3.31,3.31,0,0,1-.37.78,3.18,3.18,0,0,1-.55.64,3.81,3.81,0,0,1-.66.47l1.95,5.21a.36.36,0,0,1-.14.42,1.14,1.14,0,0,1-.51.21,1.41,1.41,0,0,1-.56,0c-.18,0-.28-.12-.29-.23L39.15,14A3.94,3.94,0,0,1,38,14.1a5.74,5.74,0,0,1-.82-.08ZM41,10.92a1.18,1.18,0,0,0-.29-.74,2.33,2.33,0,0,0-.8-.62,3.85,3.85,0,0,0-1.22-.35,5.13,5.13,0,0,0-1.55.06v3.39a9.48,9.48,0,0,0,1.17,0,4.89,4.89,0,0,0,1.26-.18,2.41,2.41,0,0,0,1-.55A1.37,1.37,0,0,0,41,10.92Z" fill="#3f3f3f"/>
            <path d="M49.56,17.46a.61.61,0,0,1,.47-.21.93.93,0,0,1,.5.14.72.72,0,0,1,.31.38.51.51,0,0,1-.12.5,3.51,3.51,0,0,1-1.19,1,3.58,3.58,0,0,1-1.35.38,3.48,3.48,0,0,1-1.34-.17,3.36,3.36,0,0,1-1.17-.66,3.3,3.3,0,0,1-.82-1.11,3.49,3.49,0,0,1-.31-1.49,3.3,3.3,0,0,1,.25-1.28,3.34,3.34,0,0,1,.7-1.07,3.44,3.44,0,0,1,1-.73,3.27,3.27,0,0,1,1.27-.29,3.31,3.31,0,0,1,1.11.15,3.15,3.15,0,0,1,1,.49,2.76,2.76,0,0,1,.7.79,2.93,2.93,0,0,1,.37,1,1.26,1.26,0,0,1-.2,1,1.63,1.63,0,0,1-1.28.37l-3.54,0a2.09,2.09,0,0,0,.5,1,2,2,0,0,0,.9.59,1.9,1.9,0,0,0,1.1,0A2.37,2.37,0,0,0,49.56,17.46ZM47.8,14.22a1.82,1.82,0,0,0-1,.31,2,2,0,0,0-.67.76l3.45,0a1.41,1.41,0,0,0-.28-.57,1.4,1.4,0,0,0-.43-.34,1.66,1.66,0,0,0-.52-.16A4.17,4.17,0,0,0,47.8,14.22Z" fill="#3f3f3f"/>
            <path d="M58.5,14.16a.47.47,0,0,1,0,.48.79.79,0,0,1-.37.32.83.83,0,0,1-.49.06.39.39,0,0,1-.32-.31,1.37,1.37,0,0,0-.61-.55,2.41,2.41,0,0,0-.67-.21,1.46,1.46,0,0,0-.92.15.89.89,0,0,0-.51.52.69.69,0,0,0,0,.48.76.76,0,0,0,.31.29,2.12,2.12,0,0,0,.5.19l.64.13a9.73,9.73,0,0,1,1,.23,2.81,2.81,0,0,1,.82.39A1.67,1.67,0,0,1,58.62,18a1.55,1.55,0,0,1-.33.87,2.14,2.14,0,0,1-.71.58,3,3,0,0,1-.94.29,3.75,3.75,0,0,1-1.9-.2,3.37,3.37,0,0,1-.8-.42,2.79,2.79,0,0,1-.64-.64,2.61,2.61,0,0,1-.4-.86A.74.74,0,0,1,53,17a.91.91,0,0,1,.42-.31.71.71,0,0,1,.47,0,.42.42,0,0,1,.28.34,1.47,1.47,0,0,0,.64,1.07,2.36,2.36,0,0,0,1,.32,2,2,0,0,0,.91-.12c.27-.11.41-.25.44-.42a.61.61,0,0,0-.29-.69A3.18,3.18,0,0,0,56,16.9l-.92-.2a3.48,3.48,0,0,1-.9-.32,1.81,1.81,0,0,1-.67-.61,1.86,1.86,0,0,1-.26-1,1.75,1.75,0,0,1,.23-.92,2.16,2.16,0,0,1,.62-.67,2.45,2.45,0,0,1,.88-.38,3.48,3.48,0,0,1,1-.08,3.63,3.63,0,0,1,1.39.41A2.81,2.81,0,0,1,58.5,14.16Z" fill="#3f3f3f"/>
            <path d="M65.4,17.46a.61.61,0,0,1,.47-.21.93.93,0,0,1,.5.14.72.72,0,0,1,.31.38.51.51,0,0,1-.12.5,3.51,3.51,0,0,1-1.19,1,3.58,3.58,0,0,1-1.35.38,3.48,3.48,0,0,1-1.34-.17,3.36,3.36,0,0,1-1.17-.66,3.3,3.3,0,0,1-.82-1.11,3.49,3.49,0,0,1-.31-1.49,3.3,3.3,0,0,1,.25-1.28,3.34,3.34,0,0,1,.7-1.07,3.44,3.44,0,0,1,1-.73,3.27,3.27,0,0,1,1.27-.29,3.31,3.31,0,0,1,1.11.15,3.15,3.15,0,0,1,1,.49,2.76,2.76,0,0,1,.7.79,2.93,2.93,0,0,1,.37,1,1.26,1.26,0,0,1-.2,1,1.63,1.63,0,0,1-1.28.37l-3.54,0a2.09,2.09,0,0,0,.5,1,2,2,0,0,0,.9.59,1.9,1.9,0,0,0,1.1,0A2.37,2.37,0,0,0,65.4,17.46Zm-1.76-3.24a1.82,1.82,0,0,0-1,.31,2,2,0,0,0-.67.76l3.45,0a1.41,1.41,0,0,0-.28-.57,1.4,1.4,0,0,0-.43-.34,1.66,1.66,0,0,0-.52-.16A4.17,4.17,0,0,0,63.64,14.22Z" fill="#3f3f3f"/>
            <path d="M73.33,19.09a19.23,19.23,0,0,0-.08-2.56A6.28,6.28,0,0,0,73,15.06a1.28,1.28,0,0,0-.45-.66.94.94,0,0,0-.48-.15,1.68,1.68,0,0,0-.73.16,2,2,0,0,0-1,1.06,1.92,1.92,0,0,0-.15.75v2.66a.72.72,0,0,1-.22.5.79.79,0,0,1-.46.22.73.73,0,0,1-.49-.12.72.72,0,0,1-.29-.54l0-5.64a.55.55,0,0,1,.21-.5.76.76,0,0,1,.48-.12,1,1,0,0,1,.48.16.42.42,0,0,1,.22.37l0,.3A3.19,3.19,0,0,1,71,13a3,3,0,0,1,1-.17,2.28,2.28,0,0,1,1.52.46,2.75,2.75,0,0,1,.81,1.27,7.31,7.31,0,0,1,.33,1.95q.06,1.13.06,2.46a.55.55,0,0,1-.21.5.76.76,0,0,1-.48.12,1,1,0,0,1-.48-.16A.42.42,0,0,1,73.33,19.09Z" fill="#3f3f3f"/>
            <path d="M81.57,18.92a3.19,3.19,0,0,1-.89.49,3.14,3.14,0,0,1-2.29-.1,3.35,3.35,0,0,1-1-.74,3.42,3.42,0,0,1-.7-1.09,3.43,3.43,0,0,1,0-2.58,3.31,3.31,0,0,1,.7-1.08,3.42,3.42,0,0,1,1-.73,3,3,0,0,1,1.27-.27,3,3,0,0,1,1,.16,3.27,3.27,0,0,1,.86.44s0-.14,0-.37,0-.54,0-.9,0-.75,0-1.16,0-.8,0-1.15V8.56a.73.73,0,0,1,.22-.5.78.78,0,0,1,.46-.22.74.74,0,0,1,.49.12.73.73,0,0,1,.29.54l0,10.62a.55.55,0,0,1-.22.5.75.75,0,0,1-.48.12,1,1,0,0,1-.48-.16.42.42,0,0,1-.21-.36ZM77.75,16.2a1.9,1.9,0,0,0,.15.75,2,2,0,0,0,1,1.06,1.76,1.76,0,0,0,1.46,0,2,2,0,0,0,1-1.06A1.94,1.94,0,0,0,81,14.84a2.13,2.13,0,0,0-.6-.42,1.76,1.76,0,0,0-1.46,0,2.11,2.11,0,0,0-.6.42,1.94,1.94,0,0,0-.56,1.37Z" fill="#3f3f3f"/>
          </g>
          <g>
            <path d="M37.16,18.33a.66.66,0,0,1-.34.3,1,1,0,0,1-.45.08.87.87,0,0,1-.4-.11.32.32,0,0,1-.18-.29l0-9.77a1.63,1.63,0,0,1,.39-1.14,1.38,1.38,0,0,1,1-.45H38a8,8,0,0,1,1,.07,7.14,7.14,0,0,1,1.14.25,3.46,3.46,0,0,1,1,.52,2.8,2.8,0,0,1,.78.9,2.93,2.93,0,0,1,.33,1.38,2.74,2.74,0,0,1-.14.87,3.31,3.31,0,0,1-.37.78,3.18,3.18,0,0,1-.55.64,3.81,3.81,0,0,1-.66.47L42.59,18a.36.36,0,0,1-.14.42,1.14,1.14,0,0,1-.51.21,1.41,1.41,0,0,1-.56,0c-.18,0-.28-.12-.29-.23l-1.95-5.32a3.94,3.94,0,0,1-1.16.12,5.74,5.74,0,0,1-.82-.08ZM41,10a1.18,1.18,0,0,0-.29-.74,2.33,2.33,0,0,0-.8-.62,3.85,3.85,0,0,0-1.22-.35,5.13,5.13,0,0,0-1.55.06v3.39a9.48,9.48,0,0,0,1.17,0,4.89,4.89,0,0,0,1.26-.18,2.41,2.41,0,0,0,1-.55A1.37,1.37,0,0,0,41,10Z" fill="#f9f9f9"/>
            <path d="M49.56,16.57a.61.61,0,0,1,.47-.21.93.93,0,0,1,.5.14.72.72,0,0,1,.31.38.51.51,0,0,1-.12.5,3.51,3.51,0,0,1-1.19,1,3.58,3.58,0,0,1-1.35.38,3.48,3.48,0,0,1-1.34-.17,3.36,3.36,0,0,1-1.17-.66,3.3,3.3,0,0,1-.82-1.11,3.49,3.49,0,0,1-.31-1.49A3.3,3.3,0,0,1,44.79,14a3.34,3.34,0,0,1,.7-1.07,3.44,3.44,0,0,1,1-.73,3.27,3.27,0,0,1,1.27-.29,3.31,3.31,0,0,1,1.11.15,3.15,3.15,0,0,1,1,.49,2.76,2.76,0,0,1,.7.79,2.93,2.93,0,0,1,.37,1,1.26,1.26,0,0,1-.2,1,1.63,1.63,0,0,1-1.28.37l-3.54,0a2.09,2.09,0,0,0,.5,1,2,2,0,0,0,.9.59,1.9,1.9,0,0,0,1.1,0A2.37,2.37,0,0,0,49.56,16.57ZM47.8,13.33a1.82,1.82,0,0,0-1,.31,2,2,0,0,0-.67.76l3.45,0a1.41,1.41,0,0,0-.28-.57,1.4,1.4,0,0,0-.43-.34,1.66,1.66,0,0,0-.52-.16A4.17,4.17,0,0,0,47.8,13.33Z" fill="#f9f9f9"/>
            <path d="M58.5,13.28a.47.47,0,0,1,0,.48.79.79,0,0,1-.37.32.83.83,0,0,1-.49.06.39.39,0,0,1-.32-.31,1.37,1.37,0,0,0-.61-.55,2.41,2.41,0,0,0-.67-.21,1.46,1.46,0,0,0-.92.15.89.89,0,0,0-.51.52.69.69,0,0,0,0,.48.76.76,0,0,0,.31.29,2.12,2.12,0,0,0,.5.19l.64.13a9.73,9.73,0,0,1,1,.23,2.81,2.81,0,0,1,.82.39,1.67,1.67,0,0,1,.71,1.66,1.55,1.55,0,0,1-.33.87,2.14,2.14,0,0,1-.71.58,3,3,0,0,1-.94.29,3.75,3.75,0,0,1-1.9-.2,3.37,3.37,0,0,1-.8-.42,2.79,2.79,0,0,1-.64-.64,2.61,2.61,0,0,1-.4-.86.74.74,0,0,1,.14-.56.91.91,0,0,1,.42-.31.71.71,0,0,1,.47,0,.42.42,0,0,1,.28.34,1.47,1.47,0,0,0,.64,1.07,2.36,2.36,0,0,0,1,.32,2,2,0,0,0,.91-.12c.27-.11.41-.25.44-.42a.61.61,0,0,0-.29-.69A3.18,3.18,0,0,0,56,16l-.92-.2a3.48,3.48,0,0,1-.9-.32,1.81,1.81,0,0,1-.67-.61,1.86,1.86,0,0,1-.26-1,1.75,1.75,0,0,1,.23-.92,2.16,2.16,0,0,1,.62-.67,2.45,2.45,0,0,1,.88-.38,3.48,3.48,0,0,1,1-.08,3.63,3.63,0,0,1,1.39.41A2.81,2.81,0,0,1,58.5,13.28Z" fill="#f9f9f9"/>
            <path d="M65.4,16.57a.61.61,0,0,1,.47-.21.93.93,0,0,1,.5.14.72.72,0,0,1,.31.38.51.51,0,0,1-.12.5,3.51,3.51,0,0,1-1.19,1,3.58,3.58,0,0,1-1.35.38,3.48,3.48,0,0,1-1.34-.17,3.36,3.36,0,0,1-1.17-.66,3.3,3.3,0,0,1-.82-1.11,3.49,3.49,0,0,1-.31-1.49A3.3,3.3,0,0,1,60.63,14a3.34,3.34,0,0,1,.7-1.07,3.44,3.44,0,0,1,1-.73,3.27,3.27,0,0,1,1.27-.29,3.31,3.31,0,0,1,1.11.15,3.15,3.15,0,0,1,1,.49,2.76,2.76,0,0,1,.7.79,2.93,2.93,0,0,1,.37,1,1.26,1.26,0,0,1-.2,1,1.63,1.63,0,0,1-1.28.37l-3.54,0a2.09,2.09,0,0,0,.5,1,2,2,0,0,0,.9.59,1.9,1.9,0,0,0,1.1,0A2.37,2.37,0,0,0,65.4,16.57Zm-1.76-3.24a1.82,1.82,0,0,0-1,.31,2,2,0,0,0-.67.76l3.45,0a1.41,1.41,0,0,0-.28-.57,1.4,1.4,0,0,0-.43-.34,1.66,1.66,0,0,0-.52-.16A4.17,4.17,0,0,0,63.64,13.33Z" fill="#f9f9f9"/>
            <path d="M73.33,18.2a19.23,19.23,0,0,0-.08-2.56A6.28,6.28,0,0,0,73,14.17a1.28,1.28,0,0,0-.45-.66.94.94,0,0,0-.48-.15,1.68,1.68,0,0,0-.73.16,2,2,0,0,0-1,1.06,1.92,1.92,0,0,0-.15.75V18a.72.72,0,0,1-.22.5.79.79,0,0,1-.46.22.73.73,0,0,1-.49-.12.72.72,0,0,1-.29-.54l0-5.64a.55.55,0,0,1,.21-.5.76.76,0,0,1,.48-.12,1,1,0,0,1,.48.16.42.42,0,0,1,.22.37l0,.3a3.19,3.19,0,0,1,.89-.49A3,3,0,0,1,72,12a2.28,2.28,0,0,1,1.52.46,2.75,2.75,0,0,1,.81,1.27,7.31,7.31,0,0,1,.33,1.95q.06,1.13.06,2.46a.55.55,0,0,1-.21.5.76.76,0,0,1-.48.12,1,1,0,0,1-.48-.16A.42.42,0,0,1,73.33,18.2Z" fill="#f9f9f9"/>
            <path d="M81.57,18a3.19,3.19,0,0,1-.89.49,3.14,3.14,0,0,1-2.29-.1,3.35,3.35,0,0,1-1-.74,3.42,3.42,0,0,1-.7-1.09,3.43,3.43,0,0,1,0-2.58,3.31,3.31,0,0,1,.7-1.08,3.42,3.42,0,0,1,1-.73,3,3,0,0,1,1.27-.27,3,3,0,0,1,1,.16,3.27,3.27,0,0,1,.86.44s0-.14,0-.37,0-.54,0-.9,0-.75,0-1.16,0-.8,0-1.15V7.68a.73.73,0,0,1,.22-.5A.78.78,0,0,1,82.22,7a.74.74,0,0,1,.49.12.73.73,0,0,1,.29.54l0,10.62a.55.55,0,0,1-.22.5.75.75,0,0,1-.48.12,1,1,0,0,1-.48-.16.42.42,0,0,1-.21-.36Zm-3.82-2.71a1.9,1.9,0,0,0,.15.75,2,2,0,0,0,1,1.06,1.76,1.76,0,0,0,1.46,0,2,2,0,0,0,1-1.06A1.94,1.94,0,0,0,81,13.95a2.13,2.13,0,0,0-.6-.42,1.76,1.76,0,0,0-1.46,0,2.11,2.11,0,0,0-.6.42,1.94,1.94,0,0,0-.56,1.37Z" fill="#f9f9f9"/>
          </g>
        </g>
      </g>
    </g>
  </g>
</svg>
