<svg xmlns="http://www.w3.org/2000/svg" width="174.07" height="55.87" viewBox="0 0 174.07 55.87"><defs><style>.cls-1{fill:#fcfcfc;}.cls-2,.cls-7{fill:#3f3f3f;}.cls-3,.cls-6{fill:#5e5e5e;}.cls-4{fill:#8c8c8c;}.cls-5{fill:#888;}.cls-5,.cls-6,.cls-7,.cls-8{fill-rule:evenodd;}.cls-8{fill:#c7c7c7;}.cls-9{fill:#f7f7f7;stroke:#848381;stroke-miterlimit:10;}</style></defs><title>Asset 20</title><g id="Layer_2" data-name="Layer 2"><g id="Layer_1-2" data-name="Layer 1"><rect class="cls-1" x="0.47" width="173.6" height="48.83" rx="21.31" ry="21.31"/><rect class="cls-2" x="3.13" y="0.67" width="167.74" height="44.87" rx="18.52" ry="18.52"/><rect class="cls-3" x="2.64" y="1.09" width="168.18" height="43.4" rx="18.52" ry="18.52"/><rect class="cls-4" x="3.95" y="0.67" width="166.11" height="38.89" rx="16.94" ry="16.94"/><path class="cls-5" d="M149.53,48.52H24.47A24.52,24.52,0,0,1,.06,25.3c0,.42-.06.83-.06,1.25H0A24.54,24.54,0,0,0,24.47,51H149.53A24.54,24.54,0,0,0,174,26.55h0c0-.42,0-.83-.06-1.25A24.52,24.52,0,0,1,149.53,48.52Z"/><path class="cls-6" d="M149.53,50.89H24.47a24.55,24.55,0,0,1-24.34-22A24.47,24.47,0,0,0,0,31.4H0A24.54,24.54,0,0,0,24.47,55.87H149.53A24.54,24.54,0,0,0,174,31.4h0a24.47,24.47,0,0,0-.13-2.49A24.55,24.55,0,0,1,149.53,50.89Z"/><path class="cls-7" d="M148.79,39.32H25.21C13.93,39.32,4.66,31.18,4,21c0,.38-.06.75-.06,1.14,0,10.7,9.57,19.45,21.26,19.45H148.79c11.69,0,21.26-8.75,21.26-19.45,0-.38,0-.76-.06-1.14C169.34,31.18,160.07,39.32,148.79,39.32Z"/><path class="cls-8" d="M148.79.67H25.21C9.62.67,3.95,9.42,3.95,20.12h0c0,.58,0,1.14.1,1.71,1-9.9,10.1-17.74,21.17-17.74H148.79c11.06,0,20.21,7.84,21.17,17.74.05-.56.1-1.13.1-1.71h0C170.06,9.42,164.37.67,148.79.67Z"/><path class="cls-2" d="M86.16,12c-.45.1-.7,3.45-.8,7.58l-16.93.12s-1.6-.06-1.6,0l-4.26-.22c-1.07-.15-2,1.22-2.13,3.13s.76,4.37,1.83,4.52l6-.14,17.08.31c.1,4.49.37,8.19.8,8.08,1.58.4,16.35-9.1,16.22-11.6C102.25,20.2,87.88,10.7,86.16,12Z"/><path class="cls-9" d="M86.16,8.86c-.45.1-.7,3.45-.8,7.58l-16.93.12s-1.6-.06-1.6,0l-4.26-.22c-1.07-.15-2,1.22-2.13,3.13S61.2,23.8,62.27,24l6-.14,17.08.31c.1,4.49.37,8.19.8,8.08,1.58.4,16.35-9.1,16.22-11.6C102.25,17,87.88,7.54,86.16,8.86Z"/></g></g></svg>