<svg xmlns="http://www.w3.org/2000/svg" width="176" height="90" viewBox="0 0 176 90"><defs><style>.cls-1{fill:#f7f8fa;}.cls-2{fill:#9f732a;}.cls-3{fill:#cd882a;}.cls-4{fill:#edb31f;}.cls-5{fill:#f9c758;}.cls-6{fill:#cc962b;}.cls-7{fill:#fff;stroke:#f9c758;stroke-miterlimit:10;stroke-width:1.72px;}</style></defs><title>play</title><g id="Layer_2" data-name="Layer 2"><g id="Layer_1-2" data-name="Layer 1"><ellipse class="cls-1" cx="44" cy="45" rx="44" ry="45"/><ellipse class="cls-2" cx="44.15" cy="41.9" rx="38.74" ry="41.37"/><ellipse class="cls-3" cx="44.15" cy="40.96" rx="37.47" ry="40.01"/><ellipse class="cls-4" cx="44" cy="36.37" rx="33.29" ry="33.1"/><path class="cls-5" d="M44,5.45A33.24,33.24,0,0,1,77.24,37.59c0-.37.06-.72.06-1.09a33.29,33.29,0,0,0-66.58,0c0,.37,0,.73.06,1.09A33.24,33.24,0,0,1,44,5.45Z"/><path class="cls-6" d="M44,67.29A33.24,33.24,0,0,1,10.76,35.15c0,.37-.06.72-.06,1.09a33.29,33.29,0,0,0,66.58,0c0-.37,0-.73-.06-1.09A33.24,33.24,0,0,1,44,67.29Z"/><ellipse class="cls-1" cx="132" cy="45" rx="44" ry="45"/><ellipse class="cls-2" cx="132.15" cy="41.9" rx="38.74" ry="41.37"/><ellipse class="cls-3" cx="132.15" cy="40.96" rx="37.47" ry="40.01"/><ellipse class="cls-4" cx="132" cy="39.56" rx="35.85" ry="37.44"/><path class="cls-5" d="M132,4.6c19.4,0,35.17,16.17,35.79,36.35,0-.41.06-.82.06-1.24C167.85,19,151.8,2.13,132,2.13S96.15,19,96.15,39.71c0,.42,0,.82.06,1.24C96.83,20.77,112.6,4.6,132,4.6Z"/><path class="cls-6" d="M132,74.53c-19.4,0-35.17-16.17-35.79-36.35,0,.41-.06.82-.06,1.24C96.15,60.17,112.2,77,132,77s35.85-16.83,35.85-37.58c0-.42,0-.82-.06-1.24C167.17,58.36,151.4,74.53,132,74.53Z"/><path class="cls-6" d="M34,57.79c-1.43.4-1.75-35.32,0-35.67C36.42,20.12,57,34.63,57.23,40,57.37,43.92,36.26,58.42,34,57.79Z"/><path class="cls-7" d="M34,50.79c-1.43.4-1.75-35.32,0-35.67C36.42,13.12,57,27.63,57.23,33,57.37,36.92,36.26,51.42,34,50.79Z"/><path class="cls-6" d="M122,63c-1.43.4-1.75-35.32,0-35.67,2.45-2,23.07,12.5,23.26,17.83C145.37,49.11,124.26,63.61,122,63Z"/><path class="cls-7" d="M122,61c-1.43.4-1.75-35.32,0-35.67,2.45-2,23.07,12.5,23.26,17.83C145.37,47.11,124.26,61.61,122,61Z"/></g></g></svg>