<svg xmlns="http://www.w3.org/2000/svg" width="350" height="56" viewBox="0 0 350 56"><defs><style>.cls-1{fill:#fdfefd;}.cls-2{fill:#9f732a;}.cls-3{fill:#cd882a;}.cls-4{fill:#edb31f;}.cls-5{fill:#f9c758;}.cls-5,.cls-6,.cls-7,.cls-8{fill-rule:evenodd;}.cls-6,.cls-9{fill:#cc962b;}.cls-7{fill:#5e5f5f;}.cls-8{fill:#888;}.cls-10,.cls-11{fill:#fff;stroke:#f9c758;stroke-miterlimit:10;}.cls-10{stroke-width:0.28px;}.cls-11{stroke-width:0.27px;}</style></defs><title>continue_button</title><g id="Layer_2" data-name="Layer 2"><g id="Layer_1-2" data-name="Layer 1"><rect class="cls-1" width="175" height="49.53" rx="24.69" ry="24.69"/><rect class="cls-2" x="2.68" y="1.44" width="169.1" height="45.52" rx="22.69" ry="22.69"/><rect class="cls-3" x="2.19" y="1.1" width="169.53" height="44.03" rx="21.94" ry="21.94"/><rect class="cls-4" x="3.54" y="0.68" width="167.45" height="39.46" rx="19.67" ry="19.67"/><path class="cls-5" d="M151.35.68H23.1A19.72,19.72,0,0,0,3.5,20.41h0c0,.38,0,.76,0,1.14A19.72,19.72,0,0,1,23.1,3H151.35a19.72,19.72,0,0,1,19.57,18.59c0-.38,0-.76,0-1.14h0A19.72,19.72,0,0,0,151.35.68Z"/><path class="cls-6" d="M151.35,37.85H23.1A19.72,19.72,0,0,1,3.54,19.27c0,.38,0,.76,0,1.14h0A19.72,19.72,0,0,0,23.1,40.13H151.35A19.72,19.72,0,0,0,171,20.41h0c0-.38,0-.76,0-1.14A19.72,19.72,0,0,1,151.35,37.85Z"/><path class="cls-7" d="M150.39,51.05H24.61A24.67,24.67,0,0,1,.12,28.76C0,29.57,0,30.4,0,31.23H0A24.69,24.69,0,0,0,24.61,56H150.39A24.69,24.69,0,0,0,175,31.23h0c0-.83,0-1.66-.12-2.47A24.67,24.67,0,0,1,150.39,51.05Z"/><path class="cls-8" d="M150.39,49.53H24.61A24.68,24.68,0,0,1,0,25.91c0,.38,0,.76,0,1.14H0A24.69,24.69,0,0,0,24.61,51.82H150.39A24.69,24.69,0,0,0,175,27h0c0-.38,0-.76,0-1.14A24.68,24.68,0,0,1,150.39,49.53Z"/><path class="cls-9" d="M64,24.73q.14-.44.42-.5a.62.62,0,0,1,.52.12,1.12,1.12,0,0,1,.37.56,1.15,1.15,0,0,1,0,.81,7,7,0,0,1-1.52,2.62,2.9,2.9,0,0,1-2.12,1A2.7,2.7,0,0,1,60,28.75a5.2,5.2,0,0,1-1.36-1.59,8.89,8.89,0,0,1-.91-2.36,12.4,12.4,0,0,1-.33-2.93,12.76,12.76,0,0,1,.33-2.95,9.64,9.64,0,0,1,.91-2.45A5.33,5.33,0,0,1,60,14.81a2.63,2.63,0,0,1,1.65-.61,3.22,3.22,0,0,1,2.17.82,5.52,5.52,0,0,1,1.49,2.67.63.63,0,0,1,0,.59,1,1,0,0,1-.42.46.79.79,0,0,1-.57.1q-.3-.06-.47-.5a3.55,3.55,0,0,0-.95-1.7,2,2,0,0,0-1.3-.46,1.54,1.54,0,0,0-1.09.48A4.28,4.28,0,0,0,59.6,18,8.34,8.34,0,0,0,59,19.84,10.9,10.9,0,0,0,58.8,22a9.45,9.45,0,0,0,.22,2.1,6.83,6.83,0,0,0,.61,1.71,3.61,3.61,0,0,0,.9,1.14,1.72,1.72,0,0,0,1.09.41A1.81,1.81,0,0,0,63,26.63,5.2,5.2,0,0,0,64,24.73Z"/><path class="cls-9" d="M67.3,25a5.35,5.35,0,0,1,.26-1.67,4.52,4.52,0,0,1,.73-1.39A3.66,3.66,0,0,1,69.38,21,2.65,2.65,0,0,1,72,21a3.66,3.66,0,0,1,1.09.95,4.52,4.52,0,0,1,.73,1.39,5.48,5.48,0,0,1,0,3.35,4.67,4.67,0,0,1-.73,1.41A3.61,3.61,0,0,1,72,29a2.65,2.65,0,0,1-2.64,0,3.6,3.6,0,0,1-1.09-1,4.67,4.67,0,0,1-.73-1.41A5.35,5.35,0,0,1,67.3,25Zm1.41,0a3,3,0,0,0,.16,1,2.74,2.74,0,0,0,.43.81,2.19,2.19,0,0,0,.62.56,1.49,1.49,0,0,0,1.51,0,2.2,2.2,0,0,0,.62-.56,2.77,2.77,0,0,0,.43-.81,3.11,3.11,0,0,0,0-1.94,2.61,2.61,0,0,0-.43-.8,2.26,2.26,0,0,0-.62-.55,1.49,1.49,0,0,0-1.51,0,2.26,2.26,0,0,0-.62.55,2.59,2.59,0,0,0-.43.8A3,3,0,0,0,68.72,25Z"/><path class="cls-9" d="M80.81,28.75a31.13,31.13,0,0,0-.08-3.32,9.86,9.86,0,0,0-.32-1.89,1.69,1.69,0,0,0-.47-.85.84.84,0,0,0-.49-.19,1.46,1.46,0,0,0-.76.21,2.19,2.19,0,0,0-.62.56,2.74,2.74,0,0,0-.43.81,3,3,0,0,0-.16,1v3.44a1.06,1.06,0,0,1-.23.64.76.76,0,0,1-.47.29.65.65,0,0,1-.5-.16,1,1,0,0,1-.3-.7l0-7.3a.79.79,0,0,1,.22-.64.66.66,0,0,1,.49-.16.89.89,0,0,1,.49.21.58.58,0,0,1,.22.47l0,.39a3.15,3.15,0,0,1,.92-.63,2.58,2.58,0,0,1,1.06-.22,2.06,2.06,0,0,1,1.57.59,3.77,3.77,0,0,1,.84,1.65,11.72,11.72,0,0,1,.34,2.52q.06,1.47.06,3.19a.79.79,0,0,1-.22.64.67.67,0,0,1-.49.16.9.9,0,0,1-.49-.21A.58.58,0,0,1,80.81,28.75Z"/><path class="cls-9" d="M85.25,20l0-3.83a.75.75,0,0,1,.33-.59.86.86,0,0,1,.55-.12.83.83,0,0,1,.49.25.54.54,0,0,1,.16.51V20h1.71a.66.66,0,0,1,.49.39,1.18,1.18,0,0,1,.11.64,1,1,0,0,1-.25.57.62.62,0,0,1-.58.19H86.76l0,6.72a.77.77,0,0,1-.23.64.7.7,0,0,1-.5.16,1,1,0,0,1-.5-.21.57.57,0,0,1-.23-.47l0-6.84H83.66a.53.53,0,0,1-.51-.28,1.17,1.17,0,0,1-.13-.62,1.5,1.5,0,0,1,.16-.62.43.43,0,0,1,.38-.28Z"/><path class="cls-9" d="M90.87,19a1.23,1.23,0,0,1,.24-.78.74.74,0,0,1,.61-.32.77.77,0,0,1,.62.32,1.21,1.21,0,0,1,.25.78,1.16,1.16,0,0,1-.25.76.78.78,0,0,1-.62.3.75.75,0,0,1-.61-.3A1.18,1.18,0,0,1,90.87,19Zm0,2.5a.75.75,0,0,1,.33-.59.82.82,0,0,1,.56-.11.9.9,0,0,1,.5.27.54.54,0,0,1,.16.51l0,6.91a.79.79,0,0,1-.22.64.67.67,0,0,1-.49.16.9.9,0,0,1-.49-.21.58.58,0,0,1-.22-.47Z"/><path class="cls-9" d="M99.32,28.75a31.13,31.13,0,0,0-.08-3.32,9.86,9.86,0,0,0-.32-1.89,1.69,1.69,0,0,0-.47-.85A.84.84,0,0,0,98,22.5a1.46,1.46,0,0,0-.76.21,2.19,2.19,0,0,0-.62.56,2.74,2.74,0,0,0-.43.81A3,3,0,0,0,96,25v3.44a1.06,1.06,0,0,1-.23.64.76.76,0,0,1-.47.29.65.65,0,0,1-.5-.16,1,1,0,0,1-.3-.7l0-7.3a.79.79,0,0,1,.22-.64.66.66,0,0,1,.49-.16.89.89,0,0,1,.49.21.58.58,0,0,1,.22.47l0,.39a3.15,3.15,0,0,1,.92-.63,2.58,2.58,0,0,1,1.06-.22,2.06,2.06,0,0,1,1.57.59,3.77,3.77,0,0,1,.84,1.65,11.72,11.72,0,0,1,.34,2.52q.06,1.47.06,3.19a.79.79,0,0,1-.22.64.67.67,0,0,1-.49.16.9.9,0,0,1-.49-.21A.58.58,0,0,1,99.32,28.75Z"/><path class="cls-9" d="M104.14,21.19a28.35,28.35,0,0,0,0,3.48,8.23,8.23,0,0,0,.29,1.87,1.3,1.3,0,0,0,.47.76,1.08,1.08,0,0,0,.5.15,1.46,1.46,0,0,0,.76-.21,2.2,2.2,0,0,0,.62-.56,2.77,2.77,0,0,0,.43-.81,3,3,0,0,0,.16-1V21.46a1,1,0,0,1,.23-.64.76.76,0,0,1,.47-.29.64.64,0,0,1,.5.16,1,1,0,0,1,.3.7l0,7.3a.79.79,0,0,1-.22.64.67.67,0,0,1-.49.16.9.9,0,0,1-.49-.21.58.58,0,0,1-.22-.47l0-.39a3.15,3.15,0,0,1-.92.63,2.59,2.59,0,0,1-1.06.22,2.23,2.23,0,0,1-1.6-.56,3.33,3.33,0,0,1-.87-1.59,10.73,10.73,0,0,1-.32-2.51q0-1.48,0-3.3a.8.8,0,0,1,.26-.64.74.74,0,0,1,.52-.16,1,1,0,0,1,.51.21A.52.52,0,0,1,104.14,21.19Z"/><path class="cls-9" d="M115.88,26.64a.58.58,0,0,1,.48-.27.83.83,0,0,1,.52.18.92.92,0,0,1,.32.48.78.78,0,0,1-.13.64A4,4,0,0,1,115.86,29a3.17,3.17,0,0,1-1.4.48,3,3,0,0,1-1.39-.22,3.36,3.36,0,0,1-1.21-.86,4.35,4.35,0,0,1-.85-1.44,5.5,5.5,0,0,1-.32-1.93,5.23,5.23,0,0,1,.26-1.66,4.55,4.55,0,0,1,.73-1.38,3.66,3.66,0,0,1,1.09-.95,2.84,2.84,0,0,1,1.32-.38,2.8,2.8,0,0,1,1.15.19,3.06,3.06,0,0,1,1,.63,3.42,3.42,0,0,1,.73,1,4.44,4.44,0,0,1,.39,1.36,2,2,0,0,1-.2,1.3q-.3.47-1.33.47l-3.66,0a3,3,0,0,0,.51,1.31,2.06,2.06,0,0,0,.93.76,1.6,1.6,0,0,0,1.14,0A2.51,2.51,0,0,0,115.88,26.64Zm-1.82-4.19a1.63,1.63,0,0,0-1,.4,2.52,2.52,0,0,0-.7,1l3.57,0a2,2,0,0,0-.29-.74,1.56,1.56,0,0,0-.45-.44,1.47,1.47,0,0,0-.54-.21A3.48,3.48,0,0,0,114.06,22.45Z"/><path class="cls-10" d="M64,21q.14-.44.42-.5a.62.62,0,0,1,.52.12,1.12,1.12,0,0,1,.37.56,1.15,1.15,0,0,1,0,.81,7,7,0,0,1-1.52,2.62,2.9,2.9,0,0,1-2.12,1A2.7,2.7,0,0,1,60,25a5.2,5.2,0,0,1-1.36-1.59,8.89,8.89,0,0,1-.91-2.36,12.4,12.4,0,0,1-.33-2.93,12.76,12.76,0,0,1,.33-2.95,9.64,9.64,0,0,1,.91-2.45A5.33,5.33,0,0,1,60,11.09a2.63,2.63,0,0,1,1.65-.61,3.22,3.22,0,0,1,2.17.82A5.52,5.52,0,0,1,65.27,14a.63.63,0,0,1,0,.59,1,1,0,0,1-.42.46.79.79,0,0,1-.57.1q-.3-.06-.47-.5a3.55,3.55,0,0,0-.95-1.7,2,2,0,0,0-1.3-.46,1.54,1.54,0,0,0-1.09.48,4.28,4.28,0,0,0-.88,1.3A8.34,8.34,0,0,0,59,16.12a10.9,10.9,0,0,0-.21,2.17,9.45,9.45,0,0,0,.22,2.1,6.83,6.83,0,0,0,.61,1.71,3.61,3.61,0,0,0,.9,1.14,1.72,1.72,0,0,0,1.09.41A1.81,1.81,0,0,0,63,22.91,5.2,5.2,0,0,0,64,21Z"/><path class="cls-10" d="M67.3,21.27a5.35,5.35,0,0,1,.26-1.67,4.52,4.52,0,0,1,.73-1.39,3.66,3.66,0,0,1,1.09-.95,2.65,2.65,0,0,1,2.64,0,3.66,3.66,0,0,1,1.09.95,4.52,4.52,0,0,1,.73,1.39,5.48,5.48,0,0,1,0,3.35,4.67,4.67,0,0,1-.73,1.41,3.61,3.61,0,0,1-1.09,1,2.65,2.65,0,0,1-2.64,0,3.6,3.6,0,0,1-1.09-1,4.67,4.67,0,0,1-.73-1.41A5.35,5.35,0,0,1,67.3,21.27Zm1.41,0a3,3,0,0,0,.16,1,2.74,2.74,0,0,0,.43.81,2.19,2.19,0,0,0,.62.56,1.49,1.49,0,0,0,1.51,0,2.2,2.2,0,0,0,.62-.56,2.77,2.77,0,0,0,.43-.81,3.11,3.11,0,0,0,0-1.94,2.61,2.61,0,0,0-.43-.8,2.26,2.26,0,0,0-.62-.55,1.49,1.49,0,0,0-1.51,0,2.26,2.26,0,0,0-.62.55,2.59,2.59,0,0,0-.43.8A3,3,0,0,0,68.72,21.3Z"/><path class="cls-10" d="M80.81,25a31.13,31.13,0,0,0-.08-3.32,9.86,9.86,0,0,0-.32-1.89,1.69,1.69,0,0,0-.47-.85.84.84,0,0,0-.49-.19,1.46,1.46,0,0,0-.76.21,2.19,2.19,0,0,0-.62.56,2.74,2.74,0,0,0-.43.81,3,3,0,0,0-.16,1v3.44a1.06,1.06,0,0,1-.23.64.76.76,0,0,1-.47.29.65.65,0,0,1-.5-.16,1,1,0,0,1-.3-.7l0-7.3a.79.79,0,0,1,.22-.64.66.66,0,0,1,.49-.16.89.89,0,0,1,.49.21.58.58,0,0,1,.22.47l0,.39a3.15,3.15,0,0,1,.92-.63A2.58,2.58,0,0,1,79.43,17a2.06,2.06,0,0,1,1.57.59,3.77,3.77,0,0,1,.84,1.65,11.72,11.72,0,0,1,.34,2.52q.06,1.47.06,3.19a.79.79,0,0,1-.22.64.67.67,0,0,1-.49.16A.9.9,0,0,1,81,25.5.58.58,0,0,1,80.81,25Z"/><path class="cls-10" d="M85.25,16.3l0-3.83a.75.75,0,0,1,.33-.59.86.86,0,0,1,.55-.12.83.83,0,0,1,.49.25.54.54,0,0,1,.16.51V16.3h1.71a.66.66,0,0,1,.49.39,1.18,1.18,0,0,1,.11.64,1,1,0,0,1-.25.57.62.62,0,0,1-.58.19H86.76l0,6.72a.77.77,0,0,1-.23.64.7.7,0,0,1-.5.16,1,1,0,0,1-.5-.21.57.57,0,0,1-.23-.47l0-6.84H83.66a.53.53,0,0,1-.51-.28A1.17,1.17,0,0,1,83,17.2a1.5,1.5,0,0,1,.16-.62.43.43,0,0,1,.38-.28Z"/><path class="cls-10" d="M90.87,15.23a1.23,1.23,0,0,1,.24-.78.74.74,0,0,1,.61-.32.77.77,0,0,1,.62.32,1.21,1.21,0,0,1,.25.78,1.16,1.16,0,0,1-.25.76.78.78,0,0,1-.62.3.75.75,0,0,1-.61-.3A1.18,1.18,0,0,1,90.87,15.23Zm0,2.5a.75.75,0,0,1,.33-.59A.82.82,0,0,1,91.8,17a.9.9,0,0,1,.5.27.54.54,0,0,1,.16.51l0,6.91a.79.79,0,0,1-.22.64.67.67,0,0,1-.49.16.9.9,0,0,1-.49-.21.58.58,0,0,1-.22-.47Z"/><path class="cls-10" d="M99.32,25a31.13,31.13,0,0,0-.08-3.32,9.86,9.86,0,0,0-.32-1.89,1.69,1.69,0,0,0-.47-.85.84.84,0,0,0-.49-.19,1.46,1.46,0,0,0-.76.21,2.19,2.19,0,0,0-.62.56,2.74,2.74,0,0,0-.43.81,3,3,0,0,0-.16,1v3.44a1.06,1.06,0,0,1-.23.64.76.76,0,0,1-.47.29.65.65,0,0,1-.5-.16,1,1,0,0,1-.3-.7l0-7.3a.79.79,0,0,1,.22-.64.66.66,0,0,1,.49-.16.89.89,0,0,1,.49.21.58.58,0,0,1,.22.47l0,.39a3.15,3.15,0,0,1,.92-.63A2.58,2.58,0,0,1,97.94,17a2.06,2.06,0,0,1,1.57.59,3.77,3.77,0,0,1,.84,1.65,11.72,11.72,0,0,1,.34,2.52q.06,1.47.06,3.19a.79.79,0,0,1-.22.64.67.67,0,0,1-.49.16.9.9,0,0,1-.49-.21A.58.58,0,0,1,99.32,25Z"/><path class="cls-10" d="M104.14,17.47a28.35,28.35,0,0,0,0,3.48,8.23,8.23,0,0,0,.29,1.87,1.3,1.3,0,0,0,.47.76,1.08,1.08,0,0,0,.5.15,1.46,1.46,0,0,0,.76-.21,2.2,2.2,0,0,0,.62-.56,2.77,2.77,0,0,0,.43-.81,3,3,0,0,0,.16-1V17.73a1,1,0,0,1,.23-.64.76.76,0,0,1,.47-.29.64.64,0,0,1,.5.16,1,1,0,0,1,.3.7l0,7.3a.79.79,0,0,1-.22.64.67.67,0,0,1-.49.16.9.9,0,0,1-.49-.21.58.58,0,0,1-.22-.47l0-.39a3.15,3.15,0,0,1-.92.63,2.59,2.59,0,0,1-1.06.22,2.23,2.23,0,0,1-1.6-.56,3.33,3.33,0,0,1-.87-1.59,10.73,10.73,0,0,1-.32-2.51q0-1.48,0-3.3a.8.8,0,0,1,.26-.64.74.74,0,0,1,.52-.16,1,1,0,0,1,.51.21A.52.52,0,0,1,104.14,17.47Z"/><path class="cls-10" d="M115.88,22.92a.58.58,0,0,1,.48-.27.83.83,0,0,1,.52.18.92.92,0,0,1,.32.48.78.78,0,0,1-.13.64,4,4,0,0,1-1.23,1.27,3.17,3.17,0,0,1-1.4.48,3,3,0,0,1-1.39-.22,3.36,3.36,0,0,1-1.21-.86A4.35,4.35,0,0,1,111,23.2a5.5,5.5,0,0,1-.32-1.93,5.23,5.23,0,0,1,.26-1.66,4.55,4.55,0,0,1,.73-1.38,3.66,3.66,0,0,1,1.09-.95,2.84,2.84,0,0,1,1.32-.38,2.8,2.8,0,0,1,1.15.19,3.06,3.06,0,0,1,1,.63,3.42,3.42,0,0,1,.73,1,4.44,4.44,0,0,1,.39,1.36,2,2,0,0,1-.2,1.3q-.3.47-1.33.47l-3.66,0a3,3,0,0,0,.51,1.31,2.06,2.06,0,0,0,.93.76,1.6,1.6,0,0,0,1.14,0A2.51,2.51,0,0,0,115.88,22.92Zm-1.82-4.19a1.63,1.63,0,0,0-1,.4,2.52,2.52,0,0,0-.7,1l3.57,0a2,2,0,0,0-.29-.74,1.56,1.56,0,0,0-.45-.44,1.47,1.47,0,0,0-.54-.21A3.48,3.48,0,0,0,114.06,18.73Z"/><rect class="cls-1" x="175" y="6" width="175" height="43.79" rx="21.89" ry="21.89"/><rect class="cls-2" x="177.68" y="7.22" width="169.1" height="40.09" rx="20.05" ry="20.05"/><rect class="cls-3" x="177.19" y="7.22" width="169.53" height="38.33" rx="19.17" ry="19.17"/><rect class="cls-4" x="178.54" y="7.22" width="167.45" height="37.92" rx="18.96" ry="18.96"/><path class="cls-5" d="M326.35,7.22H198.1c-10.78,0-19.6,8.53-19.6,19h0c0,.37,0,.73,0,1.1.59-9.92,9.17-17.86,19.57-17.86H326.35c10.4,0,19,7.94,19.57,17.86,0-.36,0-.73,0-1.1h0C346,15.75,337.13,7.22,326.35,7.22Z"/><path class="cls-6" d="M326.35,42.95H198.1c-10.4,0-19-7.94-19.57-17.86,0,.36,0,.73,0,1.1h0c0,10.43,8.82,19,19.6,19H326.35c10.78,0,19.6-8.53,19.6-19h0c0-.37,0-.73,0-1.1C345.32,35,336.75,42.95,326.35,42.95Z"/><path class="cls-7" d="M325.39,51.25H199.61c-12.76,0-23.25-9.4-24.49-21.42A23.28,23.28,0,0,0,175,32.2h0C175,45.34,186,56,199.61,56H325.39C339,56,350,45.34,350,32.2h0a23.28,23.28,0,0,0-.12-2.38C348.64,41.85,338.15,51.25,325.39,51.25Z"/><path class="cls-8" d="M325.39,49.79H199.61c-13.21,0-24-10.07-24.58-22.7,0,.36,0,.73,0,1.1h0C175,41.32,186,52,199.61,52H325.39C339,52,350,41.32,350,28.18h0c0-.37,0-.73,0-1.1C349.38,39.72,338.6,49.79,325.39,49.79Z"/><path class="cls-9" d="M239,30q.14-.41.42-.47a.65.65,0,0,1,.52.11,1.05,1.05,0,0,1,.37.53,1,1,0,0,1,0,.77,6.55,6.55,0,0,1-1.52,2.47,3,3,0,0,1-2.12.94,2.8,2.8,0,0,1-1.65-.55,5,5,0,0,1-1.36-1.5,8.11,8.11,0,0,1-.91-2.23,11.07,11.07,0,0,1-.33-2.77,11.39,11.39,0,0,1,.33-2.78,8.78,8.78,0,0,1,.91-2.31A5.11,5.11,0,0,1,235,20.67a2.73,2.73,0,0,1,1.65-.57,3.33,3.33,0,0,1,2.17.78,5.15,5.15,0,0,1,1.49,2.52.56.56,0,0,1,0,.56,1,1,0,0,1-.42.43.83.83,0,0,1-.57.09.69.69,0,0,1-.47-.47,3.31,3.31,0,0,0-.95-1.6,2.07,2.07,0,0,0-1.3-.43,1.59,1.59,0,0,0-1.09.46,4,4,0,0,0-.88,1.22,7.55,7.55,0,0,0-.59,1.76,9.73,9.73,0,0,0-.21,2,8.44,8.44,0,0,0,.22,2,6.21,6.21,0,0,0,.61,1.61,3.45,3.45,0,0,0,.9,1.08,1.78,1.78,0,0,0,1.09.39,1.85,1.85,0,0,0,1.39-.7A4.82,4.82,0,0,0,239,30Z"/><path class="cls-9" d="M242.3,30.27a4.79,4.79,0,0,1,.26-1.58,4.19,4.19,0,0,1,.73-1.32,3.61,3.61,0,0,1,1.09-.89,2.78,2.78,0,0,1,2.64,0,3.61,3.61,0,0,1,1.09.89,4.19,4.19,0,0,1,.73,1.32,4.89,4.89,0,0,1,0,3.16,4.32,4.32,0,0,1-.73,1.33,3.55,3.55,0,0,1-1.09.9,2.78,2.78,0,0,1-2.64,0,3.54,3.54,0,0,1-1.09-.9,4.32,4.32,0,0,1-.73-1.33A4.79,4.79,0,0,1,242.3,30.27Zm1.41,0a2.69,2.69,0,0,0,.16.92,2.54,2.54,0,0,0,.43.77,2.15,2.15,0,0,0,.62.53,1.57,1.57,0,0,0,1.51,0,2.16,2.16,0,0,0,.62-.53,2.56,2.56,0,0,0,.43-.77,2.78,2.78,0,0,0,0-1.83,2.42,2.42,0,0,0-.43-.75,2.23,2.23,0,0,0-.62-.51,1.57,1.57,0,0,0-1.51,0,2.22,2.22,0,0,0-.62.51,2.4,2.4,0,0,0-.43.75A2.69,2.69,0,0,0,243.72,30.3Z"/><path class="cls-9" d="M255.81,33.82a27.72,27.72,0,0,0-.08-3.13,8.83,8.83,0,0,0-.32-1.78,1.58,1.58,0,0,0-.47-.8.87.87,0,0,0-.49-.18,1.53,1.53,0,0,0-.76.19,2.15,2.15,0,0,0-.62.53,2.54,2.54,0,0,0-.43.77,2.69,2.69,0,0,0-.16.92v3.25a1,1,0,0,1-.23.61.77.77,0,0,1-.47.27.67.67,0,0,1-.5-.15.93.93,0,0,1-.3-.66l0-6.89a.72.72,0,0,1,.22-.61.69.69,0,0,1,.49-.15.92.92,0,0,1,.49.19.54.54,0,0,1,.22.45l0,.37a3.16,3.16,0,0,1,.92-.59,2.72,2.72,0,0,1,1.06-.21,2.12,2.12,0,0,1,1.57.56,3.49,3.49,0,0,1,.84,1.56,10.47,10.47,0,0,1,.34,2.38q.06,1.38.06,3a.72.72,0,0,1-.22.61.69.69,0,0,1-.49.15.93.93,0,0,1-.49-.19A.54.54,0,0,1,255.81,33.82Z"/><path class="cls-9" d="M260.25,25.58l0-3.61a.7.7,0,0,1,.33-.56.9.9,0,0,1,.55-.11.85.85,0,0,1,.49.24.49.49,0,0,1,.16.48v3.57h1.71a.66.66,0,0,1,.49.37,1.06,1.06,0,0,1,.11.61.94.94,0,0,1-.25.54.64.64,0,0,1-.58.18h-1.45l0,6.34a.71.71,0,0,1-.23.61.73.73,0,0,1-.5.15,1,1,0,0,1-.5-.19.53.53,0,0,1-.23-.45l0-6.45h-1.61a.54.54,0,0,1-.51-.26,1,1,0,0,1-.13-.58,1.35,1.35,0,0,1,.16-.58.43.43,0,0,1,.38-.26Z"/><path class="cls-9" d="M265.87,24.58a1.12,1.12,0,0,1,.24-.73.76.76,0,0,1,.61-.3.78.78,0,0,1,.62.3,1.1,1.1,0,0,1,.25.73,1.05,1.05,0,0,1-.25.72.79.79,0,0,1-.62.29.76.76,0,0,1-.61-.29A1.08,1.08,0,0,1,265.87,24.58Zm0,2.36a.7.7,0,0,1,.33-.56.86.86,0,0,1,.56-.1.92.92,0,0,1,.5.25.49.49,0,0,1,.16.48l0,6.52a.72.72,0,0,1-.22.61.69.69,0,0,1-.49.15.93.93,0,0,1-.49-.19.54.54,0,0,1-.22-.45Z"/><path class="cls-9" d="M274.32,33.82a27.72,27.72,0,0,0-.08-3.13,8.83,8.83,0,0,0-.32-1.78,1.58,1.58,0,0,0-.47-.8.87.87,0,0,0-.49-.18,1.53,1.53,0,0,0-.76.19,2.15,2.15,0,0,0-.62.53,2.54,2.54,0,0,0-.43.77,2.69,2.69,0,0,0-.16.92v3.25a1,1,0,0,1-.23.61.77.77,0,0,1-.47.27.67.67,0,0,1-.5-.15.93.93,0,0,1-.3-.66l0-6.89a.72.72,0,0,1,.22-.61.69.69,0,0,1,.49-.15.92.92,0,0,1,.49.19.54.54,0,0,1,.22.45l0,.37a3.16,3.16,0,0,1,.92-.59,2.72,2.72,0,0,1,1.06-.21,2.12,2.12,0,0,1,1.57.56,3.49,3.49,0,0,1,.84,1.56,10.47,10.47,0,0,1,.34,2.38q.06,1.38.06,3a.72.72,0,0,1-.22.61.69.69,0,0,1-.49.15.93.93,0,0,1-.49-.19A.54.54,0,0,1,274.32,33.82Z"/><path class="cls-9" d="M279.14,26.68a25.25,25.25,0,0,0,0,3.28,7.37,7.37,0,0,0,.29,1.76,1.23,1.23,0,0,0,.47.72,1.12,1.12,0,0,0,.5.14,1.53,1.53,0,0,0,.76-.19,2.16,2.16,0,0,0,.62-.53,2.56,2.56,0,0,0,.43-.77,2.71,2.71,0,0,0,.16-.92V26.93a1,1,0,0,1,.23-.61.77.77,0,0,1,.47-.27.67.67,0,0,1,.5.15.94.94,0,0,1,.3.66l0,6.89a.72.72,0,0,1-.22.61.69.69,0,0,1-.49.15.93.93,0,0,1-.49-.19.54.54,0,0,1-.22-.45l0-.37a3.17,3.17,0,0,1-.92.59,2.72,2.72,0,0,1-1.06.21,2.31,2.31,0,0,1-1.6-.53,3.1,3.1,0,0,1-.87-1.5,9.58,9.58,0,0,1-.32-2.37q0-1.39,0-3.11a.73.73,0,0,1,.26-.61.77.77,0,0,1,.52-.15,1,1,0,0,1,.51.19A.48.48,0,0,1,279.14,26.68Z"/><path class="cls-9" d="M290.88,31.83a.59.59,0,0,1,.48-.25.88.88,0,0,1,.84.63.7.7,0,0,1-.13.61,3.85,3.85,0,0,1-1.23,1.2,3.3,3.3,0,0,1-1.4.46,3.11,3.11,0,0,1-1.39-.21,3.37,3.37,0,0,1-1.21-.81,4.06,4.06,0,0,1-.85-1.36,4.92,4.92,0,0,1-.32-1.82,4.68,4.68,0,0,1,.26-1.57,4.22,4.22,0,0,1,.73-1.3,3.61,3.61,0,0,1,1.09-.89,3,3,0,0,1,2.47-.17,3.09,3.09,0,0,1,1,.59,3.24,3.24,0,0,1,.73,1,4,4,0,0,1,.39,1.28,1.76,1.76,0,0,1-.2,1.22q-.3.45-1.33.45l-3.66,0a2.76,2.76,0,0,0,.51,1.24,2,2,0,0,0,.93.72,1.69,1.69,0,0,0,1.14,0A2.48,2.48,0,0,0,290.88,31.83Zm-1.82-4a1.69,1.69,0,0,0-1,.38,2.39,2.39,0,0,0-.7.93l3.57,0a1.86,1.86,0,0,0-.29-.7,1.48,1.48,0,0,0-1-.61A3.69,3.69,0,0,0,289.06,27.87Z"/><path class="cls-11" d="M239,29.44q.14-.41.42-.47a.65.65,0,0,1,.52.11,1.05,1.05,0,0,1,.37.53,1,1,0,0,1,0,.77,6.55,6.55,0,0,1-1.52,2.47,3,3,0,0,1-2.12.94,2.8,2.8,0,0,1-1.65-.55,5,5,0,0,1-1.36-1.5,8.11,8.11,0,0,1-.91-2.23,11.07,11.07,0,0,1-.33-2.77,11.39,11.39,0,0,1,.33-2.78,8.78,8.78,0,0,1,.91-2.31A5.11,5.11,0,0,1,235,20.08a2.73,2.73,0,0,1,1.65-.57,3.33,3.33,0,0,1,2.17.78,5.15,5.15,0,0,1,1.49,2.52.56.56,0,0,1,0,.56,1,1,0,0,1-.42.43.83.83,0,0,1-.57.09.69.69,0,0,1-.47-.47,3.31,3.31,0,0,0-.95-1.6,2.07,2.07,0,0,0-1.3-.43,1.59,1.59,0,0,0-1.09.46,4,4,0,0,0-.88,1.22,7.55,7.55,0,0,0-.59,1.76,9.73,9.73,0,0,0-.21,2,8.44,8.44,0,0,0,.22,2,6.21,6.21,0,0,0,.61,1.61,3.45,3.45,0,0,0,.9,1.08,1.78,1.78,0,0,0,1.09.39,1.85,1.85,0,0,0,1.39-.7A4.82,4.82,0,0,0,239,29.44Z"/><path class="cls-11" d="M242.3,29.69a4.79,4.79,0,0,1,.26-1.58,4.19,4.19,0,0,1,.73-1.32,3.61,3.61,0,0,1,1.09-.89,2.78,2.78,0,0,1,2.64,0,3.61,3.61,0,0,1,1.09.89,4.19,4.19,0,0,1,.73,1.32,4.89,4.89,0,0,1,0,3.16,4.32,4.32,0,0,1-.73,1.33,3.55,3.55,0,0,1-1.09.9,2.78,2.78,0,0,1-2.64,0,3.54,3.54,0,0,1-1.09-.9,4.32,4.32,0,0,1-.73-1.33A4.79,4.79,0,0,1,242.3,29.69Zm1.41,0a2.69,2.69,0,0,0,.16.92,2.54,2.54,0,0,0,.43.77,2.15,2.15,0,0,0,.62.53,1.57,1.57,0,0,0,1.51,0,2.16,2.16,0,0,0,.62-.53,2.56,2.56,0,0,0,.43-.77,2.78,2.78,0,0,0,0-1.83,2.42,2.42,0,0,0-.43-.75,2.23,2.23,0,0,0-.62-.51,1.57,1.57,0,0,0-1.51,0,2.22,2.22,0,0,0-.62.51,2.4,2.4,0,0,0-.43.75A2.69,2.69,0,0,0,243.72,29.71Z"/><path class="cls-11" d="M255.81,33.23a27.72,27.72,0,0,0-.08-3.13,8.83,8.83,0,0,0-.32-1.78,1.58,1.58,0,0,0-.47-.8.87.87,0,0,0-.49-.18,1.53,1.53,0,0,0-.76.19,2.15,2.15,0,0,0-.62.53,2.54,2.54,0,0,0-.43.77,2.69,2.69,0,0,0-.16.92V33a1,1,0,0,1-.23.61.77.77,0,0,1-.47.27.67.67,0,0,1-.5-.15.93.93,0,0,1-.3-.66l0-6.89a.72.72,0,0,1,.22-.61.69.69,0,0,1,.49-.15.92.92,0,0,1,.49.19.54.54,0,0,1,.22.45l0,.37a3.16,3.16,0,0,1,.92-.59,2.72,2.72,0,0,1,1.06-.21,2.12,2.12,0,0,1,1.57.56,3.49,3.49,0,0,1,.84,1.56,10.47,10.47,0,0,1,.34,2.38q.06,1.38.06,3a.72.72,0,0,1-.22.61.69.69,0,0,1-.49.15.93.93,0,0,1-.49-.19A.54.54,0,0,1,255.81,33.23Z"/><path class="cls-11" d="M260.25,25l0-3.61a.7.7,0,0,1,.33-.56.9.9,0,0,1,.55-.11.85.85,0,0,1,.49.24.49.49,0,0,1,.16.48V25h1.71a.66.66,0,0,1,.49.37A1.06,1.06,0,0,1,264,26a.94.94,0,0,1-.25.54.64.64,0,0,1-.58.18h-1.45l0,6.34a.71.71,0,0,1-.23.61.73.73,0,0,1-.5.15,1,1,0,0,1-.5-.19.53.53,0,0,1-.23-.45l0-6.45h-1.61a.54.54,0,0,1-.51-.26,1,1,0,0,1-.13-.58,1.35,1.35,0,0,1,.16-.58.43.43,0,0,1,.38-.26Z"/><path class="cls-11" d="M265.87,24a1.12,1.12,0,0,1,.24-.73.76.76,0,0,1,.61-.3.78.78,0,0,1,.62.3,1.1,1.1,0,0,1,.25.73,1.05,1.05,0,0,1-.25.72.79.79,0,0,1-.62.29.76.76,0,0,1-.61-.29A1.08,1.08,0,0,1,265.87,24Zm0,2.36a.7.7,0,0,1,.33-.56.86.86,0,0,1,.56-.1.92.92,0,0,1,.5.25.49.49,0,0,1,.16.48l0,6.52a.72.72,0,0,1-.22.61.69.69,0,0,1-.49.15.93.93,0,0,1-.49-.19.54.54,0,0,1-.22-.45Z"/><path class="cls-11" d="M274.32,33.23a27.72,27.72,0,0,0-.08-3.13,8.83,8.83,0,0,0-.32-1.78,1.58,1.58,0,0,0-.47-.8.87.87,0,0,0-.49-.18,1.53,1.53,0,0,0-.76.19,2.15,2.15,0,0,0-.62.53,2.54,2.54,0,0,0-.43.77,2.69,2.69,0,0,0-.16.92V33a1,1,0,0,1-.23.61.77.77,0,0,1-.47.27.67.67,0,0,1-.5-.15.93.93,0,0,1-.3-.66l0-6.89a.72.72,0,0,1,.22-.61.69.69,0,0,1,.49-.15.92.92,0,0,1,.49.19.54.54,0,0,1,.22.45l0,.37a3.16,3.16,0,0,1,.92-.59,2.72,2.72,0,0,1,1.06-.21,2.12,2.12,0,0,1,1.57.56,3.49,3.49,0,0,1,.84,1.56,10.47,10.47,0,0,1,.34,2.38q.06,1.38.06,3a.72.72,0,0,1-.22.61.69.69,0,0,1-.49.15.93.93,0,0,1-.49-.19A.54.54,0,0,1,274.32,33.23Z"/><path class="cls-11" d="M279.14,26.1a25.25,25.25,0,0,0,0,3.28,7.37,7.37,0,0,0,.29,1.76,1.23,1.23,0,0,0,.47.72,1.12,1.12,0,0,0,.5.14,1.53,1.53,0,0,0,.76-.19,2.16,2.16,0,0,0,.62-.53,2.56,2.56,0,0,0,.43-.77,2.71,2.71,0,0,0,.16-.92V26.35a1,1,0,0,1,.23-.61.77.77,0,0,1,.47-.27.67.67,0,0,1,.5.15.94.94,0,0,1,.3.66l0,6.89a.72.72,0,0,1-.22.61.69.69,0,0,1-.49.15.93.93,0,0,1-.49-.19.54.54,0,0,1-.22-.45l0-.37a3.17,3.17,0,0,1-.92.59,2.72,2.72,0,0,1-1.06.21,2.31,2.31,0,0,1-1.6-.53,3.1,3.1,0,0,1-.87-1.5,9.58,9.58,0,0,1-.32-2.37q0-1.39,0-3.11a.73.73,0,0,1,.26-.61.77.77,0,0,1,.52-.15,1,1,0,0,1,.51.19A.48.48,0,0,1,279.14,26.1Z"/><path class="cls-11" d="M290.88,31.24a.59.59,0,0,1,.48-.25.88.88,0,0,1,.84.63.7.7,0,0,1-.13.61,3.85,3.85,0,0,1-1.23,1.2,3.3,3.3,0,0,1-1.4.46,3.11,3.11,0,0,1-1.39-.21,3.37,3.37,0,0,1-1.21-.81,4.06,4.06,0,0,1-.85-1.36,4.92,4.92,0,0,1-.32-1.82,4.68,4.68,0,0,1,.26-1.57,4.22,4.22,0,0,1,.73-1.3,3.61,3.61,0,0,1,1.09-.89,3,3,0,0,1,2.47-.17,3.09,3.09,0,0,1,1,.59,3.24,3.24,0,0,1,.73,1,4,4,0,0,1,.39,1.28,1.76,1.76,0,0,1-.2,1.22q-.3.45-1.33.45l-3.66,0a2.76,2.76,0,0,0,.51,1.24,2,2,0,0,0,.93.72,1.69,1.69,0,0,0,1.14,0A2.48,2.48,0,0,0,290.88,31.24Zm-1.82-4a1.69,1.69,0,0,0-1,.38,2.39,2.39,0,0,0-.7.93l3.57,0a1.86,1.86,0,0,0-.29-.7,1.48,1.48,0,0,0-1-.61A3.69,3.69,0,0,0,289.06,27.29Z"/></g></g></svg>