<svg xmlns="http://www.w3.org/2000/svg" width="156.56" height="50.1" viewBox="0 0 156.56 50.1">
  <title>grey_done</title>
  <g id="Layer_2" data-name="Layer 2">
    <g id="Layer_1-2" data-name="Layer 1">
      <rect width="156.56" height="44.32" rx="22.09" ry="22.09" fill="#fff"/>
      <rect x="2.4" y="1.29" width="151.28" height="40.73" rx="20.3" ry="20.3" fill="#1e1e1e"/>
      <rect x="1.96" y="0.98" width="151.67" height="39.39" rx="19.63" ry="19.63" fill="#616161"/>
      <rect x="3.16" y="0.61" width="149.81" height="35.3" rx="17.59" ry="17.59" fill="#adadad"/>
      <path d="M135.41.61H20.67A17.65,17.65,0,0,0,3.13,18.26h0c0,.34,0,.68,0,1A17.64,17.64,0,0,1,20.67,2.65H135.41a17.64,17.64,0,0,1,17.51,16.63c0-.34,0-.68,0-1h0A17.65,17.65,0,0,0,135.41.61Z" fill="#dfdfdf" fill-rule="evenodd"/>
      <path d="M135.41,33.86H20.67A17.64,17.64,0,0,1,3.16,17.24c0,.34,0,.68,0,1h0A17.65,17.65,0,0,0,20.67,35.91H135.41a17.65,17.65,0,0,0,17.54-17.65h0c0-.34,0-.68,0-1A17.64,17.64,0,0,1,135.41,33.86Z" fill="#292929" fill-rule="evenodd"/>
      <path d="M134.55,45.68H22A22.07,22.07,0,0,1,.11,25.73C0,26.46,0,27.2,0,27.94H0A22.09,22.09,0,0,0,22,50.1H134.55a22.09,22.09,0,0,0,22-22.16h0c0-.75,0-1.48-.11-2.21A22.07,22.07,0,0,1,134.55,45.68Z" fill="#313131" fill-rule="evenodd"/>
      <path d="M134.55,44.32H22A22.08,22.08,0,0,1,0,23.18c0,.34,0,.68,0,1H0A22.09,22.09,0,0,0,22,46.36H134.55a22.09,22.09,0,0,0,22-22.16h0c0-.34,0-.68,0-1A22.08,22.08,0,0,1,134.55,44.32Z" fill="#858585" fill-rule="evenodd"/>
      <g>
        <g>
          <path d="M56.87,11.88a1.3,1.3,0,0,1,.09-.36,1.9,1.9,0,0,1,.29-.52,2.12,2.12,0,0,1,.54-.48,1.86,1.86,0,0,1,.84-.27,7.92,7.92,0,0,1,3.8.5,6.11,6.11,0,0,1,2.5,1.92,7.74,7.74,0,0,1,1.34,2.91A12.9,12.9,0,0,1,66.6,19a10.53,10.53,0,0,1-.5,2.91,6.27,6.27,0,0,1-1.39,2.38,6.16,6.16,0,0,1-2.46,1.55,9.94,9.94,0,0,1-3.71.47h-.7a1.24,1.24,0,0,1-.6-.17,1,1,0,0,1-.4-.52,3.31,3.31,0,0,1-.14-1.11Zm1.76,12.46a7.07,7.07,0,0,0,2.77-.2A4.2,4.2,0,0,0,63.23,23a4.53,4.53,0,0,0,1-1.8,9,9,0,0,0,.38-2.33,12.12,12.12,0,0,0-.19-2.68A5.76,5.76,0,0,0,63.53,14a4.26,4.26,0,0,0-1.86-1.48,5.84,5.84,0,0,0-3-.28Z" fill="#1e1e1e"/>
          <path d="M69.13,21.62a4.6,4.6,0,0,1,.34-1.76,4.51,4.51,0,0,1,1-1.47,4.7,4.7,0,0,1,1.43-1,4.25,4.25,0,0,1,3.47,0,4.7,4.7,0,0,1,1.43,1,4.51,4.51,0,0,1,1,1.47,4.66,4.66,0,0,1,0,3.52,4.66,4.66,0,0,1-1,1.48,4.58,4.58,0,0,1-1.43,1,4.25,4.25,0,0,1-3.47,0,4.57,4.57,0,0,1-1.43-1,4.66,4.66,0,0,1-1-1.48A4.6,4.6,0,0,1,69.13,21.62Zm1.86,0a2.59,2.59,0,0,0,.2,1,2.78,2.78,0,0,0,1.38,1.44,2.39,2.39,0,0,0,2,0,2.78,2.78,0,0,0,1.38-1.44,2.64,2.64,0,0,0-.56-2.88,2.91,2.91,0,0,0-.82-.57,2.39,2.39,0,0,0-2,0,2.9,2.9,0,0,0-.82.57A2.64,2.64,0,0,0,71,21.64Z" fill="#1e1e1e"/>
          <path d="M86.89,25.57a26.18,26.18,0,0,0-.1-3.49,8.49,8.49,0,0,0-.42-2,1.73,1.73,0,0,0-.61-.89,1.29,1.29,0,0,0-.65-.2,2.31,2.31,0,0,0-1,.22,2.78,2.78,0,0,0-1.38,1.44,2.6,2.6,0,0,0-.2,1v3.62a1,1,0,0,1-.31.67,1.06,1.06,0,0,1-.62.31.94.94,0,0,1-1.06-.9l0-7.67a.74.74,0,0,1,.29-.67,1,1,0,0,1,.65-.17,1.36,1.36,0,0,1,.65.22.57.57,0,0,1,.29.5l0,.41a4.32,4.32,0,0,1,1.21-.66,4.15,4.15,0,0,1,1.39-.23,3.1,3.1,0,0,1,2.06.63,3.75,3.75,0,0,1,1.11,1.73,10,10,0,0,1,.45,2.65q.08,1.54.08,3.35a.75.75,0,0,1-.29.68,1,1,0,0,1-.65.17,1.34,1.34,0,0,1-.65-.22A.57.57,0,0,1,86.89,25.57Z" fill="#1e1e1e"/>
          <path d="M97.89,23.35a.83.83,0,0,1,.64-.28,1.28,1.28,0,0,1,.69.19,1,1,0,0,1,.42.51.69.69,0,0,1-.17.67,4.78,4.78,0,0,1-1.62,1.34,4.86,4.86,0,0,1-1.83.51,4.75,4.75,0,0,1-1.82-.23,4.54,4.54,0,0,1-1.59-.9,4.49,4.49,0,0,1-1.12-1.52,4.74,4.74,0,0,1-.42-2,4.57,4.57,0,0,1,1.3-3.2,4.68,4.68,0,0,1,1.43-1,4.47,4.47,0,0,1,1.73-.4,4.52,4.52,0,0,1,1.52.2,4.27,4.27,0,0,1,1.3.66,3.74,3.74,0,0,1,1,1.07,4,4,0,0,1,.51,1.43,1.72,1.72,0,0,1-.27,1.36,2.23,2.23,0,0,1-1.75.5l-4.82,0a2.83,2.83,0,0,0,.68,1.38,2.66,2.66,0,0,0,1.22.8,2.59,2.59,0,0,0,1.5,0A3.22,3.22,0,0,0,97.89,23.35Zm-2.4-4.41a2.48,2.48,0,0,0-1.32.42,2.76,2.76,0,0,0-.92,1l4.69.05a1.8,1.8,0,0,0-1-1.24,2.25,2.25,0,0,0-.71-.22A5.91,5.91,0,0,0,95.5,18.94Z" fill="#1e1e1e"/>
        </g>
        <g>
          <path d="M56.87,10.68a1.3,1.3,0,0,1,.09-.36,1.9,1.9,0,0,1,.29-.52,2.12,2.12,0,0,1,.54-.48A1.86,1.86,0,0,1,58.63,9a7.92,7.92,0,0,1,3.8.5,6.11,6.11,0,0,1,2.5,1.92,7.74,7.74,0,0,1,1.34,2.91,12.9,12.9,0,0,1,.34,3.39,10.53,10.53,0,0,1-.5,2.91,6.27,6.27,0,0,1-1.39,2.38,6.16,6.16,0,0,1-2.46,1.55,9.94,9.94,0,0,1-3.71.47h-.7a1.24,1.24,0,0,1-.6-.17,1,1,0,0,1-.4-.52,3.31,3.31,0,0,1-.14-1.11Zm1.76,12.46a7.07,7.07,0,0,0,2.77-.2,4.2,4.2,0,0,0,1.83-1.1,4.53,4.53,0,0,0,1-1.8,9,9,0,0,0,.38-2.33A12.12,12.12,0,0,0,64.45,15a5.76,5.76,0,0,0-.92-2.27,4.26,4.26,0,0,0-1.86-1.48,5.84,5.84,0,0,0-3-.28Z" fill="#f9f9f9"/>
          <path d="M69.13,20.41a4.6,4.6,0,0,1,.34-1.76,4.51,4.51,0,0,1,1-1.47,4.7,4.7,0,0,1,1.43-1,4.25,4.25,0,0,1,3.47,0,4.7,4.7,0,0,1,1.43,1,4.51,4.51,0,0,1,1,1.47,4.66,4.66,0,0,1,0,3.52,4.66,4.66,0,0,1-1,1.48,4.58,4.58,0,0,1-1.43,1,4.25,4.25,0,0,1-3.47,0,4.57,4.57,0,0,1-1.43-1,4.66,4.66,0,0,1-1-1.48A4.6,4.6,0,0,1,69.13,20.41Zm1.86,0a2.59,2.59,0,0,0,.2,1,2.78,2.78,0,0,0,1.38,1.44,2.39,2.39,0,0,0,2,0,2.78,2.78,0,0,0,1.38-1.44,2.64,2.64,0,0,0-.56-2.88,2.91,2.91,0,0,0-.82-.57,2.39,2.39,0,0,0-2,0,2.9,2.9,0,0,0-.82.57A2.64,2.64,0,0,0,71,20.44Z" fill="#f9f9f9"/>
          <path d="M86.89,24.36a26.18,26.18,0,0,0-.1-3.49,8.49,8.49,0,0,0-.42-2,1.73,1.73,0,0,0-.61-.89,1.29,1.29,0,0,0-.65-.2,2.31,2.31,0,0,0-1,.22,2.78,2.78,0,0,0-1.38,1.44,2.6,2.6,0,0,0-.2,1v3.62a1,1,0,0,1-.31.67,1.06,1.06,0,0,1-.62.31.94.94,0,0,1-1.06-.9l0-7.67a.74.74,0,0,1,.29-.67,1,1,0,0,1,.65-.17,1.36,1.36,0,0,1,.65.22.57.57,0,0,1,.29.5l0,.41a4.32,4.32,0,0,1,1.21-.66,4.15,4.15,0,0,1,1.39-.23,3.1,3.1,0,0,1,2.06.63,3.75,3.75,0,0,1,1.11,1.73,10,10,0,0,1,.45,2.65q.08,1.54.08,3.35a.75.75,0,0,1-.29.68,1,1,0,0,1-.65.17,1.34,1.34,0,0,1-.65-.22A.57.57,0,0,1,86.89,24.36Z" fill="#f9f9f9"/>
          <path d="M97.89,22.15a.83.83,0,0,1,.64-.28,1.28,1.28,0,0,1,.69.19,1,1,0,0,1,.42.51.69.69,0,0,1-.17.67,4.78,4.78,0,0,1-1.62,1.34,4.86,4.86,0,0,1-1.83.51,4.75,4.75,0,0,1-1.82-.23,4.54,4.54,0,0,1-1.59-.9,4.49,4.49,0,0,1-1.12-1.52,4.74,4.74,0,0,1-.42-2,4.57,4.57,0,0,1,1.3-3.2,4.68,4.68,0,0,1,1.43-1,4.47,4.47,0,0,1,1.73-.4A4.52,4.52,0,0,1,97,16a4.27,4.27,0,0,1,1.3.66,3.74,3.74,0,0,1,1,1.07,4,4,0,0,1,.51,1.43,1.72,1.72,0,0,1-.27,1.36,2.23,2.23,0,0,1-1.75.5L93,21a2.83,2.83,0,0,0,.68,1.38,2.66,2.66,0,0,0,1.22.8,2.59,2.59,0,0,0,1.5,0A3.22,3.22,0,0,0,97.89,22.15Zm-2.4-4.41a2.48,2.48,0,0,0-1.32.42,2.76,2.76,0,0,0-.92,1l4.69.05A1.8,1.8,0,0,0,97,18a2.25,2.25,0,0,0-.71-.22A5.91,5.91,0,0,0,95.5,17.74Z" fill="#f9f9f9"/>
        </g>
      </g>
    </g>
  </g>
</svg>
