<svg xmlns="http://www.w3.org/2000/svg" width="118.66" height="38.09" viewBox="0 0 118.66 38.09">
  <title>done_1</title>
  <g id="Layer_2" data-name="Layer 2">
    <g id="Layer_1-2" data-name="Layer 1">
      <g>
        <rect x="0.32" width="118.34" height="33.28" rx="14.53" ry="14.53" fill="#fff"/>
        <rect x="2.13" y="0.46" width="114.35" height="30.59" rx="12.62" ry="12.62" fill="#3f3f3f"/>
        <rect x="1.8" y="0.74" width="114.64" height="29.59" rx="12.62" ry="12.62" fill="#5e5e5e"/>
        <rect x="2.69" y="0.46" width="113.24" height="26.51" rx="11.54" ry="11.54" fill="#8c8c8c"/>
        <path d="M101.94,33.08H16.68A16.72,16.72,0,0,1,0,17.25c0,.28,0,.56,0,.85H0A16.73,16.73,0,0,0,16.68,34.78h85.26A16.73,16.73,0,0,0,118.62,18.1h0c0-.29,0-.57,0-.85A16.72,16.72,0,0,1,101.94,33.08Z" fill="#888" fill-rule="evenodd"/>
        <path d="M101.94,34.69H16.68a16.74,16.74,0,0,1-16.59-15A16.68,16.68,0,0,0,0,21.41H0A16.73,16.73,0,0,0,16.68,38.09h85.26a16.73,16.73,0,0,0,16.68-16.68h0a16.68,16.68,0,0,0-.09-1.7A16.74,16.74,0,0,1,101.94,34.69Z" fill="#313131" fill-rule="evenodd"/>
        <path d="M101.43,26.81H17.18c-7.69,0-14-5.55-14.45-12.48,0,.26,0,.51,0,.78,0,7.29,6.52,13.26,14.5,13.26h84.25c8,0,14.5-6,14.5-13.26,0-.26,0-.52,0-.78C115.44,21.26,109.12,26.81,101.43,26.81Z" fill="#3f3f3f" fill-rule="evenodd"/>
        <path d="M101.43.46H17.18c-10.62,0-14.5,6-14.5,13.26h0c0,.39,0,.78.06,1.16C3.41,8.13,9.64,2.79,17.18,2.79h84.25c7.54,0,13.78,5.34,14.43,12.09,0-.38.06-.77.06-1.16h0C115.93,6.42,112.05.46,101.43.46Z" fill="#c7c7c7" fill-rule="evenodd"/>
        <g>
          <g>
            <path d="M43.73,9a1,1,0,0,1,.07-.26A1.41,1.41,0,0,1,44,8.38,1.57,1.57,0,0,1,44.4,8a1.35,1.35,0,0,1,.62-.2,5.82,5.82,0,0,1,2.79.36,4.5,4.5,0,0,1,1.83,1.41,5.68,5.68,0,0,1,1,2.13,9.47,9.47,0,0,1,.25,2.49,7.72,7.72,0,0,1-.37,2.13,4.58,4.58,0,0,1-1,1.75,4.53,4.53,0,0,1-1.81,1.14,7.3,7.3,0,0,1-2.72.35h-.52a.91.91,0,0,1-.44-.12.73.73,0,0,1-.29-.38,2.41,2.41,0,0,1-.1-.81ZM45,18.19a5.19,5.19,0,0,0,2-.15,3.1,3.1,0,0,0,1.35-.81,3.33,3.33,0,0,0,.76-1.32,6.63,6.63,0,0,0,.28-1.71,9,9,0,0,0-.14-2,4.23,4.23,0,0,0-.67-1.67,3.13,3.13,0,0,0-1.37-1.09A4.28,4.28,0,0,0,45,9.27Z" fill="#3f3f3f"/>
            <path d="M52.74,16.18A3.37,3.37,0,0,1,53,14.89a3.31,3.31,0,0,1,.7-1.08,3.44,3.44,0,0,1,1-.73,3.12,3.12,0,0,1,2.55,0,3.44,3.44,0,0,1,1,.73,3.34,3.34,0,0,1,.7,1.08,3.44,3.44,0,0,1,0,2.58,3.46,3.46,0,0,1-.7,1.09,3.37,3.37,0,0,1-1,.74,3.12,3.12,0,0,1-2.55,0,3.37,3.37,0,0,1-1-.74,3.42,3.42,0,0,1-.7-1.09A3.37,3.37,0,0,1,52.74,16.18Zm1.37,0a1.9,1.9,0,0,0,.15.75,2,2,0,0,0,1,1.06,1.76,1.76,0,0,0,1.46,0,2,2,0,0,0,1-1.06,1.94,1.94,0,0,0-.41-2.12,2.13,2.13,0,0,0-.6-.42,1.76,1.76,0,0,0-1.46,0,2.13,2.13,0,0,0-.6.42,1.94,1.94,0,0,0-.56,1.37Z" fill="#3f3f3f"/>
            <path d="M65.79,19.08a19.23,19.23,0,0,0-.08-2.56,6.28,6.28,0,0,0-.31-1.46A1.28,1.28,0,0,0,65,14.4a.94.94,0,0,0-.48-.15,1.68,1.68,0,0,0-.73.16,2,2,0,0,0-1,1.06,1.92,1.92,0,0,0-.15.75v2.66a.72.72,0,0,1-.22.5.79.79,0,0,1-.46.22.73.73,0,0,1-.49-.12.72.72,0,0,1-.29-.54l0-5.64a.55.55,0,0,1,.21-.5.76.76,0,0,1,.48-.12,1,1,0,0,1,.48.16.42.42,0,0,1,.22.37l0,.3a3.19,3.19,0,0,1,.89-.49,3,3,0,0,1,1-.17,2.28,2.28,0,0,1,1.52.46,2.75,2.75,0,0,1,.81,1.27,7.31,7.31,0,0,1,.33,1.95q.06,1.13.06,2.46a.55.55,0,0,1-.21.5.76.76,0,0,1-.48.12,1,1,0,0,1-.48-.16A.42.42,0,0,1,65.79,19.08Z" fill="#3f3f3f"/>
            <path d="M73.88,17.46a.61.61,0,0,1,.47-.21.93.93,0,0,1,.5.14.72.72,0,0,1,.31.38.51.51,0,0,1-.12.5,3.51,3.51,0,0,1-1.19,1,3.58,3.58,0,0,1-1.35.38,3.48,3.48,0,0,1-1.34-.17A3.36,3.36,0,0,1,70,18.79a3.3,3.3,0,0,1-.82-1.11,3.49,3.49,0,0,1-.31-1.49,3.3,3.3,0,0,1,.25-1.28,3.34,3.34,0,0,1,.7-1.07,3.44,3.44,0,0,1,1-.73,3.27,3.27,0,0,1,1.27-.29,3.31,3.31,0,0,1,1.11.15,3.15,3.15,0,0,1,1,.49,2.76,2.76,0,0,1,.7.79,2.93,2.93,0,0,1,.37,1,1.26,1.26,0,0,1-.2,1,1.63,1.63,0,0,1-1.28.37l-3.54,0a2.09,2.09,0,0,0,.5,1,2,2,0,0,0,.9.59,1.9,1.9,0,0,0,1.1,0A2.37,2.37,0,0,0,73.88,17.46Zm-1.76-3.24a1.82,1.82,0,0,0-1,.31,2,2,0,0,0-.67.76l3.45,0a1.41,1.41,0,0,0-.28-.57,1.4,1.4,0,0,0-.43-.34,1.66,1.66,0,0,0-.52-.16A4.17,4.17,0,0,0,72.12,14.22Z" fill="#3f3f3f"/>
          </g>
          <g>
            <path d="M43.73,8.14a1,1,0,0,1,.07-.26A1.41,1.41,0,0,1,44,7.5a1.57,1.57,0,0,1,.39-.36,1.35,1.35,0,0,1,.62-.2,5.82,5.82,0,0,1,2.79.36,4.5,4.5,0,0,1,1.83,1.41,5.68,5.68,0,0,1,1,2.13,9.47,9.47,0,0,1,.25,2.49,7.72,7.72,0,0,1-.37,2.13,4.58,4.58,0,0,1-1,1.75,4.53,4.53,0,0,1-1.81,1.14,7.3,7.3,0,0,1-2.72.35h-.52a.91.91,0,0,1-.44-.12.73.73,0,0,1-.29-.38,2.41,2.41,0,0,1-.1-.81ZM45,17.3a5.19,5.19,0,0,0,2-.15,3.1,3.1,0,0,0,1.35-.81A3.33,3.33,0,0,0,49.16,15a6.63,6.63,0,0,0,.28-1.71,9,9,0,0,0-.14-2,4.23,4.23,0,0,0-.67-1.67,3.13,3.13,0,0,0-1.37-1.09A4.28,4.28,0,0,0,45,8.39Z" fill="#f9f9f9"/>
            <path d="M52.74,15.3A3.37,3.37,0,0,1,53,14a3.31,3.31,0,0,1,.7-1.08,3.44,3.44,0,0,1,1-.73,3.12,3.12,0,0,1,2.55,0,3.44,3.44,0,0,1,1,.73A3.34,3.34,0,0,1,59,14a3.44,3.44,0,0,1,0,2.58,3.46,3.46,0,0,1-.7,1.09,3.37,3.37,0,0,1-1,.74,3.12,3.12,0,0,1-2.55,0,3.37,3.37,0,0,1-1-.74,3.42,3.42,0,0,1-.7-1.09A3.37,3.37,0,0,1,52.74,15.3Zm1.37,0a1.9,1.9,0,0,0,.15.75,2,2,0,0,0,1,1.06,1.76,1.76,0,0,0,1.46,0,2,2,0,0,0,1-1.06,1.94,1.94,0,0,0-.41-2.12,2.13,2.13,0,0,0-.6-.42,1.76,1.76,0,0,0-1.46,0,2.13,2.13,0,0,0-.6.42,1.94,1.94,0,0,0-.56,1.37Z" fill="#f9f9f9"/>
            <path d="M65.79,18.2a19.23,19.23,0,0,0-.08-2.56,6.28,6.28,0,0,0-.31-1.46,1.28,1.28,0,0,0-.45-.66.94.94,0,0,0-.48-.15,1.68,1.68,0,0,0-.73.16,2,2,0,0,0-1,1.06,1.92,1.92,0,0,0-.15.75V18a.72.72,0,0,1-.22.5.79.79,0,0,1-.46.22.73.73,0,0,1-.49-.12.72.72,0,0,1-.29-.54l0-5.64a.55.55,0,0,1,.21-.5.76.76,0,0,1,.48-.12,1,1,0,0,1,.48.16.42.42,0,0,1,.22.37l0,.3a3.19,3.19,0,0,1,.89-.49,3,3,0,0,1,1-.17,2.28,2.28,0,0,1,1.52.46,2.75,2.75,0,0,1,.81,1.27,7.31,7.31,0,0,1,.33,1.95q.06,1.13.06,2.46a.55.55,0,0,1-.21.5.76.76,0,0,1-.48.12,1,1,0,0,1-.48-.16A.42.42,0,0,1,65.79,18.2Z" fill="#f9f9f9"/>
            <path d="M73.88,16.57a.61.61,0,0,1,.47-.21.93.93,0,0,1,.5.14.72.72,0,0,1,.31.38.51.51,0,0,1-.12.5,3.51,3.51,0,0,1-1.19,1,3.58,3.58,0,0,1-1.35.38,3.48,3.48,0,0,1-1.34-.17A3.36,3.36,0,0,1,70,17.9a3.3,3.3,0,0,1-.82-1.11,3.49,3.49,0,0,1-.31-1.49A3.3,3.3,0,0,1,69.11,14a3.34,3.34,0,0,1,.7-1.07,3.44,3.44,0,0,1,1-.73,3.27,3.27,0,0,1,1.27-.29,3.31,3.31,0,0,1,1.11.15,3.15,3.15,0,0,1,1,.49,2.76,2.76,0,0,1,.7.79,2.93,2.93,0,0,1,.37,1,1.26,1.26,0,0,1-.2,1,1.63,1.63,0,0,1-1.28.37l-3.54,0a2.09,2.09,0,0,0,.5,1,2,2,0,0,0,.9.59,1.9,1.9,0,0,0,1.1,0A2.37,2.37,0,0,0,73.88,16.57Zm-1.76-3.24a1.82,1.82,0,0,0-1,.31,2,2,0,0,0-.67.76l3.45,0a1.41,1.41,0,0,0-.28-.57,1.4,1.4,0,0,0-.43-.34,1.66,1.66,0,0,0-.52-.16A4.17,4.17,0,0,0,72.12,13.33Z" fill="#f9f9f9"/>
          </g>
        </g>
      </g>
    </g>
  </g>
</svg>
