<svg xmlns="http://www.w3.org/2000/svg" width="350" height="56" viewBox="0 0 350 56"><defs><style>.cls-1{fill:#fdfefd;}.cls-2{fill:#9f732a;}.cls-3{fill:#cd882a;}.cls-4{fill:#edb31f;}.cls-5{fill:#f9c758;}.cls-5,.cls-6,.cls-7,.cls-8{fill-rule:evenodd;}.cls-6,.cls-9{fill:#cc962b;}.cls-7{fill:#5e5f5f;}.cls-8{fill:#888;}.cls-10{fill:#fff;stroke:#f9c758;stroke-miterlimit:10;stroke-width:0.25px;}</style></defs><title>submit_1</title><g id="Layer_2" data-name="Layer 2"><g id="Layer_1-2" data-name="Layer 1"><rect class="cls-1" width="175" height="49.53" rx="24.69" ry="24.69"/><rect class="cls-2" x="2.68" y="1.44" width="169.1" height="45.52" rx="22.69" ry="22.69"/><rect class="cls-3" x="2.19" y="1.1" width="169.53" height="44.03" rx="21.94" ry="21.94"/><rect class="cls-4" x="3.54" y="0.68" width="167.45" height="39.46" rx="19.67" ry="19.67"/><path class="cls-5" d="M151.35.68H23.1A19.72,19.72,0,0,0,3.5,20.41h0c0,.38,0,.76,0,1.14A19.72,19.72,0,0,1,23.1,3H151.35a19.72,19.72,0,0,1,19.57,18.59c0-.38,0-.76,0-1.14h0A19.72,19.72,0,0,0,151.35.68Z"/><path class="cls-6" d="M151.35,37.85H23.1A19.72,19.72,0,0,1,3.54,19.27c0,.38,0,.76,0,1.14h0A19.72,19.72,0,0,0,23.1,40.13H151.35A19.72,19.72,0,0,0,171,20.41h0c0-.38,0-.76,0-1.14A19.72,19.72,0,0,1,151.35,37.85Z"/><path class="cls-7" d="M150.39,51.05H24.61A24.67,24.67,0,0,1,.12,28.76C0,29.57,0,30.4,0,31.23H0A24.69,24.69,0,0,0,24.61,56H150.39A24.69,24.69,0,0,0,175,31.23h0c0-.83,0-1.66-.12-2.47A24.67,24.67,0,0,1,150.39,51.05Z"/><path class="cls-8" d="M150.39,49.53H24.61A24.68,24.68,0,0,1,0,25.91c0,.38,0,.76,0,1.14H0A24.69,24.69,0,0,0,24.61,51.82H150.39A24.69,24.69,0,0,0,175,27h0c0-.38,0-.76,0-1.14A24.68,24.68,0,0,1,150.39,49.53Z"/><path class="cls-9" d="M70.14,17.87a.5.5,0,0,1,0,.51.83.83,0,0,1-.41.3,1,1,0,0,1-.51,0,.38.38,0,0,1-.31-.32,2.15,2.15,0,0,0-.42-.9,2.24,2.24,0,0,0-.6-.51,1.87,1.87,0,0,0-.61-.22l-.43-.07a2.38,2.38,0,0,0-.9.09,2.24,2.24,0,0,0-.7.35,1.85,1.85,0,0,0-.47.52,1.3,1.3,0,0,0-.2.59,1.79,1.79,0,0,0,.16,1,1.83,1.83,0,0,0,.63.67,5,5,0,0,0,1,.49l1.2.47q.6.25,1.2.56a4,4,0,0,1,1,.74,2.84,2.84,0,0,1,.66,1.06,3.36,3.36,0,0,1,.13,1.5A3.23,3.23,0,0,1,70,26.32a3.29,3.29,0,0,1-1.1,1,4.1,4.1,0,0,1-1.43.47,4.38,4.38,0,0,1-1.51,0,4.31,4.31,0,0,1-1.79-.79,2.79,2.79,0,0,1-1-1.59.79.79,0,0,1,.19-.59,1.08,1.08,0,0,1,.46-.32.7.7,0,0,1,.49,0,.42.42,0,0,1,.27.36,1.46,1.46,0,0,0,.66,1.07,3.08,3.08,0,0,0,2.15.46,2.11,2.11,0,0,0,.78-.28,2,2,0,0,0,.6-.56,2,2,0,0,0,.32-.85A1.87,1.87,0,0,0,69,23.7,1.78,1.78,0,0,0,68.5,23a3.26,3.26,0,0,0-.8-.51l-1-.43q-.66-.25-1.34-.55a5.12,5.12,0,0,1-1.2-.72,3,3,0,0,1-.83-1.06,2.91,2.91,0,0,1-.21-1.57,3,3,0,0,1,.43-1.32,3.12,3.12,0,0,1,.88-.92,3.7,3.7,0,0,1,1.16-.53,4,4,0,0,1,1.26-.13,4.1,4.1,0,0,1,.84.15,3.51,3.51,0,0,1,.94.42,3.61,3.61,0,0,1,.87.78A3.64,3.64,0,0,1,70.14,17.87Z"/><path class="cls-9" d="M74,21a18.27,18.27,0,0,0,0,2.8,5.43,5.43,0,0,0,.29,1.5,1.06,1.06,0,0,0,.48.62,1.3,1.3,0,0,0,.51.12,1.76,1.76,0,0,0,.76-.17A2.13,2.13,0,0,0,77,24.72a2,2,0,0,0,.16-.78V21.17a.75.75,0,0,1,.23-.52.81.81,0,0,1,.48-.23.77.77,0,0,1,.51.13.76.76,0,0,1,.3.57l0,5.88a.57.57,0,0,1-.22.52.79.79,0,0,1-.5.13,1,1,0,0,1-.5-.17.44.44,0,0,1-.22-.38l0-.31a3.31,3.31,0,0,1-.93.51,3.18,3.18,0,0,1-1.06.18,2.36,2.36,0,0,1-2.49-1.73,7,7,0,0,1-.32-2q0-1.19,0-2.66a.59.59,0,0,1,.26-.52.89.89,0,0,1,.53-.13,1.11,1.11,0,0,1,.52.17A.39.39,0,0,1,74,21Z"/><path class="cls-9" d="M82.19,27.19a.44.44,0,0,1-.22.38,1,1,0,0,1-.5.17.79.79,0,0,1-.5-.13.57.57,0,0,1-.22-.52l0-11.07a.76.76,0,0,1,.3-.57.76.76,0,0,1,.51-.13.81.81,0,0,1,.48.23.76.76,0,0,1,.23.52v1.32q0,.56,0,1.2t0,1.21q0,.57,0,.94t0,.39a3.45,3.45,0,0,1,.9-.46,3.14,3.14,0,0,1,1-.17,3.19,3.19,0,0,1,1.33.28,3.6,3.6,0,0,1,1.09.76,3.46,3.46,0,0,1,.73,1.12,3.58,3.58,0,0,1,0,2.7,3.57,3.57,0,0,1-.73,1.13,3.5,3.5,0,0,1-1.09.77,3.28,3.28,0,0,1-2.39.11,3.3,3.3,0,0,1-.93-.51Zm4-3.14a2,2,0,0,0-.59-1.43,2.23,2.23,0,0,0-.62-.44,1.83,1.83,0,0,0-1.52,0,2.22,2.22,0,0,0-.62.44,2,2,0,0,0-.43,2.21,2.13,2.13,0,0,0,1.05,1.1,1.83,1.83,0,0,0,1.52,0A2.13,2.13,0,0,0,86,24.82,2,2,0,0,0,86.2,24Z"/><path class="cls-9" d="M94.23,27a20.07,20.07,0,0,0-.08-2.68,6.52,6.52,0,0,0-.32-1.52,1.33,1.33,0,0,0-.47-.68,1,1,0,0,0-.5-.16,1.77,1.77,0,0,0-.76.17A2.13,2.13,0,0,0,91,23.28a2,2,0,0,0-.16.78v2.77a.76.76,0,0,1-.23.52.81.81,0,0,1-.48.23.76.76,0,0,1-.51-.13.76.76,0,0,1-.3-.57l0-5.88a.57.57,0,0,1,.22-.52.79.79,0,0,1,.5-.13,1,1,0,0,1,.5.17.44.44,0,0,1,.22.38l0,.31a3.31,3.31,0,0,1,.93-.51,3.17,3.17,0,0,1,1.06-.18,2.55,2.55,0,0,1,1.35.32,2.31,2.31,0,0,1,.84.91,3.26,3.26,0,0,1,1.14-1,2.69,2.69,0,0,1,1.18-.34,2.38,2.38,0,0,1,1.58.48,2.89,2.89,0,0,1,.85,1.33,7.68,7.68,0,0,1,.34,2q.06,1.18.06,2.57a.57.57,0,0,1-.22.52.79.79,0,0,1-.5.13,1,1,0,0,1-.5-.17.44.44,0,0,1-.22-.38,20.07,20.07,0,0,0-.08-2.68,6.52,6.52,0,0,0-.32-1.52,1.33,1.33,0,0,0-.47-.68,1,1,0,0,0-.5-.16,1.57,1.57,0,0,0-1.16.49,2.94,2.94,0,0,0-.69,1.11q.1.74.13,1.59t0,1.83a.57.57,0,0,1-.22.52.79.79,0,0,1-.5.13,1,1,0,0,1-.5-.17A.44.44,0,0,1,94.23,27Z"/><path class="cls-9" d="M102.06,19.16a.87.87,0,0,1,.24-.62.82.82,0,0,1,.62-.25.87.87,0,0,1,.88.88.82.82,0,0,1-.25.62.87.87,0,0,1-.62.24.83.83,0,0,1-.86-.86Zm0,2a.59.59,0,0,1,.33-.48,1,1,0,0,1,.57-.09,1,1,0,0,1,.51.21.38.38,0,0,1,.16.41l0,5.57a.57.57,0,0,1-.22.52.79.79,0,0,1-.5.13,1,1,0,0,1-.5-.17.44.44,0,0,1-.22-.38Z"/><path class="cls-9" d="M107.7,20l0-3.09a.59.59,0,0,1,.33-.48,1,1,0,0,1,.56-.1.92.92,0,0,1,.5.21.38.38,0,0,1,.16.41v3h1.72a.66.66,0,0,1,.5.31.78.78,0,0,1,.11.52.76.76,0,0,1-.25.46.72.72,0,0,1-.59.16h-1.46l0,5.41a.56.56,0,0,1-.23.52.83.83,0,0,1-.51.13,1.09,1.09,0,0,1-.51-.17.44.44,0,0,1-.23-.38l0-5.51H106.1a.57.57,0,0,1-.52-.22.78.78,0,0,1-.13-.5,1,1,0,0,1,.17-.5A.44.44,0,0,1,106,20Z"/><path class="cls-10" d="M70.14,14.87a.5.5,0,0,1,0,.51.83.83,0,0,1-.41.3,1,1,0,0,1-.51,0,.38.38,0,0,1-.31-.32,2.15,2.15,0,0,0-.42-.9,2.24,2.24,0,0,0-.6-.51,1.87,1.87,0,0,0-.61-.22l-.43-.07a2.38,2.38,0,0,0-.9.09,2.24,2.24,0,0,0-.7.35,1.85,1.85,0,0,0-.47.52,1.3,1.3,0,0,0-.2.59,1.79,1.79,0,0,0,.16,1,1.83,1.83,0,0,0,.63.67,5,5,0,0,0,1,.49l1.2.47q.6.25,1.2.56a4,4,0,0,1,1,.74,2.84,2.84,0,0,1,.66,1.06,3.36,3.36,0,0,1,.13,1.5A3.23,3.23,0,0,1,70,23.32a3.29,3.29,0,0,1-1.1,1,4.1,4.1,0,0,1-1.43.47,4.38,4.38,0,0,1-1.51,0,4.31,4.31,0,0,1-1.79-.79,2.79,2.79,0,0,1-1-1.59.79.79,0,0,1,.19-.59,1.08,1.08,0,0,1,.46-.32.7.7,0,0,1,.49,0,.42.42,0,0,1,.27.36,1.46,1.46,0,0,0,.66,1.07,3.08,3.08,0,0,0,2.15.46,2.11,2.11,0,0,0,.78-.28,2,2,0,0,0,.6-.56,2,2,0,0,0,.32-.85A1.87,1.87,0,0,0,69,20.7,1.78,1.78,0,0,0,68.5,20a3.26,3.26,0,0,0-.8-.51l-1-.43q-.66-.25-1.34-.55a5.12,5.12,0,0,1-1.2-.72,3,3,0,0,1-.83-1.06,2.91,2.91,0,0,1-.21-1.57,3,3,0,0,1,.43-1.32,3.12,3.12,0,0,1,.88-.92,3.7,3.7,0,0,1,1.16-.53,4,4,0,0,1,1.26-.13,4.1,4.1,0,0,1,.84.15,3.51,3.51,0,0,1,.94.42,3.61,3.61,0,0,1,.87.78A3.64,3.64,0,0,1,70.14,14.87Z"/><path class="cls-10" d="M74,18a18.27,18.27,0,0,0,0,2.8,5.43,5.43,0,0,0,.29,1.5,1.06,1.06,0,0,0,.48.62,1.3,1.3,0,0,0,.51.12,1.76,1.76,0,0,0,.76-.17A2.13,2.13,0,0,0,77,21.72a2,2,0,0,0,.16-.78V18.17a.75.75,0,0,1,.23-.52.81.81,0,0,1,.48-.23.77.77,0,0,1,.51.13.76.76,0,0,1,.3.57l0,5.88a.57.57,0,0,1-.22.52.79.79,0,0,1-.5.13,1,1,0,0,1-.5-.17.44.44,0,0,1-.22-.38l0-.31a3.31,3.31,0,0,1-.93.51,3.18,3.18,0,0,1-1.06.18,2.36,2.36,0,0,1-2.49-1.73,7,7,0,0,1-.32-2q0-1.19,0-2.66a.59.59,0,0,1,.26-.52.89.89,0,0,1,.53-.13,1.11,1.11,0,0,1,.52.17A.39.39,0,0,1,74,18Z"/><path class="cls-10" d="M82.19,24.19a.44.44,0,0,1-.22.38,1,1,0,0,1-.5.17.79.79,0,0,1-.5-.13.57.57,0,0,1-.22-.52l0-11.07a.76.76,0,0,1,.3-.57.76.76,0,0,1,.51-.13.81.81,0,0,1,.48.23.76.76,0,0,1,.23.52v1.32q0,.56,0,1.2t0,1.21q0,.57,0,.94t0,.39a3.45,3.45,0,0,1,.9-.46,3.14,3.14,0,0,1,1-.17,3.19,3.19,0,0,1,1.33.28,3.6,3.6,0,0,1,1.09.76,3.46,3.46,0,0,1,.73,1.12,3.58,3.58,0,0,1,0,2.7,3.57,3.57,0,0,1-.73,1.13,3.5,3.5,0,0,1-1.09.77,3.28,3.28,0,0,1-2.39.11,3.3,3.3,0,0,1-.93-.51Zm4-3.14a2,2,0,0,0-.59-1.43,2.23,2.23,0,0,0-.62-.44,1.83,1.83,0,0,0-1.52,0,2.22,2.22,0,0,0-.62.44,2,2,0,0,0-.43,2.21,2.13,2.13,0,0,0,1.05,1.1,1.83,1.83,0,0,0,1.52,0A2.13,2.13,0,0,0,86,21.82,2,2,0,0,0,86.2,21Z"/><path class="cls-10" d="M94.23,24a20.07,20.07,0,0,0-.08-2.68,6.52,6.52,0,0,0-.32-1.52,1.33,1.33,0,0,0-.47-.68,1,1,0,0,0-.5-.16,1.77,1.77,0,0,0-.76.17A2.13,2.13,0,0,0,91,20.28a2,2,0,0,0-.16.78v2.77a.76.76,0,0,1-.23.52.81.81,0,0,1-.48.23.76.76,0,0,1-.51-.13.76.76,0,0,1-.3-.57l0-5.88a.57.57,0,0,1,.22-.52.79.79,0,0,1,.5-.13,1,1,0,0,1,.5.17.44.44,0,0,1,.22.38l0,.31a3.31,3.31,0,0,1,.93-.51,3.17,3.17,0,0,1,1.06-.18,2.55,2.55,0,0,1,1.35.32,2.31,2.31,0,0,1,.84.91,3.26,3.26,0,0,1,1.14-1,2.69,2.69,0,0,1,1.18-.34,2.38,2.38,0,0,1,1.58.48,2.89,2.89,0,0,1,.85,1.33,7.68,7.68,0,0,1,.34,2q.06,1.18.06,2.57a.57.57,0,0,1-.22.52.79.79,0,0,1-.5.13,1,1,0,0,1-.5-.17.44.44,0,0,1-.22-.38,20.07,20.07,0,0,0-.08-2.68,6.52,6.52,0,0,0-.32-1.52,1.33,1.33,0,0,0-.47-.68,1,1,0,0,0-.5-.16,1.57,1.57,0,0,0-1.16.49,2.94,2.94,0,0,0-.69,1.11q.1.74.13,1.59t0,1.83a.57.57,0,0,1-.22.52.79.79,0,0,1-.5.13,1,1,0,0,1-.5-.17A.44.44,0,0,1,94.23,24Z"/><path class="cls-10" d="M102.06,16.16a.87.87,0,0,1,.24-.62.82.82,0,0,1,.62-.25.87.87,0,0,1,.88.88.82.82,0,0,1-.25.62.87.87,0,0,1-.62.24.83.83,0,0,1-.86-.86Zm0,2a.59.59,0,0,1,.33-.48,1,1,0,0,1,.57-.09,1,1,0,0,1,.51.21.38.38,0,0,1,.16.41l0,5.57a.57.57,0,0,1-.22.52.79.79,0,0,1-.5.13,1,1,0,0,1-.5-.17.44.44,0,0,1-.22-.38Z"/><path class="cls-10" d="M107.7,17l0-3.09a.59.59,0,0,1,.33-.48,1,1,0,0,1,.56-.1.92.92,0,0,1,.5.21.38.38,0,0,1,.16.41v3h1.72a.66.66,0,0,1,.5.31.78.78,0,0,1,.11.52.76.76,0,0,1-.25.46.72.72,0,0,1-.59.16h-1.46l0,5.41a.56.56,0,0,1-.23.52.83.83,0,0,1-.51.13,1.09,1.09,0,0,1-.51-.17.44.44,0,0,1-.23-.38l0-5.51H106.1a.57.57,0,0,1-.52-.22.78.78,0,0,1-.13-.5,1,1,0,0,1,.17-.5A.44.44,0,0,1,106,17Z"/><rect class="cls-1" x="175" y="6" width="175" height="43.79" rx="21.89" ry="21.89"/><rect class="cls-2" x="177.68" y="7.22" width="169.1" height="40.09" rx="20.05" ry="20.05"/><rect class="cls-3" x="177.19" y="7.22" width="169.53" height="38.33" rx="19.17" ry="19.17"/><rect class="cls-4" x="178.54" y="7.22" width="167.45" height="37.92" rx="18.96" ry="18.96"/><path class="cls-5" d="M326.35,7.22H198.1c-10.78,0-19.6,8.53-19.6,19h0c0,.37,0,.73,0,1.1.59-9.92,9.17-17.86,19.57-17.86H326.35c10.4,0,19,7.94,19.57,17.86,0-.36,0-.73,0-1.1h0C346,15.75,337.13,7.22,326.35,7.22Z"/><path class="cls-6" d="M326.35,42.95H198.1c-10.4,0-19-7.94-19.57-17.86,0,.36,0,.73,0,1.1h0c0,10.43,8.82,19,19.6,19H326.35c10.78,0,19.6-8.53,19.6-19h0c0-.37,0-.73,0-1.1C345.32,35,336.75,42.95,326.35,42.95Z"/><path class="cls-7" d="M325.39,51.25H199.61c-12.76,0-23.25-9.4-24.49-21.42A23.28,23.28,0,0,0,175,32.2h0C175,45.34,186,56,199.61,56H325.39C339,56,350,45.34,350,32.2h0a23.28,23.28,0,0,0-.12-2.38C348.64,41.85,338.15,51.25,325.39,51.25Z"/><path class="cls-8" d="M325.39,49.79H199.61c-13.21,0-24-10.07-24.58-22.7,0,.36,0,.73,0,1.1h0C175,41.32,186,52,199.61,52H325.39C339,52,350,41.32,350,28.18h0c0-.37,0-.73,0-1.1C349.38,39.72,338.6,49.79,325.39,49.79Z"/><path class="cls-9" d="M245.14,23.64a.5.5,0,0,1,0,.51.83.83,0,0,1-.41.3,1,1,0,0,1-.51,0,.38.38,0,0,1-.31-.32,2.15,2.15,0,0,0-.42-.9,2.24,2.24,0,0,0-.6-.51,1.87,1.87,0,0,0-.61-.22l-.43-.07a2.38,2.38,0,0,0-.9.09,2.24,2.24,0,0,0-.7.35,1.85,1.85,0,0,0-.47.52,1.3,1.3,0,0,0-.2.59,1.79,1.79,0,0,0,.16,1,1.83,1.83,0,0,0,.63.67,5,5,0,0,0,1,.49l1.2.47q.6.25,1.2.56a4,4,0,0,1,1,.74,2.84,2.84,0,0,1,.66,1.06,3.36,3.36,0,0,1,.13,1.5,3.23,3.23,0,0,1-.55,1.55,3.29,3.29,0,0,1-1.1,1,4.1,4.1,0,0,1-1.43.47,4.38,4.38,0,0,1-1.51,0,4.31,4.31,0,0,1-1.79-.79,2.79,2.79,0,0,1-1-1.59.79.79,0,0,1,.19-.59,1.08,1.08,0,0,1,.46-.32.7.7,0,0,1,.49,0,.42.42,0,0,1,.27.36,1.46,1.46,0,0,0,.66,1.07,3.08,3.08,0,0,0,2.15.46,2.11,2.11,0,0,0,.78-.28,2,2,0,0,0,.6-.56,2,2,0,0,0,.32-.85,1.87,1.87,0,0,0-.08-.95,1.78,1.78,0,0,0-.49-.69,3.26,3.26,0,0,0-.8-.51l-1-.43q-.66-.25-1.34-.55a5.12,5.12,0,0,1-1.2-.72,3,3,0,0,1-.83-1.06,2.91,2.91,0,0,1-.21-1.57,3,3,0,0,1,.43-1.32,3.12,3.12,0,0,1,.88-.92,3.7,3.7,0,0,1,1.16-.53,4,4,0,0,1,1.26-.13,4.1,4.1,0,0,1,.84.15,3.51,3.51,0,0,1,.94.42,3.61,3.61,0,0,1,.87.78A3.64,3.64,0,0,1,245.14,23.64Z"/><path class="cls-9" d="M249,26.73a18.27,18.27,0,0,0,0,2.8,5.43,5.43,0,0,0,.29,1.5,1.06,1.06,0,0,0,.48.62,1.3,1.3,0,0,0,.51.12,1.76,1.76,0,0,0,.76-.17A2.13,2.13,0,0,0,252,30.5a2,2,0,0,0,.16-.78V26.94a.75.75,0,0,1,.23-.52.81.81,0,0,1,.48-.23.77.77,0,0,1,.51.13.76.76,0,0,1,.3.57l0,5.88a.57.57,0,0,1-.22.52.79.79,0,0,1-.5.13,1,1,0,0,1-.5-.17.44.44,0,0,1-.22-.38l0-.31a3.31,3.31,0,0,1-.93.51,3.18,3.18,0,0,1-1.06.18,2.36,2.36,0,0,1-2.49-1.73,7,7,0,0,1-.32-2q0-1.19,0-2.66a.59.59,0,0,1,.26-.52.89.89,0,0,1,.53-.13,1.11,1.11,0,0,1,.52.17A.39.39,0,0,1,249,26.73Z"/><path class="cls-9" d="M257.19,33a.44.44,0,0,1-.22.38,1,1,0,0,1-.5.17.79.79,0,0,1-.5-.13.57.57,0,0,1-.22-.52l0-11.07a.76.76,0,0,1,.3-.57.76.76,0,0,1,.51-.13.81.81,0,0,1,.48.23.76.76,0,0,1,.23.52v1.32q0,.56,0,1.2t0,1.21q0,.57,0,.94t0,.39a3.45,3.45,0,0,1,.9-.46,3.14,3.14,0,0,1,1-.17,3.19,3.19,0,0,1,1.33.28,3.6,3.6,0,0,1,1.09.76,3.46,3.46,0,0,1,.73,1.12,3.58,3.58,0,0,1,0,2.7,3.57,3.57,0,0,1-.73,1.13,3.5,3.5,0,0,1-1.09.77,3.28,3.28,0,0,1-2.39.11,3.3,3.3,0,0,1-.93-.51Zm4-3.14a2,2,0,0,0-.59-1.43A2.23,2.23,0,0,0,260,28a1.83,1.83,0,0,0-1.52,0,2.22,2.22,0,0,0-.62.44,2,2,0,0,0-.43,2.21,2.13,2.13,0,0,0,1.05,1.1,1.83,1.83,0,0,0,1.52,0A2.13,2.13,0,0,0,261,30.6,2,2,0,0,0,261.2,29.82Z"/><path class="cls-9" d="M269.23,32.82a20.07,20.07,0,0,0-.08-2.68,6.52,6.52,0,0,0-.32-1.52,1.33,1.33,0,0,0-.47-.68,1,1,0,0,0-.5-.16,1.77,1.77,0,0,0-.76.17,2.13,2.13,0,0,0-1.05,1.1,2,2,0,0,0-.16.78v2.77a.76.76,0,0,1-.23.52.81.81,0,0,1-.48.23.76.76,0,0,1-.51-.13.76.76,0,0,1-.3-.57l0-5.88a.57.57,0,0,1,.22-.52.79.79,0,0,1,.5-.13,1,1,0,0,1,.5.17.44.44,0,0,1,.22.38l0,.31a3.31,3.31,0,0,1,.93-.51,3.17,3.17,0,0,1,1.06-.18,2.55,2.55,0,0,1,1.35.32,2.31,2.31,0,0,1,.84.91,3.26,3.26,0,0,1,1.14-1,2.69,2.69,0,0,1,1.18-.34,2.38,2.38,0,0,1,1.58.48,2.89,2.89,0,0,1,.85,1.33,7.68,7.68,0,0,1,.34,2q.06,1.18.06,2.57a.57.57,0,0,1-.22.52.79.79,0,0,1-.5.13,1,1,0,0,1-.5-.17.44.44,0,0,1-.22-.38,20.07,20.07,0,0,0-.08-2.68,6.52,6.52,0,0,0-.32-1.52,1.33,1.33,0,0,0-.47-.68,1,1,0,0,0-.5-.16,1.57,1.57,0,0,0-1.16.49,2.94,2.94,0,0,0-.69,1.11q.1.74.13,1.59t0,1.83a.57.57,0,0,1-.22.52.79.79,0,0,1-.5.13,1,1,0,0,1-.5-.17A.44.44,0,0,1,269.23,32.82Z"/><path class="cls-9" d="M277.06,24.93a.87.87,0,0,1,.24-.62.82.82,0,0,1,.62-.25.87.87,0,0,1,.88.88.82.82,0,0,1-.25.62.87.87,0,0,1-.62.24.83.83,0,0,1-.86-.86Zm0,2a.59.59,0,0,1,.33-.48,1,1,0,0,1,.57-.09,1,1,0,0,1,.51.21.38.38,0,0,1,.16.41l0,5.57a.57.57,0,0,1-.22.52.79.79,0,0,1-.5.13,1,1,0,0,1-.5-.17.44.44,0,0,1-.22-.38Z"/><path class="cls-9" d="M282.7,25.79l0-3.09a.59.59,0,0,1,.33-.48,1,1,0,0,1,.56-.1.92.92,0,0,1,.5.21.38.38,0,0,1,.16.41v3h1.72a.66.66,0,0,1,.5.31.78.78,0,0,1,.11.52.76.76,0,0,1-.25.46.72.72,0,0,1-.59.16h-1.46l0,5.41a.56.56,0,0,1-.23.52.83.83,0,0,1-.51.13,1.09,1.09,0,0,1-.51-.17.44.44,0,0,1-.23-.38l0-5.51H281.1a.57.57,0,0,1-.52-.22.78.78,0,0,1-.13-.5,1,1,0,0,1,.17-.5.44.44,0,0,1,.38-.22Z"/><path class="cls-10" d="M245.14,23.14a.5.5,0,0,1,0,.51.83.83,0,0,1-.41.3,1,1,0,0,1-.51,0,.38.38,0,0,1-.31-.32,2.15,2.15,0,0,0-.42-.9,2.24,2.24,0,0,0-.6-.51,1.87,1.87,0,0,0-.61-.22l-.43-.07a2.38,2.38,0,0,0-.9.09,2.24,2.24,0,0,0-.7.35,1.85,1.85,0,0,0-.47.52,1.3,1.3,0,0,0-.2.59,1.79,1.79,0,0,0,.16,1,1.83,1.83,0,0,0,.63.67,5,5,0,0,0,1,.49l1.2.47q.6.25,1.2.56a4,4,0,0,1,1,.74,2.84,2.84,0,0,1,.66,1.06,3.36,3.36,0,0,1,.13,1.5,3.23,3.23,0,0,1-.55,1.55,3.29,3.29,0,0,1-1.1,1,4.1,4.1,0,0,1-1.43.47A4.38,4.38,0,0,1,241,33a4.31,4.31,0,0,1-1.79-.79,2.79,2.79,0,0,1-1-1.59.79.79,0,0,1,.19-.59,1.08,1.08,0,0,1,.46-.32.7.7,0,0,1,.49,0,.42.42,0,0,1,.27.36,1.46,1.46,0,0,0,.66,1.07,3.08,3.08,0,0,0,2.15.46,2.11,2.11,0,0,0,.78-.28,2,2,0,0,0,.6-.56,2,2,0,0,0,.32-.85A1.87,1.87,0,0,0,244,29a1.78,1.78,0,0,0-.49-.69,3.26,3.26,0,0,0-.8-.51l-1-.43q-.66-.25-1.34-.55a5.12,5.12,0,0,1-1.2-.72,3,3,0,0,1-.83-1.06,2.91,2.91,0,0,1-.21-1.57,3,3,0,0,1,.43-1.32,3.12,3.12,0,0,1,.88-.92,3.7,3.7,0,0,1,1.16-.53,4,4,0,0,1,1.26-.13,4.1,4.1,0,0,1,.84.15,3.51,3.51,0,0,1,.94.42,3.61,3.61,0,0,1,.87.78A3.64,3.64,0,0,1,245.14,23.14Z"/><path class="cls-10" d="M249,26.23a18.27,18.27,0,0,0,0,2.8,5.43,5.43,0,0,0,.29,1.5,1.06,1.06,0,0,0,.48.62,1.3,1.3,0,0,0,.51.12,1.76,1.76,0,0,0,.76-.17A2.13,2.13,0,0,0,252,30a2,2,0,0,0,.16-.78V26.44a.75.75,0,0,1,.23-.52.81.81,0,0,1,.48-.23.77.77,0,0,1,.51.13.76.76,0,0,1,.3.57l0,5.88a.57.57,0,0,1-.22.52.79.79,0,0,1-.5.13,1,1,0,0,1-.5-.17.44.44,0,0,1-.22-.38l0-.31a3.31,3.31,0,0,1-.93.51,3.18,3.18,0,0,1-1.06.18A2.36,2.36,0,0,1,247.75,31a7,7,0,0,1-.32-2q0-1.19,0-2.66a.59.59,0,0,1,.26-.52.89.89,0,0,1,.53-.13,1.11,1.11,0,0,1,.52.17A.39.39,0,0,1,249,26.23Z"/><path class="cls-10" d="M257.19,32.46a.44.44,0,0,1-.22.38,1,1,0,0,1-.5.17.79.79,0,0,1-.5-.13.57.57,0,0,1-.22-.52l0-11.07a.76.76,0,0,1,.3-.57.76.76,0,0,1,.51-.13.81.81,0,0,1,.48.23.76.76,0,0,1,.23.52v1.32q0,.56,0,1.2t0,1.21q0,.57,0,.94t0,.39a3.45,3.45,0,0,1,.9-.46,3.14,3.14,0,0,1,1-.17,3.19,3.19,0,0,1,1.33.28,3.6,3.6,0,0,1,1.09.76,3.46,3.46,0,0,1,.73,1.12,3.58,3.58,0,0,1,0,2.7,3.57,3.57,0,0,1-.73,1.13,3.5,3.5,0,0,1-1.09.77,3.28,3.28,0,0,1-2.39.11,3.3,3.3,0,0,1-.93-.51Zm4-3.14a2,2,0,0,0-.59-1.43,2.23,2.23,0,0,0-.62-.44,1.83,1.83,0,0,0-1.52,0,2.22,2.22,0,0,0-.62.44,2,2,0,0,0-.43,2.21,2.13,2.13,0,0,0,1.05,1.1,1.83,1.83,0,0,0,1.52,0A2.13,2.13,0,0,0,261,30.1,2,2,0,0,0,261.2,29.32Z"/><path class="cls-10" d="M269.23,32.32a20.07,20.07,0,0,0-.08-2.68,6.52,6.52,0,0,0-.32-1.52,1.33,1.33,0,0,0-.47-.68,1,1,0,0,0-.5-.16,1.77,1.77,0,0,0-.76.17,2.13,2.13,0,0,0-1.05,1.1,2,2,0,0,0-.16.78v2.77a.76.76,0,0,1-.23.52.81.81,0,0,1-.48.23.76.76,0,0,1-.51-.13.76.76,0,0,1-.3-.57l0-5.88a.57.57,0,0,1,.22-.52.79.79,0,0,1,.5-.13,1,1,0,0,1,.5.17.44.44,0,0,1,.22.38l0,.31a3.31,3.31,0,0,1,.93-.51,3.17,3.17,0,0,1,1.06-.18,2.55,2.55,0,0,1,1.35.32A2.31,2.31,0,0,1,270,27a3.26,3.26,0,0,1,1.14-1,2.69,2.69,0,0,1,1.18-.34,2.38,2.38,0,0,1,1.58.48,2.89,2.89,0,0,1,.85,1.33,7.68,7.68,0,0,1,.34,2q.06,1.18.06,2.57a.57.57,0,0,1-.22.52.79.79,0,0,1-.5.13,1,1,0,0,1-.5-.17.44.44,0,0,1-.22-.38,20.07,20.07,0,0,0-.08-2.68,6.52,6.52,0,0,0-.32-1.52,1.33,1.33,0,0,0-.47-.68,1,1,0,0,0-.5-.16,1.57,1.57,0,0,0-1.16.49,2.94,2.94,0,0,0-.69,1.11q.1.74.13,1.59t0,1.83a.57.57,0,0,1-.22.52.79.79,0,0,1-.5.13,1,1,0,0,1-.5-.17A.44.44,0,0,1,269.23,32.32Z"/><path class="cls-10" d="M277.06,24.43a.87.87,0,0,1,.24-.62.82.82,0,0,1,.62-.25.87.87,0,0,1,.88.88.82.82,0,0,1-.25.62.87.87,0,0,1-.62.24.83.83,0,0,1-.86-.86Zm0,2a.59.59,0,0,1,.33-.48,1,1,0,0,1,.57-.09,1,1,0,0,1,.51.21.38.38,0,0,1,.16.41l0,5.57a.57.57,0,0,1-.22.52.79.79,0,0,1-.5.13,1,1,0,0,1-.5-.17.44.44,0,0,1-.22-.38Z"/><path class="cls-10" d="M282.7,25.29l0-3.09a.59.59,0,0,1,.33-.48,1,1,0,0,1,.56-.1.92.92,0,0,1,.5.21.38.38,0,0,1,.16.41v3h1.72a.66.66,0,0,1,.5.31.78.78,0,0,1,.11.52.76.76,0,0,1-.25.46.72.72,0,0,1-.59.16h-1.46l0,5.41a.56.56,0,0,1-.23.52.83.83,0,0,1-.51.13,1.09,1.09,0,0,1-.51-.17.44.44,0,0,1-.23-.38l0-5.51H281.1a.57.57,0,0,1-.52-.22.78.78,0,0,1-.13-.5,1,1,0,0,1,.17-.5.44.44,0,0,1,.38-.22Z"/></g></g></svg>