<svg xmlns="http://www.w3.org/2000/svg" width="156.56" height="50.25" viewBox="0 0 156.56 50.25">
  <title>done_1</title>
  <g id="Layer_2" data-name="Layer 2">
    <g id="Layer_1-2" data-name="Layer 1">
      <g>
        <rect x="0.42" width="156.14" height="43.91" rx="19.17" ry="19.17" fill="#fff"/>
        <rect x="2.81" y="0.6" width="150.87" height="40.36" rx="16.66" ry="16.66" fill="#3f3f3f"/>
        <rect x="2.38" y="0.98" width="151.26" height="39.04" rx="16.66" ry="16.66" fill="#5e5e5e"/>
        <rect x="3.55" y="0.6" width="149.4" height="34.98" rx="15.23" ry="15.23" fill="#8c8c8c"/>
        <path d="M134.5,43.64H22A22.06,22.06,0,0,1,.06,22.76c0,.37-.06.74-.06,1.12H0a22.07,22.07,0,0,0,22,22H134.5a22.07,22.07,0,0,0,22-22h0c0-.38,0-.75-.06-1.12A22.06,22.06,0,0,1,134.5,43.64Z" fill="#888" fill-rule="evenodd"/>
        <path d="M134.5,45.77H22A22.08,22.08,0,0,1,.11,26,22,22,0,0,0,0,28.25H0a22.07,22.07,0,0,0,22,22H134.5a22.07,22.07,0,0,0,22-22h0a22,22,0,0,0-.11-2.24A22.08,22.08,0,0,1,134.5,45.77Z" fill="#313131" fill-rule="evenodd"/>
        <path d="M133.83,35.37H22.67C12.53,35.37,4.19,28,3.61,18.9c0,.34-.06.68-.06,1,0,9.62,8.61,17.49,19.12,17.49H133.83c10.52,0,19.12-7.87,19.12-17.49,0-.35,0-.68-.06-1C152.31,28,144,35.37,133.83,35.37Z" fill="#3f3f3f" fill-rule="evenodd"/>
        <path d="M133.83.6H22.67C8.66.6,3.55,8.47,3.55,18.09h0c0,.52,0,1,.09,1.54.86-8.91,9.09-16,19-16H133.83c10,0,18.18,7,19,16,0-.51.09-1,.09-1.54h0C153,8.47,147.84.6,133.83.6Z" fill="#c7c7c7" fill-rule="evenodd"/>
        <g>
          <g>
            <path d="M57.7,11.91a1.27,1.27,0,0,1,.09-.35,1.86,1.86,0,0,1,.28-.51,2.08,2.08,0,0,1,.52-.47,1.81,1.81,0,0,1,.82-.26,7.68,7.68,0,0,1,3.68.48,5.92,5.92,0,0,1,2.42,1.87,7.49,7.49,0,0,1,1.3,2.82,12.51,12.51,0,0,1,.33,3.29,10.19,10.19,0,0,1-.48,2.82,6.08,6.08,0,0,1-1.35,2.31,6,6,0,0,1-2.38,1.51,9.66,9.66,0,0,1-3.59.46h-.68a1.19,1.19,0,0,1-.58-.16,1,1,0,0,1-.38-.51,3.2,3.2,0,0,1-.14-1.07ZM59.4,24a6.85,6.85,0,0,0,2.68-.2,4.08,4.08,0,0,0,1.78-1.06,4.4,4.4,0,0,0,1-1.74,8.73,8.73,0,0,0,.37-2.26A11.75,11.75,0,0,0,65,16.14a5.59,5.59,0,0,0-.89-2.2,4.12,4.12,0,0,0-1.8-1.43,5.64,5.64,0,0,0-2.93-.27Z" fill="#3f3f3f"/>
            <path d="M69.58,21.35a4.47,4.47,0,0,1,.33-1.71,4.38,4.38,0,0,1,.93-1.42,4.55,4.55,0,0,1,1.38-1,4.12,4.12,0,0,1,3.36,0,4.55,4.55,0,0,1,1.38,1,4.38,4.38,0,0,1,.93,1.42A4.54,4.54,0,0,1,77,24.49a4.42,4.42,0,0,1-1.38,1,4.12,4.12,0,0,1-3.36,0,4.42,4.42,0,0,1-1.38-1,4.51,4.51,0,0,1-.93-1.43A4.46,4.46,0,0,1,69.58,21.35Zm1.8,0a2.52,2.52,0,0,0,.2,1,2.7,2.7,0,0,0,1.33,1.4,2.32,2.32,0,0,0,1.93,0,2.7,2.7,0,0,0,1.33-1.4,2.57,2.57,0,0,0,0-2,2.55,2.55,0,0,0-.54-.82,2.81,2.81,0,0,0-.79-.56,2.32,2.32,0,0,0-1.93,0,2.81,2.81,0,0,0-.79.56,2.56,2.56,0,0,0-.74,1.8Z" fill="#3f3f3f"/>
            <path d="M86.8,25.18a25.42,25.42,0,0,0-.1-3.38,8.26,8.26,0,0,0-.41-1.93A1.69,1.69,0,0,0,85.7,19a1.25,1.25,0,0,0-.63-.2,2.23,2.23,0,0,0-1,.21,2.71,2.71,0,0,0-.79.57,2.67,2.67,0,0,0-.54.83,2.51,2.51,0,0,0-.2,1v3.51a1,1,0,0,1-.3.66,1,1,0,0,1-.61.3.91.91,0,0,1-1-.88l0-7.44a.72.72,0,0,1,.28-.65,1,1,0,0,1,.63-.16,1.31,1.31,0,0,1,.63.21.56.56,0,0,1,.28.48l0,.4a4.18,4.18,0,0,1,1.17-.64A4,4,0,0,1,85,17a3,3,0,0,1,2,.61,3.64,3.64,0,0,1,1.07,1.68,9.71,9.71,0,0,1,.43,2.57q.07,1.49.07,3.25a.72.72,0,0,1-.28.65,1,1,0,0,1-.63.16,1.31,1.31,0,0,1-.63-.21A.56.56,0,0,1,86.8,25.18Z" fill="#3f3f3f"/>
            <path d="M97.47,23a.8.8,0,0,1,.62-.27,1.24,1.24,0,0,1,.67.18,1,1,0,0,1,.41.49.67.67,0,0,1-.16.66,4.65,4.65,0,0,1-1.57,1.3,4.77,4.77,0,0,1-1.78.49,4.62,4.62,0,0,1-1.77-.22,4.42,4.42,0,0,1-1.54-.88,4.37,4.37,0,0,1-1.09-1.47,4.61,4.61,0,0,1-.41-2,4.43,4.43,0,0,1,1.26-3.1,4.55,4.55,0,0,1,1.38-1,4.33,4.33,0,0,1,1.68-.38,4.39,4.39,0,0,1,1.47.2,4.12,4.12,0,0,1,1.26.64,3.62,3.62,0,0,1,.93,1,3.87,3.87,0,0,1,.49,1.38,1.66,1.66,0,0,1-.26,1.32,2.16,2.16,0,0,1-1.69.48l-4.67,0a2.75,2.75,0,0,0,.65,1.33,2.6,2.6,0,0,0,1.19.78A2.51,2.51,0,0,0,96,24,3.13,3.13,0,0,0,97.47,23Zm-2.32-4.27a2.39,2.39,0,0,0-1.28.41,2.67,2.67,0,0,0-.89,1l4.55,0a1.75,1.75,0,0,0-.94-1.2,2.2,2.2,0,0,0-.69-.21A5.56,5.56,0,0,0,95.15,18.76Z" fill="#3f3f3f"/>
          </g>
          <g>
            <path d="M57.7,10.74a1.27,1.27,0,0,1,.09-.35,1.86,1.86,0,0,1,.28-.51,2.08,2.08,0,0,1,.52-.47,1.81,1.81,0,0,1,.82-.26,7.68,7.68,0,0,1,3.68.48,5.92,5.92,0,0,1,2.42,1.87,7.49,7.49,0,0,1,1.3,2.82,12.51,12.51,0,0,1,.33,3.29,10.19,10.19,0,0,1-.48,2.82,6.08,6.08,0,0,1-1.35,2.31,6,6,0,0,1-2.38,1.51,9.66,9.66,0,0,1-3.59.46h-.68a1.19,1.19,0,0,1-.58-.16,1,1,0,0,1-.38-.51,3.2,3.2,0,0,1-.14-1.07Zm1.7,12.08a6.85,6.85,0,0,0,2.68-.2,4.08,4.08,0,0,0,1.78-1.06,4.4,4.4,0,0,0,1-1.74,8.73,8.73,0,0,0,.37-2.26A11.75,11.75,0,0,0,65,15a5.59,5.59,0,0,0-.89-2.2,4.12,4.12,0,0,0-1.8-1.43,5.64,5.64,0,0,0-2.93-.27Z" fill="#f9f9f9"/>
            <path d="M69.58,20.18a4.47,4.47,0,0,1,.33-1.71,4.38,4.38,0,0,1,.93-1.42,4.55,4.55,0,0,1,1.38-1,4.12,4.12,0,0,1,3.36,0,4.55,4.55,0,0,1,1.38,1,4.38,4.38,0,0,1,.93,1.42A4.54,4.54,0,0,1,77,23.32a4.42,4.42,0,0,1-1.38,1,4.12,4.12,0,0,1-3.36,0,4.42,4.42,0,0,1-1.38-1,4.51,4.51,0,0,1-.93-1.43A4.46,4.46,0,0,1,69.58,20.18Zm1.8,0a2.52,2.52,0,0,0,.2,1,2.7,2.7,0,0,0,1.33,1.4,2.32,2.32,0,0,0,1.93,0,2.7,2.7,0,0,0,1.33-1.4,2.57,2.57,0,0,0,0-2,2.55,2.55,0,0,0-.54-.82,2.81,2.81,0,0,0-.79-.56,2.32,2.32,0,0,0-1.93,0,2.81,2.81,0,0,0-.79.56,2.56,2.56,0,0,0-.74,1.8Z" fill="#f9f9f9"/>
            <path d="M86.8,24a25.42,25.42,0,0,0-.1-3.38,8.26,8.26,0,0,0-.41-1.93,1.69,1.69,0,0,0-.59-.87,1.25,1.25,0,0,0-.63-.2,2.23,2.23,0,0,0-1,.21,2.71,2.71,0,0,0-.79.57,2.67,2.67,0,0,0-.54.83,2.51,2.51,0,0,0-.2,1v3.51a1,1,0,0,1-.3.66,1,1,0,0,1-.61.3.91.91,0,0,1-1-.88l0-7.44a.72.72,0,0,1,.28-.65,1,1,0,0,1,.63-.16,1.31,1.31,0,0,1,.63.21.56.56,0,0,1,.28.48l0,.4A4.18,4.18,0,0,1,83.7,16,4,4,0,0,1,85,15.78a3,3,0,0,1,2,.61,3.64,3.64,0,0,1,1.07,1.68,9.71,9.71,0,0,1,.43,2.57q.07,1.49.07,3.25a.72.72,0,0,1-.28.65,1,1,0,0,1-.63.16,1.31,1.31,0,0,1-.63-.21A.56.56,0,0,1,86.8,24Z" fill="#f9f9f9"/>
            <path d="M97.47,21.86a.8.8,0,0,1,.62-.27,1.24,1.24,0,0,1,.67.18,1,1,0,0,1,.41.49.67.67,0,0,1-.16.66,4.65,4.65,0,0,1-1.57,1.3,4.77,4.77,0,0,1-1.78.49,4.62,4.62,0,0,1-1.77-.22,4.42,4.42,0,0,1-1.54-.88,4.37,4.37,0,0,1-1.09-1.47,4.61,4.61,0,0,1-.41-2,4.43,4.43,0,0,1,1.26-3.1,4.55,4.55,0,0,1,1.38-1,4.33,4.33,0,0,1,1.68-.38,4.39,4.39,0,0,1,1.47.2,4.12,4.12,0,0,1,1.26.64,3.62,3.62,0,0,1,.93,1A3.87,3.87,0,0,1,99.32,19a1.66,1.66,0,0,1-.26,1.32,2.16,2.16,0,0,1-1.69.48l-4.67,0a2.75,2.75,0,0,0,.65,1.33,2.6,2.6,0,0,0,1.19.78,2.51,2.51,0,0,0,1.46,0A3.13,3.13,0,0,0,97.47,21.86Zm-2.32-4.27a2.39,2.39,0,0,0-1.28.41A2.67,2.67,0,0,0,93,19l4.55,0a1.75,1.75,0,0,0-.94-1.2,2.2,2.2,0,0,0-.69-.21A5.56,5.56,0,0,0,95.15,17.59Z" fill="#f9f9f9"/>
          </g>
        </g>
      </g>
    </g>
  </g>
</svg>
