<svg xmlns="http://www.w3.org/2000/svg" width="175" height="56" viewBox="0 0 175 56"><defs><style>.cls-1,.cls-6{fill:#fff;}.cls-2{fill:#0f0f0f;}.cls-3{fill:#616161;}.cls-4{fill:#adadad;}.cls-5,.cls-8{fill:#292929;}.cls-6{stroke:#dfdfdf;stroke-miterlimit:10;}.cls-7{fill:#dfdfdf;}.cls-10,.cls-7,.cls-8,.cls-9{fill-rule:evenodd;}.cls-9{fill:#313131;}.cls-10{fill:#858585;}</style></defs><title>grey_button</title><g id="Layer_2" data-name="Layer 2"><g id="Layer_1-2" data-name="Layer 1"><rect class="cls-1" width="175" height="49.53" rx="24.69" ry="24.69"/><rect class="cls-2" x="2.68" y="1.44" width="169.1" height="45.52" rx="22.69" ry="22.69"/><rect class="cls-3" x="2.19" y="1.1" width="169.53" height="44.03" rx="21.94" ry="21.94"/><rect class="cls-4" x="3.54" y="0.68" width="167.45" height="39.46" rx="19.67" ry="19.67"/><path class="cls-5" d="M92.06,11c-.45.1-.71,3.5-.81,7.69l-17.07.13s-1.61-.06-1.61,0l-4.3-.23c-1.08-.15-2,1.24-2.14,3.18S66.9,26.14,68,26.3L74,26.16l17.22.31c.1,4.55.38,8.31.81,8.2,1.6.4,16.48-9.23,16.35-11.77C108.28,19.28,93.79,9.65,92.06,11Z"/><path class="cls-6" d="M92.06,7c-.45.1-.71,3.5-.81,7.69l-17.07.13s-1.61-.06-1.61,0l-4.3-.23c-1.08-.15-2,1.24-2.14,3.18s.77,4.43,1.84,4.59L74,22.19l17.22.31c.1,4.55.38,8.31.81,8.2,1.6.4,16.48-9.23,16.35-11.77C108.28,15.32,93.79,5.68,92.06,7Z"/><path class="cls-7" d="M151.35.68H23.1A19.72,19.72,0,0,0,3.5,20.41h0c0,.38,0,.76,0,1.14A19.72,19.72,0,0,1,23.1,3H151.35a19.72,19.72,0,0,1,19.57,18.59c0-.38,0-.76,0-1.14h0A19.72,19.72,0,0,0,151.35.68Z"/><path class="cls-8" d="M151.35,37.85H23.1A19.72,19.72,0,0,1,3.54,19.27c0,.38,0,.76,0,1.14h0A19.72,19.72,0,0,0,23.1,40.13H151.35A19.72,19.72,0,0,0,171,20.41h0c0-.38,0-.76,0-1.14A19.72,19.72,0,0,1,151.35,37.85Z"/><path class="cls-9" d="M150.39,51.05H24.61A24.67,24.67,0,0,1,.12,28.76C0,29.57,0,30.4,0,31.23H0A24.69,24.69,0,0,0,24.61,56H150.39A24.69,24.69,0,0,0,175,31.23h0c0-.83,0-1.66-.12-2.47A24.67,24.67,0,0,1,150.39,51.05Z"/><path class="cls-10" d="M150.39,49.53H24.61A24.68,24.68,0,0,1,0,25.91c0,.38,0,.76,0,1.14H0A24.69,24.69,0,0,0,24.61,51.82H150.39A24.69,24.69,0,0,0,175,27h0c0-.38,0-.76,0-1.14A24.68,24.68,0,0,1,150.39,49.53Z"/></g></g></svg>