<?xml version="1.0" encoding="UTF-8" standalone="no"?>
<svg
   xmlns:dc="http://purl.org/dc/elements/1.1/"
   xmlns:cc="http://creativecommons.org/ns#"
   xmlns:rdf="http://www.w3.org/1999/02/22-rdf-syntax-ns#"
   xmlns:svg="http://www.w3.org/2000/svg"
   xmlns="http://www.w3.org/2000/svg"
   version="1.1"
   id="svg10052"
   viewBox="0 0 24.485618 32.687962"
   height="9.2252693mm"
   width="6.9103856mm">
  <defs
     id="defs10054">
    <clipPath
       id="clipPath4698"
       clipPathUnits="userSpaceOnUse">
      <path
         id="path4700"
         d="m 0,1825.449 1140.124,0 L 1140.124,0 0,0 0,1825.449 Z" />
    </clipPath>
  </defs>
  <metadata
     id="metadata10057">
    <rdf:RDF>
      <cc:Work
         rdf:about="">
        <dc:format>image/svg+xml</dc:format>
        <dc:type
           rdf:resource="http://purl.org/dc/dcmitype/StillImage" />
        <dc:title></dc:title>
      </cc:Work>
    </rdf:RDF>
  </metadata>
  <g
     transform="translate(-446.15005,-533.16108)"
     id="layer1">
    <g
       style="opacity:0.6;fill:#000000;fill-opacity:1"
       transform="matrix(1.25,0,0,-1.25,464.18925,554.02746)"
       id="g4918">
      <path
         id="path4920"
         style="fill:#000000;fill-opacity:1;fill-rule:evenodd;stroke:none"
         d="M 0,0 C -1.78,-1.151 -2.411,-3.569 -3.798,-2.999 -6.184,-2.02 -9.785,3.322 -9.7,5.9 c 0.049,1.497 2.272,1.285 4.053,2.436 2.417,1.592 -1.808,6.525 -3.24,6.965 -1.487,0.456 -4.973,-1.598 -5.415,-3.901 -0.656,-3.063 1.29,-9.238 3.422,-12.533 2.132,-3.296 6.964,-7.604 10.027,-8.262 2.007,-0.467 5.584,1.796 5.778,3.338 C 5.113,-4.57 1.78,1.151 0,0" />
    </g>
    <g
       style="fill:#ffffff;fill-opacity:1"
       transform="matrix(1.25,0,0,-1.25,464.46988,552.36726)"
       id="g4930">
      <path
         id="path4932"
         style="fill:#ffffff;fill-opacity:1;fill-rule:evenodd;stroke:none"
         d="M 0,0 C -1.78,-1.151 -2.411,-3.569 -3.798,-2.999 -6.184,-2.02 -9.785,3.322 -9.7,5.9 c 0.049,1.497 2.272,1.285 4.053,2.436 2.417,1.592 -1.808,6.525 -3.24,6.965 -1.487,0.456 -4.973,-1.598 -5.415,-3.901 -0.656,-3.063 1.29,-9.238 3.422,-12.533 2.132,-3.296 6.964,-7.604 10.027,-8.262 2.007,-0.467 5.584,1.796 5.778,3.338 C 5.113,-4.57 1.78,1.151 0,0" />
    </g>
  </g>
</svg>
