<svg xmlns="http://www.w3.org/2000/svg" width="268.32" height="55.11" viewBox="0 0 268.32 55.11"><defs><style>.cls-1{fill:#232323;opacity:0.89;}.cls-2{fill:#c03346;}.cls-3{fill:#891828;}.cls-4{fill:#a51e2d;}.cls-5{fill:#cc202e;}.cls-6{fill:#ce4d5c;}.cls-7{fill:#fff;}</style></defs><title>chooseyourname_ribbon</title><g id="Layer_2" data-name="Layer 2"><g id="New_User" data-name="New User"><path class="cls-1" d="M242,43q0-15.27-.05-30.53c0-2.24,0-2.24-2-2a.79.79,0,0,0-.7-.66L225.4,7.24,208.18,4.08c.44,0,.89-.11,1.33-.11h58.7c-1.8,2.1-3.39,4-5,5.83-3.6,4.13-7.18,8.28-10.83,12.35-.87,1-.78,1.52.05,2.46,5,5.62,9.89,11.32,14.82,17,.26.3.49.63,1,1.36Z"/><path class="cls-1" d="M27.88,10.16c-1.44-.24-1.34.79-1.34,1.8q0,14.4,0,28.8a4.33,4.33,0,0,1-.19,2.12,65.63,65.63,0,0,0-7.58-.13c-5.51,0-11,0-16.53,0H0C1.53,40.94,2.79,39.45,4.06,38,8,33.46,11.93,28.92,15.91,24.43c.77-.87.83-1.38,0-2.3-4.83-5.45-9.58-11-14.36-16.47-.41-.47-.81-1-1.21-1.43.33-.52.77-.33,1.12-.33H58c.33,0,.67.05,1,.08-.14.1-.27.25-.42.28C51.16,5.62,43.77,6.92,36.39,8.34,33.55,8.89,30.63,9.09,27.88,10.16Z"/><path class="cls-2" d="M242,39.17q0-15.27-.05-30.53c0-2.24,0-2.24-2-2a.79.79,0,0,0-.7-.66L225.4,3.46,208.18.3c.44,0,.89-.11,1.33-.11h58.7c-1.8,2.1-3.39,4-5,5.83-3.6,4.13-7.18,8.28-10.83,12.35-.87,1-.78,1.52.05,2.46,5,5.62,9.89,11.32,14.82,17,.26.3.49.63,1,1.36Z"/><path class="cls-2" d="M27.88,6.37c-1.44-.24-1.34.79-1.34,1.8q0,14.4,0,28.8a4.33,4.33,0,0,1-.19,2.12A65.63,65.63,0,0,0,18.76,39c-5.51,0-11,0-16.53,0H0c1.53-1.79,2.79-3.28,4.06-4.74C8,29.68,11.93,25.13,15.91,20.65c.77-.87.83-1.38,0-2.3C11.1,12.9,6.34,7.38,1.57,1.88,1.16,1.41.76.92.36.45.69-.08,1.12.12,1.48.12H58c.33,0,.67.05,1,.08-.14.1-.27.25-.42.28C51.16,1.83,43.77,3.13,36.39,4.56,33.55,5.11,30.63,5.3,27.88,6.37Z"/><path class="cls-3" d="M208.18.3,225.4,3.46,239.15,6a.79.79,0,0,1,.7.66c-10.62,2.52-21.25,5-32,6.79,0-3.76,0-7.52.1-11.27C208,1.55,207.69.86,208.18.3Z"/><path class="cls-3" d="M27.88,6.37c2.75-1.07,5.67-1.27,8.52-1.81C43.77,3.13,51.16,1.83,58.55.47c.15,0,.28-.18.42-.28,1-.41,1.42-.21,1.4,1.05-.05,3.95,0,7.9,0,11.85C49.47,11.25,38.65,8.92,27.88,6.37Z"/><path class="cls-4" d="M26.32,48.74c.05-3.66,0-7.32,0-11a4.33,4.33,0,0,0,.19-2.12q0-14.4,0-28.8c0-1-.1-2,1.34-1.8,10.78,2.55,21.59,4.88,32.49,6.72a158.25,158.25,0,0,0,15.85,2.29A499.1,499.1,0,0,0,127,16.63c15.5.13,31,0,46.48-.89a289.19,289.19,0,0,0,34.34-3.62c10.76-1.76,21.39-4.27,32-6.79,2-.25,2-.25,2,2q0,15.27.05,30.53c0,3.66,0,7.33,0,11,0,.83-.14,1.15-1,1.34C118,61.62,26.31,49.71,26.32,48.74Z"/><path class="cls-5" d="M26.32,45c.05-3.66,0-7.32,0-11a4.33,4.33,0,0,0,.19-2.12q0-14.4,0-28.8c0-1-.1-2,1.34-1.8C38.65,3.8,49.47,6.14,60.37,8a158.25,158.25,0,0,0,15.85,2.29A499.1,499.1,0,0,0,127,12.84c15.5.13,31,0,46.48-.89a289.19,289.19,0,0,0,34.34-3.62c10.76-1.76,21.39-4.27,32-6.79,2-.25,2-.25,2,2q0,15.27.05,30.53c0,3.66,0,7.33,0,11,0,.83-.14,1.15-1,1.34C118,57.84,26.31,45.93,26.32,45Z"/><path class="cls-6" d="M241.8,4.43h.1q0-.45,0-.9c0-2.24,0-2.24-2-2-10.62,2.52-21.25,5-32,6.79A289.18,289.18,0,0,1,173.49,12c-15.48.84-31,1-46.48.89a499.08,499.08,0,0,1-50.79-2.57A158.26,158.26,0,0,1,60.37,8C49.47,6.14,38.65,3.8,27.88,1.26,26.44,1,26.53,2,26.53,3.05q0,.81,0,1.63h0c.07-.62.32-1.07,1.32-.9C38.65,6.32,49.47,8.66,60.37,10.5A158.26,158.26,0,0,0,76.22,12.8,499.08,499.08,0,0,0,127,15.36c15.5.13,31,0,46.48-.89a289.18,289.18,0,0,0,34.34-3.62c10.76-1.76,21.39-4.27,32-6.79C241.16,3.9,241.63,3.85,241.8,4.43Z"/><path class="cls-7" d="M55.2,34.47a.74.74,0,0,1,.6-.47,1,1,0,0,1,.68.2,1.2,1.2,0,0,1,.43.63,1,1,0,0,1-.15.84,7.18,7.18,0,0,1-2.3,2.54,4.4,4.4,0,0,1-2.94.75,4.29,4.29,0,0,1-2.14-.84,6.06,6.06,0,0,1-1.63-1.85,8.22,8.22,0,0,1-.94-2.6,10.36,10.36,0,0,1-.1-3.11,10.77,10.77,0,0,1,.77-3A9,9,0,0,1,49,25.1a6.17,6.17,0,0,1,2-1.54,4.07,4.07,0,0,1,2.23-.41,4.94,4.94,0,0,1,2.76,1.15,5.7,5.7,0,0,1,1.69,3,.54.54,0,0,1,0,.62,1.22,1.22,0,0,1-.6.43,1.29,1.29,0,0,1-.76,0,.86.86,0,0,1-.57-.58,3.66,3.66,0,0,0-1.07-1.9,3.09,3.09,0,0,0-1.66-.66,2.32,2.32,0,0,0-1.48.36,4.66,4.66,0,0,0-1.3,1.23,7.59,7.59,0,0,0-1,1.87,9.2,9.2,0,0,0-.53,2.24,7.91,7.91,0,0,0,.06,2.22A6.25,6.25,0,0,0,49.28,35a4.1,4.1,0,0,0,1.07,1.32,2.7,2.7,0,0,0,1.41.58,2.67,2.67,0,0,0,1.93-.58A5.14,5.14,0,0,0,55.2,34.47Z"/><path class="cls-7" d="M65.77,39.69A29,29,0,0,0,66,36.2a8.43,8.43,0,0,0-.26-2,1.74,1.74,0,0,0-.54-.94,1.31,1.31,0,0,0-.64-.26,2.36,2.36,0,0,0-1,.13,2.83,2.83,0,0,0-.88.51,2.76,2.76,0,0,0-.64.8,2.57,2.57,0,0,0-.3,1L61.37,39a1,1,0,0,1-.37.64,1.09,1.09,0,0,1-.66.25,1,1,0,0,1-.66-.23,1,1,0,0,1-.33-.77l1.34-14a.75.75,0,0,1,.36-.65,1,1,0,0,1,.66-.1,1.35,1.35,0,0,1,.63.28.57.57,0,0,1,.25.52L62,31.74a4.4,4.4,0,0,1,1.28-.55,4.25,4.25,0,0,1,1.42-.1,3.18,3.18,0,0,1,2,.8,3.77,3.77,0,0,1,1,1.82,9.9,9.9,0,0,1,.23,2.68q-.05,1.54-.2,3.34a.74.74,0,0,1-.35.65,1.07,1.07,0,0,1-.68.11,1.38,1.38,0,0,1-.64-.27A.57.57,0,0,1,65.77,39.69Z"/><path class="cls-7" d="M70.34,36.11A4.61,4.61,0,0,1,71.91,33a4.76,4.76,0,0,1,1.52-.88,4.36,4.36,0,0,1,3.49.26,4.76,4.76,0,0,1,1.37,1.09,4.6,4.6,0,0,1,.62,5,4.63,4.63,0,0,1-2.6,2.31,4.41,4.41,0,0,1-3.53-.26,4.63,4.63,0,0,1-2.23-2.67A4.52,4.52,0,0,1,70.34,36.11Zm1.88.17a2.55,2.55,0,0,0,.13,1,2.76,2.76,0,0,0,.5.89,2.82,2.82,0,0,0,.78.65,2.47,2.47,0,0,0,2,.15,2.81,2.81,0,0,0,.87-.52,2.72,2.72,0,0,0,.63-.81,2.61,2.61,0,0,0,.15-2,2.61,2.61,0,0,0-.51-.88,2.94,2.94,0,0,0-.78-.63A2.45,2.45,0,0,0,74,34a2.94,2.94,0,0,0-.87.51,2.61,2.61,0,0,0-.63.79A2.56,2.56,0,0,0,72.23,36.28Z"/><path class="cls-7" d="M81.81,36.94a4.61,4.61,0,0,1,1.52-3.13,4.76,4.76,0,0,1,1.5-.9,4.36,4.36,0,0,1,3.5.21,4.76,4.76,0,0,1,1.38,1.07,4.6,4.6,0,0,1,.69,5,4.63,4.63,0,0,1-2.57,2.34,4.4,4.4,0,0,1-3.53-.21A4.63,4.63,0,0,1,82,38.72,4.52,4.52,0,0,1,81.81,36.94Zm1.88.15a2.55,2.55,0,0,0,.14,1,2.76,2.76,0,0,0,.52.89,2.82,2.82,0,0,0,.79.64,2.47,2.47,0,0,0,2,.12,2.81,2.81,0,0,0,.86-.54,2.73,2.73,0,0,0,.62-.82,2.61,2.61,0,0,0,.12-2,2.6,2.6,0,0,0-.52-.87,2.92,2.92,0,0,0-.79-.62,2.45,2.45,0,0,0-2-.12,2.94,2.94,0,0,0-.86.52,2.61,2.61,0,0,0-.62.8A2.56,2.56,0,0,0,83.69,37.09Z"/><path class="cls-7" d="M101.34,35.23a.63.63,0,0,1,0,.65,1.07,1.07,0,0,1-.53.41,1.15,1.15,0,0,1-.67,0,.54.54,0,0,1-.42-.44,1.88,1.88,0,0,0-.8-.79,3.47,3.47,0,0,0-.9-.33,2.07,2.07,0,0,0-1.27.14,1.2,1.2,0,0,0-.73.68.9.9,0,0,0,0,.65,1.06,1.06,0,0,0,.41.41,3,3,0,0,0,.69.29c.27.08.57.15.87.22a12.36,12.36,0,0,1,1.3.38,3.91,3.91,0,0,1,1.12.58,2.27,2.27,0,0,1,.89,2.29,2.12,2.12,0,0,1-.5,1.16,3,3,0,0,1-1,.75,4.23,4.23,0,0,1-1.32.34,5.55,5.55,0,0,1-1.42,0,5.43,5.43,0,0,1-1.21-.35,4.64,4.64,0,0,1-1.08-.63,3.82,3.82,0,0,1-.84-.91,3,3,0,0,1-.5-1.2.94.94,0,0,1,.23-.75,1.27,1.27,0,0,1,.6-.39,1,1,0,0,1,.65,0,.57.57,0,0,1,.37.48,2,2,0,0,0,.81,1.49,3.29,3.29,0,0,0,1.38.5,2.87,2.87,0,0,0,1.27-.11c.38-.13.59-.31.63-.55a.83.83,0,0,0-.36-1,4.6,4.6,0,0,0-1.26-.49l-1.26-.33A4.83,4.83,0,0,1,95.24,38a2.31,2.31,0,0,1-1.18-2.32,2.37,2.37,0,0,1,.38-1.23,3,3,0,0,1,.89-.86,3.4,3.4,0,0,1,1.23-.46,4.8,4.8,0,0,1,1.41,0,5,5,0,0,1,1.89.65A3.87,3.87,0,0,1,101.34,35.23Z"/><path class="cls-7" d="M110.69,40a.85.85,0,0,1,.66-.26,1.31,1.31,0,0,1,.7.21,1,1,0,0,1,.41.52.68.68,0,0,1-.19.67,4.84,4.84,0,0,1-1.69,1.29,5,5,0,0,1-1.89.45,4.93,4.93,0,0,1-1.85-.29,4.63,4.63,0,0,1-1.59-1,4.46,4.46,0,0,1-1.09-1.56,4.66,4.66,0,0,1-.35-2,4.45,4.45,0,0,1,.41-1.73,4.59,4.59,0,0,1,1-1.42,4.75,4.75,0,0,1,1.48-.94,4.59,4.59,0,0,1,1.76-.34,4.68,4.68,0,0,1,1.52.25,4.35,4.35,0,0,1,1.29.7,3.77,3.77,0,0,1,.94,1.1,3.9,3.9,0,0,1,.48,1.44,1.68,1.68,0,0,1-.31,1.35,2.28,2.28,0,0,1-1.79.45l-4.89-.18a2.81,2.81,0,0,0,.64,1.4,2.72,2.72,0,0,0,1.22.84,2.69,2.69,0,0,0,1.53,0A3.28,3.28,0,0,0,110.69,40Zm-2.29-4.48a2.49,2.49,0,0,0-1.35.38,2.78,2.78,0,0,0-1,1l4.75.2a1.9,1.9,0,0,0-.36-.79,1.94,1.94,0,0,0-.58-.48,2.31,2.31,0,0,0-.71-.24A5.33,5.33,0,0,0,108.4,35.57Z"/><path class="cls-7" d="M127.24,43c-1.75-3.11-2.62-4.67-4.34-7.79a.85.85,0,0,1,.14-.75,1.24,1.24,0,0,1,1.28-.42.66.66,0,0,1,.47.4c1.36,2.38,2,3.57,3.43,5.94.89-2.38,1.33-3.57,2.21-5.95a.9.9,0,0,1,.63-.46,1.24,1.24,0,0,1,1.22.59.65.65,0,0,1,0,.61c-1.81,4.78-2.74,7.17-4.61,11.95a.71.71,0,0,1-.51.5,1,1,0,0,1-.68-.08,1.38,1.38,0,0,1-.53-.44.56.56,0,0,1-.1-.56Z"/><path class="cls-7" d="M133.92,38.66a4.61,4.61,0,0,1,1.32-3.22,4.75,4.75,0,0,1,1.44-1,4.35,4.35,0,0,1,3.5,0,4.75,4.75,0,0,1,1.45,1,4.6,4.6,0,0,1,1,5,4.63,4.63,0,0,1-2.41,2.5,4.4,4.4,0,0,1-3.54,0,4.63,4.63,0,0,1-2.43-2.48A4.52,4.52,0,0,1,133.92,38.66Zm1.89,0a2.56,2.56,0,0,0,.21,1,2.76,2.76,0,0,0,.57.85,2.82,2.82,0,0,0,.83.58,2.47,2.47,0,0,0,2,0,2.81,2.81,0,0,0,.83-.59,2.73,2.73,0,0,0,.56-.86,2.61,2.61,0,0,0,0-2,2.6,2.6,0,0,0-.58-.84,2.92,2.92,0,0,0-.83-.57,2.45,2.45,0,0,0-2,0,2.94,2.94,0,0,0-.82.58,2.61,2.61,0,0,0-.57.84A2.56,2.56,0,0,0,135.81,38.69Z"/><path class="cls-7" d="M147.55,34.55a23.57,23.57,0,0,0,0,3.66,6.93,6.93,0,0,0,.42,2,1.39,1.39,0,0,0,.65.79,1.75,1.75,0,0,0,.68.14,2.39,2.39,0,0,0,1-.24,2.82,2.82,0,0,0,.82-.6,2.74,2.74,0,0,0,.55-.87,2.56,2.56,0,0,0,.19-1l-.08-3.62a1,1,0,0,1,.29-.68,1.08,1.08,0,0,1,.62-.32,1,1,0,0,1,.67.15,1,1,0,0,1,.42.73l.16,7.67a.74.74,0,0,1-.28.68,1.07,1.07,0,0,1-.66.18,1.39,1.39,0,0,1-.67-.2.57.57,0,0,1-.31-.49l0-.41a4.44,4.44,0,0,1-1.22.69,4.3,4.3,0,0,1-1.41.26,3.52,3.52,0,0,1-2.16-.55A3.38,3.38,0,0,1,146,40.81a9,9,0,0,1-.47-2.63q-.07-1.55,0-3.46a.77.77,0,0,1,.34-.68,1.18,1.18,0,0,1,.69-.18,1.48,1.48,0,0,1,.68.21A.51.51,0,0,1,147.55,34.55Z"/><path class="cls-7" d="M162.92,36.44a5.12,5.12,0,0,0-.89-.61,2,2,0,0,0-1-.25,2.36,2.36,0,0,0-1,.25,2.83,2.83,0,0,0-.81.61,2.76,2.76,0,0,0-.54.87,2.57,2.57,0,0,0-.18,1l.11,3.62a1,1,0,0,1-.29.68,1.09,1.09,0,0,1-.63.32,1,1,0,0,1-.68-.15,1,1,0,0,1-.42-.73l-.19-7.66a.74.74,0,0,1,.28-.68,1,1,0,0,1,.65-.18,1.38,1.38,0,0,1,.66.2.57.57,0,0,1,.31.49l0,.41a4.39,4.39,0,0,1,1.2-.7,4.25,4.25,0,0,1,1.39-.28,4.43,4.43,0,0,1,2,.38,3.58,3.58,0,0,1,1.49,1.23.75.75,0,0,1,.1.58,1.13,1.13,0,0,1-.29.57.93.93,0,0,1-.56.29A.94.94,0,0,1,162.92,36.44Z"/><path class="cls-7" d="M181.28,41.24a29.13,29.13,0,0,0-.31-3.48,8.45,8.45,0,0,0-.54-2,1.74,1.74,0,0,0-.67-.85,1.31,1.31,0,0,0-.67-.17,2.36,2.36,0,0,0-1,.27,2.83,2.83,0,0,0-.79.63,2.76,2.76,0,0,0-.52.88,2.57,2.57,0,0,0-.15,1l.19,3.61a1,1,0,0,1-.28.69,1.09,1.09,0,0,1-.62.34,1,1,0,0,1-.69-.13,1,1,0,0,1-.44-.72l-.36-7.66a.74.74,0,0,1,.26-.69,1,1,0,0,1,.65-.2A1.38,1.38,0,0,1,176,33a.57.57,0,0,1,.32.48l0,.41a4.39,4.39,0,0,1,1.19-.73,4.25,4.25,0,0,1,1.39-.31,3.17,3.17,0,0,1,2.12.5A3.77,3.77,0,0,1,182.3,35a9.91,9.91,0,0,1,.61,2.62q.17,1.53.28,3.34a.74.74,0,0,1-.26.69,1.07,1.07,0,0,1-.65.2,1.38,1.38,0,0,1-.68-.18A.57.57,0,0,1,181.28,41.24Z"/><path class="cls-7" d="M192.72,40.26a4.41,4.41,0,0,1-1.19.75,4.44,4.44,0,0,1-3.19.08,4.63,4.63,0,0,1-2.59-2.32,4.61,4.61,0,0,1,.65-5,4.76,4.76,0,0,1,1.37-1.09,4.26,4.26,0,0,1,1.72-.49,4.2,4.2,0,0,1,1.35.12,4.61,4.61,0,0,1,1.23.51.83.83,0,0,1,.42-.63,1.33,1.33,0,0,1,1.4.06.49.49,0,0,1,.24.52l.55,7.65a.74.74,0,0,1-.25.7,1.06,1.06,0,0,1-.65.21,1.4,1.4,0,0,1-.68-.17.57.57,0,0,1-.33-.47Zm-5.54-3.32a2.55,2.55,0,0,0,.27,1,2.76,2.76,0,0,0,.63.81,2.82,2.82,0,0,0,.87.53,2.47,2.47,0,0,0,2-.14,2.81,2.81,0,0,0,.79-.64,2.73,2.73,0,0,0,.51-.89,2.61,2.61,0,0,0-.15-2,2.61,2.61,0,0,0-.63-.8,2.94,2.94,0,0,0-.86-.51,2.45,2.45,0,0,0-2,.14,2.94,2.94,0,0,0-.79.63,2.61,2.61,0,0,0-.51.88A2.56,2.56,0,0,0,187.18,36.94Z"/><path class="cls-7" d="M203.63,39.62a29.12,29.12,0,0,0-.4-3.47,8.45,8.45,0,0,0-.6-1.94,1.74,1.74,0,0,0-.69-.84,1.31,1.31,0,0,0-.67-.15,2.36,2.36,0,0,0-1,.3,2.83,2.83,0,0,0-.78.65,2.76,2.76,0,0,0-.5.9,2.57,2.57,0,0,0-.12,1l.29,3.61a1,1,0,0,1-.26.7,1.09,1.09,0,0,1-.61.36,1,1,0,0,1-.69-.11,1,1,0,0,1-.46-.71l-.57-7.65a.74.74,0,0,1,.24-.7,1,1,0,0,1,.64-.22,1.38,1.38,0,0,1,.67.16.57.57,0,0,1,.33.47l.06.4a4.39,4.39,0,0,1,1.17-.76,4.25,4.25,0,0,1,1.38-.35,3.41,3.41,0,0,1,1.81.27,3,3,0,0,1,1.21,1.08,4.32,4.32,0,0,1,1.39-1.39A3.59,3.59,0,0,1,207,30.7a3.18,3.18,0,0,1,2.14.43,3.77,3.77,0,0,1,1.28,1.62,9.93,9.93,0,0,1,.7,2.59q.23,1.53.4,3.33a.74.74,0,0,1-.23.7,1.06,1.06,0,0,1-.65.23,1.41,1.41,0,0,1-.68-.15.57.57,0,0,1-.34-.47,29.13,29.13,0,0,0-.43-3.46,8.42,8.42,0,0,0-.61-1.94,1.74,1.74,0,0,0-.7-.83,1.31,1.31,0,0,0-.67-.14,2.09,2.09,0,0,0-1.47.77,3.84,3.84,0,0,0-.79,1.53q.21,1,.35,2.05t.25,2.37a.74.74,0,0,1-.24.7,1.07,1.07,0,0,1-.65.22,1.38,1.38,0,0,1-.68-.16A.57.57,0,0,1,203.63,39.62Z"/><path class="cls-7" d="M220.44,35.76a.85.85,0,0,1,.62-.35,1.32,1.32,0,0,1,.72.11,1,1,0,0,1,.48.46.68.68,0,0,1-.09.69,4.85,4.85,0,0,1-1.5,1.51,5,5,0,0,1-1.81.71,4.94,4.94,0,0,1-1.88,0,4.64,4.64,0,0,1-1.71-.73A4.47,4.47,0,0,1,214,36.73a4.66,4.66,0,0,1-.63-2,4.45,4.45,0,0,1,.17-1.77,4.58,4.58,0,0,1,.82-1.54,4.76,4.76,0,0,1,1.34-1.13,4.6,4.6,0,0,1,1.7-.57,4.69,4.69,0,0,1,1.55,0,4.36,4.36,0,0,1,1.38.52,3.77,3.77,0,0,1,1.08,1,3.9,3.9,0,0,1,.67,1.36,1.68,1.68,0,0,1-.12,1.38q-.35.54-1.71.69l-4.88.49a2.81,2.81,0,0,0,.82,1.3,2.73,2.73,0,0,0,1.32.67A2.69,2.69,0,0,0,219,37,3.28,3.28,0,0,0,220.44,35.76Zm-2.89-4.12a2.49,2.49,0,0,0-1.29.56,2.78,2.78,0,0,0-.82,1.12l4.74-.45a1.9,1.9,0,0,0-.47-.73,1.94,1.94,0,0,0-.64-.39,2.31,2.31,0,0,0-.74-.14A5.33,5.33,0,0,0,217.55,31.64Z"/></g></g></svg>