<svg xmlns="http://www.w3.org/2000/svg" width="33.24" height="35.48" viewBox="0 0 33.24 35.48"><defs><style>.cls-1{fill:#888;}.cls-1,.cls-4,.cls-5{fill-rule:evenodd;}.cls-2,.cls-4{fill:#fff;}.cls-3{fill:#e43525;}.cls-5{fill:#bd3a26;}</style></defs><title>cross</title><g id="Layer_2" data-name="Layer 2"><g id="Cross"><path class="cls-1" d="M16.62,33.24A16.62,16.62,0,0,1,0,17.74c0,.37,0,.74,0,1.12a16.62,16.62,0,1,0,33.24,0c0-.38,0-.75,0-1.12A16.62,16.62,0,0,1,16.62,33.24Z"/><circle class="cls-2" cx="16.62" cy="16.62" r="16.62"/><circle class="cls-3" cx="16.62" cy="16.62" r="14.54"/><path class="cls-4" d="M9.83,12.52a2.22,2.22,0,0,1-.39-3.08,2.24,2.24,0,0,1,3.08.38l2.7,2.7c1.42,1.43.95,1.38,2.4-.07l2.63-2.63a2.24,2.24,0,0,1,3.08-.38A2.22,2.22,0,0,1,23,12.52l-2.58,2.58c-1.53,1.53-1.54,1,0,2.57L23,20.26a2.22,2.22,0,0,1,.39,3.08,2.24,2.24,0,0,1-3.08-.39L17.61,20.3c-1.43-1.43-1-1.46-2.39,0l-2.7,2.7a2.24,2.24,0,0,1-3.08.39,2.22,2.22,0,0,1,.39-3.08l2.54-2.54c1.61-1.61,1.57-1.09-.06-2.71Z"/><path class="cls-5" d="M16.62,29.48A14.54,14.54,0,0,1,2.11,15.78c0,.28,0,.56,0,.84a14.54,14.54,0,1,0,29.07,0c0-.28,0-.56,0-.84A14.54,14.54,0,0,1,16.62,29.48Z"/></g></g></svg>