<?xml version="1.0" encoding="utf-8"?>
<!-- Generator: Adobe Illustrator 20.0.0, SVG Export Plug-In . SVG Version: 6.00 Build 0)  -->
<svg version="1.1" id="Layer_1" xmlns="http://www.w3.org/2000/svg" xmlns:xlink="http://www.w3.org/1999/xlink" x="0px" y="0px"
	 width="360px" height="2574px" viewBox="0 0 360 2574" style="enable-background:new 0 0 360 2574;" xml:space="preserve">
<style type="text/css">
	.st0{fill:none;stroke:#FFFFFF;stroke-width:12.4439;stroke-miterlimit:10;}
</style>
<path id="mappathid" class="st0" d="M175.3,0c13.4,60,12.4,121-5.6,181c-15,51-37,98-59,146c-1,4-3,8-4,12c-3,6-6,12-8,19c-10,39-12,77-7,117
	c2,15,6,30,12,44c33,79,96,135,152,201c4,6,9,11,12,17c1,2,2,5,3,7c7,21,5,46-11,62c-17,17-38,32-62,34c-26,2-51,2-78,6
	c-27,5-58,20-59,51c5,81,0,163,27,241c2,6,2,13,4,19c4,11,6,22,7,33c2,10,4,18,6,28c11,72,26,138,37,210c4,20,8,38,9,58c0,3,2,6,2,9
	c8,79,5,157-2,236c-1,10-3,21-8,30c-7,11-13,21-18,32c-2,3-4,7-6,10c-6,7-11,13-16,20c-2,2-4,4-6,6c-7,10-14,18-18,29
	c-2,5-3,11-4,16c-1,4-2,8-3,12c-3,23,1,45,8,66c11,29,24,56,36,85c15,38,25,76,35,117s17,79,28,120c25,100,29,200,10.6,298.8"/>
</svg>
