<svg xmlns="http://www.w3.org/2000/svg" width="125.33" height="60.07" viewBox="0 0 125.33 60.07"><defs><style>.cls-1,.cls-8{fill:#f7f8fa;}.cls-2{fill:#725122;}.cls-3,.cls-7{fill:#d7a629;}.cls-4{fill:#ffc809;}.cls-5{fill:#ffdb80;}.cls-6{fill:#a57d2c;}.cls-7{stroke:#d7a629;}.cls-7,.cls-8{stroke-miterlimit:10;stroke-width:2px;}.cls-8{stroke:#f7f8fb;}</style></defs><title>foward_button</title><g id="Layer_2" data-name="Layer 2"><g id="Layer_1-2" data-name="Layer 1"><ellipse class="cls-1" cx="31.27" cy="30.03" rx="31.27" ry="30.03"/><circle class="cls-2" cx="31.17" cy="28.05" r="27.54"/><circle class="cls-3" cx="31.17" cy="27.42" r="26.63"/><ellipse class="cls-4" cx="31.27" cy="25.07" rx="23.66" ry="22.04"/><path class="cls-5" d="M31.27,3.78c-12.81,0-23.21,9.52-23.62,21.4,0-.24,0-.48,0-.73,0-12.22,10.59-22.12,23.66-22.12s23.66,9.91,23.66,22.12c0,.25,0,.48,0,.73C54.48,13.3,44.08,3.78,31.27,3.78Z"/><path class="cls-6" d="M31.25,45.67c12.81,0,23.21-9.52,23.62-21.4,0,.24,0,.48,0,.73,0,12.22-10.59,22.12-23.66,22.12S7.59,37.22,7.59,25c0-.25,0-.48,0-.73C8,36.16,18.45,45.67,31.25,45.67Z"/><path class="cls-7" d="M28,34.84a1.18,1.18,0,1,0,1.68,1.68l8.71-8.71a1.64,1.64,0,0,0,0-2.32l-8.71-8.71a1.21,1.21,0,0,0-1.68,0,1.19,1.19,0,0,0,0,1.68l8.19,8.19Z"/><path class="cls-8" d="M28,32.25a1.18,1.18,0,1,0,1.68,1.68l8.71-8.71a1.64,1.64,0,0,0,0-2.32l-8.71-8.71a1.21,1.21,0,0,0-1.68,0,1.19,1.19,0,0,0,0,1.68l8.19,8.19Z"/><ellipse class="cls-1" cx="94.06" cy="30.03" rx="31.27" ry="30.03"/><circle class="cls-2" cx="93.95" cy="28.05" r="27.54"/><circle class="cls-3" cx="93.95" cy="27.42" r="26.63"/><ellipse class="cls-4" cx="94.06" cy="26.81" rx="26.14" ry="24.39"/><path class="cls-5" d="M94.06,3.26C79.92,3.26,68.42,13.79,68,26.94c0-.27,0-.53,0-.81,0-13.53,11.7-24.49,26.14-24.49s26.14,11,26.14,24.49c0,.27,0,.54,0,.81C119.7,13.79,108.21,3.26,94.06,3.26Z"/><path class="cls-6" d="M94,49.62c14.15,0,25.64-10.54,26.09-23.68,0,.27,0,.53,0,.81,0,13.53-11.7,24.49-26.14,24.49S67.9,40.27,67.9,26.74c0-.27,0-.54,0-.81C68.4,39.09,79.89,49.62,94,49.62Z"/><path class="cls-7" d="M88.79,35.84a1.18,1.18,0,1,0,1.68,1.68l8.71-8.71a1.64,1.64,0,0,0,0-2.32l-8.71-8.71a1.21,1.21,0,0,0-1.68,0,1.19,1.19,0,0,0,0,1.68L97,27.65Z"/><path class="cls-8" d="M88.79,35.25a1.18,1.18,0,1,0,1.68,1.68l8.71-8.71a1.64,1.64,0,0,0,0-2.32l-8.71-8.71a1.21,1.21,0,0,0-1.68,0,1.19,1.19,0,0,0,0,1.68L97,27.06Z"/></g></g></svg>