<svg xmlns="http://www.w3.org/2000/svg" width="62.61" height="62.4" viewBox="0 0 62.61 62.4"><defs><style>.cls-1{fill:#f9f2e8;fill-rule:evenodd;}</style></defs><title>star_offset</title><g id="Layer_2" data-name="Layer 2"><g id="Star_Score" data-name="Star Score"><path class="cls-1" d="M49,62.4A11.19,11.19,0,0,1,47,62.17c-4.38-.83-9.71-3.25-14-5.2l-1.07-.48A96.93,96.93,0,0,1,21.42,61a16.57,16.57,0,0,1-5.13,1.11c-2,0-5.38-.86-5.45-6.65a52.57,52.57,0,0,1,1.62-11.16c.24-1.09.46-2.13.66-3.12L12,40.25C5,34.72-.76,29.75.08,25.06c1.08-6,11.19-6.46,18.58-6.81l.74,0,.45-1.31C23.11,7.33,26,0,31.23,0c2.86,0,6.92,2,13.1,17.13,1.1.21,2.22.38,3.39.56a51.89,51.89,0,0,1,10,2.27c1.78.64,5.84,2.09,4.71,6.65-.73,2.92-3.94,6.41-8.4,11-1,1.07-2.37,2.45-3,3.25.26,1.25.71,2.77,1.18,4.35,1.2,4,2.56,8.58,1.89,12.52-.71,4.19-3.73,4.64-5,4.64Z"/></g></g></svg>