<svg xmlns="http://www.w3.org/2000/svg" width="103.67" height="62.38" viewBox="0 0 103.67 62.38"><defs><style>.cls-1{fill:#fff;}</style></defs><title>audio</title><g id="Layer_2" data-name="Layer 2"><g id="Layer_1-2" data-name="Layer 1"><path class="cls-1" d="M5.88,14.07C1.79,14.07,0,23.76,0,31.2S1.92,48.1,5.43,48.1H23c5.43,0,13.86,9.32,18.12,12.9,3.07,2.57,8.41,1.65,8.41-3.82V5c0-5.27-5.4-6.15-8.42-3.46C36.7,5.43,28.55,14.07,23.23,14.07Z"/><path class="cls-1" d="M77.22,11.59a4.05,4.05,0,0,0-5.76,0,4.12,4.12,0,0,0,0,5.8h0a19.55,19.55,0,0,1,0,27.55,4.12,4.12,0,0,0,0,5.82,4.06,4.06,0,0,0,5.76,0,27.83,27.83,0,0,0,0-39.17Z"/><path class="cls-1" d="M91.32,1.24a4.17,4.17,0,0,0-5.94,0,4.24,4.24,0,0,0,0,6,34,34,0,0,1,0,47.9,4.21,4.21,0,0,0,0,6,4.18,4.18,0,0,0,5.95,0,42.46,42.46,0,0,0,0-59.86Z"/><path class="cls-1" d="M61.72,18.07a2.71,2.71,0,0,0-3.85,0,2.75,2.75,0,0,0,0,3.88h0a13.08,13.08,0,0,1,0,18.43,2.76,2.76,0,0,0,0,3.89,2.71,2.71,0,0,0,3.85,0,18.62,18.62,0,0,0,0-26.2Z"/></g></g></svg>