<svg xmlns="http://www.w3.org/2000/svg" width="182.66" height="37.52" viewBox="0 0 182.66 37.52"><defs><style>.cls-1{fill:#232323;opacity:0.89;}.cls-2{fill:#c03346;}.cls-3{fill:#891828;}.cls-4{fill:#a51e2d;}.cls-5{fill:#cc202e;}.cls-6{fill:#f8f7f8;}.cls-7{fill:#ce4d5c;}</style></defs><title>profile_ribbon</title><g id="Layer_2" data-name="Layer 2"><g id="Ribbon"><path class="cls-1" d="M164.71,29.24q0-10.39,0-20.78c0-1.52,0-1.52-1.39-1.35a.54.54,0,0,0-.48-.45l-9.36-1.73L141.73,2.78c.3,0,.61-.07.91-.07h40c-1.23,1.43-2.31,2.71-3.4,4-2.45,2.81-4.88,5.64-7.37,8.41-.59.66-.53,1,0,1.68,3.39,3.83,6.73,7.7,10.09,11.56.18.2.33.43.71.92Z"/><path class="cls-1" d="M19,6.91c-1-.17-.91.54-.91,1.22q0,9.8,0,19.61a3,3,0,0,1-.13,1.44,44.68,44.68,0,0,0-5.16-.09c-3.75,0-7.5,0-11.25,0H0c1-1.22,1.9-2.23,2.77-3.23,2.68-3.08,5.36-6.17,8.07-9.23.53-.59.56-.94,0-1.57C7.56,11.36,4.32,7.6,1.07,3.86l-.82-1c.23-.36.52-.23.76-.23H39.46c.23,0,.46,0,.68.06-.1.07-.18.17-.29.19-5,.93-10.06,1.81-15.08,2.78A32.65,32.65,0,0,0,19,6.91Z"/><path class="cls-2" d="M164.71,26.67q0-10.39,0-20.78c0-1.52,0-1.52-1.39-1.35a.54.54,0,0,0-.48-.45l-9.36-1.73L141.73.2c.3,0,.61-.07.91-.07h40c-1.23,1.43-2.31,2.71-3.4,4-2.45,2.81-4.88,5.64-7.37,8.41-.59.66-.53,1,0,1.68,3.39,3.83,6.73,7.7,10.09,11.56.18.2.33.43.71.92Z"/><path class="cls-2" d="M19,4.34c-1-.17-.91.54-.91,1.22q0,9.8,0,19.61a3,3,0,0,1-.13,1.44,44.68,44.68,0,0,0-5.16-.09c-3.75,0-7.5,0-11.25,0H0c1-1.22,1.9-2.23,2.77-3.23,2.68-3.08,5.36-6.17,8.07-9.23.53-.59.56-.94,0-1.57C7.56,8.78,4.32,5,1.07,1.28L.24.31C.47-.05.76.08,1,.08H39.46c.23,0,.46,0,.68.06-.1.07-.18.17-.29.19-5,.93-10.06,1.81-15.08,2.78A32.65,32.65,0,0,0,19,4.34Z"/><path class="cls-3" d="M141.73.2l11.72,2.15,9.36,1.73a.54.54,0,0,1,.48.45C156.05,6.25,148.82,8,141.49,9.15c0-2.56,0-5.12.07-7.67C141.57,1.05,141.39.59,141.73.2Z"/><path class="cls-3" d="M19,4.34a32.65,32.65,0,0,1,5.8-1.24c5-1,10.06-1.85,15.08-2.78.1,0,.19-.13.29-.19.66-.28,1-.14,1,.72,0,2.69,0,5.38,0,8.07C33.68,7.66,26.31,6.07,19,4.34Z"/><path class="cls-4" d="M17.92,33.18c0-2.49,0-5,0-7.48a3,3,0,0,0,.13-1.44q0-9.8,0-19.61c0-.68-.07-1.39.91-1.22C26.31,5.16,33.68,6.75,41.1,8A107.73,107.73,0,0,0,51.89,9.57a339.77,339.77,0,0,0,34.57,1.75c10.56.09,21.1,0,31.64-.6a196.87,196.87,0,0,0,23.38-2.47c7.33-1.2,14.56-2.9,21.79-4.62,1.39-.17,1.39-.17,1.39,1.35q0,10.39,0,20.78c0,2.49,0,5,0,7.48,0,.57-.09.78-.71.91C80.36,42,17.91,33.84,17.92,33.18Z"/><path class="cls-5" d="M17.92,30.6c0-2.49,0-5,0-7.48a3,3,0,0,0,.13-1.44q0-9.8,0-19.61c0-.68-.07-1.39.91-1.22,7.34,1.73,14.7,3.32,22.12,4.58A107.73,107.73,0,0,0,51.89,7,339.77,339.77,0,0,0,86.46,8.74c10.56.09,21.1,0,31.64-.6a196.87,196.87,0,0,0,23.38-2.47c7.33-1.2,14.56-2.9,21.79-4.62,1.39-.17,1.39-.17,1.39,1.35q0,10.39,0,20.78c0,2.49,0,5,0,7.48,0,.57-.09.78-.71.91C80.36,39.37,17.91,31.27,17.92,30.6Z"/><path class="cls-6" d="M62.84,29.4a.87.87,0,0,1-.49.35,1.56,1.56,0,0,1-.64.06,1.3,1.3,0,0,1-.55-.19.41.41,0,0,1-.22-.4l1-12.67a2.13,2.13,0,0,1,.62-1.44A1.78,1.78,0,0,1,64,14.64l1,.07a10.62,10.62,0,0,1,1.35.19,9.43,9.43,0,0,1,1.45.42,4.52,4.52,0,0,1,1.31.76A3.68,3.68,0,0,1,70,17.31a3.81,3.81,0,0,1,.33,1.81,4,4,0,0,1-.72,2.28,4.73,4.73,0,0,1-1.69,1.44,6.68,6.68,0,0,1-2.25.67,9.39,9.39,0,0,1-2.41,0ZM68.59,19a1.6,1.6,0,0,0-.3-1,2.81,2.81,0,0,0-.95-.86,4.88,4.88,0,0,0-1.51-.55,6.56,6.56,0,0,0-2-.07l-.44,5.24a5.5,5.5,0,0,0,1.53,0,5.91,5.91,0,0,0,1.67-.41A3.85,3.85,0,0,0,68,20.45,2.28,2.28,0,0,0,68.59,19Z"/><path class="cls-6" d="M77.71,24.63A4.91,4.91,0,0,0,76.9,24a1.91,1.91,0,0,0-1-.31,2.27,2.27,0,0,0-1,.17,2.73,2.73,0,0,0-.82.53,2.64,2.64,0,0,0-.58.79,2.44,2.44,0,0,0-.24,1l-.16,3.46a.93.93,0,0,1-.33.63,1.06,1.06,0,0,1-.63.26,1,1,0,0,1-.65-.19.93.93,0,0,1-.35-.73l.41-7.32a.71.71,0,0,1,.32-.63,1,1,0,0,1,.63-.13,1.32,1.32,0,0,1,.62.24.55.55,0,0,1,.26.49v.39a4.24,4.24,0,0,1,1.2-.58A4.09,4.09,0,0,1,76,21.86a4.27,4.27,0,0,1,1.88.5,3.44,3.44,0,0,1,1.34,1.28.72.72,0,0,1,.06.56,1.08,1.08,0,0,1-.31.53.9.9,0,0,1-.55.24A.91.91,0,0,1,77.71,24.63Z"/><path class="cls-6" d="M81.33,26.37a4.42,4.42,0,0,1,1.34-3,4.6,4.6,0,0,1,1.4-.92,4.2,4.2,0,0,1,3.35,0,4.61,4.61,0,0,1,1.37,1A4.42,4.42,0,0,1,90,26.5a4.28,4.28,0,0,1-.34,1.68,4.4,4.4,0,0,1-.95,1.41,4.46,4.46,0,0,1-1.41,1,4.27,4.27,0,0,1-3.42-.05,4.45,4.45,0,0,1-1.39-1,4.4,4.4,0,0,1-.91-1.44A4.28,4.28,0,0,1,81.33,26.37Zm1.82.07a2.43,2.43,0,0,0,.18,1,2.61,2.61,0,0,0,.53.83,2.7,2.7,0,0,0,.79.58,2.4,2.4,0,0,0,2,0,2.67,2.67,0,0,0,.81-.55,2.6,2.6,0,0,0,.56-.81,2.48,2.48,0,0,0,0-1.95,2.51,2.51,0,0,0-.54-.81,2.84,2.84,0,0,0-.79-.56,2.37,2.37,0,0,0-1.93,0,2.85,2.85,0,0,0-.8.53,2.51,2.51,0,0,0-.56.79A2.44,2.44,0,0,0,83.15,26.44Z"/><path class="cls-6" d="M96.25,23.5q0,1.93,0,3.8c0,1.25,0,2.39.1,3.24,0,.09-.08.2-.29.3a1.94,1.94,0,0,1-.7.18,1.41,1.41,0,0,1-.72-.13.58.58,0,0,1-.28-.59c0-.41-.06-.86-.06-1.22V26.15l0-2.61H93a.72.72,0,0,1-.66-.28,1,1,0,0,1-.16-.62,1.28,1.28,0,0,1,.21-.62.56.56,0,0,1,.48-.28h1.45a16.85,16.85,0,0,1,.34-2.4,8.62,8.62,0,0,1,.66-2A3.91,3.91,0,0,1,96.36,16a2.44,2.44,0,0,1,1.53-.52,3.11,3.11,0,0,1,1.27.22,3.32,3.32,0,0,1,.93.58,3,3,0,0,1,.61.74,4,4,0,0,1,.33.71.94.94,0,0,1,.08.81,1.13,1.13,0,0,1-.45.57.93.93,0,0,1-.66.14.69.69,0,0,1-.54-.49,2.59,2.59,0,0,0-.56-1,1.38,1.38,0,0,0-1-.35.93.93,0,0,0-.69.33,2.52,2.52,0,0,0-.5.9A8,8,0,0,0,96.44,20q-.12.78-.19,1.68l2.8,0a.76.76,0,0,1,.61.38,1,1,0,0,1,.11.63,1.05,1.05,0,0,1-.3.57.61.61,0,0,1-.59.18Z"/><path class="cls-6" d="M103.46,20.24a1.08,1.08,0,0,1,.28-.79,1,1,0,0,1,.76-.34,1.09,1.09,0,0,1,1.14,1.05,1,1,0,0,1-.29.78,1.09,1.09,0,0,1-.77.33,1,1,0,0,1-.78-.28A1,1,0,0,1,103.46,20.24Zm.13,2.51a.74.74,0,0,1,.4-.61,1.28,1.28,0,0,1,.71-.13,1.26,1.26,0,0,1,.65.24.48.48,0,0,1,.22.5l.24,6.94a.7.7,0,0,1-.26.66,1,1,0,0,1-.64.18,1.35,1.35,0,0,1-.65-.18.55.55,0,0,1-.31-.46C103.81,27,103.74,25.6,103.59,22.75Z"/><path class="cls-6" d="M107.92,16.2a.79.79,0,0,1,.36-.63,1.18,1.18,0,0,1,.65-.18,1.06,1.06,0,0,1,.62.21.67.67,0,0,1,.29.52c.28,5.34.43,8,.71,13.35a.7.7,0,0,1-.26.66,1,1,0,0,1-.63.19,1.35,1.35,0,0,1-.65-.18.54.54,0,0,1-.31-.46C108.38,24.3,108.23,21.6,107.92,16.2Z"/><path class="cls-6" d="M119.62,27.12a.82.82,0,0,1,.6-.31,1.28,1.28,0,0,1,.69.13,1,1,0,0,1,.45.45.64.64,0,0,1-.11.66,4.64,4.64,0,0,1-1.49,1.4,4.89,4.89,0,0,1-1.77.61,4.8,4.8,0,0,1-1.81-.1,4.47,4.47,0,0,1-1.62-.77,4.26,4.26,0,0,1-1.19-1.38,4.43,4.43,0,0,1-.52-1.91,4.24,4.24,0,0,1,.24-1.68,4.4,4.4,0,0,1,.85-1.44,4.6,4.6,0,0,1,1.32-1,4.44,4.44,0,0,1,1.65-.49,4.49,4.49,0,0,1,1.48.09,4.18,4.18,0,0,1,1.3.54,3.63,3.63,0,0,1,1,.95,3.74,3.74,0,0,1,.6,1.32,1.6,1.6,0,0,1-.16,1.32q-.35.5-1.67.6c-1.88.13-2.82.19-4.7.29a2.67,2.67,0,0,0,.74,1.27,2.55,2.55,0,0,0,2.72.58A3.15,3.15,0,0,0,119.62,27.12Zm-2.63-4a2.4,2.4,0,0,0-1.26.49,2.68,2.68,0,0,0-.83,1c1.82-.09,2.74-.15,4.56-.26a1.84,1.84,0,0,0-.43-.71,1.86,1.86,0,0,0-.6-.4,2.24,2.24,0,0,0-.71-.16A5.18,5.18,0,0,0,117,23.08Z"/><path class="cls-7" d="M164.61,3h.07q0-.31,0-.61c0-1.52,0-1.52-1.39-1.35-7.23,1.72-14.47,3.42-21.79,4.62a196.87,196.87,0,0,1-23.38,2.47c-10.54.57-21.09.69-31.64.6A339.76,339.76,0,0,1,51.89,7,107.74,107.74,0,0,1,41.1,5.43C33.67,4.18,26.31,2.59,19,.85c-1-.17-.91.54-.91,1.22q0,.55,0,1.11h0c0-.42.22-.73.9-.62C26.31,4.31,33.67,5.9,41.1,7.15A107.74,107.74,0,0,0,51.89,8.71a339.76,339.76,0,0,0,34.57,1.75c10.56.09,21.1,0,31.64-.6a196.87,196.87,0,0,0,23.38-2.47c7.33-1.2,14.56-2.9,21.79-4.62C164.18,2.66,164.49,2.62,164.61,3Z"/></g></g></svg>