<svg xmlns="http://www.w3.org/2000/svg" width="69.3" height="75.61" viewBox="0 0 69.3 75.61"><defs><style>.cls-1{fill:#1e1e1e;}.cls-2{fill:#898888;fill-rule:evenodd;}.cls-3{fill:none;stroke:#898888;stroke-miterlimit:10;stroke-width:1.13px;}</style></defs><title>grey_star</title><g id="Layer_2" data-name="Layer 2"><g id="Layer_1-2" data-name="Layer 1"><path class="cls-1" d="M69.13,27.86h0c0-1.84-1.81-2.46-3.75-3.12a60.52,60.52,0,0,0-11.44-2.43c-2.05-.3-4-.58-6-1-3.73-9-9.08-19.58-13.54-19.55S26.5,12,23.94,19.48c-.47,1.38-.88,2.58-1.25,3.56-.78.07-1.85.12-3.09.19-6.91.35-18.47,1-19.28,5.48a2.92,2.92,0,0,0,0,.66c0-.05,0-.11,0-.16h0l0,7.31c0,4.1,8.27,10.34,13.29,14.14l1.61,1.22a53.52,53.52,0,0,0-1.63,11.66q0-.18,0-.37l0,7.31q0,.18,0,.37c0,2.2.47,3.48,1.42,4.12a3.26,3.26,0,0,0,1.92.5,18.23,18.23,0,0,0,5.14-1.18c.78-.26,2.19-.78,3.82-1.43l2-.83c2.09-.86,4.26-1.82,5.81-2.6a12.89,12.89,0,0,0,1.75-1h0l2.86,1.23c5,2.18,11.26,4.9,16.15,5.76a10.33,10.33,0,0,0,1.87.21,2.76,2.76,0,0,0,1.59-.43,2.23,2.23,0,0,0,.52-.54l.07-.07s.05-.1.08-.15a3.12,3.12,0,0,0,.16-.31s.05-.09.07-.14,0-.1,0-.15a5.5,5.5,0,0,0,.19-.71c0-.06,0-.1,0-.16l0-.16a12,12,0,0,0,.15-2l0-7.31c0,.11,0,.22,0,.32C59.33,60.23,58,56,56.84,52.28l-.38-1.22.13-.15.16-.18.51-.55.25-.26.5-.52.27-.28.54-.55.25-.25.75-.76.91-.93.26-.27,1-1,0,0,1-1,.25-.27.91-1,.07-.07.91-1,.22-.25.79-.93.08-.09c.27-.33.52-.65.76-1l.18-.24c.21-.29.41-.57.6-.84l.06-.09v0c.2-.31.38-.6.54-.89l.11-.21a8.06,8.06,0,0,0,.37-.79l0,0h0a4.79,4.79,0,0,0,.19-.57q0-.15.06-.28a3.33,3.33,0,0,0,.06-.6ZM4.58,33.23c.3-.11.62-.21.95-.31L6,32.81l.8-.2.54-.11.79-.16.59-.1.8-.13L10.1,32l.81-.11.63-.08.83-.09.62-.06.83-.08.61-.05.84-.06.57,0,.85-.06.5,0,.88,0,.41,0,1.15-.06C21,31.14,22.2,31.09,23,31h.21l.07-.2c.39-1,.82-2.3,1.34-3.78l.46-1.35.17-.49.36-1,.21-.58.37-1,.22-.59.43-1.14.18-.47c.24-.62.49-1.23.75-1.84l.18-.42q.33-.76.66-1.48l.18-.39c.27-.57.55-1.11.83-1.64l.18-.33q.36-.64.72-1.21l.27-.42.15-.22c.19-.27.38-.53.58-.76l0-.06a8.31,8.31,0,0,1,.62-.66l.16-.14a5.16,5.16,0,0,1,.62-.49l0,0a3.31,3.31,0,0,1,.64-.31l.16-.05a2.33,2.33,0,0,1,.65-.11c1.38,0,3.06,1.33,5,3.89A42,42,0,0,1,42,17.61q1.33,2.3,2.76,5.22t2.93,6.44h0c2.06.43,4.16.74,6.19,1a61.25,61.25,0,0,1,11.38,2.42l.47.16-.06.07h0l-.13.16-.75.88,0,0-.21.24-.83.93-.21.22-.82.88-.26.28-.86.9-.23.24-.84.87-.33.34-.72.74-.13.13-.05.05-1,1-.15.15-.16.16-.72.75-.17.17-.06.06-.7.75-.09.1L56,43.2l-.41.46-.14.16-.07.08-.4.49,0,.06h0l-.09.12-.13.18,0,.06-.09.15c0,.07-.07.13-.1.19l0,.05,0,.09v.09l0,.07,0,.07a.76.76,0,0,0,0,.14h0l0,7.31a.6.6,0,0,0,0,.08,48.72,48.72,0,0,0,1.79,6.76c.69,2.19,1.42,4.53,1.9,6.79l-.09.18-.11.19a1.58,1.58,0,0,1-.37.39h0a2,2,0,0,1-1.16.29,10.3,10.3,0,0,1-1.77-.2,33.35,33.35,0,0,1-3.82-.94c-1.33-.4-2.72-.89-4.1-1.41-2.77-1-5.57-2.26-8.06-3.34L35.53,60.4l-.21-.08-.16.15a11.77,11.77,0,0,1-2.21,1.28c-1.88.93-4.58,2.08-7,3l-1.93.76-1.61.6-.64.22a18,18,0,0,1-4.91,1.13,3.54,3.54,0,0,1-.71-.07l-.2,0a2,2,0,0,1-.59-.26,1.76,1.76,0,0,1-.43-.44,2.39,2.39,0,0,1-.13-.21,3,3,0,0,1-.21-.45v-.11c0-.22.07-.44.1-.66s.1-.63.16-.94l.1-.54q.21-1.17.46-2.34l.09-.44c.17-.78.33-1.57.5-2.35.23-1.05.45-2.07.63-3.1V55.4c.16-.88.29-1.77.37-2.67l.12.13V50.74c0-1.75,0-3.64,0-5.18l-.07-.09h0l0,0v-.17c-.49-.49-1.64-1.35-3.08-2.45l-.91-.69-.27-.21-.73-.56-.33-.26L11,40.55l-.43-.34-.65-.52-.48-.39-.62-.5-.49-.41-.61-.51h0l-.48-.42-.59-.51-.49-.44L5.62,36l-.46-.44L4.64,35l-.43-.44-.47-.5-.34-.39q.46-.22,1-.42Zm63.79-5.82h0ZM1,31.52l0,0,0,0Zm-.42-.92c.06.15.12.31.19.46C.68,30.9.62,30.74.56,30.59ZM15.62,53.25l.08-.37ZM15,56.45v0l.09-.5ZM15.26,55l.12-.58Zm-.53,2.94V58c0-.17.05-.33.08-.5C14.77,57.65,14.75,57.8,14.72,57.94Zm-.23,1.61v.05c0-.19,0-.39.07-.58C14.54,59.2,14.52,59.37,14.5,59.55Zm-.16,1.61c0-.22,0-.44.05-.66C14.37,60.72,14.35,60.94,14.34,61.16Zm-.07,1.43c0-.21,0-.43,0-.64C14.27,62.17,14.27,62.38,14.26,62.59Zm44.26-.29c0,.14,0,.27,0,.41C58.53,62.57,58.53,62.44,58.52,62.3ZM56.63,54l.14.46Zm.47,1.55.17.58Zm.44,1.58.16.6Zm.4,1.63c0,.18.09.37.12.55C58,59.09,58,58.91,57.94,58.72Zm.36,1.82c0,.09,0,.18,0,.27C58.33,60.73,58.31,60.63,58.3,60.54ZM68.18,27l-.1-.12Zm-.31-.36-.15-.12Zm-1.9-1,.22.08Zm.69.27.23.1Zm.58.28.2.11Zm-66.81,4a4.17,4.17,0,0,1-.09-.44A4.17,4.17,0,0,0,.43,30.19ZM59.24,64.14a11.36,11.36,0,0,1-.13,1.35A11.36,11.36,0,0,0,59.24,64.14Z"/><path class="cls-2" d="M34.57.57c-5.07,0-9.39,15.73-11.64,21.67-4.54.44-21.36.12-22.31,5.39-.92,5.11,14,15.1,16.06,17.25-.87,5.45-3.12,12.73-3.05,18.45.06,5,2.13,5.21,8,3.26,2.74-.91,12.09-4.69,13.51-6,5.34,2.34,13.2,6.24,19.08,7.34,2.41.45,3.8.45,4.27-2.35,1-6.1-3.2-14.85-3.91-20.26C54.35,43.67,67.4,32.85,68.62,28c.58-2.32-1.15-2.91-3.38-3.71-6.1-2.18-11.85-2.38-17.52-3.64C45.59,15.27,39.43.57,34.57.57Z"/><path class="cls-3" d="M34.57.57c-5.07,0-9.39,15.73-11.64,21.67-4.54.44-21.36.12-22.31,5.39-.92,5.11,14,15.1,16.06,17.25-.87,5.45-3.12,12.73-3.05,18.45.06,5,2.13,5.21,8,3.26,2.74-.91,12.09-4.69,13.51-6,5.34,2.34,13.2,6.24,19.08,7.34,2.41.45,3.8.45,4.27-2.35,1-6.1-3.2-14.85-3.91-20.26C54.35,43.67,67.4,32.85,68.62,28c.58-2.32-1.15-2.91-3.38-3.71-6.1-2.18-11.85-2.38-17.52-3.64C45.59,15.27,39.43.57,34.57.57Z"/></g></g></svg>