<svg xmlns="http://www.w3.org/2000/svg" width="68.94" height="73.82" viewBox="0 0 68.94 73.82"><defs><style>.cls-1{fill:#d79728;}.cls-2{fill:#fdb724;fill-rule:evenodd;}.cls-3{fill:none;stroke:#faa61a;stroke-linecap:round;stroke-linejoin:round;stroke-width:0.64px;}</style></defs><title>yellow_star</title><g id="Layer_2" data-name="Layer 2"><g id="Layer_1-2" data-name="Layer 1"><path class="cls-1" d="M68.85,26.08h0c0-1.84-1.81-2.46-3.75-3.12a60.52,60.52,0,0,0-11.44-2.43c-2.05-.3-4-.58-6-1C44,10.57,38.61,0,34.15,0S26.22,10.24,23.66,17.7c-.47,1.38-.88,2.58-1.25,3.56-.78.07-1.85.12-3.09.19C12.41,21.8.85,22.4,0,26.93a2.92,2.92,0,0,0,0,.66c0-.05,0-.11,0-.16H0l0,7.31c0,4.1,8.27,10.34,13.29,14.14l1.61,1.22a53.52,53.52,0,0,0-1.63,11.66q0-.18,0-.37l0,7.31q0,.18,0,.37c0,2.2.47,3.48,1.42,4.12a3.26,3.26,0,0,0,1.92.5,18.23,18.23,0,0,0,5.14-1.18c.78-.26,2.19-.78,3.82-1.43l2-.83c2.09-.86,4.26-1.82,5.81-2.6a12.89,12.89,0,0,0,1.75-1h0l2.86,1.23c5,2.18,11.26,4.9,16.15,5.76a10.33,10.33,0,0,0,1.87.21,2.76,2.76,0,0,0,1.59-.43,2.23,2.23,0,0,0,.52-.54l.07-.07s.05-.1.08-.15a3.12,3.12,0,0,0,.16-.31s.05-.09.07-.14,0-.1,0-.15a5.5,5.5,0,0,0,.19-.71c0-.06,0-.1,0-.16l0-.16A12,12,0,0,0,59,69l0-7.31c0,.11,0,.22,0,.32.07-3.57-1.23-7.76-2.41-11.52l-.38-1.22.13-.15.16-.18.51-.55.25-.26.5-.52.27-.28.54-.55.25-.25.75-.76.91-.93.26-.27,1-1,0,0,1-1,.25-.27.91-1,.07-.07.91-1L65,40l.79-.93.08-.09c.27-.33.52-.65.76-1l.18-.24c.21-.29.41-.57.6-.84l.06-.09v0c.2-.31.38-.6.54-.89l.11-.21a8.06,8.06,0,0,0,.37-.79l0,0h0a4.79,4.79,0,0,0,.19-.57q0-.15.06-.28a3.33,3.33,0,0,0,.06-.6ZM4.3,31.45c.3-.11.62-.21.95-.31L5.69,31l.8-.2L7,30.71l.79-.16.59-.1.8-.13.62-.09.81-.11.63-.08.83-.09.62-.06.83-.08.61-.05.84-.06.57,0,.85-.06.5,0,.88,0,.41,0,1.15-.06c1.38-.07,2.55-.13,3.35-.22h.21L23,29c.39-1,.82-2.3,1.34-3.78l.46-1.35.17-.49.36-1,.21-.58.37-1,.22-.59L26.57,19l.18-.47c.24-.62.49-1.23.75-1.84l.18-.42q.33-.76.66-1.48l.18-.39c.27-.57.55-1.11.83-1.64l.18-.33q.36-.64.72-1.21l.27-.42.15-.22c.19-.27.38-.53.58-.76l0-.06a8.31,8.31,0,0,1,.62-.66L32.08,9a5.16,5.16,0,0,1,.62-.49l0,0a3.31,3.31,0,0,1,.64-.31l.16-.05A2.33,2.33,0,0,1,34.18,8c1.38,0,3.06,1.33,5,3.89a42,42,0,0,1,2.56,3.95Q43,18.12,44.45,21t2.93,6.44h0c2.06.43,4.16.74,6.19,1A61.25,61.25,0,0,1,65,30.93l.47.16-.06.07h0l-.13.16-.75.88,0,0-.21.24-.83.93-.21.22-.82.88-.26.28-.86.9-.23.24-.84.87-.33.34-.72.74L59,38l-.05.05-1,1-.15.15-.16.16-.72.75-.17.17-.06.06-.7.75-.09.1-.14.15-.41.46L55.2,42l-.07.08-.4.49,0,.06h0l-.09.12-.13.18,0,.06-.09.15c0,.07-.07.13-.1.19l0,.05,0,.09v.09l0,.07,0,.07a.76.76,0,0,0,0,.14h0l0,7.31a.6.6,0,0,0,0,.08A48.72,48.72,0,0,0,55.91,58c.69,2.19,1.42,4.53,1.9,6.79l-.09.18-.11.19a1.58,1.58,0,0,1-.37.39h0a2,2,0,0,1-1.16.29,10.3,10.3,0,0,1-1.77-.2,33.35,33.35,0,0,1-3.82-.94c-1.33-.4-2.72-.89-4.1-1.41-2.77-1-5.57-2.26-8.06-3.34l-3.06-1.32L35,58.53l-.16.15A11.77,11.77,0,0,1,32.67,60c-1.88.93-4.58,2.08-7,3l-1.93.76-1.61.6-.64.22a18,18,0,0,1-4.91,1.13,3.54,3.54,0,0,1-.71-.07l-.2,0a2,2,0,0,1-.59-.26,1.76,1.76,0,0,1-.43-.44,2.39,2.39,0,0,1-.13-.21,3,3,0,0,1-.21-.45v-.11c0-.22.07-.44.1-.66s.1-.63.16-.94l.1-.54q.21-1.17.46-2.34l.09-.44c.17-.78.33-1.57.5-2.35.23-1.05.45-2.07.63-3.1v-.14c.16-.88.29-1.77.37-2.67l.12.13V49c0-1.75,0-3.64,0-5.18l-.07-.09h0l0,0v-.17c-.49-.49-1.64-1.35-3.08-2.45l-.91-.69-.27-.21-.73-.56-.33-.26-.72-.55-.43-.34-.65-.52-.48-.39L8.57,37l-.49-.41-.61-.51h0L7,35.67l-.59-.51-.49-.44-.56-.51-.46-.44-.52-.51-.43-.44-.47-.5-.34-.39q.46-.22,1-.42Zm63.79-5.82h0ZM.7,29.73l0,0,0,0Zm-.42-.92c.06.15.12.31.19.46C.4,29.11.34,29,.29,28.81ZM15.34,51.47l.08-.37Zm-.64,3.2v0l.09-.5ZM15,53.22l.12-.58Zm-.53,2.94v.06c0-.17.05-.33.08-.5C14.49,55.87,14.47,56,14.45,56.16Zm-.23,1.61v.05c0-.19,0-.39.07-.58C14.26,57.42,14.24,57.59,14.22,57.77Zm-.16,1.61c0-.22,0-.44.05-.66C14.09,58.94,14.08,59.16,14.06,59.38ZM14,60.81c0-.21,0-.43,0-.64C14,60.38,14,60.59,14,60.81Zm44.26-.29c0,.14,0,.27,0,.41C58.26,60.79,58.26,60.66,58.24,60.52Zm-1.89-8.34.14.46Zm.47,1.55.17.58Zm.44,1.58.16.6Zm.4,1.63c0,.18.09.37.12.55C57.75,57.31,57.71,57.12,57.67,56.94ZM58,58.76c0,.09,0,.18,0,.27C58.06,58.94,58,58.85,58,58.76Zm9.88-33.53-.1-.12Zm-.31-.36-.15-.12Zm-1.9-1,.22.08Zm.69.27.23.1Zm.58.28.2.11Zm-66.81,4A4.17,4.17,0,0,1,.07,28,4.17,4.17,0,0,0,.16,28.41ZM59,62.35a11.36,11.36,0,0,1-.13,1.35A11.36,11.36,0,0,0,59,62.35Z"/><path class="cls-2" d="M34.46.74c-5.07,0-9.39,15.73-11.64,21.67-4.54.44-21.36.12-22.31,5.39-.92,5.11,14,15.1,16.06,17.25-.87,5.45-3.12,12.73-3.05,18.45.06,5,2.13,5.21,8,3.26,2.74-.91,12.09-4.69,13.51-6,5.34,2.34,13.2,6.24,19.08,7.34,2.41.45,3.8.45,4.27-2.35,1-6.1-3.2-14.85-3.91-20.26C54.24,43.85,67.29,33,68.51,28.16c.58-2.32-1.15-2.91-3.38-3.71C59,22.27,53.27,22.07,47.6,20.81,45.48,15.45,39.32.74,34.46.74Z"/><path class="cls-3" d="M34.46.74c-5.07,0-9.39,15.73-11.64,21.67-4.54.44-21.36.12-22.31,5.39-.92,5.11,14,15.1,16.06,17.25-.87,5.45-3.12,12.73-3.05,18.45.06,5,2.13,5.21,8,3.26,2.74-.91,12.09-4.69,13.51-6,5.34,2.34,13.2,6.24,19.08,7.34,2.41.45,3.8.45,4.27-2.35,1-6.1-3.2-14.85-3.91-20.26C54.24,43.85,67.29,33,68.51,28.16c.58-2.32-1.15-2.91-3.38-3.71C59,22.27,53.27,22.07,47.6,20.81,45.48,15.45,39.32.74,34.46.74Z"/></g></g></svg>