<svg xmlns="http://www.w3.org/2000/svg" xmlns:xlink="http://www.w3.org/1999/xlink" width="121.64" height="79.62" viewBox="0 0 121.64 79.62">
  <defs>
    <clipPath id="clip-path">
      <path d="M121.6,10.32l-.43,4.22A8.5,8.5,0,0,1,117,21l.43-4.22A8.5,8.5,0,0,0,121.6,10.32Z" fill="none"/>
    </clipPath>
    <clipPath id="clip-path-2">
      <path d="M0,38.6l.43-4.22A7.77,7.77,0,0,0,2.07,40l-.43,4.22A7.77,7.77,0,0,1,0,38.6Z" fill="none"/>
    </clipPath>
    <clipPath id="clip-path-3">
      <path d="M30.7,75l-.43,4.22A8.49,8.49,0,0,1,26,76.31l.43-4.22A8.49,8.49,0,0,0,30.7,75Z" fill="none"/>
    </clipPath>
    <clipPath id="clip-path-4">
      <path d="M37.68,74.22l-.43,4.22a8.59,8.59,0,0,1-7,.77L30.7,75a8.59,8.59,0,0,0,7-.77Z" fill="none"/>
    </clipPath>
  </defs>
  <title>tick</title>
  <g id="Layer_2" data-name="Layer 2">
    <g id="code">
      <g style="isolation: isolate">
        <g style="isolation: isolate">
          <g clip-path="url(#clip-path)">
            <g style="isolation: isolate">
              <path d="M121.6,10.32l-.43,4.22q0,.15,0,.3l.43-4.22q0-.15,0-.3" fill="#007633"/>
              <path d="M121.56,10.62l-.43,4.22a8.63,8.63,0,0,1-.36,1.54l.43-4.22a8.63,8.63,0,0,0,.36-1.54" fill="#007331"/>
              <path d="M121.2,12.16l-.43,4.22A8.59,8.59,0,0,1,120,18l.43-4.22a8.59,8.59,0,0,0,.73-1.62" fill="#007130"/>
              <path d="M120.47,13.78,120,18a8.39,8.39,0,0,1-3,3l.43-4.22a8.39,8.39,0,0,0,3-3" fill="#006e2e"/>
            </g>
          </g>
        </g>
        <g style="isolation: isolate">
          <g clip-path="url(#clip-path-2)">
            <g style="isolation: isolate">
              <path d="M2.07,40l-.43,4.22A7.77,7.77,0,0,1,0,38.6l.43-4.22A7.77,7.77,0,0,0,2.07,40" fill="#006e2e"/>
            </g>
          </g>
        </g>
        <polygon points="26.41 72.08 25.97 76.31 1.64 44.24 2.07 40.02 26.41 72.08" fill="#006b2c"/>
        <polygon points="117.48 16.79 117.05 21.01 37.25 78.44 37.68 74.22 117.48 16.79" fill="#006b2c"/>
        <g style="isolation: isolate">
          <g clip-path="url(#clip-path-3)">
            <g style="isolation: isolate">
              <path d="M30.7,75l-.43,4.22A8.49,8.49,0,0,1,26,76.31l.43-4.22A8.49,8.49,0,0,0,30.7,75" fill="#006e2e"/>
            </g>
          </g>
        </g>
        <g style="isolation: isolate">
          <g clip-path="url(#clip-path-4)">
            <g style="isolation: isolate">
              <path d="M37.68,74.22l-.43,4.22a8.59,8.59,0,0,1-7,.77L30.7,75a8.59,8.59,0,0,0,7-.77" fill="#006e2e"/>
            </g>
          </g>
        </g>
        <path d="M110.38,0c3.81-.16,8.25,2,10.08,5.11a8.53,8.53,0,0,1-3,11.67L37.68,74.22a8.59,8.59,0,0,1-7,.77,8.49,8.49,0,0,1-4.29-2.9L2.07,40c-2.9-3.7-1.78-9,2-12a8.62,8.62,0,0,1,5-1.78,9,9,0,0,1,7.42,3.27c7.77,10.31,7.53,10,16.18,20.39a6,6,0,0,0,4.7,2A8.54,8.54,0,0,0,40.67,51L107,.93A7.18,7.18,0,0,1,110.38,0Z" fill="#0da048"/>
      </g>
    </g>
  </g>
</svg>
