<?xml version="1.0" encoding="utf-8"?>
<!-- Generator: Adobe Illustrator 20.0.0, SVG Export Plug-In . SVG Version: 6.00 Build 0)  -->
<svg version="1.1" id="Layer_1" xmlns="http://www.w3.org/2000/svg" xmlns:xlink="http://www.w3.org/1999/xlink" x="0px" y="0px"
	 width="360px" height="2413.3px" viewBox="0 0 360 2413.3" style="enable-background:new 0 0 360 2413.3;" xml:space="preserve">
<style type="text/css">
	.st0{fill:#682F2E;}
	.st1{fill:#FEBF2E;}
	.st2{fill:#638BBA;}
	.st3{fill:#97B5DF;}
	.st4{fill:#FFE6B3;}
	.st5{fill:#3A1919;}
	.st6{fill-rule:evenodd;clip-rule:evenodd;fill:#3A1919;}
	.st7{fill-rule:evenodd;clip-rule:evenodd;fill:#D07D29;}
	.st8{fill-rule:evenodd;clip-rule:evenodd;fill:#FDBF2C;}
	.st9{fill:none;stroke:#EAAA28;stroke-width:3.2938;stroke-miterlimit:10;}
	.st10{fill:#E09F26;}
	.st11{fill:#C57429;}
	.st12{clip-path:url(#SVGID_2_);fill:#CD882A;}
	.st13{clip-path:url(#SVGID_4_);fill:#CD882A;}
	.st14{clip-path:url(#SVGID_6_);fill:#CD882A;}
	.st15{fill:#E19F35;}
	.st16{fill-rule:evenodd;clip-rule:evenodd;fill:#D07528;}
	.st17{fill-rule:evenodd;clip-rule:evenodd;fill:#EC8123;}
	.st18{fill-rule:evenodd;clip-rule:evenodd;fill:#F89922;}
	.st19{fill:none;stroke:#9B5B25;stroke-linecap:round;stroke-linejoin:round;stroke-miterlimit:22.9256;}
	.st20{fill-rule:evenodd;clip-rule:evenodd;fill:#FFFFFF;}
	.st21{fill-rule:evenodd;clip-rule:evenodd;fill:#1A1A18;}
	.st22{fill-rule:evenodd;clip-rule:evenodd;fill:#9B5B25;}
	.st23{opacity:0.2;fill-rule:evenodd;clip-rule:evenodd;fill:#3C3B39;}
	.st24{fill-rule:evenodd;clip-rule:evenodd;fill:#448237;}
	.st25{fill-rule:evenodd;clip-rule:evenodd;fill:none;stroke:#286022;stroke-width:0.75;stroke-miterlimit:22.9256;}
	.st26{fill-rule:evenodd;clip-rule:evenodd;fill:#286022;}
	.st27{fill:#CD882A;}
	.st28{clip-path:url(#SVGID_8_);fill:#CD882A;}
	.st29{fill-rule:evenodd;clip-rule:evenodd;fill:#6AAA49;}
	.st30{fill-rule:evenodd;clip-rule:evenodd;fill:#52853C;}
	.st31{fill:#AF6528;}
	.st32{fill-rule:evenodd;clip-rule:evenodd;fill:#B7271C;}
	.st33{fill-rule:evenodd;clip-rule:evenodd;fill:#BD1F1D;}
	.st34{fill-rule:evenodd;clip-rule:evenodd;fill:#A81317;}
	.st35{fill-rule:evenodd;clip-rule:evenodd;fill:#9A1C13;}
	.st36{fill-rule:evenodd;clip-rule:evenodd;fill:#000003;}
	.st37{fill-rule:evenodd;clip-rule:evenodd;fill:#620000;}
	.st38{fill:none;stroke:#EAAA28;stroke-width:2.3246;stroke-miterlimit:10;}
	.st39{fill:none;stroke:#FFFFFF;stroke-width:10;stroke-miterlimit:10;}
	.st40{fill-rule:evenodd;clip-rule:evenodd;fill:none;stroke:#286022;stroke-width:2;stroke-miterlimit:22.9256;}
	.st41{fill-rule:evenodd;clip-rule:evenodd;fill:none;stroke:#286022;stroke-miterlimit:22.9256;}
	.st42{fill:#4CAAC8;}
	.st43{fill:#428AB2;}
	.st44{fill-rule:evenodd;clip-rule:evenodd;fill:#E6F4F5;}
	.st45{fill-rule:evenodd;clip-rule:evenodd;fill:#4CAAC8;}
	.st46{clip-path:url(#SVGID_12_);}
	.st47{opacity:0.5;fill-rule:evenodd;clip-rule:evenodd;fill:#99D3EE;}
	.st48{fill:none;stroke:#3492B8;stroke-width:0.9;stroke-miterlimit:22.9256;}
	.st49{opacity:0.78;fill-rule:evenodd;clip-rule:evenodd;fill:#C1E8F8;}
	.st50{fill-rule:evenodd;clip-rule:evenodd;fill:#E6F5F7;}
	.st51{fill-rule:evenodd;clip-rule:evenodd;fill:#8CCDDF;}
	.st52{fill-rule:evenodd;clip-rule:evenodd;fill:#BEE6F1;}
	.st53{fill-rule:evenodd;clip-rule:evenodd;fill:#000002;}
	
		.st54{fill-rule:evenodd;clip-rule:evenodd;fill:#94968F;stroke:#000000;stroke-width:0.7357;stroke-linecap:round;stroke-linejoin:round;stroke-miterlimit:22.9256;}
	.st55{fill-rule:evenodd;clip-rule:evenodd;}
	.st56{fill-rule:evenodd;clip-rule:evenodd;fill:#D6D9D9;}
	.st57{clip-path:url(#SVGID_14_);}
	.st58{fill-rule:evenodd;clip-rule:evenodd;fill:#C6C6C6;}
	
		.st59{fill-rule:evenodd;clip-rule:evenodd;fill:none;stroke:#000000;stroke-width:0.7357;stroke-linecap:round;stroke-linejoin:round;stroke-miterlimit:22.9256;}
	.st60{fill-rule:evenodd;clip-rule:evenodd;fill:#000B16;}
	.st61{fill-rule:evenodd;clip-rule:evenodd;fill:#314349;}
	.st62{clip-path:url(#SVGID_16_);}
	.st63{fill-rule:evenodd;clip-rule:evenodd;fill:#CD4328;}
	.st64{fill-rule:evenodd;clip-rule:evenodd;fill:#BB341C;}
	
		.st65{fill-rule:evenodd;clip-rule:evenodd;fill:#E6E7E8;stroke:#000000;stroke-width:0.7357;stroke-linecap:round;stroke-linejoin:round;stroke-miterlimit:22.9256;}
	.st66{fill-rule:evenodd;clip-rule:evenodd;fill:#CBEBF7;}
	.st67{fill-rule:evenodd;clip-rule:evenodd;fill:#8AD1E7;}
	.st68{fill:none;stroke:#376430;stroke-width:0.4996;stroke-miterlimit:22.9256;}
	.st69{fill:none;stroke:#376430;stroke-width:0.4474;stroke-miterlimit:22.9256;}
	.st70{fill:none;stroke:#376430;stroke-width:1.0952;stroke-miterlimit:22.9256;}
	.st71{fill-rule:evenodd;clip-rule:evenodd;fill:#376430;}
	.st72{fill-rule:evenodd;clip-rule:evenodd;fill:#7ABDC6;}
	.st73{opacity:0.1;fill:#FFF4E4;}
	.st74{fill:none;stroke:#4CAAC8;stroke-miterlimit:10;}
	.st75{fill:none;}
	.st76{fill:#5E5F5F;}
	.st77{fill:#F7F8FA;}
	.st78{fill:#18477C;}
	.st79{fill:#3166B1;}
	.st80{fill:#40A5DD;}
	.st81{fill:#9DD5EF;}
	.st82{fill:#898989;}
	.st83{fill:#263B97;}
	.st84{fill-rule:evenodd;clip-rule:evenodd;fill:#18477C;}
	.st85{fill-rule:evenodd;clip-rule:evenodd;fill:#FFFFFF;stroke:#3166B1;stroke-miterlimit:10;}
	
		.st86{fill-rule:evenodd;clip-rule:evenodd;fill:#94968F;stroke:#000000;stroke-width:1.0004;stroke-linecap:round;stroke-linejoin:round;stroke-miterlimit:22.9256;}
	.st87{clip-path:url(#SVGID_18_);}
	
		.st88{fill-rule:evenodd;clip-rule:evenodd;fill:none;stroke:#000000;stroke-width:1.0004;stroke-linecap:round;stroke-linejoin:round;stroke-miterlimit:22.9256;}
	.st89{clip-path:url(#SVGID_20_);}
	
		.st90{fill-rule:evenodd;clip-rule:evenodd;fill:#E6E7E8;stroke:#000000;stroke-width:1.0004;stroke-linecap:round;stroke-linejoin:round;stroke-miterlimit:22.9256;}
	.st91{fill:none;stroke:#20488E;stroke-width:10;stroke-miterlimit:10;}
	.st92{fill:none;stroke:#010101;stroke-width:0.2135;stroke-linecap:round;stroke-linejoin:round;stroke-miterlimit:22.9256;}
	.st93{fill-rule:evenodd;clip-rule:evenodd;fill:#56597A;}
	.st94{fill-rule:evenodd;clip-rule:evenodd;fill:#646589;}
	.st95{fill-rule:evenodd;clip-rule:evenodd;fill:#010101;}
	.st96{fill:none;stroke:#1A1A18;stroke-width:0.3988;stroke-linecap:round;stroke-linejoin:round;stroke-miterlimit:22.9256;}
	.st97{fill-rule:evenodd;clip-rule:evenodd;fill:#3F1413;}
	.st98{fill-rule:evenodd;clip-rule:evenodd;fill:#7E2B1A;}
	.st99{fill-rule:evenodd;clip-rule:evenodd;fill:#7B8093;}
	.st100{opacity:0.5;fill-rule:evenodd;clip-rule:evenodd;fill:#7C7C9F;}
	.st101{fill-rule:evenodd;clip-rule:evenodd;fill:#A1A4B0;}
	.st102{fill-rule:evenodd;clip-rule:evenodd;fill:#909FBC;}
	.st103{fill:none;stroke:#2A3248;stroke-width:0.3294;stroke-linecap:round;stroke-linejoin:round;stroke-miterlimit:22.9256;}
	.st104{fill:none;stroke:#2A3248;stroke-width:0.8246;stroke-linecap:round;stroke-linejoin:round;stroke-miterlimit:22.9256;}
	.st105{fill-rule:evenodd;clip-rule:evenodd;fill:#EBEBEB;}
	.st106{fill:none;stroke:#646589;stroke-width:0.7184;stroke-miterlimit:22.9256;}
	.st107{fill:none;stroke:#646589;stroke-width:0.106;stroke-linecap:round;stroke-linejoin:round;stroke-miterlimit:22.9256;}
	.st108{fill:none;stroke:#646589;stroke-width:0.2201;stroke-linecap:round;stroke-linejoin:round;stroke-miterlimit:22.9256;}
	.st109{fill:none;stroke:#2A3248;stroke-width:0.3988;stroke-linecap:round;stroke-linejoin:round;stroke-miterlimit:22.9256;}
	.st110{fill:none;stroke:#7AC4DB;stroke-width:4;stroke-linecap:round;stroke-linejoin:round;stroke-miterlimit:22.9256;}
	.st111{fill-rule:evenodd;clip-rule:evenodd;fill:#065364;}
	.st112{fill-rule:evenodd;clip-rule:evenodd;fill:#002938;}
	.st113{fill-rule:evenodd;clip-rule:evenodd;fill:#097C87;}
	.st114{fill-rule:evenodd;clip-rule:evenodd;fill:#003549;}
	.st115{opacity:0.2;fill-rule:evenodd;clip-rule:evenodd;fill:#003549;}
	.st116{opacity:0.1;fill:#E9F3F9;}
	.st117{fill-rule:evenodd;clip-rule:evenodd;fill:#FFFFFF;stroke:#3166B1;stroke-width:1.3058;stroke-miterlimit:10;}
</style>
<g>
	<defs>
		<rect id="SVGID_11_" x="-285" y="328.5" width="265" height="338"/>
	</defs>
	<clipPath id="SVGID_2_">
		<use xlink:href="#SVGID_11_"  style="overflow:visible;"/>
	</clipPath>
	<g style="clip-path:url(#SVGID_2_);">
		<path class="st47" d="M-275.4,407.2c-1.7,48.3-4.3,82.9,7.3,129.6c2.3,5,59.9,37.1,77.3,27c37.2-21.6,84.6,48.1,113.9,32.6
			c6.8-3.6,27.4,13,48.5,13c34.6,0,56.8,2.7,91-0.1c13.6-1.1,38.1-3.2,50.8,3.5c12.7,17.5,3.4,6.2,6.1,20.5
			c4.8,25.5,136.3,7.4,159,19.4c34.1,18,19.5,21.6,63.2,36.9c31.4,11.1,112.2-0.5,140.7,12.3c41.1,18.4,62.2,15,71.7,19.1
			c19.5,8.4,0.6,8.6,89.8,5.3c19.3-0.7,22.5,2.5,27.7-12.1c-10.9-47.4-16-33.5-34.4-52.2c1.4-10.2,32.3-7.7,55.8-23.6
			c16.9-11.5,67.4-14.2-4-15.4c-11.4-0.2-96.4-22.4-96.5-23.1c-1.8-1-31.5-42.2-33.4-45.9c-4.9-0.5-52.1-2.4-53.6-3.1
			c-55-27.1-120.1-3.3-143.8-13.6c-1.6-0.7-27.2,6-54-1.3c-14.2-3.9-24.8-18.9-37.8-25.9c-12.9-7-27.9-5.9-33.3-7.5
			c-80.8-25.1-93.9-20.4-174.5-13c-51.2,18.2-21.7-30.3-95.3-23.8c-59.2,5.2-68.7-16.1-98.4-18
			C-215.3,442.3-194.4,450.2-275.4,407.2z"/>
		<path class="st48" d="M-275.4,407.2c-1.7,48.3-4.3,82.9,7.3,129.6c2.3,5,59.9,37.1,77.3,27c37.2-21.6,84.6,48.1,113.9,32.6
			c6.8-3.6,27.4,13,48.5,13c34.6,0,56.8,2.7,91-0.1c13.6-1.1,38.1-3.2,50.8,3.5c12.7,17.5,3.4,6.2,6.1,20.5
			c4.8,25.5,136.3,7.4,159,19.4c34.1,18,19.5,21.6,63.2,36.9c31.4,11.1,112.2-0.5,140.7,12.3c41.1,18.4,62.2,15,71.7,19.1
			c19.5,8.4,0.6,8.6,89.8,5.3c19.3-0.7,22.5,2.5,27.7-12.1c-10.9-47.4-16-33.5-34.4-52.2c1.4-10.2,32.3-7.7,55.8-23.6
			c16.9-11.5,67.4-14.2-4-15.4c-11.4-0.2-96.4-22.4-96.5-23.1c-1.8-1-31.5-42.2-33.4-45.9c-4.9-0.5-52.1-2.4-53.6-3.1
			c-55-27.1-120.1-3.3-143.8-13.6c-1.6-0.7-27.2,6-54-1.3c-14.2-3.9-24.8-18.9-37.8-25.9c-12.9-7-27.9-5.9-33.3-7.5
			c-80.8-25.1-93.9-20.4-174.5-13c-51.2,18.2-21.7-30.3-95.3-23.8c-59.2,5.2-68.7-16.1-98.4-18
			C-215.3,442.3-194.4,450.2-275.4,407.2z"/>
		<path class="st47" d="M139.1,484.1c-3.8,2.4,31.3,22.4,11.7,30c-1,0.4-5.2,3.7-5.9,4.5c1.1,16.4-8.5,19.7-13.5,40.2
			c-8.6,34.6-12.7,39.3-33.2,49.5c6.6,1.1,10.9,2.2,15.2,4.4c1.6,0.8,2.1,3.5,4,5c1.6,1.9,3.2,4.6,2.9,6.3c-0.3,2.1-1.4,3.2-0.8,6.3
			c0.4,2,0.2,6.9,6.3,10.2c4.6,2.5,14.2,4.4,17.7,5.1c8-4.7,18-10.2,24.2-18c3.6-4.6,3.8-10.3,10.8-15.5c0,0,14.3-22.7,18-27.4
			c3.2-4.1-0.2-1.8,6.8-9.4c10.9-11.7,24.8,0.3,25.1-21.9c0-1.5,1.7-12.2,1.7-21.7c0-5.4,1.8-29.5-1.6-30.9
			C191.9,486.4,142.8,481.8,139.1,484.1"/>
		<path class="st47" d="M240.2,565c-0.5,17.5-0.1,43.6,4.1,59.5c0.1,0.3,1.1,23.1,2.3,29.1c0.4,0.2,21.9,0,32,1.3
			c9.8,1.2,27.2,24.2,47,27.4c24.4,3.9,12.5,17.7,52,10.4c6.2-1.1,30.9-4.4,51.3-3.2c32.6,1.9,25.2-7.8,14.4-33
			c-6.8-5.3-0.4-31.2-11.8-40.5c-1.6-15.1-12-60.5-11.2-72.9c-8.4-3.5-37.6-1.4-62-5.4c-28.9,4.2-52.8,1.8-65.8-8.4
			c-8.5-6.1-16.9-15.6-29.4-21.3c-12.5-5.7-26.5-5.7-30.2-3.6C243.4,508.6,240.6,552.8,240.2,565"/>
		<path class="st50" d="M711.4,475.9c2.8-46.4-22.3-99.8-24.8-100.9c-29.7-13-37.9-56.5-55.8-44.5c-3.2,2.2-80.4,5.5-119.9,11.1
			c-35.4,5.1-102.9-0.6-152.7-24.9c-2.9-1.4-171.8,3.6-221.7,4.4c-1.8,1.7-3.9,3-6.2,4c-8,3.4-17.5,2.3-26,2.2c-0.3,0-0.6,0-0.9-0.1
			c-1.6,1.5-3.6,2.6-5.9,3c-16.8,3.1-34,4.7-50.6,8.7c-2,2.4-4.6,4.3-7.6,5.1c-0.7,0.2-1.3,0.4-2,0.6c-1,0.5-2,1-3,1.5
			c-0.1,0-0.1,0.1-0.2,0.1c-1.4,2.3-3.4,4.2-5.7,5.6c-0.4,0.5-0.8,0.9-1.2,1.3c0.1,0.4,0.1,0.8,0.2,1.2c0.1,2.1-0.4,4-1.3,5.8
			c-0.6,1.9-1.7,3.5-3.1,4.9c-0.7,0.7-1.4,1.3-2.2,1.8c0.5-0.1,1-0.1,1.5-0.2c-11.3,13.8-53.9,8.9-64,6.4c-13.4-3.3-28.7,3.9-52,3.7
			c-8,0-16.9,4.6-26.9,0.2c-23.2-10.3-151.3,11.5-154.8,30.3c81.1,43,60.1,35.1,144,40.5c29.7,1.9,39.2,23.2,98.4,18
			c73.6-6.5,44.1,42,95.3,23.8c80.6-7.4,93.7-12,174.5,13c5.3,1.7,20.3,0.5,33.3,7.5c12.9,7,23.5,22,37.8,25.9
			c26.9,7.3,52.4,0.6,54,1.3c23.7,10.3,88.8-13.5,143.8,13.6c1.5,0.7,48.6,2.6,53.6,3.1c1.9,3.7,31.5,44.9,33.4,45.9
			c0.1,0.8,85.1,22.9,96.5,23.1c42.3,0.8,25.1,24.6,67.2-22.4C778.9,575.2,708,532.7,711.4,475.9z"/>
	</g>
</g>
<path id="mappathid" class="st91" d="M199.5,2.2c-14.6,38.3-31.6,75.3-54.6,109.3c-44,82-31,177-26,266c2,42,0,83-11,125c-11,40-22,78-27,119
	c-3,26-3,51,0,77c2,19,6,36,12,54c7,22,17,41,28,61c3,5,6,10,9,15c8,11,14,20,21,31c13,17,25,32,38,48c7,8,14,16,22,23
	c35,31,65,69,58,116c-8,65-34,122-69,178c-2,3-4,5-6,7c-21,34-47,58-74,86c-24,27-28,64-21,99c0,2,0,3,0,5c6,28,15,53,25,79
	c1,2,0,3,1,5c12,29,28,56,49,80c24,26,51,46,76,71c16,17,28,36,31,59c3,28-8,53-20,77c-1,2,0,3-1,5c-16,32-31,61-50,92
	c-15,23-29,43-42,67c-2,5-4,10-3,15c10,42,25,79,44,117c25,50-2,103-26,147c-7,20-13,39-18,60c-2,13-4,24-6,37c-1,11-2,22-3,33
	c-1,16-2,32-0.8,47.8"/>
</svg>
