<svg id="Layer_1" data-name="Layer 1" xmlns="http://www.w3.org/2000/svg" width="360" height="2404.75" viewBox="0 0 360 2404.75"><defs><style>.cls-1{fill:none;stroke:#fff;stroke-miterlimit:10;stroke-width:12.27px;}</style></defs><title>path_desert 2</title><path id="mappathid" class="cls-1" d="M213,2403.12c8.46-92.17-4.54-185.17-55.54-267.17-2-2-4-4-5-7l-3-3c-1-1-1-3-2-4l-3-3c-1-1-1-3-2-4l-6-6c-1-1-1-3-2-4-5-6-13-10-15-18-5-25-5-49-4-73,2-18,3-36,9-54,5-18,8-37,13-55,2-4,2-9,3-13,4-12,7-25,12-37,3-8,8-15,13-23,9-13,20-20,33-29,7-5,10-12,14-18,10-16,13-35,12-53-3-48-26-90-46-132-11-14-16-31-26-46-12-19-21-38-29-58-3-7-7-14-9-21-3-12-3-25-8-36-11-22-15-46-14-70,2-28,8-56,5-84-3-34-8-67-7-101,1-13,1-26,5-39a84.21,84.21,0,0,1,11-21c5-7,12-10,19-15,4-3,8-4,12-6,5-4,10-6,15-10,19-12,37-19,53-34,1-1,3-1,4-2,15-13,30-26,42-42,19-62,23-128,13-193-3-25-10-47-17-71-4-11-9-20-12-31-4-10-10-18-15-28-8-12-15-23-23-34-9-11-16-22-25-34a297.3,297.3,0,0,1-29-56c-36-96-71-206-13-303l3-3c14-24,35-40,58-53,15-9,29-18,40-31a30.39,30.39,0,0,1,5-7c41-60-6-126-48.53-165.85"/></svg>