<svg id="Layer_1" data-name="Layer 1" xmlns="http://www.w3.org/2000/svg" width="360" height="1739.86" viewBox="0 0 360 1739.86"><defs><style>.cls-1{fill:none;stroke:#fff;stroke-miterlimit:10;stroke-width:12.27px;}</style></defs><title>Path_desert_1</title><path id="mappathid" class="cls-1" d="M180,1739.86c0-277.3-1-553.3,1-830.3-4-50-19-101-59-135-3-3-6-8-8-12-1-2-2-5-3-7-1-8-2-16-4-25-6-36-10-71-7-107,3-32,10-63,32-89,20-24,49-33,78-42,10-3,20-9,28-16,1-2,3-3,5-5,20-23,16-55,6-81-14-34-35-61-58-91-9-12-12-26-14-40-6-39-6-76-5-114,3-49,20.26-94.54,18-144.74"/></svg>