<svg id="Layer_1" data-name="Layer 1" xmlns="http://www.w3.org/2000/svg" width="360" height="2454.5" viewBox="0 0 360 2454.5"><defs><style>.cls-1{fill:none;stroke:#fff;stroke-miterlimit:10;stroke-width:12.27px;}</style></defs><title>Path_desert_2</title><path id="mappathid" class="cls-1" d="M211.5,2451c25.75-120-.5-273-82.5-355a16.12,16.12,0,0,1-4-7,403.23,403.23,0,0,1-4-60c1-15,1-30,4-45,6-32,15-60,22-92,0-1,2-3,2-4,1-3,1-7,2-10,2-5,4-10,5-15a48.75,48.75,0,0,0,3-7c7-13,13-26,25-36,6-4,10-8,16-12,9-6,14-14,20-23,6-10,8-21,9-32,5-46-15-89-35-130-6-13-12-24-19-37-8-14-14-27-23-41-5-8-8-17-13-25-8-15-13-30-19-45-3-9-3-20-6-29-5-12-10-22-13-35-7-35,1-69,3-103,1-9,0-18-1-27-5-41-10-81-4-122,3-16,8-31,22-41,12-8,24-14,36-22,10-6,20-11,30-17,7-5,14-9,21-15,12-10,24-19,35-30,4-4,7-9,11-13a20.92,20.92,0,0,0,4-6c9-31,13-61,16-92,1-23,2-45,0-68-1-10-2-19-3-29s-5-18-5-28c0-3-2-5-3-8-8-33-18-63-35-92-16-27-35-49-52-76-25-39-37-80-50-123a399,399,0,0,1-19-102c-1-17,0-35,2-52,1-6,3-12,3-18,0-1,2-3,2-4a166.26,166.26,0,0,1,94-118l3-3c16-9,27-22,36-37,8-14,11-30,10-46-4-45-33-81-63.41-111.85"/></svg>