<svg id="Layer_1" data-name="Layer 1" xmlns="http://www.w3.org/2000/svg" width="360" height="2308" viewBox="0 0 360 2308"><defs><style>.cls-1{fill:none;stroke:#240d0e;stroke-miterlimit:10;stroke-width:12.27px;}</style></defs><title>path_desert 2</title><path id="mappathid" class="cls-1" d="M215.28,2305c-.28-37.32-5.28-73.32-14.28-110.32-2-6-4-11-5-17-15-47-38-91-73-125-6-11-6-23-7-35a291.44,291.44,0,0,1,1-66c6-35,15-66,23-100,3-14,8-27,13-40,6-13,13-26,26-35,16-10,29-21,37-38,1-2,2-5,3-7,6-16,6-33,5-50,0-4-2-8-2-13-2-15-8-30-14-44-18-45-41-87-66-130-5-9-10-16-12-26-2-5-6-9-7-15-1-3-3-5-4-7-6-14-5-31-12-45-12-27-16-55-14-84,3-29,7-57,3-86v-10c-4-33-9-66-5-99,2-14,6-28,15-40,26-21,56-34,85-52a202.78,202.78,0,0,0,18-13c14-11,25-23,37-35,2-3,5-6,6-9a405.09,405.09,0,0,0,12-47,550.89,550.89,0,0,0,6-57c2-36-1-70-8-106-8-37-20-70-36-104l-3-3c-15-26-33-48-51-73-10-15-17-29-24-44a122,122,0,0,0-7-17c-5-13-9-26-14-39-11-35-21-70-26-107-5-47-1-94,20-137l9-15c7-11,14-21,23-30,19-17,40-26,61-40,21-15,34-36,38-61,5-33-9-64-28.22-88.63"/></svg>