<svg id="Layer_1" data-name="Layer 1" xmlns="http://www.w3.org/2000/svg" width="360" height="2250.67" viewBox="0 0 360 2250.67"><defs><style>.cls-1{fill:none;stroke:#fff;stroke-miterlimit:10;stroke-width:12.44px;}</style></defs><title>path_rainforest_1</title><path id="mappathid" class="cls-1" d="M166.4,2245.21c-11-19.54-23-39.54-32-61.54-5-13-10-25-14-38-4-15-8-29-11-45v-5c-5-27-5-52,1-79,6-35,22-66,49-89,24-20,46-37,66-62,8-11,16-22,23-34,6-11,11-21,16-32a290.36,290.36,0,0,0,23-133c-4-82-22-164-63-238l-3-3c-20-35-48-64-85-81-9-4-18-10-23-20-1-2-2-5-3-7-6-18,0-37,6-55a414.81,414.81,0,0,1,32-63c5-8,10-16,15-25,32-47,59-91,84-140,1-2,0-3,1-5,13-28,23-63,3-91-2-2-3-4-5-7a464.19,464.19,0,0,1-62-92c-19-36-31-74-25-115,4-31,20-57,39-80,17-30,8-66-4-97-2-6-5-11-7-17-18-38-39-73-58-110-32-60-65-122-56-192,3-30,14-58,38-78,12-10,26-16,41-21,25-7,49-16,67-35,24-25,32-58,38.65-90.78"/></svg>