<svg id="Layer_1" data-name="Layer 1" xmlns="http://www.w3.org/2000/svg" width="360" height="1970.67" viewBox="0 0 360 1970.67"><defs><style>.cls-1{fill:none;stroke:#240d0d;stroke-miterlimit:10;stroke-width:12.44px;}</style></defs><title>Rain Forest 4</title><path id="mappathid" class="cls-1" d="M198.83,1958.79c-29.88-.12-60.88,3.88-90.88-6.12a48.75,48.75,0,0,0-7-3c-16-7-30-20-32-38-3-34-3-68-2-102,1-24,4-47,6-71l3-12a720.26,720.26,0,0,1,16-102c0-1,2-3,2-4a482,482,0,0,1,29-91c5-10,8-21,13-32a233.24,233.24,0,0,1,44-65c7-7,15-12,25-16,16-5,32-8,47-13,12-5,21-13,27-25,21-47,16-98,11-147v-15c-2-18-4-35-7-53-6-34-15-64-24-97-1-2-2-3-3-5-5-17-9-34-15-51-7-19-11-40-20-59-5-11-8-23-13-34-1-2-2-3-3-5,0-3-1-6-2-9l-6-9c-3-8-5-17-8-25a388.58,388.58,0,0,0-25-50l-3-3c-15-30-39-50-64-72-12-12-12-29-8-45,16-70,58-123,93-184,7-14,15-26,21-40,8-17,15-35,22-52,9-21,16-42,20-65,2-18,2-35,2-53-19-68-37-135-62-201,0-1-2-1-2-2-11-35-30-66-46.47-98.65"/></svg>