<svg id="Layer_1" data-name="Layer 1" xmlns="http://www.w3.org/2000/svg" xmlns:xlink="http://www.w3.org/1999/xlink" width="360" height="2047.33" viewBox="0 0 360 2047.33"><defs><style>.cls-1,.cls-6{fill:none;}.cls-2{clip-path:url(#clip-path);}.cls-3{clip-path:url(#clip-path-2);}.cls-4{fill:#6b904e;fill-rule:evenodd;}.cls-5{fill:#7fa357;}.cls-6{stroke:#fff;stroke-miterlimit:10;stroke-width:12.44px;}</style><clipPath id="clip-path"><rect class="cls-1" x="-760" y="-501.67" width="360" height="2767.2"/></clipPath><clipPath id="clip-path-2"><rect class="cls-1" x="-759.94" y="-199.36" width="360" height="4905.24"/></clipPath></defs><title>path_rainforest_2</title><g class="cls-2"><g class="cls-3"><path class="cls-4" d="M48.37,642.61c-5.52-20.1-15.91-6.48-22.8-16.55C18,624.81,12,621.78,11.06,622.35c10.25-16,11.95-18.34,8-26.62-4-7.07-15.54,2.32-31.39,6,.42-25.41-4.23-11.78-9-17.4-6.38,14.65-12.25,2.56-21.26,11.44,3.68-5.65,1.08-11.37-4-16,9.37-17.29,14.46-19.75,17.22-24.8s2.83-8.2,1.07-13.51c-2.61-21.74-16.29-6.15-31.88-13.21-.42-23.21,16.87-15.65,12.54-33.8-2.15-6-23.6,26.18-24.05,2.76,1.25-11.73.48-24.88-3.93-20.75-3.25-10-10.75,4.87-18.44-6.13.94-18.73.15-32.37-3.94-36.92s-11.48,0-23.76,17.63c-5-7.78-12.22-5.22-19.62-2,4-2.14,6.76-13.35,7.93-18.9.74-.21,1.84-18.28,1.53-21.56-9.59,17.5-19,16.17-26.94,13.63,9.33-16.15,14.46-9.32,16.86-31,.36,3.31-2.09-20.94-15.25-9.34,3.24-4.73,5.53-21.14,5.4-21.36.39-6.6.18-19.22-1-23.64-7.64,13.51-13.44,7.82-18.41,8.36-5.28,4.32-9,5.3-10.86,13.92-1-17.6-5.79-4.44-9.18-18.85-4-6.54-8.62-17.14-14.68-16-1.32,6.35-2.76,13.61-4.08,18.73-.64-3.21-3.78,23.5-4.43,18.74-9.23-4.18-18.59,12.32-25.76,1.92.48-9.66-.47-1.77,0-11-10.32,7.41-16.74-7.15-23.12,2.9-5.94,4.81-11,24.12-11.59,13.38.34-1.08,1.28-19.81-.76-22.73-1.41-10.68-3.51-33.68-11.15-20,7.95-11.38,12.26-23.12,12-26.25-10,15.54-15.7,1.6-21.11,5.38,2.12-6.86,2.43-21.8-.48-24.58-2.38-9.19-6.1-29.06-14-21.75a163.88,163.88,0,0,0-7.05,18.59c-1.46,4.4-2.66,14.82-2.51,18.75-13.49-.07-21.28,6.82-23.21-7.39-2.73-4.31-1.77-2.91-.6,21-10.34,2-16.12-16.62-22.91,1.23-7.06,21.21-8.88,2.33-12.28,16.17-10.73-13.1-18.55.77-20.85-7.49-1.47-.18-3.07,12.54-3.43,19.4,1.06-10.57.58,7,1.2,18.16-8.64-3.31-12.34-23.31-15.31-19.49-4.95,8.48-7.32-1.47-11.06,18.87-4.26,26.69-5,23.33-4.94,24.46-9.35-14.6-17.55-26-25.67-26.36,8.29-9,14.94-14.82,16.7-12.88,2.12-2.43.4-9.77-8.58-15.4-1.65,4.81,6.18-26.34,10.1-17.65,5.86-15.05,9.79-14.63,6.55-22.51-6.27-6.41-21.45-1.35-25.65,6.06-2.9-1.44,0-2.69,1.49-14.24,2.34-21.52,1-24.13-10.82-23.59-5.93,3-21.19,20.75-26.82,16.37-2-15.19-4.88-14.73-8.21-6.74-3.08,4.85-6.68,18.25-10,27,.34-14.27-6.11-21.19-16.07-21.29-3.16-8,.42-31.44-3.08-35.33-3.15-3.51-13.72,16.63-16.87,13.12-5.73,2.76-11.09-5.11-16.85-13.36-6.89,5.57-12.35-11.62-20.08-5.5-1.62-3.68-2.05-17.93-3.62-19.53,0-21.48-3.34-2-4.29-19.14-5-3-14.58,23.9-20.07,16.46-2-18.89-6.72-24.27-13-15.92-4.19-17.15-11-8.24-15.92-15.23-8.64-5.4-2.09,25.46-7.18,26.93-9.62,1.55-18.45-7-27.89-9.37-5.86-.73-4.39-30.57-10-34.88-3.33-7.71-9.38,2.62-15.29,11.4-7,21.52-11.47,13.15-15.29,11.4-4.58.37-23.93-11.86-28.44-14.65-6.54,3.91,3,24.63-.28,32.5-13.07,20.69-18.3,7-20.26,20.39-.88.14,2.93,9.91,12.08,27-5.86,13.24-5.21,14.81-4,25.89-18.55,11.2-20-7.95-21.29,8.13-.65,8,1.85,14-4,16.9-10.46-8.7-8.3,15.81-5.65,18.8-2.11,2.15-19.24-8.58-21.67-2.53-1.9-4.76,9.49,24.5,6.72,30.39-7.67,9.55-11.19,6.27-12.46,13.42-1.43,9,.7,12.5,5.57,20.3-6.43,4.56-11.72,12.89-16.06,10.28-14.33-7.47-19.41-21-21.41-18.57-1.62-4.78-5.19,13.09-4.4,29.31-8.86-15-17.65-13-20.87,12.71-4.47,5.09-7.06-12.75-11.21-11.6-2.44,9.17-.77-3.49,1.11-18.92.34,3.56,3.32-25.22,1.12-18.92-4.61,5.1-19.22,18.88-22.71,10.14-2.4-13.69-6.42-32.47-14.27-24.68-7.55,4.17-16.76,8.41-27.55,16.32-4.06,1.46-9.46-8.87-15.44-12.06-5.26-11.92-11.26-14.86-15.44-12.06-6-1.29-4.75,20.42-11.31,25.69-1.84,10.95-32.6,5.24-34,10.68-1-3.27,14.32,22,24.41,26.11-14.89-.05-24-.54-28.7,8.11-4.64,8.22-3.3,6.8,1.17,24.36-3.19,9.83-6.68,18.92-13.12,14.56-1.83,3.49-6.19,1.55-9.67-17.55-8.24,9.85-8.16,16.26-7.72,30.09-7.55,3.76-13.8,8.6-18,15.15-3.54-9-11.07-13.82-20.46-16.68-1.94,10.87-2.77,21.56-1.29,31.91,1.24,13.3,4.75,26.86,12.61,29.8-11,3.91-21.19,1.3-28.19,11.35-5.37-10-9.91,22.2-3.25,19.1-7.52-5.25-16.66,9.47-24,2.21-8.94,12.19-15.49-4.86-24,2.2,3.28,3.8,4.68,23.41,7.54,32.33.49,3.35-26,32-24.6,21-.5,4,22.22,12.65,24.84,17.12,2.51-6.48-2.63,4.85-4.43,18.84.17.14,14.36-7.1,21-3.9.69,1.54,4.15-14.78,5.94,10.56,5-11-15.15,10.18-13.59,21.55,6,8.06,25.51,14,18.73,17.13-3.11.83-19.9,17.47-21,19.26-1.58,8.59,14.45,4.23,12.72,14.54-3.19-4.85-10.41-10-12.2,11-.13-.24,21.21-3.8,19,4.86-7.41,12-14.25-.46-21.85,21.63-6.73,11.47-11.1,19.28-9.25,18.71,2.36-10.35,26,4.26,36.22-2.4,4,8.93,5.19,11.11,4.64,18.7,8.51-7.15,15.54,6.52,24.18-6.11,8.28-8.17,14.63.94,21.6-12.88,4.76-1.09,22.08,14.19,23.23,16.19,7-13.91,13.81-17.58,21.81-21,2.33,6.2,6,17.86,7.86,20.94,4.47,8.2,14.2-24.43,19.11-23.2,2.74-12.44,2.41,12.47,5.25-1.88,1.49,2.11,1.5,27.77,5.48,29.95,3,14.65,17.87-6.73,24.21-6.62,1.6,7.39-.17,1.36-8.54,15.81,6.88-15.06,19.66-.65,31.39-.71-.64,19.68-2.4,21-9.47,19.53,9.26,22.1,21.42,20.08,35.38,3.88,1.45,12.86,3.29,25.49,10.26,35.14,7.26-2.78,13.24-7,16.63-14,1.25,14.17,6.87,26.95,24.25,36,.79-13.91,7.83-20.4,17.35-23.93,18.54,14.88,28.42,14.79,20.77-15.64,13.3-1.87,25.43-4.9,29.51-16,6,1.66,8.1-3.49,4.2-19,13.23-1.86,25.27-8.89,23.46-21.77.62-12.51-.86,1.23-1-1.83,5.17,17.19,11.82,18,19,14.28,7.17-4,13.94-1.79,22-14,7.83,13.7,16,23.92,22.14,22.73,5.63,5.21,9.37-2.4,7.47-13.81,6.4,2.58,11.81,7.33,17,6.2,4.86,2.5,10.41-12.68,14.18-14.24,10.44,5.78,19.64,13.66,25.51,26.59,6.5,5.32,11.36-5,11.75-18.76,3-6,12.11,27.65,27.07,9.59,5.19,11.62,13.83-11.63,19.65,3.75,1.26,9.54,14.85-9.49,21,3.19,8.55,1.19,19.06,4.52,27.44,1.26,6.83-2.66,13.07,1.51,18.23,4.56,12.25,7.25,18.86-3.53,25,3.6,0,0,19,10.41,18.81,13-.24,3,15.48-16.46,15.79-20.26,1.11-13.57-.24,22.41-.25,22.59.89-10.92,15-3.78,15.72-13.07-1,11.77,2.59,2,1.49,15.41.48-5.83,23.4-20.29,22.36-7.63,6.07-.08,14,4.93,22.34,12.63,7.79-16.94,11.86,5,16.24,4.33,7.68,8.78,8.09-4.12,16.54-9.46,4.25,23.06,12.28,8.34,20.17-2.4,6.33,6.26,12.65-2.74,16.63,6.77,5-2.36,9.61-11.1,13.71-17.72.28-3.43,15.68,15.49,16.09,10.57.48-5.9,3,2.36,8.17-21.45,4.81-19.58,8.12-20.86,8.17-21.45,6,8.56,14.22-24.15,18.2-19.19,4.82,2.5,8.55,20,13.74,24.74,6.1-6.47,11.28,3.43,18.92-8.62,5.48-.68,10.22,12.88,12.89,16.67,1.09,17.05,14.52-28.94,24-19.83,6.2,8.44,12,14.88,17.35,17.32s10.29.88,14.77-6.67c4-1.81,6.88-1.15,9.53-11.61,2.67-10.78,2.91-5.53,3.64-22.41-.11,1.35,15.78-30.81,15.7-29.87,1.15-14.05-24,14-23,.83-3.38,1.17-3-24.28-4.23-16.21,1.41,4.91,2.21-8.29.88-10-.22,3.95,0,2.75.63-3.06,10,16.62,20.69,13.71,31.94-5.14,6.19-2.81,9.06,33.48,15.86,20,5.33,4.42,10.57,8.37,17.84-14.59,9.87-.51,18.46,26.89,33.89,11.29C-60.21,749.16-52,737.33-43.38,737c9-4.91,19-4.42,30-1.2C1,722.25,2.9,733.38,2,718.34c-.76-16.73-8.34-10.15-13.4-26.66,9.49,8.44,16-23.77,14.31-10.57-.26-4.59-2.84-36.2-12.42-16.32,3.3-6.39,13.28,7,22.19.06,8.61-3.27,15-12.73,6.73-12,7-4.4,14,3.53,19.8,3.28C44.81,657.6,49,651.4,48.37,642.61Z"/><path class="cls-5" d="M421.53,966.64c-15.21-22.81-39.38-12.83-41.38-18.35,19-34,6.41-36.95-26.61-19.92-3.51-23.39-15-22.75-32.61-3.72,3.42-9.27.16-13.87-5.66-16.68,33.8-42.33,15.43-52.89-18.9-53.73-2.46-5.29,16.56-25.6,10.39-37.13-2.81-5.25-22.79,10.44-25.31,5,.63-19.18-7.84-30-26.08-26.71-1.26-40.11-8.07-57.89-31.09-18.16-5.93-7.87-13.42-4.5-21-.46,8.16-12.72,7.77-28.2,6.55-44-8.66,6-18.77,10.88-27.43,16.88,17-29.31,24.15-48.41-1.79-43.18,6.06-14.56,4-31.29.8-48.36-13.89,6.18-26.6,13.09-29.16,26.29-5.23-14.34-15.68-25.42-28.36-35.12-1.71,13.54-3.6,27.1-5.8,40.69-10.17-5.2-18.68-.45-27.2,4.29l-1-11.74c-20.63,0-32.35,6.84-35.45,20.38C55,686,52,670.34,38.13,658.41c7.46-7.57,11-17.22,10.5-29-9.32-1.55-16.54,1.18-22,7.57C30,618,22.8,602.17,7.3,588.8,1.85,602.5-.62,616,.37,629.44c-28.66-16.51-30.73-4.63-24.1,16.54-21.6-4.3-31,5.91-35.87,21.62-25.06-23.45-28.41-4.37-21.9,34.06-9.47-16.27-15.12-21.84-18-19.45-9,12.26-13.51,28.08-13.24,47.58-11.2-4.25-20.89-13.38-29.54-25.87,16-10,26.22-20.17,6.18-30.85-2.66-6.42,22.46-31.34,14.2-44.26-7.22-11.31-22.89,2.23-26.71,8.69C-155,634-136.82,613.33-161.73,598c-6-3.72-20.71,23.09-27.07,19.78-6.86-26.4-12.11,1.41-17.54,23.22-.87-13.26-8.33-19.05-18.91-21.3-4-3.85-2.28-33.56-6.32-37.4-3.65-3.47-13.13,18.92-16.78,15.45C-260,586-273.86,581-289.21,580.82c-4.07-4-6.78-37.17-11.74-40.54-5.52-3.75-13.41,22.37-19.88,19.29-7.62-.27-21.73-31.74-33.4-30.69-9.64.87,0,29.52-5.29,29.34-10.08-5.67-20.2-9.3-30.43-7.56-6.29-1.33-7.31-35-13.6-36.32-8.41-1.79-22.09,28.75-30.5,27-4.83,3.59-26.44-16.43-31.47-13.15-6.61,4.3,5.3,31.91,2.51,34.67-24.17,14.34-27,31.26-4.59,51.22-5.07,8.5-4.26,19.4-2,27.95-37.45,4.73-12.71,13.7-24.74,28.89-11.86-3.11-7.45,9.35-4.37,20.54-2.06,4.73-21.18-5.55-23.23-.82-2.43,5.6,12.2,26.22,9.77,31.82q-22,12.51-4.4,36.56c-6.43,2.18-11.34,7.2-16.17,12.36-15.87-10.62-22.43-18.83-24.35-17.94-2.14,1-4.38,12.43-2.14,31.63-36.47-8.5-10.87,14.67-34-5.72-3.59-4.13,2.68-26.73-.91-30.85-4.46-5.12-18.78,17.91-23.23,12.79-7.47-33.93-23.58-31.17-45.13-5.27-8.38,1-26.49-24-34.88-23-6.5.78-3.28,27.6-9.78,28.38-1,5.78-34.17,8.57-35.17,14.35-1.32,7.57,17.11,17.75,28.18,25.71-31.63,2.19-39,15.19-26.42,37-2.54,7.63-5.46,14.8-12.68,16.66-1.64-7.56-6.44-12.9-11.78-17.87-7.9,10.69-7.26,21.7-5.59,32.76-7.69,4.67-13.91,10.37-17.79,17.71-4.54-9.3-13-13.77-23.17-16-2.23,23.51.16,45.92,17.37,64.81-22.59,9-44.38,18.1-30.75,35.2l-50.61,8.88c3.81,12.56,7,21.25,10.81,33.81.81,6.49-24.84,19.64-24.31,24.48-.19,3.49,24.69,10.75,27.86,16.1,2.11,3.55-2.37,14.05-3.07,20.47.2,2,14.63-4,21.95-6a14.88,14.88,0,0,0,7.22,10.74c4.32,5.58-15.21,20.15-12.56,24.16,7.12,5.54,28.3,4.89,21.37,16.63-3.23,5.48-19.62,16-20.64,22.36-.94,5.88,15.71,8.51,14.77,14.39-3.81,4.84-11.92,10.67-12,12.77-.16,4.1,22.2,1.47,20.61,3.53-13.67,10.72-33.37,40.61-29.54,45.72,1.61,2.1,28-1.94,38.26-5.71,5-1.36,6.47,7.07,6.55,19.53,16.85-4.27,34.57-10.64,47-24.23,5-2.94,24.67,17.43,26.07,15.24,6.2-12.07,13.14-20.94,21.34-24.3,3-3.24,7.89,22.66,10.16,21.64,7.28-2,18.21-31.71,22.72-30.21,2-2.46,4.13,31.26,9.39,32.81,4.44,1.31,18.4-4,25.14-9.16,2.34,1.61-.07,7.33-7.71,17.6,6,.9,20.83-1.77,33.27-3.48,1,9.74-.74,17.64-8.36,21.64,11.75,4.1,24.48,4,37.91,1.06,2.65,13.59,5.71,26.89,13.94,36.58,7.47-3.6,13.45-8.58,16.45-16.35,2.55,15,9.63,28.13,28.86,36.24-.36-14.9,6.54-22.43,16.35-27,21,14.25,31.46,13.3,20.7-18.48,18.24-4.12,34.22-10.16,30.24-33.16-5.49-7.88-7.8-17.5-9.53-27.45,13.23-1.32,24-5,29.9-13.33,15.16,27.88,31.11,25.24,47.53,3.38,16.12,16,32.41,32.42,33.3,17.84,5.22,23.29-2.09,19.86-11.22,23.7-1.23.52-2.23,3.16-2.75,6.17-.15.86-.26,1.75-.32,2.64,0,.66-.07,1.32-.07,2h0c0,2.32.41,4.34,1.28,5.21a13.8,13.8,0,0,0,1.66,1.41q.43.31.87.58a13.93,13.93,0,0,0,1.8.92,16,16,0,0,0,1.86.66,28.29,28.29,0,0,0,5.84.9c4.75.33,9.53.17,13.3,2.76a11.17,11.17,0,0,1,1.89,1.63h0a13,13,0,0,1,1.33,1.72,117.85,117.85,0,0,1,8.62,11.87c.82,1.23,1.65,2.45,2.46,3.63,3.79,5.52,7.34,10.16,9.63,10.28h0a1.49,1.49,0,0,0,.59-.11,2,2,0,0,0,1-1c2.81,11.61,8.4,17.29,13.27,23.09a6.48,6.48,0,0,0,.68.81c7.69,6.58,91.67,96.82,86.63,123.12-1.88,9.79,3.81,19.56,2.54,29.45a3,3,0,0,0,0,1c1.61,6.83-53.13,5.58-70.71,33.59-.4.64,1,1.16,1.45,1.73s1,1.14,1.51,1.7c4.39,4.81,9.13,9.5,15.2,12.34q.76.35,1.55.67a28.4,28.4,0,0,0,5,1.48h0a3.32,3.32,0,0,1,.55-1h0c1.07-1.28,2.72-.46,3.94-1.17a2.57,2.57,0,0,0,1.08-1.46,18,18,0,0,0,.72-3.89c.33-3.2.42-7.27.76-10.45a17.58,17.58,0,0,1,.7-3.76c17.92,1.25,25.11,14.86,24.84,37.39v.05q0,3.47-.32,7.22a36.88,36.88,0,0,1-.46,4.89,44.7,44.7,0,0,1-1.82,7.13c-3.59,10.68-9.33,18.68-1.44,36.18a46.62,46.62,0,0,1-3.66,14.3,44.74,44.74,0,0,1-3.79,6.86,38.49,38.49,0,0,1-2.91-4.23c-.44-.73-.86-1.49-1.27-2.26-.83-1.56-1.6-3.18-2.32-4.85-.8-1.85-1.55-3.75-2.27-5.68l-.41-1.11c-4.38-12.12-7.5-24.82-14.11-30.06-10.3-3.94-21-16-31.66-29.39h0c-1.41,4.89,13,14,18.67,27.83.19.46.36.92.53,1.39s.39,1.13.56,1.7.27.95.39,1.43a27.35,27.35,0,0,1,.72,4.73v.15c.43,7.47-2.25,16-10.63,25.67h0a19.3,19.3,0,0,1,3.41-.61q.84-.07,1.66-.06c14.81.16,25.69,19.36,26.31,46.76q0,1.52,0,3.08t-.06,3.14c0,.94-.07,1.85-.12,2.74-.19,3.31-.51,6.33-.89,9.1-.11.8-.22,1.58-.34,2.34-.29,1.92-.61,3.73-.92,5.44l-.32,1.76c-2,11.18-3.22,18.41,5,28.94,1.09,1.39,2.32,2.82,3.75,4.34,5.43,13.73,1.24,19.87-2.2,26.6a27.6,27.6,0,0,0-3.07,8.67,62,62,0,0,0-1.8,9.07q-.1.8-.17,1.62t-.13,1.73q-.1,1.62-.11,3.31v0q0,.87,0,1.77,0,1.79.2,3.66c.16,1.88.4,3.82.75,5.85q-2.07,4.59-4,9.15-.65,1.52-1.28,3c-2.11,5.07-4.07,10.11-5.85,15.13q-1.07,3-2,6-1.95,6-3.47,11.92-.38,1.48-.73,3-.7,3-1.27,5.89-.29,1.47-.54,2.93-.51,2.92-.87,5.83-.18,1.45-.33,2.9a93.91,93.91,0,0,0,1.16,28.3c-11.4,24.87-21.31,49.61-14.45,72.76l-1.15,9.49q-1.4,2.27-2.69,4.6c-1.56,2.79-3,5.62-4.36,8.53q-.85,1.84-1.63,3.72-1.56,3.75-2.84,7.64c-.74,2.25-1.39,4.54-2,6.86-.43,1.69-.83,3.4-1.18,5.13a103.06,103.06,0,0,0-1.71,12.7,109.9,109.9,0,0,0-.14,13.47,98.83,98.83,0,0,0-12.17-2.83c-1.5-.23-3-.41-4.43-.52a40,40,0,0,0-5.65,0,30.5,30.5,0,0,0-3.65.46c-11.32,2.15-20.19,11.1-24.08,33.8a37.93,37.93,0,0,0-11,7.19l0,0a25.08,25.08,0,0,0-2.87,3.35l-.4.58a22.13,22.13,0,0,0-2.19,4.17q-.28.7-.51,1.42c-1.48,4.65-1.54,10.1.06,16.48-6.82,7.13-8,22.32-7.71,35.76,0,1.88.12,3.73.21,5.51.06,1.13.12,2.24.2,3.31.18,2.76.39,5.32.59,7.55a60.52,60.52,0,0,1-4.47,8.56,24.61,24.61,0,0,1-2.4,3.13c-4.13,4.51-9,5.35-15.95.65a4.6,4.6,0,0,0-4-.5l-.69.22c-.46.17-.93.37-1.4.58l-1.4.68-1.08.51-.8.35a9.83,9.83,0,0,1-1.6.51c-3.27-1.53-6.47-4.23-9.73-5.9q-.49-.25-1-.47a10.66,10.66,0,0,0-4-1,7.61,7.61,0,0,0-1,0,7.61,7.61,0,0,0-2.89.92,10.29,10.29,0,0,0-1.78,1.24,14.62,14.62,0,0,0-2.38,2.66,19.71,19.71,0,0,0-1.35,2.22,25.18,25.18,0,0,0-2.08,5.57,27.87,27.87,0,0,0-.83,7.08s0,0,0,0c.1,6.63,2.66,13.4,9,17.61h0a43.06,43.06,0,0,1-3.41-9.3l-.12-.54a26.08,26.08,0,0,1-.41-2.63c-.06-.56-.1-1.11-.11-1.65a17.76,17.76,0,0,1,1.18-7.05,17,17,0,0,1,1.31-2.63h0a11.76,11.76,0,0,1,2.24-1.42,7.65,7.65,0,0,1,2.4-.71,6.22,6.22,0,0,1,2.52.23,7.25,7.25,0,0,1,1.71.78,12.54,12.54,0,0,1,3.45,3.38q.43.59.86,1.27c2.86,4.55,5.36,6.69,9.93,7.05a17.6,17.6,0,0,1,2.95.47,12.31,12.31,0,0,1,1.33.42,9.76,9.76,0,0,1,1.21.55,7.78,7.78,0,0,1,1,.62,6.26,6.26,0,0,1,.72.64,5.5,5.5,0,0,1,.58.69,4.83,4.83,0,0,1,.74,3.78,6.44,6.44,0,0,1-.35,1.17,8.25,8.25,0,0,1-.86,1.56,10.63,10.63,0,0,1-1.08,1.32c-.19.2-.4.4-.61.59a14.45,14.45,0,0,1-1.16.95,17.56,17.56,0,0,1-2.39,1.47l-.07,0-.9.43h0c-.86,1.09-1.74,2.24-2.62,3.33-.74.92-1.48,1.8-2.23,2.57l-.42.43c-2.77,2.7-5.51,3.65-8-.89h0a8.76,8.76,0,0,0-1.63,4.19h0a4.92,4.92,0,0,0,.26,2,4.93,4.93,0,0,0,.7,1.32l.17.23a9.94,9.94,0,0,0,4.84,2.87,9.92,9.92,0,0,0,2.19.48,5,5,0,0,0,4-1.63l.08-.07a16.43,16.43,0,0,0,2.56-3.5l.19-.33c.22-.4.45-.82.68-1.27,3.3-1.28,5.08,2.11,8.3,4.7,3.72,3,6.32,3.22,7.48,1a5.13,5.13,0,0,0,.45-1.23,17.19,17.19,0,0,0-.17-6.49,54.78,54.78,0,0,0-1.86-7.24,28.55,28.55,0,0,1-1.22-5.3c-.42-3.54.26-6,2.09-7a4,4,0,0,1,1.87-.41,8,8,0,0,1,2.45.44,17.25,17.25,0,0,1,3,1.37,21.81,21.81,0,0,0,6.53,2.13c9.48,1.31,14.53-7,18.15-18,.45-1.38.88-2.79,1.3-4.24q.41-1.45.81-2.93l.39-1.49q.39-1.49.76-3c.75-3,1.48-6.06,2.23-9,2.61-10.39,5.48-19.81,10.62-23.7,10.1-7.63,20.3-8.54,28.87-19.1a60.13,60.13,0,0,1,9.54,2.12c1.1.32,2.22.67,3.34,1,11.78,3.77,24.43,9,34.35,6.45a17.46,17.46,0,0,0,4.07-1.61,21.82,21.82,0,0,0,6.59-5.94,47.55,47.55,0,0,0,4.35-7c1.68-3.22,3.23-6.78,4.74-10.5.6-1.49,1.2-3,1.79-4.53l1.78-4.62c.6-1.55,1.2-3.09,1.81-4.63q.46-1.15.92-2.3c1.09-2.68,2.23-5.31,3.44-7.82q.51-1.07,1-2.1a50,50,0,0,1,7.92-11.77,14.66,14.66,0,0,1,2.05-1.81,10,10,0,0,1,1-.63c5.29-2.93,9.48,1.83,11.14,9.28a31.78,31.78,0,0,1,.59,3.71c0,.19,0,.37.05.56.08.92.13,1.86.13,2.82,0,0,0,.06,0,.09a37.14,37.14,0,0,1-2.24,13,141.52,141.52,0,0,0-11.75,21.66q-1.65,3.79-3.1,7.7c-1.54,4.17-2.92,8.43-4.1,12.81q-.78,2.88-1.44,5.82a157.37,157.37,0,0,0-3.53,24.32q-.42,6.27-.36,12.73c0,.06,0,.12,0,.18q0,3.13.18,6.31c.14,3,.28,6,.45,9.11v.19c.07,1.2.14,2.41.21,3.6.27,4.29.6,8.48,1.06,12.28.13,1.08.27,2.14.42,3.15q.11.76.24,1.49c.31,1.84.67,3.53,1.07,5l.17.59c1.19,4.06,2.8,6.51,5.06,6.29,1.82,0,3.44-1.11,4.95-2.83,2.21-2.53,4.2-6.49,6.32-10.85l.82-1.69,1.13-2.32.58-1.17q.59-1.17,1.2-2.33l.62-1.15q.63-1.15,1.29-2.27l.67-1.1q.68-1.09,1.4-2.13c.36-.52.73-1,1.1-1.5,4.16-5.48,8.9-9.15,13.32-9.87q.48-.08,1-.11a9.25,9.25,0,0,1,.94,0,8.47,8.47,0,0,1,2.74.55,9.2,9.2,0,0,1,2.55,1.5,11.7,11.7,0,0,1,1.2,1.15q.35.38.69.82a17.16,17.16,0,0,1,1.42,2.13q.35.62.68,1.31t.68,1.54a34.87,34.87,0,0,1,1.31,3.89q-.09,1.08-.24,2.11t-.36,2a30,30,0,0,1-1.32,4.45q-.39,1-.84,2t-.83,1.67q-.79,1.48-1.72,2.9c-.73,1.11-1.52,2.19-2.35,3.27-2.21,2.82-4.77,5.57-7.54,8.49h0a33.49,33.49,0,0,0,12.85-6.95q.73-.65,1.41-1.33c.7-.7,1.34-1.44,2-2.19s1.12-1.42,1.62-2.17a29.24,29.24,0,0,0,1.85-3.17,29.78,29.78,0,0,0,3.15-13.86s0-.05,0-.08a30,30,0,0,0-.25-3.28,29.21,29.21,0,0,0-5.31-13.42q-.54-.74-1.13-1.46a15.19,15.19,0,0,0-2.36-2.32,11.15,11.15,0,0,0-5.87-2.36,22.18,22.18,0,0,0-8.05,1c-.68.19-1.36.39-2,.6l-1.63.5c-1.54.47-3.08.92-4.62,1.26a23.72,23.72,0,0,1-3.67.54,11.57,11.57,0,0,0-.28-2.57,7.18,7.18,0,0,0-.81-2.06,5.63,5.63,0,0,0-1.76-1.81,6.57,6.57,0,0,0-1.5-.75c3-4.54,5.9-9,8.78-13.14q1.44-2.07,2.85-4t2.8-3.79a90.23,90.23,0,0,1,9.23-10.7,28.88,28.88,0,0,1,4.77-3.78,14,14,0,0,1,1.88-1,8.68,8.68,0,0,1,2.45-.67c2.34-.24,4.41.79,6.12,3.42,2.68,2.4,4.79,2.5,6.58,1.21,4.23-3.05,6.63-13.94,10.22-21.17a21.72,21.72,0,0,1,2.36-3.87,8.87,8.87,0,0,1,2.15-2c6.54-2.17,11.21,1,14.44,8.23,9.18,4.22,14.85-.73,20.29-6.27l0,0,1.6-1.64c2.72-2.79,5.47-5.5,8.67-7.07,1,0,2-.08,2.91-.17a42.82,42.82,0,0,0,9.05-1.82,47.18,47.18,0,0,0,7.9-3.3c8.21,6.19,23.65,20.09,32.69,17.65.1.25.2.49.3.72s.28.58.42.84l.24.4a4,4,0,0,0,2.09,1.87,2.88,2.88,0,0,0,.85.13h0c2.07,0,4.42-1.89,7.26-1.61,11.61,1.11,19.42,11.56,8.23,18.81-5,1.16-7.79,5.28-8.67,10.31a22.68,22.68,0,0,0-.16,6.34,26.19,26.19,0,0,0,1,4.86q.25.8.54,1.57c2.56,6.73,7.94,12.24,15.45,12a15.63,15.63,0,0,0,1.77-.15,16.69,16.69,0,0,1-10.29-9.17,13.54,13.54,0,0,1-.66-8.61c1.48-5.93,4-8.26,7-8.4h.62l.63.06c3.19.42,6.87,2.84,10.59,5.84,5,5.29,11.71,18.89,14.9,15.88h0a7.87,7.87,0,0,0,.75-.83,11,11,0,0,0,.7-1c3.13-5,4.6-15,5.85-23.16,5.69-15.41,13.5-15.56,18.88-7.36q.3.46.6,1a30.92,30.92,0,0,1,2.15,4.51q.42,1.09.8,2.27.48,1.5.88,3.14a61.82,61.82,0,0,1,1.68,12.65h0c.47-5.25.76-10.36.73-15.11q0-2.42-.15-4.71c-.11-1.95-.3-3.81-.56-5.57q-.1-.67-.22-1.32c-.14-.78-.3-1.54-.48-2.28a27.44,27.44,0,0,0-1.54-4.67,18.14,18.14,0,0,0-1.17-2.22q-.37-.6-.78-1.14c-.25-.33-.51-.66-.79-1a10.82,10.82,0,0,0-3-2.3c-7.64-4-14.38-.68-19.69,7.61a43.88,43.88,0,0,0-2.19,3.85c-1.08,3.74-2.14,5.06-3.16,4.88l-.08,0a1.43,1.43,0,0,1-.42-.19,2.28,2.28,0,0,1-.31-.23l0,0a9.46,9.46,0,0,1-1.78-2.85c-.13-.28-.26-.58-.39-.88-.26-.61-.51-1.26-.76-1.93l-.19-.51c-.37-1-.74-2.09-1.11-3.13l-.18-.52c-.22-.63-.43-1.24-.65-1.84l-.24-.66-.3-.79-.12-.3-.2-.5-.24-.57c-.17-.39-.34-.74-.5-1.05l-.17-.3c-.44-.76-.87-1.22-1.29-1.23a46.52,46.52,0,0,0,1.73-6q.22-1,.39-2,.35-2.08.51-4.15t.14-3.83s0,0,0,0a39.18,39.18,0,0,0-3.44-16.28,29.38,29.38,0,0,0-1.62-3,26,26,0,0,0-1.68-2.39c-.42-.53-.85-1-1.3-1.53a19,19,0,0,0-14.23-6.31c.13-2.52-.48-4.17-1.62-5.23a6.27,6.27,0,0,0-3.63-1.48c-.38,0-.78-.08-1.19-.09a20.64,20.64,0,0,0-2.31.08c-1.21.1-2.49.3-3.82.54a13.37,13.37,0,0,1,0-2.52,20.43,20.43,0,0,1,1.35-5.56c.71-1.87,1.6-3.73,2.49-5.59l.54-1.12c.3-.62.59-1.25.87-1.88s.61-1.38.89-2.08q.17-.42.32-.85c.13-.35.25-.7.36-1.05s.27-.88.38-1.32a15,15,0,0,0,.46-5.38,15.12,15.12,0,0,0-.34-1.88l-.09-.37q-.14-.53-.31-1.08t-.45-1.32q-.18-.5-.38-1c-.15-.38-.31-.77-.48-1.15l-.38-.83c-.26-.55-.53-1.11-.82-1.66-.43-.82-.89-1.64-1.36-2.42a32.82,32.82,0,0,0-2-2.92c-.34-.45-.69-.87-1-1.26-1.57-1.77-3.18-2.94-4.59-3a2.46,2.46,0,0,0-.91.11q-.6,0-1.18,0a22.12,22.12,0,0,0-5.45.71l-.53.15a25,25,0,0,0-2.9,1,42.86,42.86,0,0,0-12,8.19l-.17.15q-.92.84-1.83,1.73l-.05.05c-1.79,1.74-3.57,3.6-5.37,5.52l-.88.94-2.51,2.72c-1.72-5.74-9.11-6.57-15.12-8.7l-1.18-.45c-3.09-1.24-5.66-3-6.64-6.13s-.36-7.74,2.91-14.7c-.16-.58-.3-1.18-.42-1.8l-.08-.41a38.46,38.46,0,0,1-.53-4.09c-.12-1.56-.17-3.18-.17-4.85q0-.61,0-1.23c0-1.66.09-3.35.19-5.08q0-.65.08-1.3c.58-9.08,1.8-18.74,1.15-26.69l0-.19q-.09-1-.22-2c-.06-.41-.12-.81-.18-1.21a26.07,26.07,0,0,0-1-4,18.89,18.89,0,0,0-.71-1.8,15.63,15.63,0,0,0-.88-1.65c-.23-.37-.48-.73-.74-1.08a12.66,12.66,0,0,0-.91-1.09c-2.69-2.84-6.76-4.42-12.81-4.19a159.68,159.68,0,0,0,.9-25.08c-1-18.18-6.87-29.13-19.68-29.49q-1,0-2,0a33.76,33.76,0,0,0-6.57,1.05,21.31,21.31,0,0,1-1.59-2.5c-2.18-4-3.71-10.39-3.06-24.54a40.19,40.19,0,0,0,5.21-3.34c.63-.47,1.25-1,1.86-1.48a50.16,50.16,0,0,0,3.7-3.42,59,59,0,0,0,4-4.59,73.48,73.48,0,0,0,5.92-8.75q1.08-1.86,2.08-3.81a107,107,0,0,0,9.39-26.91c.58-2.81,1-5.6,1.39-8.34q.13-1,.23-2c.21-2,.35-4,.42-6q.07-1.94,0-3.81t-.14-3.65c-.12-1.78-.31-3.49-.57-5.11q-.26-1.62-.62-3.13t-.82-2.88c-.24-.72-.51-1.4-.79-2.07s-.52-1.18-.81-1.72q-.3-.57-.63-1.11a14.73,14.73,0,0,0-2.6-3.18,11.59,11.59,0,0,0-1.33-1.06,10.68,10.68,0,0,0-6.42-1.79,48.81,48.81,0,0,1,0-6.87c1-15.43,9.57-26.73,19.59-37.21,9.76-9.82,15.53-38.83,17.2-69.33q.1-1.76.17-3.52c1.83-41.16-3.77-83.78-17-84.65a6.88,6.88,0,0,0-2.35.27l-.6.15q-.66.17-1.27.28a12.4,12.4,0,0,1-2.39.22c-6.39-.13-7.65-6.54-5.81-15.7a96.23,96.23,0,0,1,6-18.16q.69-1.61,1.43-3.24c1.24-2.71,2.57-5.44,4-8.14l.85-1.62q.86-1.61,1.76-3.21l.9-1.58q.91-1.58,1.83-3.12l.93-1.53c4.06-6.58,8.35-162.11,12.39-166.55l9.93-27.34a7.85,7.85,0,0,1,3.46-2.75l.78-.31,1.05-.36c.87-.29,1.75-.55,2.6-.9l.68-.3.58-.3a7.47,7.47,0,0,0,2.51-2.27,15.78,15.78,0,0,0,1.81-3.92c.17-.52.34-1,.5-1.6.26-.88.5-1.79.73-2.71s.53-2.11.8-3.15c.17-.67.35-1.33.54-2l.23-.77a18.65,18.65,0,0,1,2.19-5.12,4,4,0,0,0,2.82-.61,5.45,5.45,0,0,0,.46-.32,6.67,6.67,0,0,0,.59-.51,14.55,14.55,0,0,0,2.69-4.09c2.88-6.06,5-16.35,7.16-27.36l1.3-.58c6.44,4.74,15.24,13.4,24.82,11.52,6.8-1.34,13,3.17,17.63,3.21,8.91.08,8.23-4.64,16.75-11.52,6.51,11.9,13.76,6.09,21.21-4.31,14.53,15.57,23.71,4.6,31.28-14.3,21-5.53,21.09-24.86,31.63-37.29q10.66-8.1,17.67-22c10.66,23.57,21.93,38.8,36.07,14.35,5.76,11.13,12,17.65,15.13,16.65,2.63-.83,12.92-10.65,23.77-23.23,29.25,17,48.83,15.46,46.07-28.86l14.08-33.21-24.31,2.88c-6.12-9.17-7.06-19.72-5.43-30.94a63.68,63.68,0,0,0,33.47-8.26c12.65,24.64,24.79,27.64,36.25,2.86,10.44,8,21.94,13.27,37,9.09,11.83,17.47,30.64,19.93,54.46,11.59,28.25-9.07,11.91-28.48-1.69-47.25,21.62-6.75,16.57-17-.32-28.83,5.89-.82,47.07.94,29.67-15.28C405.69,982.82,424.49,971.07,421.53,966.64ZM-88.29,1177.3c0-.61-.07-1.23-.13-1.84,0-.29-.05-.59-.08-.88a53.64,53.64,0,0,0,1.3,5.44c-.38.66-.76,1.37-1.14,2.18A38.48,38.48,0,0,0-88.29,1177.3ZM-278.63,1279a5.85,5.85,0,0,1-1.66-.33,7.2,7.2,0,0,1-2.39-1.52l-.14-.11c-5.17-4.82-9.91-17.91-14.84-27.41l-.7-1.32c-.39-.71-.77-1.41-1.16-2.07a28.92,28.92,0,0,0-3.25-4.59,8.55,8.55,0,0,0-3.36-2.48,55.84,55.84,0,0,1-.39-10.85c.06-1.57.12-3.14.17-4.71.05-2.09.06-4.17-.09-6.22-.07-1-.19-2-.35-3.06-.48-3-2-5.82-3.39-8.65-.46-.95-.91-1.9-1.3-2.85a21.51,21.51,0,0,1-.75-2.14,15,15,0,0,1-.41-1.77h0l-1.8,3.06-2.86,4.87c.36,1.33.68,2.64,1,3.93l.21,1q.37,1.75.66,3.44a55.07,55.07,0,0,1,.8,8.29,29,29,0,0,1-2,11.67q-.3.72-.66,1.41-.29-.36-.57-.77a34,34,0,0,1-3.14-6.19c-.49-1.19-1-2.44-1.46-3.7-.8-2.09-1.6-4.21-2.43-6.16-.33-.78-.67-1.53-1-2.24s-.57-1.13-.87-1.66a17.76,17.76,0,0,0-1.15-1.8,8.12,8.12,0,0,0-1.82-1.87c-1.74-1.22-3.75-1-6.19,1.47a46.68,46.68,0,0,0-3.6-5.67c-3.85-5.27-8.26-9.62-11.54-15.8-2.27-4.28-3.84-9.73-5.41-15.14-.67-2.32-1.34-4.63-2.06-6.83a57,57,0,0,0-2.33-6.09c12.13,7.34,21.49,2,28.5-14,23.17,26.52,41.8,41.47,40.25,5.11,16.72,10.94,31.3,18.07,33.83,3.84,3.24,5,6.4,9.87,9.24,15q1.2,2.16,2.33,4.38a95.56,95.56,0,0,1,4.09,9.25,87.08,87.08,0,0,1,3.94,15.29q.21,1.15.4,2.31c1,6.18,1.76,12.44,2.64,18.07a175.81,175.81,0,0,0-3.76,17.82q-.11.7-.22,1.4c-1,6.16-1.68,12.5-2.22,19-17.15-11.68-23.11,3.66-29.4,12.31l-.42.57q-.42.56-.85,1.06l-.43.49C-274.68,1277.91-276.5,1279.14-278.63,1279Zm80.92-96.52c-6.92,1.07-13.77,2.91-20.39,7.91.81-2.31,1.56-4.71,2.24-7.18a112.07,112.07,0,0,0,2.6-11.94c5.62.78,10.94.22,16.12-2.89a30.36,30.36,0,0,1,11.07-3.92q-2.06,8.53-4.71,17.11l-1.5.18c-1.23.15-2.47.3-3.7.47Zm71.5,56.11a8.38,8.38,0,0,0-4.41-1.6,6.46,6.46,0,0,0-2.11.28,7.73,7.73,0,0,0-1.48.65,12.11,12.11,0,0,0-3.06,2.51q-.44.49-.88,1a35.59,35.59,0,0,0-3.91,6.5c-.4.82-.79,1.67-1.18,2.58q-.88,2-1.73,4.37a204.63,204.63,0,0,0-7.19,26.08c-1,4.58-2,9.46-2.92,14.6q-.19-2.71-.42-5.33-.33-3.78-.75-7.36l-.07-.59q-.28-2.31-.6-4.54t-.74-4.63q-.4-2.26-.85-4.4c-3.15-15-8.4-25.4-17.06-28.39,1.37-6,4.31-12.31,7.15-19.35l.65-1.64a98.19,98.19,0,0,0,4.52-14.2q.22-1,.41-1.93.39-2,.67-4c.28-2,.47-4.13.55-6.29a64,64,0,0,0-.3-9,68.35,68.35,0,0,1,2.71-15,88.61,88.61,0,0,1,11.57,6.07c7.59,4.71,34.11-14.62,40.84-14.95,5.9-1-5.08,33.32,6.68,22.24-1.87,13.75-5.35,24.74-10.57,32.74-5.41,1.92-9.59,7-12.73,14.82A70.46,70.46,0,0,0-126.21,1238.63Z"/></g></g><path id="mappathid" class="cls-6" d="M259,2042.41c-4.62-21.64-7.62-44.64-23.62-62.64-13-14-31-7-45,2-27,17-48,47-80,45-6,0-12-4-17-9-9-12-13-25-17-40-9-42-10-82-9-123,3-72,11-141,28-213,0-1,2-3,2-4,1-7,2-13,4-19,4-12,8-23,11-35,3-7,6-14,8-22,2-6,5-11,7-17,11-23,21-45,38-64,1-1,1-3,2-4,15-18,32-32,55-37,11-3,23-4,33-10,8-6,14-12,19-20,13-22,17-47,18-72,4-99-21-193-49-288-5-16-10-30-15-46-14-42-31-81-50-121-9-17-17-32-27-49a226.3,226.3,0,0,0-13-20c-7-8-12-16-20-23-15-11-30-23-31-42-1-45,25-83,46-122,2-4,4-9,6-13,29-50,56-96,80-148a122,122,0,0,1,7-17c1-2,0-3,1-5,13-33,20-68,18-103-1-13-2-25-6-37-17-58-36-113-56-169-2-4-4-9-6-13-16-41-34-82-60.87-117.2"/></svg>