<svg id="Layer_1" data-name="Layer 1" xmlns="http://www.w3.org/2000/svg" width="360" height="2334.67" viewBox="0 0 360 2334.67"><defs><style>.cls-1{fill:#2358a5;}</style></defs><title>path_ice_1</title><path id="mappathid" class="cls-1" d="M149.55,2331c64.49-44.42,107.66-114.83,122-191.51a313.41,313.41,0,0,0,5.43-57.24c0-9.89-1-16.66-5.67-25.48s-10.62-16.47-16.61-24.21c-12.63-16.33-25.7-31.86-42.35-44.37a286,286,0,0,0-57-32.73,199.54,199.54,0,0,0-26.83-9.62c-10.52-2.89-26.8-1.55-31.35-13-8.6-21.7-.83-40.63,15.92-55.39,13.77-12.13,31-19.73,47.68-27,17.87-7.85,31.5-19.32,44.68-33.83,26.88-29.6,47.42-67.47,54.61-106.94,8.89-48.76,2.82-96-12.44-142.92-14.7-45.23-38.46-86.13-64.92-125.45-7-10.47-16.8-21.28-21.41-33.06-4.46-11.38-6.66-24.38-9.26-36.3a563.82,563.82,0,0,1-11.1-76.68c-3.81-49.71-1-98.65,5.34-147.87s19.85-95.4,36.68-141.8a610.46,610.46,0,0,1,27.09-64c10.49-21.09,23.81-41,32.1-63C258.56,834.82,272,790.44,277.67,744c4.6-37.53.24-86.1-35.34-107.87-14-8.54-30.71-11.33-46.86-11.55-11.1-.15-19.43-.27-28.79-7.26-10.51-7.85-17.54-19.16-21.64-31.5-7.8-23.46-4.93-47.91-.53-71.67,4.33-23.4,5.42-45,1.09-68.45-8.73-47.39-30.71-91.07-39.46-138.45-5.08-27.5-4.17-52.54,9.43-77.45,11.26-20.64,17.86-40.38,23-63.31,5.35-23.72,8.77-44.8,27.7-62a101.57,101.57,0,0,1,27.23-17.59c7.24-3.22,17.61-5.87,20.71-13.89,3.47-9,6-19.2,9.07-28.49C227.36,32.43,231,20.17,234.59,7.9c2.18-7.42-9.4-10.6-11.57-3.19-3.4,11.59-6.83,23.17-10.63,34.63q-2.67,8.07-5.6,16.05c-1,2.66-2.27,5.28-3.05,8-.25.87-.56,5.17-1,5.82-2.09,2.83-8.61,4.45-11.74,5.85-5.32,2.37-10.6,4.58-15.57,7.67a112.07,112.07,0,0,0-22.68,18.32c-14.85,16-19,33.27-23.8,53.85-2.7,11.62-5,23.34-8.38,34.8-3.58,12.25-9.27,22.9-15.34,34C56,313.86,150,407.23,134.83,500.4c-6.49,39.8-15.06,86.58,16.24,119.08a61.84,61.84,0,0,0,21.56,14.89c8.27,3.27,15.68,2,24.38,2.23,18.52.46,38.32,5,50.82,19.74,30.27,35.67,19.47,92.79,9.56,134.38a641.06,641.06,0,0,1-21,68.7c-8.72,24.19-21.21,45.58-32.88,68.38-41.64,81.36-68.3,172.11-74.65,263.43-3.41,49-2.34,98.41,4.85,147.08a505.35,505.35,0,0,0,15.94,73c3.22,10.58,11.59,19.68,17.77,28.77,6.91,10.14,13.72,20.35,20.28,30.72,51.75,81.71,89.36,187.83,45.89,281.32a222.15,222.15,0,0,1-34.31,53.2,209,209,0,0,1-21.88,21.48c-7.94,6.72-16.23,10.25-25.64,14.42-28.26,12.52-66.89,32-70.63,67-1.35,12.65,2.55,34.4,14.37,41.88,7.67,4.85,19.24,4.47,27.87,6.73a188.51,188.51,0,0,1,32.89,12.1c20,9.45,40.83,20.8,57.34,35.63a258.19,258.19,0,0,1,41.55,48.7c7,10.55,9.91,19.69,9.75,32.39-.13,9.91-.72,19.82-1.84,29.66A303.48,303.48,0,0,1,250,2175.23c-12.61,38.71-33.09,75.1-60.54,105.25a267,267,0,0,1-46,40.15c-6.32,4.35-.33,14.76,6.06,10.36Z"/></svg>