<svg id="Layer_1" data-name="Layer 1" xmlns="http://www.w3.org/2000/svg" width="360" height="2287" viewBox="0 0 360 2287"><defs><style>.cls-1{fill:none;stroke:#2358a5;stroke-miterlimit:10;stroke-width:12px;}</style></defs><title>path_ice 1</title><path id="mappathid" class="cls-1" d="M146.5,2278.41c29.22-19.81,53.22-44.81,74.22-74.81l9-15c17-30,29-60,36-95,4-24,7-46,5-69,0-3-1-5-2-8a243.85,243.85,0,0,0-58-70c-19-15-40-25-62-35-16-7-33-9-50-14-9-9-11-23-12-35,7-36,44-54,75-66,3-1,5-3,7-4,1-1,3,0,4-1,51-39,80-95,86-156,2-30-2-59-9-89-1-3-2-5-3-8-6-22-13-43-23-63-19-38-41-73-66-107-26-80-29-165-21-249l3-12c3-38,12-75,23-112,9-28,20-55,31-82,12-26,26-49,38-74,11-23,18-47,26-72,7-26,12-51,14-77,3-26,3-52-12-76-2-2-3-4-5-7-17-23-45-26-71-24-25-4-42-27-47-51-2-11-4-21-3-32,2-20,7-40,8-60,4-52-20-98-34-147-9-33-18-67-5-99,6-14,16-27,21-42a56.38,56.38,0,0,1,4-12c5-18,8-36,12-55a48.75,48.75,0,0,0,3-7c11-25,36-39,61-50,1-1,3-2,4-3,2-6,3-12,5.53-17.88"/></svg>