<svg id="Layer_1" data-name="Layer 1" xmlns="http://www.w3.org/2000/svg" width="360" height="2235.42" viewBox="0 0 360 2235.42"><defs><style>.cls-1{fill:none;stroke:#2358a5;stroke-miterlimit:10;stroke-width:12px;}</style></defs><title>path_ice 2</title><path id="mappathid" class="cls-1" d="M263.83,2226.84c1.55-16.31.55-31.31.55-47.31-1-9-1-18-4-27v-5c-2-11-5-21-11-31-30-52-27-112-8-167,6-19,8-39,7-59-1-12-2-25-6-37-11-36-30-67-44-101-3-6-6-11-8-17-1-2,0-3-1-5-25-62-37-128-33-194a338.42,338.42,0,0,1,26-113c9-21,19-39,32-59,8-13,13-27,19-41,1-3,3-5,4-7,3-9,5-17,9-26,4-13,7-26,11-39,3-12,4-23,6-35v-8c9-58,0-116-19-170a294.15,294.15,0,0,0-40-74c-32-101-39-212,1-312,1-2,3-4,4-6,7-29,27-50,41-74,2-13,1-26-4-38-28-58-74-100-116-149a147.15,147.15,0,0,1-33-55c-3-10-5-20-4-30a86.48,86.48,0,0,1,6-23c4-7,9-13,14-19,23-22,54-27,82-39,7-4,13-10,18-16a30.39,30.39,0,0,1,5-7c35-61,10-130-15.14-187.54"/></svg>