<svg id="Layer_1" data-name="Layer 1" xmlns="http://www.w3.org/2000/svg" width="360" height="3094" viewBox="0 0 360 3094"><defs><style>.cls-1{fill:#fff;}</style></defs><title>path_Peru-02</title><path id="mappathid" class="cls-1" d="M161.32,3080.21c-7.33-16.76-16-42.69-21.79-63.16-11.58-41.1-20-85-15.1-127.86,5.23-45.81,28.94-77.82,72.77-92.58,22.29-7.5,41.28-21.95,36-47.86-5.6-27.59-28.09-52-45.18-73.21-24.69-30.65-50.45-60.56-71.65-93.83-20.91-32.83-38.73-70.39-37.05-110.23.87-20.65,7.53-40.46,18.19-58.08,6.47-10.7,16.39-26,25-31.9,12-8.21,24.75-13.4,36-23.45,21.84-19.54,37.77-45,48.8-71.93,18.38-45,23.34-94.76,21.92-143-2.28-77.08-25.43-150.61-33.29-226.94-16.47-160,15.86-318.09,23.38-477.46,3.45-73.13.78-147-16-218.49-9.28-39.61-24.69-76.44-38.81-114.43A1139.23,1139.23,0,0,1,125.79,979a1340,1340,0,0,1-36.6-263.18c-3.43-84.63,1.84-170.74,27.06-252,12.45-40.15,29.4-79.38,58.71-110.12,24.11-25.28,47.64-47.21,59.36-81,24.38-70.43,9.06-142.48-35.92-200.83-19.59-25.42-43.17-47-68.77-66.24-7.72-5.8-15.2,7.22-7.57,13C180.18,62.13,230.73,125.16,231.6,201c.47,41.2-12,83.43-40,114.07-24.33,26.59-48.43,49-64.91,81.72-37.09,73.56-50,159.07-52.84,240.62-2.92,83.23,4.44,167.18,17.93,249.29,14.19,86.41,37,171.34,69.76,252.58,29.05,71.95,42.28,147.55,43.93,225,3.33,155.92-31.13,309.91-29.28,465.87a929.4,929.4,0,0,0,8.26,115.26c5.68,41.45,16.43,81.87,22.78,123.19,9,58.63,11.8,120.44-2.88,178.41-12,47.35-38.38,97.08-84.19,119.28-3,1.47-1.37.41-2.69,1.19-4.42,2.61-7.54,5.66-11.14,9.61-14.73,16.2-27,34.67-34.42,55.35-12.87,35.78-8,74.21,6.18,108.78,29.19,71.18,88.86,120.53,128.64,184.65,10.52,17,21,39-1,51.12-16.49,9.11-35,11.71-50.64,23.16-15.82,11.57-27.55,27.36-35.05,45.38-16,38.37-13.58,82.35-7,122.51,5.81,35.22,15.84,69.85,28.57,103.17,2.12,5.56,4.32,11.1,6.7,16.55,3.86,8.82,16.78,1.2,13-7.57Z"/></svg>